<mxfile host="app.diagrams.net" modified="2021-03-11T02:27:02.486Z" agent="5.0 (Windows NT 10.0; Win64; x64) AppleWebKit/537.36 (KHTML, like Gecko) Chrome/88.0.4324.190 Safari/537.36" etag="gymXGKlJAl8YBhesWqPU" version="14.4.7" type="github">
  <diagram id="C5RBs43oDa-KdzZeNtuy" name="Page-1">
    <mxGraphModel dx="920" dy="514" grid="1" gridSize="10" guides="1" tooltips="1" connect="1" arrows="1" fold="1" page="1" pageScale="1" pageWidth="827" pageHeight="1169" math="0" shadow="0">
      <root>
        <mxCell id="WIyWlLk6GJQsqaUBKTNV-0" />
        <mxCell id="WIyWlLk6GJQsqaUBKTNV-1" parent="WIyWlLk6GJQsqaUBKTNV-0" />
        <mxCell id="pwtZONOBa_71WgFx0hv7-1" value="" style="shape=image;verticalLabelPosition=bottom;labelBackgroundColor=#ffffff;verticalAlign=top;aspect=fixed;imageAspect=0;image=data:image/png,iVBORw0KGgoAAAANSUhEUgAAAvYAAANFCAYAAAAQyLhPAAAgAElEQVR4AeydP2sby/v2911sKXBjSBFXFnybiFNEkOIIDBGkMOIURikOwsVBpDBLCrOkiJ5TBOEisIYDchGQiyA3AbkIchGQi4ACKbZIsUVg4edCb+B6mJ2Z1ew/W3L8R1auItiRV7sz9/2ZmWtm77nH+r//+z/wH21ABsgAGSADZIAMkAEyQAYeNgPWdDoF/9EGZIAMkAEyQAbIABkgA2TgYTNAYc+JDSd2ZIAMkAEyQAbIABkgAyvAAIX9CjiRs+uHPbum/+g/MkAGyAAZIANk4CYYoLCnsOcMnQyQATJABsgAGSADZGAFGKCwXwEn3sQMj/fgSgEZIANkgAyQATJABh42AxT2FPacoZMBMkAGyAAZIANkgAysAAMU9ivgRM6uH/bsmv6j/8gAGSADZIAMkIGbYIDCnsKeM3QyQAbIABkgA2SADJCBFWCAwn4FnHgTMzzegysFZIAMkAEyQAbIABl42AxQ2FPYc4ZOBsjAbTFwEWB83EHzaQnO6cMeLDjY039kgAyQgeVngML+tgZ03pdikQzcGwOj1zYsy1roX+tjeLPl/T5A500bjU1ZjquFvQ9vq6DMWx588nSz/qE9aU8yQAZWkAEK+xV0KmfUyz+jpo9u10fDPQvlf/rwQ+M5p44S+g6GRrsPvw/gPLNRO/RvZZAbvdmInnu1sFdl/TGAoyYD1uM2Bj+MOhjlJkO0CxkgA2SADKQZoLDnQHkrYiYNGv/PzucuGRi+cTFKt+0CYR+V62sX7VsS9v5hbTFhP51CTEyiNw57Q7bPtB/5fzJBBsgAGShkgMKecBTCcZdCjM+i8L85BkIMjgYI0237MmE/HaH33+2s2FPYk+2bY5u2pC3JABm4nAEK+/Tgz/9T6JOB1WTgUmF/eUf5KwMJhf3t2fZX/MLv0i9kgAysIgMU9hRxqyni6Ff6Nc3AvMI+GMPbraG8JsNhSk+b6HwKcu3pn3TQfLYOO9qoW0J5qwXvS/LapLAPMNyvY922YNnrqL8dZd8sXBaK82OM/kEL9Ud1eN+nmP4UZa3K+61V0fowyZQzPPfQ0mVcK6O200b7hRvtM9Bl0xuNZ/sAhnDMzcdmSFDoY3RkZPr51kfriQ1rrQr3s9qA/HOM3l4jtqEVPbeLUZAUEsF5H93dOtZfyM3BZllLT1vof0teLwfhAOMjB43NkgxXstdR2XYx8HOuXcCXqzjAs045TKT7Bf4/02eQm4fNDYU9GzUbNRn4PRiYR9h/81AXAvVUifMfQ7jPRIadEprHpmAPMXxdgb3ZRv+7ErM/Bmg/FpOBMhwtcKdTaPHsHI/R3W2iczTA4KijsuXYaJ9ks/Hkxtif99E7dFAVkwKrBu9TH62dFrrR/fTnVXS/GoPSjz6adhnOiSp76KP/TxmWZWwgvhij81ROYmbCXt5jciD3B1ha2H8fwDvsoqkz/RwP4e600IpsZGHjzQjT6Qiu+PtWB2Ml5P0PLWyIicLTLiaqvY2Pe/BeV+WkaMvD8EMLzd0ueicD9PTnxvVSbEzQ2y7BftHFSG0qDr92URP3tuvoicmObs9z+9L4jv4uf87sSFvQFmTgQTFAYU9gHxSw8aBNv9FvizJwpbCXgrRxZAr4KaZfu6hEwrGNgcqyE3xowrZSInoaYrRfgW2V0DImAVrYV/7ux6JWcBx+bEUrzvZrIYaT4jJX2EfXBOjvCBFeQuNgnFjtn7yrRPczs/v4/9Vh/a+DceL+E3SfGsLeeEOQFvZTbTMt7NV99LM2dnqqTgEmpyP4F1Po75jliMR+NOlpJzISTYM+msK2aw10z80JzgTdP9QExhDrozdlWHYLg5+mvfxI7Ft2BZ0v+vP5fZm2Pf+vbcifZIEMPEQGKOwTAx4hfogQs8zkdi4GtEg1V6vN9n/qwLbq6GVCOnRYig3ns7C1EMYWrD+9hFAvKoMW9hnR/N2TK80p0SzuUyzs9d9qMhQnVX4RUlN7PwvHERMQy9pA60NyY7B/6CUEtn5epozaZqky6jq1P+Ww99VDzU5ObqZTnaM/XW5l25w8/bJMNXg6HCccoC3eVryaI1PQ3L7MKb9pU/6emXQWcc7PyRIZWA4GKOzZcbPjJgO/BwNapBYIey1Wdbx53s9oFVqvMqfEbtGgpu+bEc1a2O9mM/hooR2HwBiMxoLXWMmOnq3rZ5YrHMEV8e+WhdKWA+80KfB1mfXzMmXMu6cZXnTlaboh/FMPznO9D2FRYW/NTuw9c6NwnuSbgPyBVNs8z4f6s3nuo+3Dn/l2pl1oFzKwfAxQ2BsDJgFdPkDpE/rkxhjQIrVA2Etx24rDbQqfqwX5i95cp8FqkZkRzfo+havVFn5Z2Ef9W4DRQQuVKDbfgv0ku8H35oV9gPFhC9VH66jveRh+n6hTdX9B2Cv/5YUupX01ty/Z//8ek3r6mX7+jRigsP+NnJ0e/Ph/iubfioErhP3kvdgougH37Aou/B7qUcx9Mk69yJb3L+xVfS58DGOBX4ZzOotpv1Fh/3MI54kdbXDVm2evH4pjrNh/FqFSYlOuzKBTZG/x+dy+ZP9PwUcGyMCKMUBhv2IOvWyw49+uEGxkYbU7+CuEfXjSjoSj/aIgdv6bh+6JYEhv7LTR/JDaaBsxFKB/0EegeLpPYe8fdrNvIM47qAqBvDMr400K++GeCP2pJLPzXDvG3hD24QAtUW6rXDD5GqF7IDciz+9L9gkcF8gAGVgtBijsKeZWW8zRv/SvZuAKYR+naYzi0V0MvukV7RDBmYfmk1lWHC3WLVvkbjfE/UWA4ZtaIoWlXD220Pqo76cGkeuG4rzKZouJBmZdPyPGXpSz+m62mVYO4GN0/pcU9jrLTTIjUIDRm6rMFZ/asKrrn6lTLOBTbz5ESk0zy83PUGX0GaJdsAqfnWyEGO5tyPJsNtHTm2qFf8MJei8bxmRCpdycw5cUNaslauhP+vN3Z4DCXg/6/EkBSAZWmIEAwz2Rv12I4g20dV73lM/DM1fliRfXmf+SoSti1d57ITeliutKmxVU/qhEB0WV94azNJQXE3S35H02Xg3iVXwx8ATHLRla8riNgXlw048BHJUn3tp0MFD52qPBKhzCidJGWmim0nKO/1UifKuLiUg7GW9yFakxRwhUqk7/uI2yyLVvhOJMz1yURX3tKtqH/SjPfnPbxfDYkXawq2jtd9AXOfIvfPR2ZN3tnZ5McWnYcfxW2XmzEeXs7x2I/PQOWpGw30DrfQ/untyfEJ46Mr+91UTPrKeRW792YExMRJiPto1lY/2JsHsZJctG/dC4TqQTnduXFEK/uxBi/dkGVokBCntjQFolx7Iu7KjIgCluTZGuf09v5FTM+AN0dtRprlYJ5W0HvUSOdc2W2JTaRPWRyjqz2YB7PJmJer0in5ggiGfq9Jm6HPKnc6pTQiY/jyYYIq5cr8gn7ifi/PPuJ+vmHzZQ/qOCij6lVYjhZ9nNs4KVyYcWquK0XXsd1d2enByItJGP6nAOh/DFxCC3Tka4TNSfTtDfraJkWbAfVdE6lPn2/aMGSlYJ1V2Zz1+vyCcmUOJtQ149zbj6iwn68am2sj5d862J2afP7UvtU/5kv0EGyMDDZoDC3hwE+PsKr9g+7IbKjpb+IwNkgAyQATJABq5igMKeYp5ingyQATJABsgAGSADZGAFGKCwXwEnXjV74985wycDZIAMkAEyQAbIwOozQGFPYc8ZOhkgA2SADJABMkAGyMAKMEBhvwJO5Ax89Wfg9DF9TAbIABkgA2SADFzFAIU9hT1n6GSADJABMkAGyAAZIAMrwACF/Qo48arZG//OGT4ZIANkgAyQATJABlafAQp7CnvO0MkAGSADZIAMkAEyQAZWgAEK+xVwImfgqz8Dp4/pYzJABsgAGSADZOAqBijsKew5QycDZIAMkAEyQAbIABlYAQYo7FfAiVfN3vh3zvDJABkgA2SADJABMrD6DFDYU9hzhk4GyAAZIANkgAyQATKwAgxQ2K+AEzkDX/0ZOH1MH5MBMkAGyAAZIANXMWD9v//3/8B/tAEZIANkgAyQATJABsgAGXjYDFiWZYH/aAMyQAbIABkgA2SADJABMvDAGTg+Pgb/0QZkgAyQATJABsgAGSADZOBhM8AYe8bYc7MMGSADZIAMkAEyQAbIwAowQGG/Ak68aiMF/87NNmSADJABMkAGyAAZWH0GKOwp7DlDJwNkgAyQATJABsgAGVgBBijsV8CJnIGv/gycPqaPyQAZIANkgAyQgasYoLCnsOcMnQyQATJABsgAGSADZGAFGKCwXwEnXjV74985wycDZIAMkAEyQAbIwOozQGFPYc8ZOhkgA2SADJABMkAGyMAKMEBhvwJO5Ax89Wfg9DF9TAbIABkgA2SADFzFAIU9hT1n6GSADJABMkAGyAAZIAMrwACF/Qo48arZG//OGT4ZIANkgAyQATJABlafgfsX9uEI7hMb9hMXo3D1Dc5GRR+TATJABsgAGSADZIAM3AYD8wn7UweWZRX+K21WUNvpoP81WPw1DoX94jbjWwbajAyQATJABsgAGSADZCDFwHzCXn0p+NjGhhL47Y+hNOZFiMmJg6othL+N+rsxwtRDbmNG8sv3/NpF95SzxV+240PwNcvIjo8MkAEyQAbIABn4DRhYSNhPp0M4Stg7KVEcfmzBjv62AedUif4lNuDkXRXpOlDkcqJDBsgAGSADZIAMkAEy8FAZuDFhH4n+aNXegrU7WO5V++891G2Lwn6JJ14PtUGx3BwMyAAZIANkgAyQgfti4AaFvQ9vS8Xhb3nwl1U0/hyj+8KO9gtwxZ4N774aHp9L9sgAGSADZIAMkIGbZuAGhf0I7mMl7PWKfehjdNRB82lJro5/66P1xIa1VoX7WYbrhN+G8PbqWLcdDKPJgDFBMDbsmiJ8uGds5DUmEeF5D852GSX1vdJmDc2DEQI9yfiunm/cN9oUbNwjMrA/gLtdwbraN7D+3EHvPB1e5KO3XYK11kDvG8G8aTB5PzJFBsgAGSADZIAMkIHFGLgxYR+eOmpjrY3mhwDT7wN4h100N6UId46HcHdaaD2Tq+Ubb0YYH/fQe1tXsfla2E8xvQgweqc/b6L/M1upyUEN5b3hTLSfuShbFmr/juVnFz76uxvRynz1YJLYMOIf1gpX7EU9yptN9L6qicfXnqyDXUHnzCzHbL9B/T8/cX9CaNqJv5MHMkAGyAAZIANkgAzcBQPXFvbt49kKdnDWjWLWxep3abuHiV4hn04xeVeJRPTGjv48wOR0BP9CO3iIdrSCbgj76PsTdJ+KSUEV3a/6Wv0zQG+7gd4P/f8p5Cp+Dd732WfTM1dONl4NE8K7UNj/6KNpb8BNCPgpxMbgaGX/aTdRt+BTF+6BMbkw6n0XzuMzDF/T9gnGyQbZIANkgAyQATLw+zFwbWEvctdXNktS8Fo21p804Byp1XJDZGkR3f5UZFy98p0W9lMERw05KdgfJUXL1y5q/yQ36E7e12CvtdAPjOd891ATk4ZUqI0ukxneI+CPPrcdjIzyR41C38eqo+cb909fx/8n/UR70B5kgAyQATJABsgAGbgzBq4t7NOiuGhWWCSiZ9cXC/tpOEBbxLnbLQzicJwQw716ziq+IbhDH8NDB/VHMuxnXmGfiN1Px+Gr/89b71n9jHIR7DsDm/Ynd2SADJABMkAGyMDvxsByC3sRynNQjVbt4zj5Hz00tnuz2HpTLAdjeLtVrD+qwzkcwv+6yIq92rT7RzLc5ncDgvVlJ0gGyAAZIANkgAyQgYfJwNIL+6kQ8mK1/LGDYSiEfg3tk1l8vwZPbHqt2PLk21kWnEWE/RTDVyKmPxm7r+/Pnw8TcPqNfiMDZIAMkAEyQAZ+FwaWX9hPReiNzG7TeN+D89TNxsCLE3FFyE56tV3Hxs8ZY6/fDohsO6H5JkD9Hn7qopfZyMvG8rs0FtaTrJMBMkAGyAAZIAPLzMCdCfvWx+wquzTMJTH2Wlx/7aKqYtwbR0E2TlsL+Mcp0f+lg4r4nhL24U9ZBh33H5fphw8/nGIaZcURq/Y2Kn97GP1QZb4IMTlxUP0zGabDrDhs3MvcuFk28kkGyAAZIANk4PdiYCFhH3xsq1z1FqpvjIOftABP/7zw0duRG1jtnZ6R4tIw8nlHifYauoUHPYn0lmITbRsDIcDTz5mO0VH58svbHfROeujuNtF63ZLC/nEL3pEL50jmmw8+NKO4ffuZg96xB2evF5+UO/nQjPLhR+kt1WQi+t2uwzPLF/TRVH9nHvs8n/CzLKe0CW1CBsgAGSADZIAM3B4D8wn7U0eltRSr2cl/tcOCw5n0KnrqejOrTF4WmsL7nbmoptNemgJfnGr7VKTftLH+rAUvOilWnw5bReuDeUjVBP2/K7DFtX91MY4z7khDB1+ME2ztdVR3OhgaOfMlkPrePHmWDfT2GihtS9uSATJABsgAGSAD8zIwn7A3BTR/z3ljQODmBY7XkRUyQAbIABkgA2SADNwOAxT2nKhwokIGyAAZIANkgAyQATKwAgxQ2K+AEznrvZ1ZL+1Ku5IBMkAGyAAZIAMPiQEKewp7ztDJABkgA2SADJABMkAGVoABCvsVcOJDmkmyrFz5IANkgAyQATJABsjA7TBAYU9hzxk6GSADZIAMkAEyQAbIwAowQGG/Ak7krPd2Zr20K+1KBsgAGSADZIAMPCQGKOwp7DlDJwNkgAyQATJABsgAGVgBBijsV8CJD2kmybJy5YMMkAEyQAbIABkgA7fDAIU9hT1n6GSADJABMkAGyAAZIAMrwACF/Qo4kbPe25n10q60KxkgA2SADJABMvCQGKCwp7Bf/hn69x4aaxZK2z349+mvCx+Dt230vl6zkwtHcJ/YsJ+4GIXXvMd91n/Vnx36GB60UF2rwft+tX/C70N0d6sobXn3y+Wlfpmgt9fB8MfV9XlIAxfLSn+SATJABvIZoLC/dFDMNxphumO7LIOw/zGAs9PB6Ocv1P2uhH0whrdbQ3nNgmVZKG3W0DocI7iM9XCAti2vF9/R/+x/Bggv+950Cv/Ug7tTQ+WRHX3POf0FG13xrNtqe8FHF+2/q7Cjul8l7AMM3rTReibray21sBe+CDB4VUf7Y7D8k/h78v9tccX7Pry+gD6jzx46AxT2HEg42F/FwM8hnCctDH5F1F/1jIX/HmJwkPMG45uHuhDo9joqf1RisS2Euv3Cw6TgOZODaizmtai3rCq6l72d+DGEu1WCZZVQ2/MwOPcRXjzkQWGC7h9iUnOVsFd1/NpFRUwEll7Yi/JO4L2owDkN2d4L2sBDH8xZ/ofc97Ds5PfmGKCwZyfPgf5SBoQgstE4WrLVzp8DtF6kQ0AC9HcqaB/7iVV2/7iNslqFrx5Msv4W99p0MbrUDslOJzzvygnEZhO9b8m//UoHPXpTh3s8RnAvEwQf3tYCwv67h9qDEfZTTL95qNl1eDfor1/xNb97c+2GtqQtyQAZ0AxQ2C8gZrTR+PP3aUD+YQ2W3cZgqWLiQ4xel7MrxUEf7vsc4T6dYvJOrci/yK7yT97V0PywwMRFvxXYdDAMbpgFX8Wtr1XROhjCv1O7r7iwn4YY7Io3N1kG2KfdMMccV7ILCLQJbUIG7oQBCnuCdiegPUjhoOPOd6+OM7/L+gUf1Qr8IiEgYrU2b3VZrNbr0J1tB95pcrU/W68R3E2xql2Ge3aLYiiYoP+2gcraOup7PYzuZPPnqgv7KcKPLVjWxu36jn0q+1QyQAbIwL0xsHzCPhijt9eIN/7Zj6povh3Aj1/N68F3tsHP2htiOs353LIQb+Q7dYwYYhVD+2OM/kEL9Ud1mQXjp9h0WMW6EDpixfBD/uqnf+Ki8WRdbrSzpfAYJ+KvQ/hnPXR2qihFZZug/3cFtlVC9c1IhkmI+OTtMkpCbIl46O0W3J1WKhuHj952CdZaY75whzDA+LiD5tMSaod+tGlufCiyfAhblVDd7ccx1sEXD61nsg72ozo6Z9nY2/C8B0eXUW3CbB6MkpswRSaRQ2dmQ1Gv5/q+1WjTZmLz5aLXT0ME531py5SQFZ93d+tYVyEp4fmsTqWnLfRzQw4CjI8cNDZFbLjBkPG7Zib40Iyuqf8nbDkTsdEqfs710+kQjvG55HL2vfDbEN5eHeu2g6Fxv/nrEWL0b00yYz7H5Ny4r1nmqQobsSMeZ2WKV/KN+9lPWvDOszyI++m623c12bmQfNXWbFT+6qD/9ZI3Cz+TfYe1VkZtp4tRwVsF/6SDpmoD4trGvgf3T8FETox9lBGpiaraIFzabMB972YnS6GP0ZFsgxFH3/poPbGj/sT9bNg0vcH5aROdT+m6hYjab/zMGpqv2qi/Ef3dzIcm97LObbRfuAnG4uv1BO+u/GeUMy4DP0v4j3aZsUxb0BZk4NcZWCphH34VcbtlNA9HMsb2IsDosBnFB9tPHAy1eA599Hc3pDB72TfiiUNM3tel4P6jk00peN5BRceYnvfRO3RQjTKB1OB96qO100L3aIDBkf48vXkwxHCvjPLLHiZRiECIyZEuX0fFKPsYvPfQfVmW5dvrY7jfREtn3HgsYpnFqqeN+vuJLLuo5ztR7rSgmAnFtLjMwP9jiN6Rh3a0mmqh9n6I/m4TzmEfg+OuFBeWhfKbEfyPbdT/cuEd9+HtKaGYDjc5cyO71/5V2VQuZjbXcdrhlz68g/bMhmd9NDfraO27aP8lJjJSOItnivIuer3I5jE86sH7R9nSEPbj4x681yqLyZaH4YcWmrtd9E4G6OnPn3bjiYy0l/SfZdfR/SJFVPBFxYpblpoM6UYlwxaE+NdCP2HzizE6T2X90n+fHNSU72cCTJS391axac2E/fXqobgw7JEoW55wOnVgF63UhgGCbyP03jbVJFBMNvM2Wo7gPhZ1ttH6MMZAXK9Ep5gcOsfGRFjHnxsThqKJlP48bcdknUIIId54YkNM2rqnycnWNGpTYiNrB2Ml5P0PLWyI5+dx8LoC267CPVVi+scI3Rcqy026HUabp23Yz9w4bWRwNuMm3jz7fQDvsIumaoPO8TCarOvsORuqHYhY9/qa+ewh3CjDTgnN45m4FxNLe9PBQL2tCL/3Zfs2J2c/+mjaZTgn6nuib4zay4yxpB11n9JasvAy3e74M+kv2oP2IANkYDEGlkfYhyM4mxbyVgL1qqK905+tFv/ooZE7aCvxkRaqQlh+bEGLUgmK2GwohEoJjYOxMUEQMcmVSJzJlW9p1GigjYS5aeSZAEzcW2fMeDzbXBh8HWLkTzH9LERWE309UYmEmLiPenNgCLPgUxfuwXBWb+NvebBP3ktRWf6nb7zlmEKv2FpCzHyeiQdxj+GeFDTtT7N6DfeEXVITjTNXCqVXM8E6VXG74vV+bW/2RkDcd3Kohaw5QdL2mvd6telP+DotZIM+muLztQa6iRXmguwmqvyxwFK2jDPCJGKPR3D0pK8gp7m0UY7w12+HTAEWPWuItiivIewjHy5aD/1mIG2PS9gY7W8g0X6Krr2YoKcnpY8dDM0Yd820tY76mz7GacFp2agfGuK+6Bm/+Hlw1oPzfB2lR3W4H1XokLK52V4jsR9NRNqJ1evwUxsbYnLy0VhBF2XSfUqC+xDDVxuw7GxWpOCoISdwKT/ovmNjp6cmlgEmpyPVHmUoU2YztrZt3G/56L2wUP53nFzd/dpF1eDK/68O638djBM2naD7tEjYT+BFbyUYjpPXf/Kz2RhAW9AWZOBhMrA0wl4PkpnBNjHgpgTiP0KQZgeo0Zv1aMBNDp4BetsN9FKxurkCVjxTC4V4M6IM9bFfy9VnE3gdnmCZwlCvWCZEsIJECcx4NVwPyqceegUi0nzeZb/rsiQFjniuXqnLDvh53xETBHuthb4ZxqDrlBIyhTacCoEhhGxyNXzR6+NJSeq5cZ0yn4vJipqYGOE4etKTsY0WVeZ9/B7qkQhPTW60r6IJkaxbZqX5EmEvQ3XSPihegc+rx2X1zmVD+M1uop9iP/faqH4yE5Dwm7mpVsZnW7D+SL8JmWIqBGdkL7ON3lKn6IuQphpKazU4H9Rbr6+ijiW0jBXvWXie6UPFZCocStpCi17jelWvdAhTdL0OazG5McKVzIlybOvozUkdPTHBN1iKfWrZcD6Lv6lFh8ct9BPX+vAOZxNrGS62gdaH5BsM/9BLTGZmz5qFLJq+nf09XS7+n7YhA2SADDwkBpZE2OtV3JzVz2jwmw1GZkhKeNKOwj029g2xLTY8vmyiKVZbzVfwX7uo5Ry2EwuntKDOiDMtjKWY0+EDyZ+GYNMi2Fhdm4GhYudFbvEnDXSOJ3OvyM/ukd/Q8kS6/I4uv1FGJSyKv6OeEcfF5x/IU2jDKBuLfPNhxpsvev31hX2Sp1jYx5M1VT/tq7yJWWL1NmlzWY/kMyJbZ9jR3yvywVXCPv2M4uuzfFwzf7kWtMZEVnOSeXOS10a1TSOxf1mbmf0tM0FKCN9ptNdC7N9YF/HoJ5dt8g2jQ7PEqn7mwKm8SVz8HN3PzIS9Xn3PTAbFd3QdC4R9Xn1iG15iF/2s8LOLSvTWSJ4TMEwIfN025WnGoh8qbcnNz1kGNH/ip65jcrJ9+XfM7/N32ooMkAEysMwMLImwnw02eYOhMKAWUXrQk0bNht1MDhpRxgcRemCu5o/2q7mZIApFZlqcqUG88m7OUAM96OcKe9EoQkyOXdTU6aDWWg3uSXLV7TrgaOGQtJN4XpGonG2IzHwn2uBXxbqInz4cwherokKQpIRMoQ2nU+gNqPMK+7zriwRUXKdUeUxeEjzpVeXtXnIipd6gJEKptP8etLAXewpEKss5mY0FruBFtS2D39g3OfYWNh+9kfteMhwl7rvogCBj65tP17H+3EX/PBlGlmwjgdpsKja0exh+n2Tz0ut2nVsH3Q/NhH1+v6PqoBlJ3Uu3wQR7ygbyfglgha8AACAASURBVAvEt4vY/2jjvZgA2aj87cV7CGZ1DzA6aKlJgFgsaMFTe0hm12i76zpS2Gdto23En7QNGSADD5eBpRH2Ip5UrDrV0qupiQHRQvr1to6PjsJuxGr9jhJtesVRrNKLz//MCR+IJwyzgTyGWQuAWNio+Oi0KCwSLXrQj79fBElgCPxfj1HWoiIrrhYT9uGpg4pto/5ObZ4V9dR1SgmZeYS9OSFa9Pqi5y4s7MUbhP8aKIlYcL1xORhHmybtJ3rzs/KTjnt/wMJ+cthA49ox71IAJsI19B6LvFAcIwQly14R+5d8HmfDuWS12mx7eoPri64hfLWINdq3btd/5p3Cm70+FvZ5/VJBe9BtME/Yy7dG2fDBuN8x62T+LvL7a4Evzg9I7M9RdhQ2iwV+ueCUWV1HC+bbzyufb5aFv6fCqC7hmLaircgAGbhjBpZE2E+hBbqVK5xVvGm8sczoSPWGt6dd9A/qxmCmB7AqnL1G4cmhhSJTC4BYmOt48aIBM8Twnd4sZ4jg+PtGmU+76H41/i+cHvRlPvHM5tzUdVcAokVFVlwtIuyHcuNoWsAVCBlpw0q2TnEoTlLILHr9TQr76c8xOi8baOowDZHmcK+HZLpSYXOdAaZWeFKnFn0ZAZdhR/uwyAfq89SESYit/GcUX68Fmsh138oTo1fwo78//SmyraQ3jBo2SYeuxSv2vxhjL1LQ7texrtPcmpt3Lym73ACeZlD3AYaw1wxb2f02szCV2fW6PeX2S/peKb/p72S4EBv4Vfig/SJvYiE3indPBC8+vHfZ8xPG/8qDxvSEyz/sZrPbnHfkfgcz2UBsO20THcuv2eTPmP3YVrQJbUIGyMDDY2BphP1UH5RjleGY+Z5FJ6sOCtJpE5OghRhEm2hTMfUiDERnrcibEKjOe/hKvCmYDeTxvXPEmQhFiGJ27QpaIiWnFh0/Jxi8rqJ2YIQ86EE/L1+02ECX+TxE/6UFKyXsF82Ko0XFLwl7XfZUWaZfOqgYoTjhT5lVRIvP7MZndZhRSvgsev1lwj7KMpO6v/ChfkZSXIl48yo65/M01Kv2fcwyJ6U3aY/eqFNeMxuni4X9YvVQ94knXiH877MQlUjUv0tmeYq5DoZwD/SeFJGtZYiJuUE6ahcihKeSu6Kr20C2LcqJ71yZdy4RTqM3dbjHY5nu9pLr4vpE12ixmpxATkVK0j+M9v0zRBhtSpV7RTZeDROZsKbTnM2zUTpJcY8NtD+lsuhcsXk22x4Ed6pNRDHxLgbf9D1DBGcemk/0KceiTjmTpPNOlIZ2JuxrqGbCA8fo/M+ClSvsdbanBcKB5vbDPO2K1yTZpT1oDzJABm6WgeUR9mI169SJBq0ofeGZEioizvtlGYUrXGLQiUIE7EQGjwgUNSFIbK41B6lwCCdKh2eheTQTRuK7emXM2upiEh+ONUFfpwJMbX5Ll8//T08CmtkMGNGkwUblVR8T9Upd5lNPheLE4SDzvjYP0N/VomWQjCP/1pXx8VYNXSNTzPQiwECk87MsbLzS3xmjo3Jxl7c76J300N1tovW6JYX94xa8IxfOkdwToEW0tdmEp/2m82nrcwMMuy96fXDckhOqx20MDBEqeInylFvNZLYjI8d8YrIVpRkVBx2JHP4DDE6Mf2cTBKnwBr26WhQeJrgrCw7sKtrivABxMNG2i+GxOgzNrqK130Ffv53RK6kpHyxcj/htQhnNgz56b1voqMmwDDUqofxHBZX0v+hQNUP8RvbQ5RcCP4AvDgPbrqF5ZExSDd+JvSHiLAdx8qy4Jjp8TPu6KEQk8f2b7cD0gDB+q8462GygczRA70Cca+CgFQn7DbTe9+Du9eCLsnzroaH2tpRfdjH8FiDwR/D+aaCq+oPydhud9/IwNmlTIe6FvZWdzjy0t6uKvzIarzrwRBrZCx+9HdkG7Z1eMuWsskN45qqzH8Q9zX/m20A1WRGpXM8Cdd6FylFv2FlO5EW63tlCg38sTiY272XYXGd7yhX9xnV34DPtO/6k3ckAGSADN8fAUgn7yLH+IDplNDr9NTrttAHnyIjzzh1wJui+EAc/ZQ0z2q/nhojodJbJgVVkjNGrquaAa67oJ08ulSfjmnnm9eqh+X0L5uZR8ez1JxVU9Om1qp7ZzbMLnDyrV9kTQkGWOxbS5t9EiFDud1TWHHFi5lNxOquN9Wf6JFJdnuSpvPL+NXSOZye/itN0q7t5G/30avo81+fbUqzCF9ZJv2kx66pX9L+LA7RSfjGvs0qovVUnA0csqdCTzNuVGWeTD+pk36i+PTkJFG9k9IZj9VYnr7zirUre5xErl9VDTILPOnLj9VoVzkc5KRU5zfWhYEmujTrHq/yiDgGGIuwlyrxiwX5UQUNsOs3LvpJoW2F0em89Ppyqgsa+eTr0zD5311lP0N+tRqfyijbZOpRvLPwjsacieepyVCa9MVzUPWZVbLYV13Yx/K5X0mVdkic1y/sHYsVenFB9MIQv/JzbntIZjZRtEv1cCeVtB73EWQw+vO1yNDkr6w32cTln9vUPG3ISF5+krNprweZZmbLURvskWb+789Os7HwmbUEGyAAZuHkGlk/YJwTEzVeYEN28TbWw93LirvPsvej1efe43mcBhm87GPgBJmfGar1YuT/qwn3VQMU2J3FTRGL5klCu65Xj5n3ActCm8zAQ7UXQE132tdzURwbIABlYOQYo7An1L0O9qFBf9Pp5BMvV18i48atWKkV6SM8MVRJx1y9sZPcsUEhebXPaaKlsJPYLrNVTfNNHS+Ujjke/PB7Rn2zTvzsDFPbsSH+5I403ICcEcXHnsuj1N9FIZby8nTqZNFXGH320d/vJvQmCjyiVIgXRTfiB90gxd2f9T4jhqyraJ8m9RPTHffmDzyV7ZIAM3A4DFPZ3NrDejgPvvWGILCvRBkUrmRWoyK6LXl90n0U//+ahHsWSixjkJtpvPfT15lkRhrNbR+Wvbk7aS+W3YAjnuYOhsXn33m2/qA14/S9PYh+qzyeHrXgvxkOtA8u9omMI+6Xftl9im76dNn0Lwj5/w2PhZj5xKNXhr5+4SkBuB5DL7KpTayZ9qzbf5nTWi15/2bOv9bdggv5BCw1j07K1VkZtx4V3Og+DIkbfRf/KzaV374tr2SPHR7zPqvnOx+Df7hwbolet3qwP2zIZIAO/JwO3IOx/T0OyAdHvZIAMkAEyQAbIABkgA/fJAIU9Vy35GpAMkAEyQAbIABkgA2RgBRigsF8BJ97nzJDP5soEGSADZIAMkAEyQAaWgwEKewp7ztDJABkgA2SADJABMkAGVoABCvsVcCJnycsxS6Yf6AcyQAbIABkgA2TgPhmgsKew5wydDJABMkAGyAAZIANkYAUYoLBfASfe58yQz+bKBBkgA2SADJABMkAGloOB5RH2P8bov22iulacB/260ITfh/D26li3b/7e1y0Tv3fLDSAcwX1iw37iYhTe8rMunRwGGP/novPp5k78DM77cJ+vw94bzrW6suj1ZDOfF/+ogZJVQuNonjMP8u/xUGw7OXJulNmHUm+W82FzS//Rf2RgiqUQ9v5JB+7fVdiWBcu6WfE9+XB79yZAS9yJLIOw/zlGd7eF/rcbslM4hrfXRmNTtBML1lXCftHrL52g3FAdHvAz7kTYX/gY7DdQeWRHPrYfVdDYH8C/uNz+k4OqZCLqQxUfVhXdr5d/b+oP4e03UdOHthlMBR/bqL8aIHjAPmMffYX/6du5FkfIETl6SAwshbCXBhvCuQVhr+/dvrV7E/iHBPzdlXUC70XtamF1jYE1/NiaT9irey96/d3Z6DduO1+76J6m6v9zCCeatJVQ/qOCymZpJtY3HQx/pq7X7IQDtG0t5mc/7X8GCPU1mZ8Bhvs1lCwLpS0H3skYfs79J4d1VPaGl9ynoEyZ5/E6tisyQAbIwF0wsETCfgLvTzEo3eyKvTTibU4aCOpdgPqwnhFiuFfGxv7odlaDTp2FhP100esfjCgbwX3uon9+c2FOd8XZ5F0VTkrYj95UUH83QmCszgdfuqgr0V4k1MW9GkcL2EC8SXoh3giU0TyaXMHoBN6WjfrhVdexH7wrdvgcskYGyMBlDCyRsPfhbVHYX+Ys/u1hNObw1MHGPGEQ1xXQiwr1Ra+/brnu4Xv+aRetpyWUnrbQPfUfxsry914k1pPCfoTufv7KuHjjEoUp2g5GaRv/HKAl9pGkPy/8v3iTJEW9M+e+j+iNj11H7/vDaH/sJ+knMkAGfmcGKOwLB0A2jN+5YVy/7hN0n1qw/uhicltsLSrUF73+tsp9i/cNvvbR+auC0qM6nKPkqvf1fXkLfUC8Wm5lVuyLyzlEUSihWK0X+y1KmzU03/Yx/nF5mUdvytH15TcLvE0KB2hZ1u29gbpFLoptermd+D3ahwyQgYfKwNIK++CTi4aKMRWrcd6X7Kvm8LwHZ7scxYnGg9vBKGez1yWhOD/H6O01UF5TsalrZdR2uhgFJtQh/FMP7k4VJbW5bFY+G+vPOxjlxKdOpwHGR05cD8teR2XbxcA3761+9wdwtytYj167i3s66J2HqdfkIi5Wl9XG+pMGWvtNtA7NLB0hRvsV2HYFzmn6+znPDQOMjztoPi2hFt0nwPiwhWpkjxKqu/1YoAZfPLSerUerh/ajOjpn2fvP5xNpT+f5OurqmcN9kbXIgrBRddfD2LRn6GN46KD+qA5PrBr+GMqsMJYF+1EVrcNxZqU2/JafCUlkiOnu1rH+woM/nSI8n9VJcFa00VVs8G6qukcbVxObFC1luymmZy42RLleFwun4JN5L+lH57gg1CEw+bSx/qwF799mcSjOvNf/GGNg2DQ866C2JuzZSKzM+icuGnpjpb2O+l4v6ZtIlM3HZcSV2hQaCdFXbdTfzJfZZ+4OVmwG3auhZFfQeNvHJNGOBf+6L1DtfUtyIO7vH9akXSPf1iRrWnRm2olqSxGbbtR+5Aq8YQthr7ejGZvf+2g9kZtiEwwZZcivpypz+jqxWp+JrS+htj/M6QOnmH73UBN1s1sYmO1L17Hwpw6TbGFwrxmmcvqvwjLz2nyWaBfahQysOgNLKOzb8P5roPK8BXe/HQ2YchAsJ4XqmYuyZaH271gOYhc++rsb0cBcPUiLJD2Yp+P3R3DFZrWtDsZKAPgfWpEws57qFdcAwyMP3Zdypcva62P0tonmvof+ST/+PBv/OkFvuwT7RRcjtYoWfu2qgTX5WluEbpQ3m+h9lUI5/NpDU5TLrqBzNmuEYrXNfuFhogbX4EzG30pBrq/TIU2Xi8sI7B9D9I48tFWWldr7Ifq7TTiHfQyOu7EIEat7vsiQ8ZcL77gvhVMkENrJgX4en/wco/++i/YzKXBqhyP0X5ZR33XhvmqgooXKpgwvCL/04R20UY0+r8E766O5WUdr30X7r4rKpGTBXIEcH/fQe1vPZFkSn3uvVfalLQ/DDy00d7vonQzQ05/Hftf2nEJsILStMtrHagLl92ObbaQ2Fk7eVSIGkz6Z3Sv40IRtbaD1Qd0rGKMThaDZaJ+kJkrfemisWSi/7Cmfh/CP2xH3UZswMphE/pzz+vCsh96hM7Pppx5aO604207zg5hEy30C5rMnR83o2faTTiL0Yx4uo3pvOhjotvBd2VDXQYvO1IQpIYBTf0uGssxsHNki9DF4K3gSk9MuhqnJdHCswlvSYjkYoP1YiH5D2KfbiZ5Ii88Pu7KtWhac4xE6O024qv1EbdjK+lVPIC4tvylYlW2K4ujDwMf4xIOYKMvMYhZK2714Qq4HsdEb2T/au32MzYlqNGHrY2LE9uvv6J/DPTkRan1MMWqWk7+nFmJSTNI+tA8ZIAN3wMASCvsy2h/N1fkQ43dKpD12MFSiVg40xuArjKVWS61X6VXAAmGvQhSSImwENxrY2xiaDtD3ftKOxYkUEPI1dXrTb/TKO7My5kdiPxLsX1Sn/6OPpr0B1xDw4r5xJpNYaI7g2Baax8mBVVwnV71ng4hYNe+8zVtZnV2jB2zxc/JerlSW/+kn0+ppsWVX4X42fTLFcE8K8/an2T0X8Ymu38aWk1wl/+bFmwVnE7QQg10hLDZQ25u9QYjKHolu8bd0ar+C8IWgj6YQiGsNdBNvRCbo/pESdML/P3poiOt3+olV0PCkLUVUIu7ZR++FFED5ok1PupITTCF6hYCtvTcnpGLTooXZBHNm59G+FGjJdJeLXj+zaVXHdl/4GJ1OonpGQvxxOnZbf8fCzDfzcCntUv53nOzUv3ZR1cLebGs3+ftFgNGReNtTwvpzF4Pvqv1ottPCfqp9lOpbjHaS7C+m0IK5kkoNqRlP+mn2ZiCfkZmfdRsNjhqw1ERXf1b0M/jsqgmb8RYpsqfm24rsEG84Dn30/5GLFtGiQYHtdR+xsUgIT8G9isrOz7O+p01oEzJABhZlYAmFfVL0yAqN0YlElx3HpYqBxl5roW++ai8crAuE/VcPNbuE1rEpWgsGdn3vjBDR1xsTAZ1+LjPByAIard4lxKG6Rj/PqqMXrTaqCYfxdkHaZgjvPzMUJ/uMq6DQK4hpwTILW8j6JO87C/kkd1Ilyx7n5DZEV+6kQQsWEdMuhLFeSY0+L/C5DsUw7q3tEz/DzDv/qR3dOy3OpiruODmhkyJXlCVftIUYvipBrHiPTdGTEwOvJw7JOinf5pRp0etFnXPrG5VLMp0XTqT9br3oRaFM0+k8XAbo71iwHrfQT6yc+/AO05PwxfnV/iv6KcLonK1SlNaxr96KxWEpGQ50e84Ke133tE/05xmf6zac6gcKrzeZ0L+HQziPy5mJf1FdxefRG0AxGTUnZjGvlZwUrGpfiGVO2JJ+0GVOT3AvKwf/lrQh7UF7kAEycBcMPBBhP8XotQ7dyBGxcQy2il/NDNZFIs+EbBb3LV9npwZ2PUgXCnvjerW6nxYAeQ6V4koK06KwAy0Y5AE5MkQnP37YrM/8v+tBO1veYrsVf0c99yqfXCLsp1+7qERhF7MJRSxCczJz6PCXpPguKrv6PMOIFropUa5FdEqcxZOexKRMPzN1Dy3S0j/j05aV/2O2Zivj2vcJdjITgUWvlz4qtumsHkVMmhOaebgMP7sqzKqE2p6XCY2JhXbk98vbgy5Trm20jS/E3hEX9UfrqO50Ziv1+u+6PWc4uAVhn3qGbjuXlj8qpwiHqlwj1aTgQfSFelHAiK83Q4y0Lcz9BfGELdl/6DJbqbokuDTux8+T9qM9aA8yQAbuioEHI+z1wJIQn8EY3m4V6yITxuEQvliBF8IgM/hooTITijMDq82ij8TGQA/D7yqkIT0AaiEQiy8NaY4QUMIrb8Vz9lzxffXdBTKohN/6cLf0wTVio9zVp1Imn6nLPfuZa9tokC62W+F35vXJZcJeh8sYZxoUi9ApdCjLrQh7/fbFXP0UtlEhOsm9FdpeVwh7sVH6+TrWnzbROR4jOEnnpddMFdwnI+wXvV76vtCmivXKOzM0aMZLHk9zcfljhO7fel+EjcrfXry3Je+e1/osiq1voira8/4lWWJ0e870FdqWxkRdCdYi5vXnGaFe8IzC61PCeHLYQO2Nsfk29ffL7CPbhFGHuE0Zn5n306GGGXtIv+syZ/vWy7m4rIz8G21HBsgAGbh5Bh6MsNersjqmW7xurtg26u/U5lkxSBUMpPHqqiEUI5jESY9P7GiDq948G4vtXxH2nx0Zf10wSJogD1+J1ckGelekqTO/I34X6f20wL8sNjb9vbz/60E7MWmKBn0tVLMTorzvLOSTeYS9MeEpFKHCFipGPSlEi8quPs/xjXxGVkzLelko7w3k4UFio7aIS15rop/wm96fkb2HtvvkvwZK5kZcYedLhLrmXX8/+vnL18uOpNiman/Cdi+xryBRBlMUGr/PxaU/nAn8y05UNe575bN1Npy1mpzkX7IRNLpXYV+xHMJeMFdLbcy+0gamvQQjicmoZjMvFOeyvlOyotv7LATr5gejhepn1pW/J/eu0B60Bxn4rRl4IMJehRrYOgvLMNpImskVXjhY54s8uQE0PdAVDOz63vOs2MfxrEWxsSN0D2Q6RB1PXi4YxMNPXfS+ikF0iG5mBTVAP3rlnt18u8ggqQftXxP2C/pEidOkGFdiQYXimCe3ShGa9pW8Xk760jbI93k8yVtA2Iu0pf1/GmiIdKfijZBIybnTwTAh6kVZVCy5ZSFXkGuGdgezFIiiA84I9dnmZNMGsU9v4Hpxr2Jhr2OuU5mo4sEixPCdzroyD5c+vHepOk+nGP8rc7DLLDzK9/Ez5vu/SF8av/04WeCAKu2LDAcF7d8IV0m3E91+bmrFPjzvovW6IGXlnPYZ/1tBNdVf6E3X6fJHXKkV+9mm6KT9dR2vfguZ/F7M7Jzl5vW0HxkgA2Tg1xh4GML+mwixMY4114NyYkVqiumXjozNVoN1+FNnkMkTeXoATwnCC71RV72y/hlKERaVwUIy3EMYX9/HfMUtYmNV5hKRxtLcjBlO0HvZmG1gi7LiiFV7GZow+qHKfBFicuKg+qdOuymEczb/dHgsMqok67BoVhw9aGcH/Dy7SeAy31nUJ1qcpkXuVGQZEVk6THtqEWohm25Ppyyd5SOXnUJR2dVqdEbQzZ6RFGgy7WM6G1FRx6PfLGVtaQj41Eq4fuOg2Yq4ValDIzuY/AiBpOP+zUnmotfHwj5/siTKJE87raB1OEKg85f/nGDwuopanFJ2Hi5FG0lnLZpiet6J0mdeX9iP4D53EWd4WUQ86sl3ug/5plLNCv5Sds8wr56nM8YkuSleBdf3iVn+4cNX9o1EfSq7TszaxQTeGyM7kz/C4Cxnz5HILPXEwUj7TNtF9zU5GXaig67s9Buo2eCi9zjFZdb35M/femUwZpMckAMysDQMLJWw723Lza/llx60wA2jfNc2Kq/N49bH6Kjc6+XtDnonPXR3m2i9bklh/7gF78iFc6QGvfMOqtGmvBq6xmA9fqty02820DkaoHcg8po7aEUZeDbQet+Duyezf/iHDZkd5Y9OcsAM+uqQmA20T4zsOiLMR5VRiPb1JxVU/hCHaRkTFNUQJh9kfnC9KTD+adcNcSGFqv2kjf43Jf6DMbovRCiRZ+Ss1q/c58hjHz1fr/pb2EgLim8q776VtNv0IsDglZy4zL6zoE+0sLfKaArhGIVO6DztWRvpMBlrswnvTNlZp+pL2EmJkQKfixAHcYCUZTWT4U9iQqez68SidYqp30NdnOy51UL3aIDBifHvdAw/0JNH9VyRwlHcP7PZdoqpiHOO8vHbqP7joX8sDj1rwt1TbG256B046HwW9wwxfK3i0e0qnGPxrACTExfNZ4pbu4rWGxf96I3OgtcHI7iqvtU3eYe6TaLzBWIWI5vJTa1J3ubhUk1+RYrRs0BOlHU4002F4iw8qIi3K6q/ifoQcT5DA83/hjLNqGWhvN2Ge6BXzgvayYUPb1vapWIeRiVCxHSu/MdtDIzsXXoiZz9z0Dv24Kg+Roeyyb5C9BfmP3kQ3yyX/Sy1qugD++c+gmCC4WEbtS03dcDeTKCLZ4jzP8zzCeTZCEVvZ8R39bOaySxkC9t8Vg4KQtqCDJABMnA7DCyRsBcVDDARp6Bu6dNkSyhvO+jlnDo7/dZH66nYRKpO44xykqs88WtVtD7IjX96dSwhUOKVzgn6uzK8wjzBVGb50Keu6hV5OXjr+4gV2cvvPcX0YoJ+fKqtLGc3lQ9egx18MU7RzQ31GMJ5JAd6eTqtyMVeRiOzeXaBk2f1Krsh2vRKeSykzb8Ju+V+R8Xgz+mTqM5K2Nf+7csN0ErwRier5vhbh410jmcnxcan1BqiSdw7r+zCX3mfR6vk8STD8LFe0Q9H6KjDtLTvkz/FmxYzt36AnhB6xv4A7WPxU5zwWo9OXxVsuzKcJxzBFXs9ck7zjU5+1ScwbzbgnvhR6I641hUbb1Ox5HNdn1ff1BsSWebkycmijTTfaqGrO6R5uBTitxwJ1fiEZ33CcMp3pq1u/fefI3TUoU4lMbmP2qZo76Uo1Cp+E1DEfO7n4k1Tfp8xW9GfoB9tIrax/lc3Osk3/CwFd5Itg8eoHSZPfo1OTY76QHFdCeUtsRlbnkNwme2i06H1YVaXnYathbt6u5HcKK79z5+X2Zp/Ix9kgAzcNQNLJuwJwF0DcG/P08I+kXu+2P9a2Hs56S5vuw6TQxfeeQD/fJhcsT/20NlvobY2O19BlEWKtJzQEy2U+HNpXlneNjsrcf9TkQwgGRq3EvViO2Q7JANkYAUZoLBfQac+iEH3gQj7yWHdiCfPn3iINzfJzbIyLn+jYEP0g/AP2wUHvIgBEbJUukYu/fy2QvZpFzJABsjA7TJAYU8Bcz8CRm0Arb2fL1e6TAua3dB4qx2Eipev/jsuttHPMTovXYwyHE3gvajAOU3F4Geuu90Gfqv2YV2KuVgR24Sf2qj+M1g47Sm5Y7smA2SADNwPAxT2KzIAP6wGFGC4X5Gbkbe6mKTixDN1CYZwow3N1pWr55nv/op/jQ3QIga7td9FT2+eFWE4r5qoPmtjkEl7qRqzyGLyV8PYAH0/jfxGbfIr9uR3H9ZE4JuHlji7gX57WH6jv+gvMvBbM3ALwj5/49hlm8JyUwMSzNUEM3fDYfGBTrkblNMHjd0mKxc+hoeusaFb5rGvbLfQnWOjoshuM/7PhXfGlXtOMB7OxM7/2EH3U04qzdtsa7z3avb59Cv9SgbulIFbEPYPZ/Ci0KCvyAAZIANkgAyQATJABlaFAQp7ziTvdCa5Kg2H9eAgQAbIABkgA2SADCwbAxT2FPYU9mSADJABMkAGyAAZIAMrwACF/Qo4cdlmiywPVzDIABkgA2SADJABMnD3DFDYU9hzhk4GyAAZIANkgAyQATKwAgxQ2K+AEzkjvvsZMW1Om5MBMkAGyAAZGMkj4wAAIABJREFUIAPLxgCFPYU9Z+hkgAyQATJABsgAGSADK8DASgr74LyPzk4VpS0P/go4adlmg/dVHvr1BlZGwhHcJzbsJy5G4Q3c79rtK4jy+3c+BdccSEKM9iuw7Qrczzwj4L7aZOFzLwKMj13UH9lwTufgbNHrr83dHGW55N6TIwfXZ/bXnl1o60vKy+/Q5mTg92NgxYR9gOGBi/Z2WZ1quqzC3of3oo3BvQqrhwT7Q/HrA7DpMgj7n2N0d1vof/sVe92RsL/wMdhvoPLIjvoU+1EFjf0B/EtPSw4x+EdenziYz56jzftDePtN1J6sw7YsWHvDa058fsW2v/bd8IsH558GyqL8VvHhc1pwLHq9/t59/Qw+tlF/xRN578v+fO6vtU/ab/Xtt3TCPjzpovf9Fw3/tYuKGFSWdcX+zMWGZaFxdN3Vyl+0z0Nd4fnmobbMfn2odr3Tck/gvaih+3W5GM7td34O4WwKcVpC+Y8KKpsluWAgGNx0MPxZUIevXVSVqDWFffVgcolIDzDcr6FkWShtOfBOxvCL7n+n/iqo45VlCDHYnU/YS6Gx6PXXLdfNfG9yWEdlb4jwSjvczPMoxmhHMkAG5mVgyYS96Nzr8H5V2H9fZgEo6qhW8552MeHAcInYSTXkpfZrqqz0a45fQwz3ytjYH+X87T7tl9/vjN5UUH83QmCszgdfuqjbUrDa/wxyhJ24Vxnu2QL1EW8wXog+oYzm0WXif4F7Tqfwj1poHQzh39ObweHeIsJ+ikWvn3eQu53rJvC2bNQPb85ft1POxZhhGWgvMvDwGVgqYR9+dlC2aqst7MVq3uONaMXesmy0TxgfPHdHQmG/ZIJ4sQ4wPHWwYVWXb7U+t98ZobufvyIbfmzJMBnbwSg9gfvaRW2njyD9eeH/xRsMKeqda+83KPBDMEF/v471tXXU9/sY/yi4rrBsv3b9okJ90evn7jduqX6CA8uu//ob5lsq333bh8//tfZD+9F+12VgeYT9jwHa0Wvv1Rb2o/0NiFfy4mf0mn67t4AI+M1Bp7B/wMJ+gu5TC9YfS/aW6lr9zhDtKNTGwTAhyvTbOBvrTxpwDq9eLR+9kfuBym9u8S3GhY/hoYPaWgnVnQ4G3+9mMWFRob7o9dcd9G7se+EALctawjdQv/k4kWiTtMWN8U67PpjxdymEfXjWQW1NvrY1Y1LTG8f8kw6az9SmMhH3uu2g9yUnTj1PAOrPjNjX2qE/c1QwhrdbQ1mVo/S0mcl+ILKydHfrWH8hN+WG5x5aqjylp3NsBvzRR9NuoCdWzuI43CtWMH+M0X/bRHVNiojomU9lrG9pswE3tcoXZ46JNt2FGB+2UI3qJOzlYphatQvOB/D2dJ1CjN6KOF8b63/1EhmFgi89ONvlKAZYvGlYf9ZE58Sw33QIx7Ct9KM5SfPhbRk+NjYFBp9MvypRdJzzilv7MLN3QsQnN5Tv5Pdb+020TP9Opwg/u6jYNiqv81dikx1giNiW6nnBFw8tbXvT3xE7VayLEA17HfW3o2yIxs8xenu6jBastTJqO12MAnPgCeGfenCer6MelV3Uqx7ft7rrYZyIu170+inCb0PpbzslSgVnBy3UH6lQuJ+iPag6rVXR+pDjDxHukWiThn8VC3EbU/tK7NdpAZvixvCtf1ibxbSn3+T9nERiNZN1JRQi1kXzaUllYzHYSPlm3n4nyYXwlyqzUdbomrhNG3awK2gdjrM8iEFS82y3MEj41WTiJn8PMDnuoPHElnH8p2b7TT8nwFD0O2rTsOC6su0UbnhO9A/2OgSrnZfSDnlZcea7PoR/1pMZzqL+YoL+3xXYVgnVN2YbC6J+rqb3QKxV0Xw7zCyYmP21bH9ttF+4ycnZjyFc3c9FdW7B3WkVvEWewPtT1LHFRAgUfTMtQVvQFvfMwFIIez1wyhUbUwzqwSbA4J8y7GdOvNoUfh/AeSZeYZfQ+C8lOvSAmRp4/cM6rLUa3JMJQiNudvrNQ32tCvdUTRJE567u3TyWn42Pe/BeV+Ur+C0Pww8tNHe76J0M0NOfXxEzPzmoYhaXG6C3LQe+jYJNWP6Jh+5bnV3CwfDMRfVpE+19F60tvZHPRvODKKOPwWEXHZ0RaG+I0ZsqqjttuPut2cTJbqIfifsQo6NUnf4TddLPa6Ific4Qk4M67M0mvDNtnxG8l2KlMSWSQx/9f1RGoj86GOfALbKF1N/P/BV8aMK2NtD6oERGMEYnmgDkhCkV+FWsetovPExULHFwJuOgY1GpyhELxbwQikRZAwyFbXRdtL/3PPRP+uhG4kJsoHQx8gdoP2/APeyjH62KCp+myz6CK95GbXUwVkLe/9CS4ViamZ9j9N930Y64s1A7HKH/soz6rgv3VQMVFdcdPVOUddHrp1MIhntv65JhyxD25330Dh1Uo2fU4H3qo7XTQvdogMGR/jw7ARUbCG2rjPax8p3fV2/dLKSZnryrRCI97RPd9oNjFd6SarPTYID2Y2FTo18Q5T3qxLHusXD8MUTvsItm9ObPgnM8QmenGflmcKw/T/tGx3Yb90+woPsg46fiMH/ze4ggmGB01IkmF3KCm2on6v6jN/Ktnb3bx9icIIkJyF4fk7iPSk1+MhNo2Y+YiyJFdo7tfdaDs1WC/agO93iSEsEB+js2rMct9H1Z7+BLR25cz8nsM/mvgZLaHxBtJjX7gZysOPNd72Pw3kM36mdEdqA+hmKy/rfqgx+7KgxKhDIJoT+UeyEuAgzfyGtKL42QqGhRpQznRPVhcRmNdjAV7VT2T1E9LgKM3gnGi9nQbxlaH+/mLYj2H38a7fGq9sq/U2j/Zgw8CGHv/yc616ywmP4coBWJkdRmtRwBGHx2Uf+rm1rxFJ2DFF2ZQVpn1jEHsqCPphhU1xronpsd+QTdP1LiIwPSCO7jjcSmuvCkrUSWWsXPfEeUT9+7gsaBuUolNyJGg7lZRl3uJw10z4wyxhk+LGNyMcVUvU62HlfhflLX+yMMv8oBUO57sJEduFRohaUnFqqj1T4xyxTXawT3qR6QxfV6Fd8cXKcQYl/Uq2ZMAKKBLMevwn+ObaF5bNRVrM5/bKlVb1UuUQaxav62g17Cd8bf43Kqz3QWns12LHDkgKrLbUcrh4l46lNH+vSVkabw1MkRtYIHwUw7sWIYxe2K1/tbqdVRMflU4t7MrrLo9WK1OT+MRIg5UZ4SGgfJFeZcUf6jh4ZoC6l48pjpxOTJR++FFJ+xCE/bOte3JiNZcTV8lX9PLZgrqZSE2lbpN4HFCwr5bARHDTmpS9ch5/+To6ZK+7gB59RkVLdrC+vPXfTP04LTkpPVnHvepKgTCyTRmR/irczBSAp87Qvjrdp0qvmowTPTlKo2Un03m6zL8mm+U+kuF71e92ePm+ip5wZfhxipCUcUypQJZ9S2nU3ixBhi/S+92CD6MKPv+SzabhP9xNuT/I3V2geT9/Kt0sZthlLdMgO6LvyZ395pF9rloTHwAIS9GiAKYnN1rPpsJdx4xR2t/oUYHzRQf6MGrXQnGQmxOnpqoJg5UK+S2XA+a7ALXsFPjVU/c9AznhWJgfRqpJhUROLOiuLuZ8/WzxM/tYg0BiB933CAdiT2jENgcgdleT9TdM1ig1Wd/vRyMvTotwr5r5qjOglxp1edVbm0T9KTJfH8WiLlX4jhqxLsJ6kBVwnhtACLQxcSdlQ2NFbDpR2H8P67LNTAtHHB79qWiefJa/VKXUao5n3nq4eaXUJLvf2R5dN+TQnW3EmAfKZ44xNN5MzyLHq9DiMxV+yV3woFrn6GOdH61JZlSYg/Y6KYuL+cfImyZ+ylWc6zW/S3AjvFbS57T/1mJvMs/Qxz0hXfJ+UHXa70z3AI53FqISF9Ter/8s1GahKkJ9RWJWczsZ40X9YvFDCbenZ+n2J8V2ywfdtAZa2Chg5fCYdor9mo/DtOrPRlmdf5+vNtl514LXq90ZenfKbbuJjU13PauS6rDv2SiwXGm0FlJ//Qm02sVbhY7d9x8g3GqVe4QVazlp7gXmn3Rf3E6xMs0r5GGyYbZCPFwPILe71iY4oZsxJaBJorhHoA/7MNV7zK/bN4w17cMV/yenv2WvsqYZ8VGbIDEgP1bPXI7JRisRa/Wk43WC1scoT9VKwmyVXLuIy67mnBJWwWiwlzIC6u0+z6vGcbg66VmhjpWOOE4BeHcl0RSxzvJ5B1mk/Yi7R+IhRAxLcLcdLHJBG3nrbnAv/XtsxhTwuHQvGY8x3p91lcfHQAUfo1vxbRqf0B0Xd1WzBF86LX/4KwT/hDC/uM4FI8me0xfmZR+zBYythN828yK31Y5APdpuf1jbxP9v5mO9W+G+5VrpHiUAl10yaarbT/Vd+m62C9EHtdlE0v6aOiCZ/x97g/MPtK4/fw+xBdsYfiUR3OUTKlZ7re8V4Tdf/YrnF/kt8/ZPyz6PWivNpOef2Z/ptR77Qd4rNM1MFs4u/ROQG5+wt89LZliKP9pIFOJkQp23fEfspwm702bVf+nzYiA2TgNhhYfmGvhXtRxxl37sbgoj/b6sDbU1knCuLY5eCTvyKdNXixCM4MYuYgGofcKMFaMBClV7jl87WwMepn3FuHHcQDua573kAYvyEwRUxxneJB1RSSxrPjTYQZcaJX5ozJjNgfUJS/3B/Afb6OdbFh+XiM4ESGriSEpDnI57AQfuvDjfcdlFC78nTQOToUbcuc5xX6u/A7coNf9ZGIn/Yw/C7yYAseTF9MMb1MqOtQMNMfi14fi8QsT7JOqfIIu+s2aDKl3xalJ6QqRCfxBi1+5sMW9pPDBmqJTZtzMKTai2ynhs1jX+bYW3xHrR7HwlTdJ9snzV8G8d1AxNZHba2F7qmfv6lXPcs/cVF/tB5l0hGhQoN0XnrNusmjUc5MG1n0enEv/R2TPf0MxWU2TLDIJgFGB614v4r9pAUvk3whxOTYne1JivZkFb/5o7AvsjU//9W2yu+ToesysPzCPop7FAIoGYscV1h3/GYoif4sEmQ6T3T+YSIyRjIZ+x7fWw8g8c9iEZwZxOLvyHCWbAyqhlZtVBNiP7HCrf8+n7CPBzdd97yBMBb25kSmuE5Tv4d6NAlJxdXGdVPfzfNNQpgIoZ9/2qjeSBdvwBT3zhOS4nNdtxyhrX0WfJ0J/GhDbVxWbc8Ffl7yvEJ/531H7G94YsN+0Y03z85CrFLCbh6hboalLXp9LLINkalstJCwF/sYTp1IJJX3Bmrjoto8vaY3aGtbz0LO4tXetF/y7BZdo/lP2SkOoclOFrTYyjyr4BmF9TbKKOpaK1gc0Oxd9jMqU2I/grZJXijOfKxf9rzk33Q2nBIqf3XQV/tnktdoX4mfE7lyndpbkmFe2zOv/ef5Z9Hrhf31d/L6MxWvv/CBZyL9Zyzwy6m9D9oOwmZa4OePHcJ+mjX5ZkV/lz+L2aJtaBsycNsMLL+w1yuDVoH4VgLS3FAYDwZaAMYbR8tof1Sb1NSgrePOC0XgNw/dEw1isQjODHpaFIiwlNyNpPqecnWuHAnovDpqYWOKcf1dHYpjbL7VA+FuzqmY+lV4YrNZcZ2ijbsi97hlIfdtglp1TK7O6rLpcm/APfJQSzxTXVNU1oWE/RDdzMa9AP3odN88e+ryzfFTl09zpH2aJ1r033K+M9wT2ZvSAk7bJyVYVd0rmTrJFKmVdN7sRa+/QWEfbaj8p4HGTlWFQsnV3XRK1dnGSwvtTwV2z7Gb7PwK7HSJD7TYuilhH5530XqdTZ84f+ccov8yuwFd70WJ37ZphsTPvH7N/Ps8v4vUnwctyLdEPYxSqW6Lyq/tFy8WqGdl+7hhtHHdKuibf/36K4S9HhvsenJDb2ybCbyDQRR/6x92sykpzzuoin5XT7hOu9n9DkFfJmhIv5lSz9C20rH8RTbl5wXtPvYV/05GyMBNMbCEwn4mgMLvfrSJafJObhq0o3jTpPOjGPU4haP6W55IiLOKpFdoVCrCKPbSxeCbzlwRIjjz0HzSNgYElVFkbqEnD6xJTDpyOzK9SVWkRJQ58mcO1sJmZpf4b1EKt1RqQV13c1VXPVOnlkxm51DCPud68RyRSSSKBd90MEodTS8nRcUbCfWkqWjgj1fmU6JfZ8XRoTjhT+UTXbeEjYS4yMbuh8cis05K2C+aFSf3eZKxrGgpYk/7L1WWizE6Zialn6EMi9CTmpyJmTzMKH8iYM17/WXCPsoyk7q/YEeXKbFqKrMypbMRxWymOM/NrGNeoyedaQH1rafSV2bfGhX5QGcqWUzYz9qX7nci/oWoT2XXiet4MYH3ZpZSUWRr0dmk4mv0m42cvmuq2m+cwtSwR9Tnpfs14+/m/Yt+949aaB1cfUhW+vvarsnJfIB+Ii99iDCcQh+wJfqtSap82c2zi18fL9Lk8C3KHT8/lcY4/CFS8lbik72FAM++NR2j8z9T2DuwM88RkzILVppLVdfRazFpt3KyhiXHqbSN+X/ahwyQgdtiYKmEvY4XL7/son/UQetfnd5xFk5TedWHrwSmfyJybKeFung92pAZOx63MTA2UsYbVe0qHONwpVDEf6tUgsnNV8l7i9fxG9HKelMeMqUHMiHS1Mp2nPXlIsT4vcwZXhPpA+Oc1DkwXwToqUFT5ECvvzM3s2lhaCXy+E9/jNAVR9FvOhia6dm0GLVsVF8PYlvp3O7lVDiBSAMarVpZVbifk28zJHSztJql7W686icOa2qKnM+H6TR3Zv1UuEFuiNEUU7Hir7L6VP/x0D/24Iq843vKf1suegcOOp+lsI9znSf8Kicm9pM2+npSFowj26Tfwmi+LHMTo/Zhzs/8500xvZigqw7biv2tvh98bEtGjDKO36rc/psNdI4G6B2I8wIctCJhv4HW+x7cPXUgmBbRIi/4oeYghH/cRlmwkbb3otfrVUqrhq6ZwSnK9iLfzjSPkhyM/9XZeLqz3OoqTKu0pfLdnwww0P9Ox/ADPUFWPOgN1ZnNtpqXWUhaebuD3kkf3l4Dzf+G8cFm5e023AO1cp7X5oQPLnx46nyISuqgsCJ/ai7S/Y4MNRIHnlVQ+SP9Tx7WNhO/OvOPDcHy8FuAwBeHyzVQe9mb2S3FmXiGeFtXFtdE/Zr2dbLvua0BIO++wbE4W0JsRq+iHZ3P4KK548L5S/JRe9NDd68jJ/oqzEz0m+Kckf65H+XxH7xpoqrOE7CfteDu96XwX/B6/z9dlmZO5jKRwnakzhyRZTP7b7OvkyvrIpXrCIEeP6I2Zdg5aks2xBgzUX1q8EWciZHT7iI/6jSu+swPzTJ/5nHFz8gFGbgbBpZK2ItOuhNtgCyhKuJ2E4NggPGRg4Y+XVCcbiiOR0+kqVSrz5H4nnX00avuWPDOPrfMTV++zOccnR6qT7U18p3rVSxz4IhWlGNhZdx361/8a56yGpUnZyVU1C+3XOJeOgZaC/s2ep/cWf3XymjkbRDV93vVM05jtRCdUmtMZkQDy61TYjV8BmHyhNFLTv1N+GwKkRJzJn5m99MNXJz+KU4PFfnT45NxVQYLcXhOR+XizyurDGEYwnkkRZf0nTzVNc828588q21u+FTk1ReZavL8Hfkq/zty1XiC/q4MV7EfVeOTSGU2nxKqu0r0CNup+9f+7c9Ofo1O+s3b6LfY9YU2LKxTXntSHIcjdNRhWok2Ebc9G5W/jXpN1VupgjdDEQ+i/T+XJ0sLXjvRRFPYtRRv4Iyuyyuv4FazH5dB+E+U9zLfSHGY7nfk+Q1J/2frmQyPCz6JzaZyBVef1OrlZl9JtoPwXG5olWJanPDqpvq15PW67dzeT3ECtTrxOOpn5GRKt5/15x2MzMWECx+D+ORn2Y5FvyxC0BI5+nXfMNf1+T7Tb/ESdRf3M07JFew4R8mzGMRiT1lMzvT4kdemTh05iXuiTzfP7zfjZ6u3TPmhiHftMz4v9ovmjD+ZBvI3ZWC5hP1v6oTLOyQ9wGmhf0UHrsVNImziiu/Q7svTAWphn5fuMs9Pi16fd49rfjY5dOGdB/DPh7PVerFqf+yhE512bJyvIEJSPovV6ZyD5q75/MvbDZmnfW6ZgegMlIIFGzK9PH0qfUFf/GYMUNgvvcMp7H8rgbKoUF/0+hviXRy6lA5DSvtJhD8kN8vKsK6NVDhY+nv8/y0L0hti4Pf2kwgdK2VD42hbikgyQAbumQEK+3t2wNWD4wTenyIkoCDdZ7r8KgWcVRjLTNFwtc3v0Ubq4Keaecpr2sfm/xe93vzudX9X8fLV1MmkCbv+HKPz0sUo8wyxX6ZSkGLwHu2eKSfLkvAn7ZMQK+GnNqr/pMNFyQyZIQNk4P4ZoLBf9gHL99CIYoY30D5JbmrMa0BFG4fzruVn998Akz4IMNyvyI3fW8ZG1UJGF73+huobp4+VMcit/S56euOsCMN51UT1WRuDovSKIpvMX42CFIU3VMZCm/H+SeZoj4Xt8c1DK7MHjHZc2I5so4nJIu3HNnRTDNyCsNehI1dtPJv9PTePMxv9QptbZ6fAzuwqNvvRtg+ks9B7IxIbP7OHL8UNf9Hrb7o9iUN+Dl00t2R2mGhjqS02frbQPZ6kNr7n+SDE+D8XntocHdfrpsvJ+1E83CAD/scOup+KT6Ilx3ltnZ+RCzJwlwzcgrCnA+/SgXwWeSMDZIAMkAEyQAbIABkQDFDY3+BqDhsVGxUZIANkgAyQATJABsjAfTFAYU9hz1f1ZIAMkAEyQAbIABkgAyvAAIX9CjjxvmaFfC5XJMgAGSADZIAMkAEysDwMUNhT2HOGTgbIABkgA2SADJABMrACDFDYr4ATOVNenpkyfUFfkAEyQAbIABkgA/fFwHIJ+1Ck0HNQf1SH930+KILzPjo7VZS2PPgpke4fNVCySmgcMT3ZfQHG587HMe1EO5EBMkAGyAAZIAO/ysB8wl4dWx/lqk7l2RaflTYrqO100P969QFKRQUOv/TQedVAObp/bQ5hH2B44KK9XVYH+lDYF9mWn7OjIANkgAyQATJABsjA6jMwn7BXK+HBxzY2lLBvfwxlLNZFiMmJg6otDkayUX83RphaOZ8fJH241TzCXjnnm4eaKFPOiv38z119R9MW9DEZIANkgAyQATJABlabgYWEvXm6qXOaNEz4sQU7Ev0bcE6V6L+GwB++EhOEBYS9PoGTwp6bXq7BGzu4ZDumPWgPMkAGyAAZIAMPl4EbE/aR6I9W7S1Yu4Nrr9oP9yjs2aAeboOi7+g7MkAGyAAZIANk4L4YuEFhr8Nofi0shsKejeG+GgOfS/bIABkgA2SADJCBh8zADQr7EdzHYrVdrth/O6zJ31VM/ix0ZwhHfRZduzdMhJCYwj4899B6th6F+NiP6nBPcrLbFIXihAHGxx00n5ZQO8z5XjBGb6+B8poss/2ogsb+AP5FEujws4uKbaPyenjttxAPGRCWPckD7UF7kAEyQAbIABkgA8vKwI0J+/DUURtrbTQ/qOw4F2N0nkrhPBP2EobJgRL+BcK+c+ig+qyJ9r6L1nMp7qPNuYeTxERgmifsfwzRO/LQ3pTPzgj7bz001sRG3xGCSMiH0OWxX/QSaTN9PUGxHYwYw520Pe1Be5ABMkAGyAAZIANkYGkYuLawbx/PNsgGZ13UVXx9abuHieFguQJvIS3spzqFZq6wz2bXERl5clNh5gl79fzJezl5SAr7EdxNC3Z6H8B3IfYt2E86GBvln/4co/e2g975rL7LOktjubiCQAbIABkgA2SADJCB35eBawt7kbu+sllS4TY21p804ByNEZiieDrF9YR9XlacEP2XOSvwlwh7vdpuCvvwpB2F9rQ//b5OZ4On78kAGSADZIAMkAEysHoMXFvYZ1bgU4Jew3Jzwn4K/7+6nEiYq/wLCvvRm43F0mkW1EvXjz9Xr1HQp/QpGSADZIAMkAEy8BAZeFDCPjd8Z0FhLycaNpzPBPYhAssyk1syQAbIABkgA2SADOQz8KCEvTgES2TSqb03NtAuKOxHr215j7xMOVydX5rNH2yw+Q2WdqFdyAAZIANkgAyQgSIGHpSwn7yrwLKq6H41HLqgsNeTA2vTzc9yc9ZF98y4P8U+xT4ZIANkgAyQATJABsjAA2Dg1oW9FOMWGkcqBWZklACjN1UZL/+qOI99Yjbyc4j2YwvlvVQ++QWF/TQcwlH59ssve5gYeevDrz00t7uJrD7MisNJToLDB9CoWV4ySwbIABkgA2Tg92RgIWEvUk5uqMOlqm9GmQw4uRCduTJNpV1F+7CPwVEHzW0Xw2NHCnu7itZ+B321Cj/al5l27GcOBt9UiskfI3Rf2Ein0hTPC45bUZYb63Ebg8B0YoD+rgy72Xg1SJRV5NyXqTMtWPY6Kn+oDD92Hd438x5TyM224jrmsc/1L4UuVzDIABkgA2SADJABMrAUDMwn7HXOefPEWPW7mUqySPhNPrRQFSe82uuo7qpV8lMH4jRZ53AIP0yKaf/Ug7NdwXqUG9/G+rMmOjmnzuqMO9EJtmZ59Cp+orwOhiZ03/pwtssoiWuicnUx+pEsh6gPT57N2qTIz/yctiIDZIAMkAEyQAbIwP0xMJ+wNwUxf1+KGRkbzf01GtqeticDZIAMkAEyQAaWkQEKe05UOFEhA2SADJABMkAGyAAZWAEGKOxXwInLOGNkmbiSQQbIABkgA2SADJCBu2WAwp7CnjN0MkAGyAAZIANkgAyQgRVggMJ+BZzI2fDdzoZpb9qbDJABMkAGyAAZWEYGKOwp7DlDJwNkgAyQATJABsgAGVgBBijsV8CJyzhjZJm4kkEGyAAZIANkgAyQgbtlgMKewp4zdDJABsgAGSADZIAMkIEVYIDCfgWcyNnw3c6GaW/amwyQATJABsgAGVhGBijsKew5QycDZIAMkAEyQAbIABlYAQYo7FfAics4Y2SZuJJBBsgAGSADZIAMkIG7ZYDCnsJmlzwXAAAgAElEQVSeM3QyQAbIABkgA2SADJCBFWDg9xP2FwHGxy7qj2w4p3c7i7q3WWvoY3jQQnWtBu/7b1LnZWic4QjuExv2Exej8D7tHmD8n4vOp+CanXaI0X4Ftl2B+zm85j3us/4P6NlL0lYnR84v8PKA7L0M/QTLwD6FDJCBG2TgtxL24RcPzj8NlC0LlmXdr7A/daIyiHKk/93khCP46KL9dxV29BwK+zudXC2DsP85Rne3hf63XxFbqyLsfXhb2fYWtz97HZU/GnAOh/AvfsVe1/vusrXV4GMb9VcDBDc44Nxp+2O5KZbIABn4DRn4rYS9HFRCDHbvXtiHJ130MqvlISbv60p0W6gdTBDeCoQTdP8Qdaaw/72ExQTeixq6X68nNG/LVvlt4Q7LGE7Q1QL/zy4mSsSHP0bwXpblRHuzjcGPOyxT3O7vp60W+WRyWEdlb3hL/dJ92JfPvK12zfuSLTKwHAz8hsJ+iuHeXQt7MZmo54fBfPdQu/XVdL1SSWH/+3Q8IYZ7ZWzsj5ZsxeaSthCL2zk6x+89tHa7GH6/XmiQf1iTAn7Lg5947gTdp2pVP/O3OcqVuNd1rr+PtnqZTybwtmzUDydLxtF1bMvv/D79H31NX/++DFDY//JAfDU84WcH5aLVcgp7CoZbYDA8dbBhVZdvtf6ytrCQHQJMor0yJaw/d9E/X2z/QLGwnyL+m1W5B/vdvbC/tH+aThF+bMGy6zlvHK/u+yguaCMyQAbIwN0yQGG/kJi4hnN+DNDevCQMhsKewv7GGVSrzn90Mbnxe1+jDegyXNUW9HUL/vRPPThbJZSeNtE58ecKG4nFe96qvLH/5Sb3u8w3uN2xsJ/HJ+EALctawrc/v8DigozN5zuWh3YiA2Tg/hm4PWH/Y4z+2yaqaw6GYtXn3EPraSl6/V3abMBNZ+j4Mcbg0EH9kQxZCc86qK1ZsB81EitFwZcenO0ySlH4io31Z3IwL4Ipcb29juquh85LIxQnFtbq9fveMBaaOmRHbq6T9Ug+J8D4yEFjU9bLEpvvtl0MfOlYXYd4c57eKGs8Yxo/Px0mE0IIFnenipK6PvjkqmfZWH/ewehnPkD+SQfNZ+sydn+tjMa+B/fPoslFgPFhCzVdh7Uqmm+Hsw1zhsiJ66HKk7BPQiDNNls6p/OESoQIzvvoiLqq+wRfDF6eGps/gzG83SrWbQvC3vW3o6yQ+zlGb6+B8pry6VoZtZ0uRoFpL2lf5/k66oc+ptMAw//P3vuztrG87//7LLYUuPgZUsSVBd8mIkUEKd4CwxGkMOIUQSkOwkUQKYw+KYxIEXGKg3ARWENgXQTkIshNYF0EuQjIhUGGFCpcbGHYwoWewPVjdmZ2Z1e7lpTI/5SrCIql/TNzz2tmr5m973v2qtF1BSfDhH0XPX6C4MKDsyuumWJH9I39RsT65Mqo01oZjS/Zbg+JdtUsGZ+VsB4TTE7b2LAs2O9TbjgRawuyfjWCF/bNVCapBeoxV1/4TbHln/fQ+bsEe60yMwD2JmHvf6mrgPZ4xd4/68u2fCVcdwIMPlZQsGys/+0mXHmSbVRAcbsF90f+24TE8Vl99VfbTNjST/YD+0kJtb1+FBg8f5uM4ITjRwP9e83uZPZf/j/5LKI9aA8yQAYkA7ci7MfHDrofdfaZFrzTNsov6mjutdHYUiLYslH/Ih94wakL96CFshBrwmXlm4vG6wZq4Uq3pY4LMNqvwt6swzlVD8oo2M1G6f10gNfocw0Fq4j6oQpKDcbovVXBcamsOMN/y/Jhbopu8XC86Cof+JQ4m4zgbhdgv+pioILsgnN1bOq1tRTAaeGuOmH04DZ/9+EdOujqQL7dHgYf66jvOegd96Lv7bf9lKgN4L0XaQnLaJ/ENuq+spVQMe8h7i+CKwsof/DgiwDCax/eB5lBp/CmF4v7ywGia7w0V4EHaP9/dnx+JMz0qmOGuIyO0YOQqKsLR7fLlgPvSwP1XVXXf0pygrLZxmDcR/OvGtoHPfQOWuHEz7JsNI/NycMAbcHNVgdDJeTHXxqh0LVeqLJfDdH71EXzpbRL5WCA3psiqjtttN/VUAo5tGCJe4ryLnr8ZILhkQv3ow6MNtg566VY74Wsdw/76B/qPjDtQiOCGG2riOaRmIRMMBn31JsgCxup4MbRf6WwvSOhn7L5QqyL8h52UFU2iVawf7EeWX0hMUE0JirRRDL9XWISqTkyPi8HcHcrKIiJ314Po8SETh6XL+xjdmX7BxgIPt+rzFKCz88N1Hf0+FZHL7y+j/7bIuyXLfSV33/ws49WyFgBtc/pydpifXWhNhPtfeGitmaj+t9A9u2JGD9lXIH9KjkZyWqT9ANSt1Hjq9nXDJunGEufz79pKzJABsjA3TBwK8JeNp7O7lBCbd9cVZVBfeFD224aK0A6W80GyntKpF+PMTgZhQJT+oHamH6w6GC3eKIQ3v9CBqWW/0s/UAdoP5UrlpFIEQ8lvTKdFvYTD61QWBjibDLB4EMRlt1AP7GqOw7FvmWX0PkRN+CND85MYa/OVSuv1rNUhg71atyykmUKvjWxYWXY6NJFLaxDUtiHddh2YwEfPpx1u6UE85WHVjjRslH9LMXlTRkzgjMXnY9uatU7tslUB1ftZW020VNvPOQxWmiJCcQgWdaTlhT97+K3LLodk6JWt3kzfHuk7x36DgsXg61WMh3khRMJ2fJ+zM+ix08mHpoZ7Ii3A73XgsECavvDxOQsU5Tr9nttTLbEW7Djpqy/3ZITkLD9xnBfZfBtCq8FWRf28t5lXXPBeojrhIHrSQ51eyz9MxijH741LKC8E0/AxX0iYf+/LoZ6Fdqc+NslJN426T73tIz2NyVuxwN453ICPf4sJl7TE7LJVR+NcFJURPs05n/Rvqq5tuYan+Tk1t5JTfx/CrFvwX7WwdDgYZ42GX2Sk4KND6m3QMZ1lt5+vHb09pi2jfsObUFbkIGbGbhFYa8FWVJ8hg0S9NEMH3bJV/vRA2Yq57YPd1sIi+xXwf5hTa5I6xXZSYD+W7Eamy0gMkXKImJHl98UlDc8hKJ6TaW7nCDfFcf4bephrm1rClU1wUm7fYTl0q/STXt4aNlWJNLNjiLLm7Haft5FWQhVu4ruQQulV87yfLj1BCdjNVaXJzERE/XKOufcQcUuoHGk3liE9df2MusfT+aSkwDZYUb76g2OWR7FyNzH50wKha1zmdD3+BRPKCbfmtlvk7TYTEzwBmG7ionzlL00o4uwrs7Ja4OF6nFTvXXZlvopAmw7qD0roPR3B56RvjIS9mHu+pJ0wRJsh25bncidLu4XaoL/vyzm1cQxJ6ZhsLcRtl/8hm3RvhqzOo+w1xO+5rebB39dt9w2NNoisldqcqmvwc/5bE070U5kgAzcNgP3I+yF8Fa55E2RlPuAyRQwBhxa4FlVuGK1d8bxmSJlEbGjVtLNst/UULn1Eg/OqOwp0Wn+livsjXPOuygJYWIK0ejBnCFso/vKldhMt4eMa0mXEHGOdkEw2iG63y98p8uTcc/M9jLtk3GObI/YLz5zgy4torVvull+bU9TNC96/G8I+4SA08J+aiKpxGZixV6/YXoYwj5Rjxxhr9s3k8HwjUeK0dz2Vtzp3VufrKO660aucmYfjYTqrGtFTCi7Zh2vWcn6TZyvxxbdTjcen9FXzWtMjQW6veMFlMEHMZEwxoaoDtn98sbxSZ27uL2y72W2Af9PG5EBMkAGls/APQl74coiV7FMcZz7gNGizxRZiYeVfriph9mM47WQSKxo6ofvHA9O/aCeCk5MlClurNx6ieOjsmY8iPVvU2XKePjr8meKi/zjp12b4nJnd7ghOv9PCq3iMl/L67pmlD+zvUzbTZ0jA4LLobBz4P0UubhFmVM2vkmo+z3UQ1EZCybd7iazkY2yjl+WsNdviJ4qn3/NmXLRiVeCRdvpvvB4hH1kQ12vX/0MfeurWH9SRmPfw1i72GRcb3GheoOwv7HvmX1csXTj8Rl9VZRfnzM1Fuj2jjmV/cVG6/usvix/v3F8UrZb3F7z3XtpbZ/Rxrw224AMkIE/kYF7F/amsMx9wIxdVEORVYEz5aYjwNUPN+WaokWiZbqqxIBnCsUFHpyT78q3e0pQxvcwYcqtl3gYRWVNiU7zt6mHecbDX5c/01Ug43jl077YBkYiPqKC1lFP+dsXk37Iv/Nw1XbIsGlme5n2Mc8RsQDP7DCoWQfPTiYZ9RfnK5vdKNRN94pFj4+4jEWX5iKXCd2OqTYXeelFUG9xt68CnVUg+FodPcPFZDLR8QR/jrDX2XAKz2roHMmYHG3nvM/FheoNwl6PBznjTdTHdd/Ubaz/TvSbm1lNvwGJx76YscF7HRSuAq0T158eo3JZNM6L7JUKvM2zL7+ftjNtQpuQATJwFwzcgbDP8ovXrjg1uIYoyX/A6ABZC7VD03daQaJWS+OVS+k/blkbiYA1bdBMoagftilBlfXgjF19kgFx+vpCXHX34yCz/HotUdhrYWwlbSrLlCEW9CqwXc2ZLI3g7PcTwVujgxpqegfK0zaKYrJlp4XlL3ZcXX5TpCthkdle4reMc7xdIWriNIW59RfnqzYvTQVYTzBR7hKJic+ixy9R2IcBt29rqImUoKHd11F+nfQbl3XVAa0Wcn2sF2F9Rhvksp1zj9zj1X3iPjSLI+Fm1UXjxTrW/2rB1Zmy5rxOJFQzeMsuww3CXvelnPFGpx+NArE1t/P2VYPVeYS9DvKOsjqlbXLaRdcI5J2nTbS95n1LmW3DWW3K32k3MkAGyMDvMnAHwj4tsiaYXPZQt6fT9MkHTMbxavfD0E96s4VB6hW7DBZLiuww44sQQFvTwW6ZwbPa7zWVJcYXqTrDtwXm6r9YuZauRNZmHa75FiEYwX1TS+xYma5X8HMcZ3eJHvIZK/Y6U8zUZCNDqIeZVuRK3ca7dOrPrOBZldlH1G2tgvbxCIFIeSlsHaYRLSXSSIoV40o6rWKYgtGCnRFEu3BWHG2HDKEl7ZexAj11jrZLakJ3PUTnueGKcxXITDRafKazh+isRzmuO9a8x98k7MMsMxltrsuUaHOZSap+NF+qwczMOqa4W4h1yUReG8i+NG89dNBw3McTfcEs46z//3TR2OnCU6klFx0ItVDNjknJerAoYW++wTHKOPpPBlunU0mKcoWB2IkJsJh8LdZX9UTTmmd8Cjy0VOav4hsXI9Wvw7597qK+baasna9N9FsA8w3rojbn8Vlc8TtyQQbIwHIZuANhbyVyO090TvTNFjwzVaQ/QPuF9N2eSmsYPkDjNJmF7Th1ndjIqL5po6pXkvXDVrlkiIA8kVu6dzaG74/Q/1BHWeXHt1820BZ5rsNzVP5zy0b5rcih7qLzuob2SU+lu7RR/qeNjt48KEr/KMpsY/1ZCaXnYuOs6bLoeILimy56hx00/tXpPwOMPulc5zaqn1S+fVWH8YHK9vO8k5zM+D2VQm8DzWPjDUaYu1raUNzLu/Dhjwdw3tZQ1g/67SY6n1TayKsB2iqXezpwsWiIeP9HF1U7OXEKO2LkV26h+LYXbXxjuoPMu8LnHzVk6sanTfTNvOPXI3RD/3gLFSP1pLi//1Wk97RgGecMP6p9CjZr6Bz24e6LnOMtNEJhv4HGJxftXZXHW4tosdfBQZzve3zURDGjHfUKvzXv8WcdNSmsoJuY/MXCq556AxXlK9/qxoJMuaIVthoI890f99HX/06GGPspwa+zF00F2+rBY0HWxcRI9c1EGxgCcq56hBMmOSGe7gu6bHfwGcRMiTdOYcC9HjdyPv3veoJfRvu70eei48WeEEKs2yi960X+/eNjsTdBhsvaon1VuFipdLPzjE9iIh6+URP9Q2X+KYlN6DLe0OWPT7otdArVJQfMR7bT9+EnBQ4ZIANk4HcZuANh34Qb7Zgq08mZux+GFYgElhSlUmRmrAKK/NPmrqrWjJ0dr8fo7+kdSMWxcldY4a6x/lcbvbPUA/qip3bHFTvaNtRKvHDrEdk1RBBmSkBdj9CLdjiV53SzHvpXA3TCjbkKKAsfafFAy6yzrH/rRK88m/awIHzBo5XG8C2C+t1c3U3tzBruoOqL4FGZy3u6DirX9xO5gih2BW4dGrnVE+U020THNZhl1H6+i+w8m1/XbBuJe2SfI4OhR+jtSHcVWwRRHsi6jA/FZmXCBnoiF7dB5d9evJutmKS9bMDJ2i1U2WKe4/UKtzlhCn35E/bUthN1yrKnsncwQCdnAiavb6P0j1GviUoPm7O6HPa5eVnPKq94q5L1fRjcfkM9BPdZfeHOBF42N9KGmt3ph0pWW2av9E/vRC3cpfRO1FOD9aJ9dd420/a86MW7dIe7bscLIomyzGoTlWUsdnWctlHievr+/Ey4MtJG5IYMkIG7YOAOhH3+A/MuKsh7sCPlMqCFela6yyxRsujxWdf4xe9GB204Zz7GZ168Wi9W7Y8cdPYaqKwl94SQG7plbJj0i/fPtSGvt/riLdwIzpzUc0xhfyADZIAMPFQGKOwpTFZfmOS18aJCfdHj8+674Pdi74CEC0zG+eJNTjJYVrqubRguVQ91EGK5HvIDUsQDFKZdHTMYZDs+5HZk2cgnGfhTGLhFYa8DNs2gU4L1p4D1KOqpNn6qmLu83iRYFj3+pmvN+5vyly//O8yfgF0N0XmTynEfXl/4fZeWl5J03jLzuPy2emS2Cb41UX6r3AcfWdkfxRhEm65MXyFv1HcPhYHbE/ZjB7XQDzwV4MmBjAPZg2DAh7dXQuhfbQaq5pZt0eOXNMgZQdoi/qGx14WrA2eFG867Osovm+gbaWMTg8v1CM7ftZyUpksqY67NeP1EWzw2O104aOiYoMdWdpaXzxkyQAb+UAZuRdjPH2zGB/+jfvA/1k6j02SaAchWRjpNXb9Fj9fnLevzegzvoI36lsi6pAJuRaaT7Qa6c23IFGD4uQ3nNBX8vazy8Tor9wAdf+2g+22+Da44hvE5RgbIABl4OAzcirBnAz+cBmZbsC3IABkgA2SADJABMvBnMEBhz9XGlVtt5OD1ZwxebGe2MxkgA2SADJCBJAMU9hT2FPZkgAyQATJABsgAGSADK8AAhf0KNCJnq8nZKu1Be5ABMkAGyAAZIAN/IgMU9hT2nKGTATJABsgAGSADZIAMrAADFPYr0Ih/4oyUdeZKDBkgA2SADJABMkAGkgxQ2FPYc4ZOBsgAGSADZIAMkAEysAIMPAxhH4g83S1Un9honSRnHpNggPYzG/azNgZB6rcVaIBHOdN8MG3ih/nZO9/8pQ1GwU8P3Z0yClsOxnPw5Z/10P5rHfaut7QyPEom5rDVY6/X+LCGglVA7fB+87v7P1y0//Xg/6rNf7qorVkobLtzMf7Y2+3G8l/7GB51UH9RQOUg1a4PZZzzPXQ/uBhe5Tz/Zv3+q5zwPI7pZOBRMnD/wv68h85eA2VbbrxDYZ8zeD+kDvYQHnhXQ3R3GuhdLMtePvofmmi8tNVutDOEfTCEs9tEbVNtGEVh/ygHwBtFX6rP3b+wDzDcb6DxZfR7tl5hYe+f99DdqaG0WZD92LKx/qyC+scehmJ35gsHLS3gL4VgjvvwgxX2gkMx3v1dQ/csZ5O5Wb+nWF6Eex67rGcMr0OW7oaB+xf2asDx3uUI+/sakM676KbfHtxXWXjflJAZwXlVQff8FjrJeRclsbvrnCv2wdeGFBAU9qk2uoW2+cP7weigisp/vynql27DEbr7D+Bt1dUQzj8l2FYBlV0H3oUhgK/GGB61UVmTz5jKp6QNR58qYR+eEvZLt9W8fSLHplceWs+qcPIWM2b9fm/1mbfePI7Clwwsg4GHI+x3H5awH/1XnnYL4sD4AMRbAG+3iI29we2U5aeDygLCfnLSWllhP/hQRftoCP+ag+0yBtvfuUZw0kLxaRuDhzYGnXdRXsKk9rdYCwWteNNWROsmtzxxnHjDlirv+OCBCfsbbBp8a2JjswUvxy1n1u+/wyDP5ThIBh4HAxT2WQ/Kny6qtkVhn2Wbe/5OCJwNq3w7q/WibhT28YRprOIN1spo7HsYM8Ylts1d9oPAQ+uphfJ+cqX5/h+yY7iv7Cmh/Evl+mXWAvR3pPtc8cMck/0M0fywhP0sm47QfW6h+H6AIJPBWb8/DmHySwxl2oP1pS3/PAYo7NODgfBVFA8ri8L+4Q0II3RfWLCedzFKt9uy/qawnxav/gi9jzWU1tZR3XUxEL7Ky7I3rzPTlqP9MiyrdHuT2V9qgwDD/6qwxdut1Ar4b7GxKGunbWyIMlg1uHNxGaD/KRk0/HCE/Xw2Hf1XurG+s37/rfb5JVY4XtDmZOAuGbh9YT/uo/O6jHUVHFvYrKBxMJzK6ODluOIEFx6c3SrW7Ra8jEFlfNxG7dm6fMDYUngksgeEGXfaYdYDGZjrw9uroSj8LcXxH42Vj589NJ6p4MnwYSHdg2J/6wCDvRJsu4TWieHDmVEu2YgBRNYUUX+dZcX/4aDxQgZ2FV4YwZ/+EM6OslO6XPr6V0O4u6rsonxrRVRedzHwzU4TYHzioPXXOqphkJior7CfrG95x0lmV4gyElXh/JxgcunJLC+WBftJOWyr9MpQXpuIunZ3qlh/JQNPgzMHjZeybRJ11fVRn+PjDurqODGhSv+LfF/VQ9x+n78y538zryUC52poHeWsdF6P0f9YR/mJbPPCZg3tT+18VxzftL+N9ZcNOP/Wp11xLofoh1mepE2D007o32s/qcEVNo7qPYPd8DiD1zAQsIbGXh0NHQAYHhNgeNAw6lFB/V0T1Q9L9n2+ltmrKms2Sn930DvPzkY0xce4bzBVRedU9R1hf90XrQLKO72MCZsPz2gj0WdL262poOmon4UiU9kj9KkuoLjdhpcSfYsePwlysqcsMr6odg/bP8HSNPOWpce7AdpPRd9tTbnh6DFT9peK7L/iHnpyqvpS1H8UK1HdE3Ekctxoi7FKCXX/Wxu1MAjVxvpfHQwi948xeqE/e7rcRhnMuv7K/+diLUD/rRqv/+dksBP3Nd3nsj7zhP0Ux+l6CK63S+rZJmzUgpsIbr0lm35rhmNOKS/eYtbv6Xrw72hMzuKD383Xj2inh2OnWxX2wm2iZBfRPBrL14bXPvrvNsJBKf0qUT+kzKw4wyMX7ke1KhQ96LTxpK918Y2LUegiEGB0WEdRCNJnHfkQvPTgHnRRV5lLWkcDdF7X0T7ooX+kv7fRPE6KdD3Qm2WR0I7hbMmH2U3iUh7rwzt04bwtSuG35cD70kB910HvuIeufjButjEY99H8qxaWq3fQUkFe6XIN0Bb12OpgqIT8+EtDrla9UCvYV0P0PnXRVJldKgcD9N4UUd1po/2uhpKaXFninpMJgh89OPtNlZGoAue0h/pmFY29Npp/i0A0WVfzFXdem4jvnfdleY6u604X7nEfrv5el9N4kIiAQNuSjIR2G/fQVO21seslXjfLlShrOi2dup7/pQ7b2kDji0pb5w/RCdsrbUuRZUIEotmwX8aizz/thi5YoVBKiB6RTUOmCDR5Gx81Q97C45UYCk5duAet2KbfXDReN6LsOfUvQgzPwa6q0+BDEfYrRzE+gS6jKdbCem+20FfiNfipbKhXUlNCLz1xyvp7mn3d78RnADEZqz2zISZs3ZM4TWCaj95pB/XXHcnBXgUFwZRdR+9CZPmoorHvon8oryXKkXQ38dF7bcN62kBvLO/v/+jIiZfdRD/s92P0D7robKt+tuth8KGM8usm2nuNKGAyvGdon0WPl5Nd99CJuIxs/4vjS8jepgX7VVf1ZT9e/bZS4nhWMLffQyPs16nzJvFYG5V3Mj0myZSu4nsH3Tfahj0MPtZR31NjlfrefttP9MdoAqE5E8zeIWuTyQAtPaaZZTDGl3nEhh7vYztNkOY4vagUxjxs1uGey2dHcO7K54xdQudUsLpEm6bro22c9+Zy1u/p6/FvCnsysFIM3J6wv+yhblsop1YVgu/tUGAW/uklVu2zhL0clD00Q4GpV7DUA16IuKlgMuFvKcWoKRAGH+RkovSun7hnXkYTPdBniZvgzEXn4w05hdMd5EIFY242I3Ei66UnCTbKHwaJcomAzFBUvzNWXFWQpvnwEQ+2cDXPaibeZuh6bWylVjYvnEi4xvbRNttAZTe5YipFt7Bn2qc9u00mfg910VZr6bRs0u/TSouWSxc1cfzrJAvBcVO9gTFXKYXvqWzbrHaZTLQ9pzkRgjGZCSOAJyaYdgP9aBVScXVYiyZicR77kZzQZUxMBnuSraQ7QmzT8p6anFyPMTgZhe0cCvG52JXCpX6UnHiK9pVvY0SZpV2K/w6TA1OGL/E8ImfRY/xTN3w7VHhSRfurmsBPNB9VdM+Sq/rerlxhDSdIZlCuFiPmyqv+LiHahNgXHFSS2UG0AH5WQ1e/ERB9UQdMigm/KUwXPX4yQV72lEXHF8nMBtqhAJTcTSbKzcyyUP0cT5TGn6uSx4QN9Dmy/eViQ1rYT6DHseSYIVM+ZgaIa7eWZ81okhjyEPTRyBiDIxGfWzaznL///ynW9Hgz1b8Xu1eunSKOk2PKJHy2pdtvAj3uWuY4cSs21f2rjl7iba2u96zf9XH8XHS84/Fk5jEwcGvCXvqFph6+adFr/H2TsG9NPVSkiMtaNdeDtPUq9qPU300JQi0cTAE9iR+IU8cb5Z27cfU90ivAkwly65x1zrmDil1A48gUSlrMph7qmZMA2SFluyTTOcpypK4R1jUWG0lx4GG6TcT11fe5dU3xoF4ZJ0XxBJNMIRGvzmW3ixDrhfBtzdBsp6ysNUL0CqGXJUj0RMyog55oJG2gBricOkQ2nUpNtwi7auJmvKWR3HlwIvGnhK6xqi2PGcM5MCaGpk2W+f+xcJWroLBWQevLSK3o5vER961pW2acE3hoCref1LaoPoMAACAASURBVKQls9/oPpPRprr9hDtLtPK66PHGuJAu+2LjywjO/9TExHDLEm2W9UZq8F65mmTUK2rn8K3UdP/V5UqXNxLkBuPhtXJtoseZ5AJCdJ3csi1ZBKRZ0+UVwj7hmrbYfXPtpMez1Nvi8PgM16jIHlYVrnrDFH03ZaPfsanuK9OTC8nErN8Xs4+8Js+hHcjAY2HgloS9XlUzHqQzxETmwzo8Rw9S5rX0d3IFN8uVIPZRjcXElCDUD4bUA04P9FPHz6hDZqPn3EMcm1vnG86R94j96KW7TOqhfoOwn+iVSuNhFYnQlNAQ99JiIym+tf3NNhGdXn2fsmduXbUoTk2souskHp76nnMGNV8O0RO+2Sp3tVl+XadMMTBle736nnPfrIlD1LapdknwPCe74W6nwn2lhNrHHkYZK3T6LZilc3hrUaF51XUKJ8g33Tf+bRb7wk9b7Li7/qKOzrFeqdcDv26rNB9xX5y2ff45kvlJHK+i6pEoo67jlIAyJ4pGeyx6/O8I+0R/MIR9atKnxx1zxV6PESa/2h7yUwtEo26q3fX1pmyt654ol+FGM2XDnHvo65jH6+/uhDW9Mm0ha5EnaSfN5vRnrp30eGaMleKaUZvcUMeITW0P00Zh+yxgU92Po0/dV3LGpKjceb9P22BeW/E42o4MPHwGbknY60HLWLmIBqVso+jBMhoQo+P1IGaIBDVY5gYPRefKe+mBe+raetBNPeByj09ddy7Ac+4hzs2tc+45vgqSFEHCDryfykUk7eJyk7CPXl/H9pTlmBYGoozCbSScOCUeTBltEtpGfZ+yZ25dgz6awkc27ZaiXHQSrhPzPqxUoGYoOEUO9uPpPPPa7lOCR9Rhyvaa5ZyH5KLCXl1/XnaF7YKLHtpbeifNAip7fYxNNxZR7stBHLdh2Sj940SxGOIay/knfevrL9ax/lcbvZSbTXyPPD5+TdiLAPnqk3WUX3fCe/azAu11uyU41fXWLmsG44sevzRhP4F+a1Y7NN++TSBddJJub5rVRyPs75S1uG+m3fliFjUD+Z96vJ8eD7I4VvfM829P1z+XM112g0lxbu7xZvl1uXLGpHnHynRZ+feSxkmzrfj/Rfoij10OL7cm7KU/tD13Lnj9AJsS39EgFQtRsaIb+t1vu0nf9JyBSQ/cU9fWg2hKiOYen3P9G2HMuYc4J7fOWefoYM8o4E4AkPNwmEfYGw8mWY7UA0bVVQv7pBDVDxazTUR51Pcpe95UVxlgbaG425cbIV2P0RMBx2t19BKZTLQ4y3uYTTD6XEPBDMQVdcgQ3truSb971aGmbK9tbKH5LaPTZVw/rm+WTRdj12TLP48FfhhQm8WjyAceBWbnb2RjXnfm/6MMJWpXz/Qbgaly5PGxqLAfwd0uwErFp+j2S/Rn3W43CvuGCridJaA0a8bxSxT2wp8+rJddhaOCL/0fInDbRuljMuOT9t//Y4T9gqz5OibGSrbVTKYNZvV4P5+wn0Dukj5nes1cLvW4khojco83xx7dv2y0vpvf6//P+l0fx89FOOGx5OWxMHBLwj524bBTgZHaMP6XbiLwJ/NhHQ6+epAyRaT2/S7mpJ0M4P3nRunP9MCdEALi2noQTQnR3OONh4Gux8zPnHuI83LrnHGODDpM57LOeTgosZkU46pTKlccc+dWWY70teXx0m0l7cuZ1SbiePV9yp431nXio/e2hppIsydebdtyZTadnlBkmZBBkzkCW9tsJ5W5I0N46/a1siaG+jpGHXTAp2mzqN0zrh/XN/XQDvlZhF0P3VTweWiHcEMe3SZjOP+l6jyZYPivyH1uQWbh+cUBWbgziVSpT8qof+wvsEFVHh+LCXvdTo2vyeDhzH6j2y3d/sLmOmbDbO9Fj1+qsJ8gOOugvl1H1Ui12jocJrPOmG/MptzVdJvmjAE3lDdv3Iu+n5oc5dxD23DqeF22BT5/lbVgIHeTFRmVpvpK1v0DeB+7GBhvvDRn8wp7/calmMrapceE4FsX7rm6d66Nfsemun/lvRGf9XuWXfidbj9+koXHzsCtCfvoIWFNZ33xT9qovEuKkcyHdSiE9CBlCnvpIhL6l9slNA4G8PWumFcj9N+XUTF2adTZLBYV9pGguBxHombhrDh6YDeEooYmt85T5+iHgBZzquNdD9F5LvyilYC8CqQw0GIzQ+SI9InR8WqiossR1Vd9H2bdCVNsyrz0utyRgE/5nkZvUuauq0z7mM76Et8nOcDc6Buv62yKN1MYKfERXAWQWS2E3TbQ/JYUjZOM4NnJaVultUwF/wo76TiBlLiRNs2eLIVZccJJzCx2PbQyMvcER8I9SrMg2Ei6b4T2O+uEZf4dYT/4UEVbuDMZIiivbZLfZ/dZccwiIkpzmXRZ8dF7I2MBZH8OEIi+r/uM8SZKl0naeyO5CLDo8TeUfdHxRTBWfdFBIsg76nNJ5qOYmIw+JeunY0A0D3psGMFVaSqn3kzpuqevqdlPsZz7ZlBfJxpnfIx/pvpTXr1S3/86azLLj9gp3BJv674m3Zs0A9pWw/1WvI+CKsMiTIbXURnfLOXyNrhUdb4OMDpuofw/YwO927Dp2EVVjB8ZrIflm/V7yvZJG6X447F0zyEDj46B2xP2IvAyzFEuH8JiM6XS8xJKYoVqM+UiIASq2FFUZDcwBHk44Jx1wgwmQox2E8FmozBHe1bgbMJN4XoMZ1teW7zmNjdb8o8aMq3i0yb6RlCidj+xX7bgHjlo7eoMO/oV/fzBWnn3mFyP0FU58dN19r82ZX56o1zDjyrH9GYNncM+3P0G6jstNEJhv4HGJxdtXU4tcq0i6mLSEwqzADLvuo3qQXLDJi2grM06nFP1YAyUS4xwF0jYfYJJTpsItxq5C2Q9uQtkXvuqB1Bhq4HuYR/9Y+PfyRBjPyUSVDYbK2v1UsQOhA93G+W3DnpHDtpiz4Jdnb6yDVc81L/La0q3HSkG6vseRr6P8amD5nZZ1aGI2rsOnO/CHgG89yqvv11G60iUzcfouI36S9UudhmND230xEqdP0Bb8TyVyjQcJOdkV70BsZ810btQtvDlzsgx42rSJ1KMnvqSb+3OlO5ndzVA5/Ah3jbofSw20qlnz7syP73Rz/0jsS+BeItTRvOgh95BG/XXbbT+VmPFBxfd3Q4GprAXCwnv47cLOu//1OqqFqXzHi/eGIVvSiwkyv4L40uY6UYEQ4d54g3mj/sYXPgIEhMp/YYnlZHGaMtooqjGBrEXRu21C+9TRcbHbNbQ/NCNNunKG5PGB6qvPFc21feIcuVvoHlsCGcdryP6xGEPzm4rsQHbXQrG4KyLWhgorzZPOxvHdrwOMBbB3tt1dBMbSAkRm9Ouou65HE8w+iL3TJl6/qTGy1ux6XeZDnnjQ9JtK7L3rN91u/Lz0Qm2qI3Zdmy7Gxi4VWEvIPS/dxHtKrpWRG2vh5GZOzx6wMqHtRwo5ep8JDjFw139S74u9TE8bKndEeVOqfWPXux3n3ltsbqtV8Dj64rrxyv6I7Wzoo31v7vGTq2L7DybfY+w/JHwNu8v6px9jizXCL0d6a5i7gg7DrOmpHbtVNev/NuLd7MVu5aKnVJ/GA9mBYa0cwWdo3in2NAlRuxSa0x4RHvmtUnW96FfcFZd9UphMEBHbaal2zf5KYJAzdz6PlwxSctZqRI7vErXBmO30WCAttiI6omx46mqd7gLsNrxVtvUFytsa2U09r3oLY0eTMNdjsOdOC2Eu9Qej0MffnHtaGU7q776jUqiI85gNzzWQ+tJKZwQ652bxQS5lgieFRNXOWkOd1MOhfA6wh2GU22n63Gbn7kc5PbFfKbEhGrwUe2aHNZb9m2ZBSi1G6q+/js33lnaMtopYXtjhX+e4/W1jXEozLqV+f3s8WV8lCMK9fXXKolVZelHnv32R7Zlyk4f5b4YYiW6ILIWRW9d8saX7O/FWKVXsxP90ljRH31phPuSiF2Vp0XzHa/+Xqvdgbf0brBifC2guCU2JfSmA86166C2e/gp335mcZx89kzg/3DR2i7muBDenk3lm8uMt3SK8Vm/32b/57XvmPn0uMa/KfgnE9y6sGdHv4eOroX9nLmd5UNMufPc8cAwOmjDOfMxPvOSK/ZHDjrhzqHJAOzgewvFqQ2z7sHGd2wn9qMZbaxFtiE6b7TZoscvs719Dx0Rs+CPMDDfUoldmvfVrs968ivuq/zI403lZthimWXltR6YUJAThvSu3DHrs34nO7GtaAvaYjUZoLBfxQfXIxH2wlUr7YaUHmjEimEyG430y89/sK1mR03bhX+n2nlRob7o8csaJ8LsVs04O0/mdT20zB14RcrTkxaKT1vwdCxR5nkpm/CYBybKl9A+It7nJhe7Wb+TidVjgm3KNk0xQGGfMshKCCYV0DkVNJdTV5m+LSMwNOf4pdhI+cuXU7uKJq59NUTnTRuDqXKM4LwqJYMhp45ZwkOU13w8A6YOUsyKv8hqx0WPz7rGwt8F6L+1YdmNREawBPPCffGoicaXaZc5MREu5WRiSV+Df69i/xfjXhVdlSJ1uo1n/b6KNmGdpjmgTf50m1DYL/xwfuidxoe3V5IxCVtdjBKBeBll9z20wwDcjMDl27SNWLkUGXeUH3RjrwtXuyUIN5x3dZRfNtFP5LI3yn89gvN3bTqw9zbLzGs/WKEfBSkaAec3De6LHn/TtRb5LUooEKZ1baJz0Itc0IQbTuOvEmr702kv9T1GBzXUPiWD3/Vv/DTGh5Xrq2Jcb9wQxzDr91W2DevGvk8GTAYo7FfpAaDdCxLBYGZQcBL+zMC4qRSWyXNMeH77/+FmNG3Ut1QAmii3vY7SdgPdo1EcBJ3bRgGGn9twTlPZc3KPv8W68J73JPp1ak0zEN1COtAxZnXR45fPjNhorLtTkxnCVF8tbFZQ33Pgzdz8S+TAd9H+lMzwFddv+eXlte/ZpsEQ7r/uVCKDqF1m/c6x6Z7Gpnvmhu3+x7Y7hT3h/2Phjx6MZIAMkAEyQAbIABkgAyvAAIX9CjQiBSpXRsgAGSADZIAMkAEyQAYo7CnsOUMnA2SADJABMkAGyAAZWAEGKOxXoBE5Q+cMnQyQATJABsgAGSADZIDCnsKeM3QyQAbIABkgA2SADJCBFWCAwn4FGpEzdM7QyQAZIANkgAyQATJABu5J2AcY7JVg2yW0vzNV4VRHvPYxPOqg/qJwQ9q+JcMb3rON6hMbrZMlX3vW5Omni9qahcK2i/GsY/k7V1TIABkgA2SADJABMpDJwB8u7LNzWotNkyyrAufnHQtcAemlh+6HJmpq86b8fNzLK1vww0HrbQ1FlVN7VYW9/8NBI8qZX0BxqwHnx/QOn4mJltohVzIR50ov78/aJMjH6KiLxnYJxbV75IkDX+bAl2hj2og2IgNkgAyQgRVh4NaFfXDchXsfAnmRBhq7qNtKtG020ft5/28RRv/J3WPvQthLkROgvyNtcOfCfpG2mnnsCN19b2qA0jt+2k9KKD0vYV23t2WjepAn0gP039pyF1816QkFvt1EP8ifWAVnDhrPbFh2CbWPLgYXPoKZ5c6/HkUobUMGyAAZIANkgAzMw8AtC3shFqv3s/K9kJDy0XstRW3lgWzXrneFvTthP4G3uwLCXqyw76aE/WUP9WepCdv1GL23RSXay+ieZwwY4lrb7hw74Mbn+l+b4ZsP+2UbAz/+fp7OyGNoLzJABsgAGSADZOB3GLhVYR98b6F4Xy4tCwn7WNTepZC+qeEo7H+lY4/hvrJhpYS9/6UN5yLreiN0X8jJTPXzOLXKLyalJbRPs87L/i44EbxbsF85GF1nH3NTm/M32owMkAEyQAbIABn4HQZuT9hf9tEM/cTvyVedwj4lVGd3lMe9Yh9g+F8VtnCZSQn7mzrI6FMlXLWfmtBp3/q1IiqvO+idzfDFF28FhHuPXUfvcratbyoTf6P9yAAZIANkgAyQgV9h4FaEfXDaQSUMGJSroVHgoRZcVyN4B63pDCxBOhuMj+FBA+XwWgWUd3oYKcEeBkK+XA+FnP2kis5ptl/8+LiN2jN5nGWvo7rrYng1DYsWtVMCb44Jgv/DRWu7iELoh21j/WUdneP0CnB8z/FxB3VVdsvKDuLMWrHX30X2TL8N8YdwdioqWNNC4UUdnW/ZgjRRZnsd5R0HnTdZrjhxBqPWSbaNNXjp8sW++qkgZc1BaNsA/lkPnddlFLacRFYc8X13p4r1V/L70Hdd2a3wooFetAo/Ru+fkhT1pi982j4ZbSnLnM4EJFbrp33rC1tteJmiPYC3uxFOEMr/5fnrx+2v7cVP2oQMkAEyQAbIABlYJgO3Iux1AaVYTq3Yn/XgHnZQVcGLkfi79OAeOmqV30Llk4feTh2tgx76IruICEa0LBQ/DDD+2kT17zacox6c3YoU1FMBjUJsFVF842IUBjoGGB3WpavEsw4GKZH3a8I+wGi/CnuzDudUCejLAZw3wnfbRum9lwqaDOC9L8E2A3TFm42nQlAX0TJSf2qRnJxojOH8ZUEIzP5FSmRfOKiuldE+0eXw0H4pbFZA/Sgp7kefayhYRdQPR7J8gelvbqXSXY7hbEnBb78fzH4LcD1ER7m3RG2rbD3al6vj8Yq6D+/QhaN93Q1hPzxy4bwvS7G+5cD70kB9pwv3uA9Xf/+iG030QuZ+OqgsuGLv7dqwnraneAivd+VjfNaHs1uNg23XanCjCYUajPwe6uGEoozOyQDubi0xuep+T9pf9w9+cjAnA2SADJABMkAGlsnA3Qt7JfK8d1mrwxNo14ji2x7Gpp+yFm12Ge2UUArFmWWh+S2Gw/9Shz0l2OLML+l0hb8i7GUMgY3G15TInmjfbRv1L7GoC8tkpQM11Yq4VUDDEODTwt7H4EMVtf1harIg6jxAe9NC7TC+VwjJeRclITjNSc+FFL/TK8sDtMMJRlrYTxCcueh8zH7TkQWjtmVa2E9OWjJYNbFiP8FElckyhH14XS2Y12ronpk2HqH7XPCTmjRqRtLXT03i4jKLOifbKP4tZkmWZaAmShbS5Qy+NmS97DIanzyMVcYc/7SrJrBFzHrbkXvf3LKnysfjZk86aSPaiAyQATJABlacgfsT9jkZWKYFrRYw2p2jBS/VKNPnyFXmrBVmfaz1KrkZkhajyRVyfe+sTx/uthCXjczUh/5hTYq9aFVZif3/OclV5lRdtMDT5QzLczVE9+/q1IRGHysEs21V4Y7T5dQ2s9H6Ln7T6RtTgliVIW+yFd0np6zp37Ut5xb2WpCnhf1ElX/qex3sXEkGxerrzCnshY3t1735s95ceWiFcSMbiaBanZrU2ulPTbqE6A/9/s3J1Zx2TNuVf6f55t9kggyQATJABsiAycCKCnstaOVbgdgn3fw7OUHQYnRuYR/00QjdL5LXiYyrRaYW3Hr1eQHRKcpdeddGfdNC5YYNkfQkILuess5hvWaUWdtgSpAvKERzr5O3Yq9tNSXgZwn71NsFfZ15bCxcl5614GXEW0RtmFFvLdTNLDq6vrGLkTnIeGiFbmd6cmX+xv/fZGv+Rj7IABkgA2SADCzGwGoKeyXwSgsEMmpxNrew1yLSyhH2erVZu4vo41NvCvKA1WK98q+jVonz3Tlk2bPfHCSur8uQU2Ztg5UX9mLlfatuBN8u0GnUBM3kZPBBBs5mC/t4j4TftWuiLTMmHfx9gXak/fg6ngyQATJABlaQgdUU9hMPTbGavsDmQlrUmoLtRqE0dlENV+xT7iARJPqtQVO6Dunj7byJQFKURML+YBz6oIfBxnY16Xqi7iXjEpLuIZllj4S9KlNUVnlvbYPfFaC513kQK/YjONu1TDtm2ixlo0k4YUvaWsROhG9LMlxxxDVz7TF17SQD85WH59BOZIAMkAEyQAbIgGRgRYW9Dl7NW+UO4P3nJnzdtfiaKewDD84XkcpS3yMjaFUINrWya7/Vftc64DMvWNNHbz/2904I+8kEevMja7OJfirlYnDclGk/xcZIWWLxwkH3WDS4dgtJClPdGbQNVlfY++i/a/yGqJ9gctZBKYqbUAPppYtaGKScNWlTK/b0sefKUFbf5HfkggyQATJABpbIwB0I+xK651IABT/HUaBinohMC1otOuVKqfAXnxZPWefIDDQiI0wJjYMBfJWpZHI1Qv99OeWzHrtL3CzsRQrNBlwlrLW/tbXZwkBfXzWOFNvFRJClLqeVzuxz7cP7UEHzOM78oo81yzM6UBswbaZ9w2VWHLFqnEyFGcA/dVB/1owCfAcfRCpOmdklPQnIC55dNCuODiZNZukRWX3K8t7vvGQn1m8SMnzswzcvU9/nrILr60Qr5z7GP7VNpahPZtdRwnwygf+tja7eZfZ6jMHxIJmVKWzXEZxXpURaUs2ntGvGpO2qj4Yt07TqY/kZ2522oC3IABkgA2SADCyPgVsV9tr3uPimi95hB41/BzJriJHrPBkU6qOnNgbaeNePJgFhg190ZY5yq4KumUf8Wgg26eOcPGeEXphP3gyYlf+30yvbY1fuGmpZsHfiVXMTtGA8RE/kT0+498hc+aGg3u5ioAS/2DyrvmmjepDerEgIw3jjo8JmCaXnpTBHenHXyHl/PYbztyxruk7dl6oOL1voG1lwgtM2ympvgFC4h25C4tjUWwvhX672BLBfttA7G8P3R+h/qKMcZnyxYL9soL2nNwOL02BmZRkybRT9/7Qd7hcgJjBNsQ/BYQf17Ta8I5XuUqSF3OugpyZ8/pHKHPO0ib4fwy3eUmyE9ahHk6nwHnn86ABlu4zWodjjoAX3p7jeCO52AdZaMbS3sHni35NkLvvx56qcgGzW0DkaYuz7GJ04aG5V8jMTTVTbiklbtJfAAN1XNqZ4W+LMPLI5r5mcLNIetAcZIANkgAz8gQzcqrCfXA3Q2SqEmySVd5VQ137WkfBUecH1aqv5vQo81av7CcEqMp9knmOu6PsYHrZQ2xRlsGA/KaP+0TMmDNoPXorlxPUT5Yh/T65CSxE6tZPsdgvuj1RO+QguH4P9OspCTIoV9s0a2kdqoyhxTJZ9lB30Kn6inGYGmHE/3MF1PRT4BRRFORL535Vovh6jv6c3URLHtcNJgtgPYP2vNnpnZtnn33nWFJmjL2rH4HBXWxcjsSeBSMv5pIrWgc71Hm9+ZdZJuALltnmWfYwVfXHfki3aWue+H8M1JlPmfcz/JwKtr8QOvmW1k7BoowrqH3sYGZMOs67x/314H+tqp2R5XuNgaPAWT1ric/gdbUEGyAAZIANkgAwsh4HbFfaRmF1OYdnotCMZIANkgAyQATJABsgAGchmgMKekw++qiMDZIAMkAEyQAbIABlYAQYo7FegETlrzZ610i60CxkgA2SADJABMvAnMUBhT2HPGToZIANkgAyQATJABsjACjBAYb8CjfgnzURZV668kAEyQAbIABkgA2QgmwEKewp7ztDJABkgA2SADJABMkAGVoABCvsVaETOWrNnrbQL7UIGyAAZIANkgAz8SQxQ2FPYc4ZOBsgAGSADZIAMkAEysAIMUNivQCP+STNR1pUrL2SADJABMkAGyAAZyGaAwp7CnjN0MkAGyAAZIANkgAyQgRVggMJ+BRqRs9bsWSvtQruQATJABsgAGSADfxIDFPYU9pyhkwEyQAbIABkgA2SADKwAA3+esL/2MTxqo/rERuuEs9g/aRY7b13HhzUUrAJqh2MOciswyM3b7jyO4yEZIANkgAw8dgb+KGEf/HDQeltD0bJgWdaDE/b+eQ/dnRpKm4WwfJZlY/1ZBfWPPQwvJ5hcOGgdUGzedqejsOfAftuM8fpkjAyQATJABm6DgT9K2EsDBujv3L2wD467cH/mQHw1hPNPCbZVQGXXgXcRxCvFV+PwDUNlTZa58mkU//YQV1PPu+jyTUjcRrRHbIuHyCvLxPYhA2SADJCBFWLgDxT2E3i7dy3sxWSiCidL2F95aD2zYVlFtL75+Z1LHLdpwdr18o95AGCO/is/uDchtzEjnveatEfOZPYBsDpvG/I4tiEZIANkgAw8FgYo7O9AYATfWyhalQxhLwS/EPUWih8GswX7eRflhyzsf7qo2g/PxeneOiPtMZvpO+h/99b+rBvbnwyQATJABu6YAQr72zb4ZR9NsdKeJexP29gI/f1rcIUP/cyyBOh/cjGeedw811ryMVdDdF/JSQqDkieY0B5z8LxkBh9iv2CZyAEZIANkgAzcIQO3J+wvh+h9rKO81oI3mSA4c9B4IYNCC5s1tNNuJ5dD9A9aqD6RLivBaQfCr9x+Ukv4pvs/XLS2iyiEgtjG+ss6Osf5AaWJ4+11lHccdN4Yrjg/HVRUMK1YOTddXbTLTvi9JeuRFN8+hoct1HSwq72O0nYb/bEULLoO8nx5z/geAfpvpRC2/udg9BuNPj7uoP5yHXZYjwKK2y24Pwy3nl+pYzCGd9BG/UVBudb48PZqKApff3sd1Y8DBLrMP3tohO5ERh1FWbacxCRkfNxG7Zkqp7jGrovhlSnuAoxPXXRel1EI30yM0FOxB+UP6n4/XdTWLBS23Zk2S7af8cYkZY+KGZAciKxJnbDeie8nAcYnDtpR2Sbwv7VV29tY/6uDga7LnPZIsmTagf+nbcgAGSADZIAMkIHFGbgVYT8+dtD9qLPPtOCdtlF+UUdzr43GVpzxpf5Fis/g1IV70ELZVivb31w0XjdQC1e6LcjjAoz2q7A363BOlWi9HMB5U4TIHlN678VCUwnO0WeRtrCI+uFI/haM0XsrjjeEvTp2+G9Zfp92dbnoKuGfFvYjuNsF2K+6GKjV9uBcHWtXE5MRKTANYRnec4BWWN/kZGIxiH303xZhv2yh/1MG3AY/+2i9FBOGAmqfk4G2c9fx0oN70EVd2b91NEDndR3tgx76R/p7G81jI8h3MsH4oBLacHrFPoC3ObGabAAAIABJREFUW0TxjYtRICANMDqsh9mJ7GcdDEJ7jNH/5KAbtqewSQ/eXh2Nf8pywvK0LY87aan2q8JVE6gbbeb30NBcJWIcfPTfbYTXigS8qPeho96wWIi+n/jwDpNlG3yso77noHfci8psv+0nGMy3x+Id9cY6KoZ5DO1KBsgAGSADZODPZuBWhL2EaoTucyGgS6jtG6u7EynyQnFtN9EPhZ5oBJ2tZgPlPSXSr8cYnIzgixX/0E/dRuNrUkxOJiN0X4j72GoCoBr0Qq7El/9LitvJZID202lhP9GCMS3sJx5a4UQgKewHH4qw7Ab6epVWiVMh9i27hM6PGKxMYe/3UFcTjF/NdDP+XIVtldE9j+8V2v6qr8RsEe1T47eF6yiFb+ldP2wDPVgEXxuZk6A8Iet/qcPWwjwSobq9LZT3jTY676Ik7PK0DvdClt0/9zCIRLwPb7+NbvqNT3Rdo76qTZwt0d7piVU8EYkFvDx39ElOUNLfT7Tr1LMm+qbrVNBHI4ORPHtoO/Iz3Vb8m0yQATJABsgAGfgdBm5R2I8hBVVSEIeFDfpohquoyU2iIgGsBF1cMR/uthBnDWMiEDe8f1iTQvNFV7lnaDeXaTEnrum9+01hr8v/br4MNVG9zBVjwx1kSkDmitS4ztEE5bmus/nbBIM9KcoTq8gLCvtcYarLnqp/9vGSA/v9dHCwPt56ZcQN5Fw7ZiFZz9nfaw6nWdD3T9s/7/uJLtvU5E/foxm6neky6etMv8FYtA48XtuUn2SBDJABMkAGyEA+A/cj7KPVedPdQaehnBZgk5wV0ahhteCylHvGjOOl0E5lb1lE9KqV27QgjMqTEuaZwn7ioalW7LNEb961ou/1ynbKjz36XdfHbilXlwkWfSuRK0y1vVP3zj5ev/GQkyntBpX8NCZ/+tpT4jkf4qjOKbvL77XonuZKlzfdjnnfzxb2yXvo61DY/2rb8byb2aZ9aB8yQAbIABlIMnBPwn6CwYeUf7NYSQ/zyyfFUdhgWuxlBrCKCmnxqM6dcfxvC3slmucV5Nn10oLTgvW6l3B1mQtSLdxT4jo6N8sG+pwp0aztZwjsm3zm9bVT984UsurY0pRLVBLEqXJPlTHn+Ewxbx6r7TzNlS4vhb1pL/4/YnEmW7QVbUUGyAAZIAMPi4F7F/amz3y2AJ5gMnZRDVe3K3Cm3HSEQbUwVa4QWnhaSdcIDd9vC/vvLRnQmRK2+vrpz7x6RS5EOS5G6esk/tZlyKljtLpsZty5D2Gv30xsu/NNXnTbUdgzPRiFNRkgA2SADJABMrAQA3cg7LP84nXgZDJ/e54AjgNkLdQOjTSOurFVIGrsT+6pjDMbyeBRdfxvC/vI1ScVnKrLMxmgux/7lOfWKxjI3WQtC9NBvlkzwADexy4G1xMI9yQZp5BdRx3omQhMvRdhr4Obi2idpAOfRR0DeP8ZqSsp7BfqwInJXsRfFjv8jrYiA2SADJABMrDqDNyBsC9NZ2257KFuW9jYTaaolAI443iRFedrQ66Sb7YwiDLpSECD4yZsKymyw6w1YpV/azpHfGbwrPZZT60s+yJVZ/i2wFz9F5l9pCuRtRlnbwlhCUZw39QSdU7XK/g5jlevL5xwt1bLKqL5NWPSEom1AMP9FjqnsTge/SdTdNpm8Kk6frRfhmXX0TOztyxUxwl0dpgpH3EtvlNvLLRrS/QW5nKMcTBBmBVH2NAuoXEwgK/b72qE/vsyKmZWHH3tnWTqyLgjLpoVR08iUxOga9FOMvVpOiuRrkfaRWeiMi2Zex3IcmW7++jrpO0R14UDLG1BBsgAGSADZIAMLI+BOxD2ViLP+uRyIHco3WzBM1NF+gO0w7SVFsRmRCLFZbKh4zSZhe04d7z/w0F900b1wEiZKM698tBSmyaJPO+9szF8f4T+hzrKKj+7/bKB9l5PZdIZoB1+b6P8VuQnFxsl1dA+6al0lzbK/7TR+aLuI66vriNSba4/K6H0XGycNV0WHU9QfNNF77CDxr9m+k+xeVc33HQpzMf/dycsayBW5UU9rgOMz3pob9fRPYtFvbTNCE6426uN0rteKKLF9+NjsSdA1gr5AnW8HsMJMxFZKJmbUU0m8I/UJOtpE30/bich4EVQrLC3e+Sgtauz3YzQ0/npw0lSHEhrv0pOvMaf63ICZ9cz89Tre1g6UHqKk7g8mp9oYrFZQ+ewj95BC7XXLjyV1tLarKH5oQsvnAT56O3IjcM2Umk+xwcq+9LzTnJyGeXK30DzOJ6c6bJO22O6jLqs/KRtyAAZIANkgAyQgV9l4A6EfRNutEOnBWutiNpeH2MtXIUw0y4iCdE3HewoKjlzl1VT6F2P0de7pVpiR1a5K6y3K3YKbaN3Fouw0IAXPbU7rtjRtqHyqAu3HrFLqgNPbQIVGft6hN6u2o1ViPuXDXS/p64pynM1QCfcmKuA8m4yJ3x8LbXj6VYJ63rjKlHmLbExlJe0l1nHyfTut+XXnWj32+j6+px56qhXzafaQ69Mx8JcCPl4RV/vFGtj/e9ualfZZDntJ2XUP3rGBC772lOr4wvsPBvXPcDgY1XaVfD3UU4cxYp64UUdnaMhfMFjZr1FQHF22cSKvl6VT2T5ieIDbrIHB624fWgL2oIMkAEyQAbIwDIYuANhn8y0soxC8xqEnwyQATJABsgAGSADZIAMJBmgsNcr2fxMuT4lQWHHoT3IABkgA2SADJABMvCwGbhFYT+C8z/hsmEGnT5sYxBWtg8ZIANkgAyQATJABsjAY2Xg9oT92EEt9NFOBhQ+VkOx3OzkZIAMkAEyQAbIABkgAw+ZgVsR9jpPfCKgMJUa8SEbhWVjpyUDZIAMkAEyQAbIABl4bAzcirB/bEZgedlxyQAZIANkgAyQATJABh47AxT2DJpl0CwZIANkgAyQATJABsjACjBAYb8CjfjYZ5csP1dIyAAZIANkgAyQATLw+wxQ2FPYc4ZOBsgAGSADZIAMkAEysAIMUNivQCNyhvv7M1zakDYkA2SADJABMkAGHjsDFPYU9pyhkwEyQAbIABkgA2SADKwAA7cr7H+6qK1ZKGy7GK+AsR77LO5Wyh+M4e03UF6rwPk5x0x/0ePJDQdaMkAGyAAZIANkgAzMxcDKCvvxiYP26wpKT2zIfPoFFJ/X0DrwML6eQ4ASoJkA+V/baP5Thh1uRDZb2C96/K1MRNiuM9uVduf4QAbIABkgA2TgcTJwu8L+PkSUP0BnqwDLLqN1NIQfqIa5DjA66aLxzIa1VkHnu0+Bs5T2GaH73IJlzRb2cpBY9PjH2bE4ILLdyAAZIANkgAyQgbtmYLWE/UUP9U0Lll2Fc5ED0/UIziuxil9E6ySguP9tcT+Gs7WIsF/0+Jx2/O1y87p3PdjwfmSODJABMkAGyMDtMrBCwn6E7gshMG3Uv8xYjT/voizcR+wq3Hn8wikib5gALSrUFz3+djsABxjalwyQATJABsgAGVgVBlZG2PuHNelLbzfR1+43uYLch7stJgEW7Ld9BLnHEfTZoC8q1Bc9nm0wuw1oI9qIDJABMkAGyAAZmOAWhX0A/6yHzusyCluOkRUngAxsLaOw64Urwf63NmqbhXC1ff2vDgZXaTh9eHs1FNfkivz6sxoae3U0DsZqJVmLRQvWznxCffSpooJqG+FEYHyg/5aC37Ja8CYTTH9vwVLlnkw8tMLAUXlORZTncojefgPVJ1WZJeZqCGenjHXbgrVWRuPLKHv1e9xHe7skj7NsrP/VgntmugoFGJ+60p7h/Ufo/VOCbRVQ/jBQk5Mx3O0CrLUa3DxXpPQk5moId1fbVpSxiMrrLgZ+ug3k3+PjDuov12XA7FoRtT0H7f+J+mf72M93/Dx1m2DiC1tWFAcWCi/q6HybfjsTnDloGGWsvG6i+aodtmfU6S89tLeLKIRvbtZR2m6g/boxX2aftA35dzbTtAvtQgbIABkgA2TgThm4JWHvwzt04bwtSvEcCXvxvYPuG/X9bg+Dj3XU9xz0jnvR9+lV9MGHIuxXDkZqJd4/7aJqWwiFdAiMh6YS2BsfBvMZ8FtTCXsbre9CtAYYf2lgI7xOHT1jchGcO+H9LKuEzqkptsV5Q3Se26h+GmFy1oN70EJZiHghdL/10HjdQPewj/6h/r6M7nlSNAcnLRQ363DP5bWDc1fFCoj7iWPH6H9K2s0TExudkeZpGwNlBz3RqH7Wk57kvSJhGx4/QFvEJGx1MFRCPrLBiy5Gic4YwHtfgm2X0T5RYvpygG4Yr5Al7Oc9fs66XTiorpn39tB+KWIlCqgfGeL+soe6XUTrWH0XjNELOZQTNVl/UW/ZZuHbmmsfg/+qsHMmJ0mb3WRP/kZbkQEyQAbIABkgA/fHwC0Je1WhCwcVIZQjYa++P21LAf2sif6lUfmgj0YorJMirGVbqB8lBXXwtYGqXrH/qe5jmWLfuG5CoKrvT1pK2FtonehjtYvOtPge7G2EbxSax8lyTESZEyLYR++1ELoF1PaHCTef0X+l8J7xhGSCSShEN9AOBbwuxwSifmGaTvPa512UhH2e1qMVef/cw2Acn+d/66K978HPqnP6O2WDRHkmA7SfivI3EyvcwbcmNiwbja+p+l+6qIVtllyxX/T4yY11kxOQ2qEh4EVd9DmG+9X4cxXW/+tgmKiriL8wmPregm0lJ29iYtffUW9ZEufGtuVARVuQATJABsgAGSADD5mB2xX2WnCnhb3+PnJp0ZBolxpTVCqhaawqS4N6cPSqtL7ebwv7CYLjZuhmMrXyf9rGuhCw225CNAvf/rTg9HazVrAnmGghLVb3lXgMXX3sllpx13aYYBLVqQpXC3f93TvpwqSv8cuf5w4qdgENc8V7otvAFOoqMNk2xHEkfkdwplxxFj3eqG9W3U6EEDfsEN1bu0Lpty4T+F/qsKwNNL4k31iMD5x4oqImlpV/h4m2nJw4DKaObGuwyO+i/vrLfY02pA3JABkgA2TgDhh4oMLeFJUTjA9ryhe6hNrHHkZT/t+xK479fk5XnGjFPrVaHvTRFK40kXuLEDgB+u/qqL8Wrh/mav4I3f9NB+vOEvaxj/4E8lgxEcj/F71R0MJ+akK0DBEmYx9afyn/edMtRa+MpydoIaAZE4FFjxfXuaFumXEOKXtFbx2CAdpirwLLQmGrBeckKfClMFOxCCJ4+lkNnaNRUuDfQcejQFwGs7wGOSIDZIAMkAEyYDLwKIS9KHBw0UNbbDwVCroCKnt9YwdZLS4tWK97c4m00GVDXMtw49CGmXK7Oe+iJnz31Urvxp6aPJy2Udb/N8Tg/MJelft52p89B9IbxK8u++KfPoYHDZSfrKO668D7OZrOS68nQfMK+0WPnyHspT1lkPN89fMx2G+gFMY6CPHegPMj5cYzCTA6aqMSBmSLoOEK2sdZk4CctjDae74y8Tq0ExkgA2SADJABMnC7DDwaYa9B8M9jgR8G1CqBFaW7tOYRgMKfWq6Qb+x6CT/48D46z33odhOg/7YON4wF0C4mYpVefF+ZCoQV588v7Cfw3oly1NT1ZzT2soX9lYfWMxv2q24UPCsCdac2nNJC/X9OKqBWlHcJx88Q9jKDUerNyjzC+noMLxL4eRuS+YbAt1E9iN2kNHP8nMHlPG3BY/gKmgyQATJABsjArTPwCIS9h+5/abHlo7cj3C1MsacyvMzjZ68Fsl1HzwzejYAzgmiPuqga4l+7hZR3W6il/O21AFxE2I/2y+FbiKJxD30d8Rl868LVWXR0uZfkiuPtChuWUpOTDKGu75s5AVnC8cLu+h4ZddNxD+ZEzrTR5MJB91iKz/FBd3ofg7OO3JBMv8056abqLFJp9tCYcsGioE3YOeoftAvtQgbIABkgA2TgITJwP8JeZ8uZEnEZIlHkircb6BvpJ4UhgyMZJJnIJiNSIgpxZlfh5OVxvx7BESka7RJaJ6kML4Zw0WIy6VMvstjoLDA2pjLkqPPlKnwyTiBsfL3ybdY7zIojVu1tlP5xMLhUZboOMDpuofw/w01Hi98bcvXPnxVH29qcHE0wuRbpO0V5VPmvAgQTkelH+q1vvEu/4cgKnl30eEPYZ9YtnrQVttroX+h2C+CfOqiL7EoqFaqYeJWnJoJDdP6f4aYlgnGn7hOg9yYdW8FB6yEOWiwTuSQDZIAMkAEykM3ArQp7/6ghNzJ62kTfCHgdH6hdYp93MDB3idWrptYGmjoPudoEyn7WRE8LOn8Y5k/PXMG97KMpgiftMlpHQ/j6+kIon3TREL+t1dBNbP6UZRyZjcfWq7yR6BcuOHYquNY4P/DQCtNFWqin0jMO/5Wr89ZWF6Pr+JzRlzqKqWDQMJYgNUEZf65Le9r1OFNOVC656lxX15knj/3wo9pPYLOGzmEf7n4D9Z0WGqGw30Djk4v2ris3F7twUVP+6MU3XXgXPvzxAM7bGsqqvsXtJjqfBjLGYcHjZ9UtEPEMymc+GWicdLGRb1REqtFB1PbjoyaKlnFcOMGyUXrXw0hNGP0fYm8EuuJwoIz7JW1BW5ABMkAGyMBjY+CWhL1eDZZ+7FqItU6yvxcZTbSLiz42/AxXtj20npRQeq53ZZW7o9YSwbNp8AKMj7tobJeiXUotex2lrTo6QuwbovqmBhvtV6fyy4fHn7ZR3U+7B8XpLBN1CHew1WkZTXskV/T9Hy5axk6o5dcdeJGbULbdzOw6sh6L7jw7Qm+nHGYcsp+U0TiQefdlFqICyju9pE99uPOr2kXXXkd5x8HQF8G24tguvJ96JV21x1zHz1u3CSbjfrjzbriLr1VAcTu9O6/YKbiG4vMSSuFOxvJNyPrLVPDsSQvrz0ooPdMZgCwUNmsMnjUnifz/rftB3jT28Lf0mM6/yQQZIANkYB4GbknY0/jzGJ/HkBMyQAbIABkgA2SADJCBZTFAYc+VSa5MkgEyQAbIABkgA2SADKwAAxT2K9CIy5rl8TpcMSADZIAMkAEyQAbIwONlgMKewp4zdDJABsgAGSADZIAMkIEVYIDCfgUakTPrxzuzZtux7cgAGSADZIAMkIFlMUBhT2HPGToZIANkgAyQATJABsjACjBAYb8CjbisWR6vwxUDMkAGyAAZIANkgAw8XgYo7CnsOUMnA2SADJABMkAGyAAZWAEGKOxXoBE5s368M2u2HduODJABMkAGyAAZWBYDFPYU9pyhkwEyQAbIABkgA2SADKwAAxT2K9CIy5rl8TpcMSADZIAMkAEyQAbIwONlgMKewp4zdDJABsgAGSADZIAMkIEVYIDCfgUakTPrxzuzZtux7cgAGSADZIAMkIFlMWD93//9H/iPNiADZIAMkAEyQAbIABkgA4+bAcuyLPAfbUAGyAAZIANkgAyQATJABh45A57ngf9oAzJABsgAGSADZIAMkAEy8LgZoI89fewZLEMGyAAZIANkgAyQATKwAgxQ2K9AIy4r4ILXYfAOGSADZIAMkAEyQAYeLwMU9hT2nKGTATJABsgAGSADZIAMrAADFPYr0IicWT/emTXbjm1HBsgAGSADZIAMLIsBCnsKe87QyQAZIANkgAyQATJABlaAAQr7FWjEZc3yeB2uGJABMkAGyAAZIANk4PEyQGFPYc8ZOhkgA2SADJABMkAGyMAKMEBhvwKNyJn1451Zs+3YdmSADJABMkAGyMCyGKCwp7DnDJ0MkAEyQAbIABkgA2RgBRigsF+BRlzWLI/X4YoBGSADZIAMkAEyQAYeLwMU9r8q7IMxvIMWqk9stE4eLwDsvGw7MkAGyAAZIANkgAysBgNzCnsPLcuClfVv1/vzXt2c99DZa6BsS5tQ2K9GZ+CgxnYkA2SADJABMkAGHjMDcwp72cjBuYOqErPWVhej4PcbPzjuwv35+9e5j0bw3lHY34fdec/H2V/Ybmw3MkAGyAAZIAO3y8BCwn4yGcPZkmK2cjBewkp9gP5OFc5jFfa7FPbsoLfbQWlf2pcMkAEyQAbIABmYl4F7FfbB9xaKVoXC/lf9/HneEiaXHCzmHSx4HFkhA2SADJABMvCwGbg/YX/ZR3NTrHhT2LOTPOxOwvZh+5ABMkAGyAAZIAOPgYHlCfvLIXr7DVSfKNeaqyGcnTLWhU/+WhmNL6NodTU47aCyJt1YEgG5iUBcH8ODBiqbBRm0u1ZG/aMH31ylvhyiH2amkffU17Wf1KTf/gJlihrragh3t4aiLt9aEZXXXQz8aaC9HFec4HsbJdtG6b2HwCwv/x8xENmbNqFNyAAZIANkgAyQATKwFAaWI+zPenAPWipLTAXOtx4arxvoHvbRP9Tfl9E9T4pjKYyzVuxHcF4VUP7gwb+eYHLtw/tQhm1ZKLzpheI+OHVT93TDe9bCtwAW6v9+Tv0+T5kGaIvztzoYKiE//tLAhsgG9KKLUQq6PGE/PqjIyYjdwiB1DgVtkgHag/YgA2SADJABMkAGyMByGFiOsA/Fq4/ea7EKX0Btf5hYqR79VwqFbjrgNk/YDz4UYW27ydX5yQjd5+L6NprHgZrViOBb8d0Gyntqdfx6jMHJSJ27YJlOWhnlHKD9VNyjCS8l0vOE/USs+n/swD3T5VxOYxF62pEMkAEyQAbIABkgA2Qgj4ElCvsJ8oT6RAvmT7E7jihQ9vEeWraF6ufprDtaSNvvB9HriugaF9mNHP2ezryTVaZzBxW7gMaRH10/zgQ0/WZBl4d57LNtnwcdv6e9yAAZIANkgAyQATKwfAbuVNhbCR/6HGH/00ElayMs87stB2O1ep4r3Gf9roR9ukwxZAHGJw5af62HLkBZQb4U9ssHMrY/r01bkAEyQAbIABkgA2RgEQYenrBXgrvxdT43luULexm0W36yjuquA+/nSOXu54r9ImDxWA5EZIAMkAEyQAbIABm4WwYenrC/kCv2G3uxu81NUCxV2F95aD2zYb/qRsGzdMW5WyBvamv+xrYgA2SADJABMkAGyEA+Aw9P2Ad9NEWKTLsKJ9NvfgRnvx/5wC9T2Hu7NiyrlMreo3fb5Yo9O1J+R6JtaBsyQAbIABkgA2TgvhlYrrB/J7LHTAtgHTyb9meXojwW0sHPcZjNJsyKI3zq1ypoH48QiJSXkwmCywGcNyUjK47204+vkTaoN3eZtIDfQPvUAPN6iE6YjUfV6yqIMv7I8luYCp5lVpxo4pVuD/5tsJXKskTb0DZkgAyQATJABsjA7zCwkLAPzh1UxWq6ZcF+5WAUGMYPPLTCtJAW6odmVpkJhv+WZV73rS5GSqSLQg8+bITfF9900TvsoPHvQIrmqwHaL8XqubyX+VncNTZ98gdov5DHlD8MUukxJ5gsWKbhx6K852YNncM+3P0G6jstNEJhv4HGJxftXVcG7grBr+5d2U9m+9H1spjHngKf4p0MkAEyQAbIABkgA3fEwJzC3kMrQ2SHgltkutEZZhLHtOBNss4zVvSvBuhsiZ1lCyjv9pPC/HqM/sc6yk+kwC9s1tA6NPLjZ97TuHbm77PKNEJvp4yCmLg8KaNxIO83PqyhIMq405ObVGVm7hHXlhMd7jxrTPjuCOTfmd3yXLYXGSADZIAMkAEysAoMzCns2dir0NisAzkmA2SADJABMkAGyMDqMkBhzxVlvh4jA2SADJABMkAGyAAZWAEGKOxXoBE5817dmTfblm1LBsgAGSADZIAMzMsAhT2FPWfoZIAMkAEyQAbIABkgAyvAAIX9CjTivLM4HscZPxkgA2SADJABMkAGVpcBCnsKe87QyQAZIANkgAyQATJABlaAAQr7FWhEzrxXd+bNtmXbkgEyQAbIABkgA/MyQGFPYc8ZOhkgA2SADJABMkAGyMAKMEBhvwKNOO8sjsdxxk8GyAAZIANkgAyQgdVlgMKewp4zdDJABsgAGSADZIAMkIEVYIDCfgUakTPv1Z15s23ZtmSADJABMkAGyMC8DDx4Ye+f9dB5XUZh17vdmeS4j/Z2EQXLgmWvo7rrYni1oiBd+xgedVB/UUDlYHy7duXECf4PB42X67AFW2tl1D968G/LLtdj9D824Z5nsCt+26uhuGbBsmys/9WCexaw/XVbhP2ijeoTG62TDPvp4/Tnosfr8/h568yJ50b7r3XYcz43Fj1+3gfsyhy3Cs+MYAxvv4HyWgXOzzn69zL76U8XtTULhW0X42Ve9wFeyz/pov15iOABlm1l+uMM2z5gYS8EShuNlzYsIYjmHKB/peGCkxaKmy14/gST6xGcV/Ke9uve7QmwvIb53pICUNR53n87/fk70aWH7ocmapvy+vcq7McuqvPWUR/3vItRnu0e4PejgyoKrxyMrieY+B5ayu7FD4Pli5vLPlqvOxhkTUivxL2LaH3zw/uOPlUlZ3Ydvcs7fsg9wHYKfjhova2hqDibJewXPf5XxiWe8wtcBkM4u/H4NvO5sejxD5DdW+fkIT0zTlq5z8Wb+qz/tY3mP2X1bF1dYT8+bqP2TC0i2esobbfRH8/oR+ddlPXz1fgs749ufkb5I/T2G6g9VwuiW040aQnOuqj93V3dxdEHPg48YGGvYNQd+daE/QDtTQul/wyIhQh6ZqPw5h6EvajvZhO9n+ZKqodWluAIxui/L8M2OtS8g/zov1I4QN6rsP/poGJX0T2VYlOWfQxnK2PSce1jcFBH0WrBe+CdKmqDyx7qtoXGV6MtL8TKjY3SxyUL+5DZBvpZon4yweBDEVZiUhTAe1+CvUZhH7XXJEB/R7J3k0j49eNnPGAfHNcjdPdv+U3pLdU5+NpYaEFo0eNjBh5Dmwbo7//+SvGDeGaEvASIFiYsC5X90ZwLWyN0n4v+fQ/CfqmcZ/XLAN5uMWS+sFlCSYvtUDcU0ToxnkGJsgTov1WLp4aot+wm+kEe2wGGBw2UbAv2sxo6hwOM/OnriwXTkljUStwv75r8fpljysMX9hcOKgK42xL2p21siMHhobjURVSPAAAgAElEQVSknLTRPk1DniPsww4zQvdtPFOeF47xQeVBCPv2oSnqRb1zhH1YVyG8Ho+w97/UQxvPJxLTbb7I3/ItU23KlvoaA7SfWrB+YQI4L0+rcpy3u4iwn2DR4x+VncRK3m2Nu7f9sF90QWjR42+7/Mu8/lUfjVeLPyPSrD6IZ4a2i1gUCoXoIiJdP1sWOUePoQ/oM6tfnrZRetXFwHz76g/RVd4HuUJdXGvbXcAzwUf/rZhA2Ch/GMw4L4D3bgPFXW/OidcDsrHm7JF+PnxhrzvwLT1gxp+r9y9wDXiCr27GTPkmYT/B4PPiqzEPYpA+dzN8wfXgmz3ZGn92H82K/eC9XAm5bWEftuVNKyza5YnC/uZXy5PFhfrqCvsxXCEKbmncTYvGpf+9qFBf9HhjzF562Zd67QCD98WlTOofxDND20brgoVW3/Wz5TEL++x+Odhvw8t6WysmdbZYrLDR+p4WzmKhrJSxkJg+Tv+t3wrYqH4yPBx0m2R9nndRsopofZ9e0X/Y/UbX+XF+Utg/hJXrrA6R+O5mYf8rHeRBDdKJuurBN1vY/0pd7+ucOxF9QR9NMXDfFGehH4IU9hT2ib6W99AKMPxPxWBQ2M9k5r7Gl3nu639tyriRJfT9B/XM0GPaHyXsf61feu9y3kJq3/q1IiqvO+idpd+eJ8cH8QZaJIBYLPZQuT8t9FYged95OOcxSZs9MmHvw4uyehRQ3nEwFAGvGQ+rdBBJOsuNHqSmA1RTs/kwy0gd5SfKD22tiJrImJO+7+UQ/YMWqk+qYcR9cNpBZc2C/aQG14zAD7PvlLCuZtHzZSaZX9iPjzuo6wwsVgHF7RbcH9MdVtffdEHS38U2SdnCH8LZqaisKhYKL+roqGBM3QYiu0R3p4p19eo3OIszwhReNNC7yG4vff7Nrjj63ADjU9fIljRC758SbKsQvh6U0fg+vI9Gu4WBRK3p+18OwwAg3W6TK1HHsmyftTIaX9IrE9K/UPNQ2Kyg/q6J6ofYF1kL+tiOcmC10vEBM1mYXU/t7lP9nJHdKHr46fvHn2G7B2MMDmV2pPCtwkUPjWd2mLmnba6wzNsHgnS2JT/0xSyHWXhEf+1F/pZmpiD7SRWd0/SKToDBXgm2XbrBP1TzoD/nbHM1Xvg/XLSMTFhiPOm8yXkITiaY7/jZbSZZl7apbBbCN4Z52ZLM/mOFD+Ammq/aybdWl14io1dpu4H268YvZv4Yq74UsyI5nh4L3F2dYUmMcyLbUx9jESSeGo+D722UbBul9/O/kve/meOYjfVnNbSO0n1R3csfIi6LjfWXDTj/Sje4zDcO8x4/55g+61mj2zt+dsn6NPbqaCRcQGePLWnb5v8dYPBvRWZ5M32nLWsq49OjfGZEY1uKS4O9RL3Ec3vPQft/guv0OWO42wVYazW4M55PybHduE5UHtlvzOfqZBIgyu6XmGAFGJ84aBtZ//xvbdTCMUFkLTMTIczZL436azZkmY2yhseI1fpp3/rCVhue6c6jrxd4aAl3TquMblbGNX1cxqecWJQWPk+Xn5/TY+osmzweYf/Ogft3CdWdNtrv6pBiwYIlstkkXkHJ10XFNy5GYfBHgNGhCLoUgR4dDFLgaTGb7IjKkJd9NDdtlN/3MVbXGh+3UBai3BgEglMX7oH6Xgwa31w0XjeizDP1L1JYy+w7dbjnUsQE5y7qIkuKXUJnyq/ebMx5hL30fbNfttBXgbfBzz5aYVahAmqfkw/F7HqP4fxlQXTu/kVKaF04qK6V0T5RkwQhJtS160fyu+GRC0cE84oHyZYD70sD9Z0u3OM+XP39i1lZbWat2I/R/+Sg+0YGClm7PXjiAakzHjxtYzDx0Xttw3raQE9lBPB/dKRPpumyctZLtVsvbLfuYR/9Q92eyYEsXLXYbKGvBr/gZw9N0YYZK5v6IZDlijObhXnqOWewp37omA+Vn304B13Jn3jYH3mhGNRZqDZ01p45+8Dk0oN76EhbiJiVTx56O3W0DnroH3XlhMGyILIBjb82Uf27DeeoB2dXiQ+zXcI+GnNgv58n0HjONlf9f/S5hoJVRP1QBd4FY/RC31H5YE632XzHz9Nmol+LmIj/n70vZm1j+d7eb7GlIY0hxXVlwa+xuEUEKa7BEEGKIG5hlOIiUgSRwogUQaSwSBGEi8AaLshFQC6C3ARkXoLCnwtKEZAhhQoXWwS2cKEv8LycmTm7s7Oz0spxHMmZIshZrXZnznnmzDNnzjlDi9AhQiLCVyGGr+W4SSXsi+TrElpnaszFbdTzTCj5X26NiwUtJZkLb7s5kev2pMDfjBkLrqOvXVT9EurHo7j9MrGdbKxpj2dgW+P5rYz9tU1Q0jO4hcZ7tVgNx+iIhHofzTPTLskygrq9n54qL7UtN0skr3tYdH8xm158rqHkdZ8SCVVCYviZZJjelVzGttjkZr+m5g597Mdz4BrPGYzPDEknbKvCAL4+X42SePPMb5L51eogieWlxk3YV+Et5hgLMXixZYT2hhie9BCwbYn1QNfT89josI76qwD9s348v/nPjYp33G/LuLTrX9nRPI/59xDTLwMEB1XlbExzG34mO5C8Bx0MP2sOEXKm7XcxMh2dmsx4/KcKlGjf8zvcZwG7XFBu60Pst5sxmRIA+J4khmxpyRnCOApypwspIUBmCScGXZbYq1g2CxGlCgqCvG4TieT38Du2UHmlPFNXU4zOJzLBREzSW5l4trgag+U9CdATw2MSDr6HcgV822o6jrErpd6d7XeI0esqake2+rOyclAmOVPEz9HCRMugD/uo04R6r4ZuqkZ60YoECaHL6oRlPcOM3/1HPfayhF+HGBGRtxo/In7KW5PyyvD1jUzfs1UgCBMeSm/Gaa+kLZlpXrz2MliY18/ZCC2x82NOMJqcCJ8sj3hSSb7nPm7t95Q3PcTkfKQ8r8uOgRkm72RSdul5P+295TbQZPtJEVU1doYH0nPU/Ji0i3Adfemhc1jwPAl+fmrCY93uItB1rhLyK3olLNEWlWRsejWXvX+uzlSFosxEy+MjIa8i/+d/HYxjG0PymaD7QCP2ojxuHX3DuTF4JncO2T4s/WmV5wyzaCRKtvqW0K/J24ogNZmt+u9j9A47Bc9M4PGv9ZF2S1Qi+m4qtnciK2hZbOfolSRY6QX3svfPt+nF5xo5Tuun6UUJ2f5q7LFfzrYU12c+sV/rOYPxmSHpM0Qfm9jy/HQ1MhpDlz3UxO5F1l6GH7toHxU9X4Qxmn1Odl5VNo2LgJg2WBXv8HYMfhMN0BBtTY+D2Jan7FzabqawIfqcnvtT3+u2JRwpZ51ZaIHHgQf/QQPB+VQmw8ZOBJuDVWvTx6bclfwV5cP1/v1Gf68PsbcB+UsHZQK/z+CXA87m4eMB5z1OJ5ry9QyJVAPOvspkApBMwjRY4i0vnUQoMIn32DxWsYGqopdbb3YRsVftSZUzTAYWT3L66j/Vb1ok/V3NEK7YAJxTbX1b+7hdemJO/kQyTz7xu+ZWxUn6FBu4F0kITPyMaIgmlZQ0CHieBz1ulx4yRXpTCXUJmVBEUdsJkO+cIjjOtiPvfUthgfFh6ycnxVomt1gW1A9+hjmpzBJvqkmqxe+vMQZSuEoZUsYKj9VEl/m/Se5J9Sf1XHVPYZ1zebfspEzvyMajLnu/Jm+bzmZDsRizeQYZL2y/JJnVPNeq39PjIAnF4apeb8bpChXnQToE0CazedcYM4bdDU9qYpJOlXDl58TEKb3LtVB3/HvxSZU0NsTuampBY0lujc6awsGSsd30HCYTWvuXvV/gQVRJMhaGop3LzDVclapjhHAOEcQhdMvZluIyzbPHaz5nMD4zto8Wvjon0G3IBIE1FEe/p8jf1yD23F7TBvN1DadSt/yOZjLWCXe599vaTTtKW2KXtDBexHkn5ADTnZDsdDBKN6vxyiE9Or9IvY/Hbsbhamuzu5aSnZDx8jJZb2Kf8VgyeZDb6dkYZ7qeJhZ5pII9mdZJIybxHngSJmXkEsT4u3ntysY+JgpO+mX12LOH0DQaDAoeWNrCIu73i7YIx6BawMn70kDie+3ylH1K5JQ3kbB85vWT3ssGLb1NnWnbEgYujm8UHpDs+3P1xnLTjK6MF6Y+b2D3IMAwdzGW318mcPPkGet5Xj/5u8zkltZfPBlY8MG6jd/HmJnNcJ0xwM9L8MBtYQynxx/pNf83/NvlP3N1nucJU/1m3cTyWPZ+eg7rRcNNjF/+TmHRigHWUzRCm3IePAqPawlPWfycWE8qPliEGtbQOVU7hPH3y8tOvIPbmepD4rmL5ZN6TzJ2bQuXbNsLtI1yYChXRuRp6CFvC9qSGbvL3i/blmsbaIE2T4fiuwTr0xMK/ZJhl7XDPiaW0IVlbEtxWebY43WfMxifpu2b2y/Gp31RX1ym+c/JtWXcXh7bPG74emqcEfZy3pF7f3YsXbeOPEckJGM4wbp13AvHn1xMJREMWnt4LBrcq7i8tWex3NxnLl8jua45sTfAr0Bv97LbwZE3EHmCzxIU+Rz+nb7Vmz8JqHbmeNQXA3zxwBIEwTQaDH42BtrA4vbvvgnUaaj5h1jIfjUsZThtMs2ZSLTFjdU4cFtjg/bjxJ6S2qr3N1FRGf+DnBrluXpjg2Qa3csRuiJZlwi+j/I/9iRuxlC6v0tigXVntoHkxd+Zk1ssS6Ufvs+CD8ZBuo3yd9z+ZcYAPy/7G8ZwQnYY9/m/seFr/rWFOmdZaGOB20Gf3OdYHsver+vFpjOFKavH29Sb+H+I0ZE8DIbGuL/TQJBJho8wOW2LZH1hB+7ton1mSaa2Pj9HntzvVB/Y3mYXxyxDll9W/znvyWsTJZY/2sQmJeifjhGeqRNH4/YsaEtm7C57v2yv7I+FCCr5LDPXRBd9tPdUsjQ5Bl5Zko0L2haW9+LPHHvM8rHYBPFM1r82TuJxugpzRtw+Qzdz+8UYMH6Th8Hc6/nPiWUUh1gp3HN7TXnz9RjXPE5y3pF7P/9OfV4EqO217aeQ5/ZL/VaF0yZjmCMUcsY9h99qWEnhknWS9/2i9rjv55L4lKyVrNac2PMWEW9XDdEkr0gmftUAvQaUvIHINcg963a65mXUYj5zJwEiDKLkVA09W8a51h6bkmaadygmHPpvRJwtkUyWg9FfNgZ/JafApfpNibEUq+1X07HI6h0yblrfmjOer7eF22oaMBtpSv2On8kG7UeI/URWOaATfDWPOpMOU4a5emODlDG6qq3TYULwM0ncFpKo+rsUFlh3tjbEBnXBRMXPsOiEcWDKhHB4nTHAz0smBdbrzyb2BXXOssgZKxmMLHs/6Zh/Y9OZirXdelUkIZhlRwm2Uwxjgp+3CA81gu+jepy/C2e3M9r7rH2QceC0eEjC07TfaGPcGtplHe/p31O7OFG5eaotTjJjMbET1nf98P2yXbm2Ybb8XMMyD78mBF8k1NrkssC28LMWf+YQ+3WfMxifplOD9a7NdYmMGDML7KVNH6lr+c/JtX/cXtMG8/WMrch5R+792jiicJq9bBJ7Igft3lS/+DphRp/vOVfJFopDv8m37eKdrBMtYqB4W7hN7nMZma03sVfb5Elsl4qvowMRrEcoRxi+5SRBCZS8gcjxmF5OXNjoNSVnpWNJ8yeBGSZHMrEs7xS26GPXclgTg5kHTs6KmWuZpwYj/3aGmYrD1ROHzX6LKi20KDKTlCmJUcWy5k5CFwG6Z/y+nIlEm/RtJDIBLRu06xN77pvpFc2QNmXUcvXGBik2ulMEb40qBbMZxm+kbrn6Efcl731LYWGuIWdPii0GmPWhEU1zUtHCYGw6Yb0vMwZY9rdN7Pm9i3UuY9zTMaSJrLI6W/Z+Td4xbpLnz3is5iyiRcWco4Hw0EyPu9ldsi8dVGicciLaeTdbRo6rduTYLsbn3M8c3DF27c4TRQD0ZHorcdDkYX7P7zWTczNjkRbOMkzJuki6gftJPrm2QSQxkzOlyFwzRDeTqB2iL8oNMoFazrbM1V1Kpjn2mHG4rnMG48Qk9vF1mxON55Y7TOwpX+6fFoaWUK/CmKHcRSMhnXNrfJtNUw6mhIcZ45vHopHfWLg9KTwbz3bfWb35a03shSfZmCBFpQIVy9igcmyqvNjs+wSDlxWYseRMCLJEhBcJPpJYMwaV/M6s/iAngZx6raISShK6MbpUFRKuIkyohOZf88pALiD2Ih5aVaSwDB4xGft19LXdAlu/J8fqUJqM91lWxSFPXboUZoTwc4A6ZfSznNmTZSGRWdLE8tQ/2fgWJPYmAYgnYw/pKj4h+qka5REi1WbpQbcYezZIsTGjtqUXc8I4femIcqpFif1sGSzwRGXpJ5V1GzwjTOUs+Njo8TMsOmEcmIRYGt3lxwA/LzueGMPFQ3GWqYrD2Cqicyo9KEJW9pIdLJ5kssmzqooN2ZSC98cee6vOtOeJkJkJIlX7PbocIXhajks6kiyzlXvG6PxPJ/YtZCvURBLrGrGnGO9NqiX/T3KWAPfZ+smYifsQYkpldLUqW5nTJBVZpJKmqWcuUxWHx5yx68pVcTj0MfoeCYcFlTEWdcnNggWW5FlycCx1f2xL7Da9+FxDi8MGBqnKRTNEp1RrXyP2RWwL5V08oJrru5azH3Q7yn+rcReHgUaYfpNVqeIqRus4ZzA+TWLPpY49D1svzHMT8pNnl6uKw3aXdadkfTVBT5VhzuxocXtNG8zVcuI5hvXG86AxL/FzzHFJtl6QeqO6Ds8BxBHetRMOQBX7zrj6Gb+TPqkUb9lyUqziAAaPoHEuY/LzK++I6l6eh2XC1lL2Q+uDu67rKv/v1Sf20x5qoqSfqpssyFgEUavYenjNBH2ucS6MviQ+NJFnPM7RBF1RH5km7S4m5uEqcYhKGbQtLOtET8UCwTfJL5WKomx8zxOHJIUWME7ey3r6glTobTMWJyZ4w48tNSGRsRqkq1/E76EBSR4sH+UXfVV3fwZZd9/wKl1NEfwt25p+3gTdh/K6qIevhbFEn9uyfr/ebvF3+tnk+d8S1+vpsKOrMTpKPubiKtVfljk9w6YT1d/pv/IUPM+vZ6oJhaf8XQXN4z76x23U99toqT7vvu6he9DBiLAUH7zhoX6SLsPInvikHcrYUinPz2GMB1H/3MQD1X8XB3rYdVYUC/P6SXJjr3pmIolxEWFyJEtQEgHq6gToaooe1funsbHfS5en5N+zPvwCY4AmVXXoSRpXM8wuuvIcgUwbktrP6d/wbkQ6QT2FFW4jlUNcRue0Va2SUgnn/S9ThOEEg9d1VOhMApLHwwbarxQJXvL+RTqbfdfKyhnjSd/Rk4skKsOaOChkjXZtzAkiLMf8RBHH8D+qka6H4jBJkH0zF6BWmXKYl19B64TOG2jFVXbi3T01DsTv6fC6p6pWu6YX+k7ubs5JrtPvp/cKe++j8jxA/5QO8KmjfSCr8Xh7bfSOWuiIA9RUvXKSIbXzdIxpGGJy1kb9oVq8+RU0XrfRF4fqLHn/QptedK6R5NrfaaLP54OEslxzMicVtC288KE+aws3qw6FXHkclVA/6qN32FCyYxK3jnNGhMk75YTytDMcGEfqrAIax6WnXQwvQoTTEYLnNVSUTS49aaLzbiTnUsa651mceHbyFC/qtmvonAzQP26htt/DUJX79bZraL7uxoc9haeqRPYfTQw0b/r0WOH6TzUfcR94183bQpPPsaDvuK3muFQ2yr9fRvnP7L8SJZ9ri2Um29ROymER4+Y8QHNvN786npoL/IfJIVbyPAbd1mTlJUM6jUUQ99N9pp0gNySP1Sf2AswTURkhOaUx5/TXWCghxictdYIbn4qYrlHLnsUMyTZX1KlTCvlZRtKTbmzjidpYaau2ZU6v3O/Egz9jnHl1Hj9TTszU5qxHlAZUut+eLxNHBxpB5xKO6X7LtlplonsSpgNx2qs8NVedaqvVqmevaerZ9HubfEw5x3F6SR/j5+ht0JJr4+9JPql7IowO1YEb4sRBqXs+ATM+0c/WLpHgw95lvS0koymCJyVhOIWhpPeSjI0TkK1yyLTRcpJpCgtpMhb3NdVP0rmauGMPjmZYc/Gzi+D/BYpo633M8fwXGQPWd0lcWeVB/bD+hj36y548W1DnbCPoNF3tFOvSkzZonFB4x+ajdvZ49UL3F9WZjJkfaCcjb2zX0DpJnyFBk36JJmk+ndZTp6rqybPnLWzulFHe2ZRna9Cu2nYtkzw7OpSn+Fb3SqlKXhmbw/IhD997mbRLp2enz6SYYZayBfKd1H6bQ4PHXdGTZ+nU7qo46ZtsjCIRqkKQ7ZRicfKrklHcd6rUcb+KNiXeGg6bQvdbbYPNpqdtrjyBNz3XiBhkRbik7aRzPugkVH0eKWZbxG7fPdo5raLi20oQa+Nf6ZJPQafTjVsf0s6LtZszrHqRNiwVTihOSVcniMc2ms4xoBOwuxiqQxwl/oufPJuMF8PeHMpFAs2h4kT2GHd2m9A6t1+neX3RPJwZl+psiXiOoLnG8i+1K6tOWBeVmoTN2EU9p1pT0mc6C2AoT3wXz99Aac+WzK9jUOVBGqE9qWdqNsdd12V3/b/Xg9g7xf+UVZ0bRNcfOKskO3HQzI/ENbvx9fuMr4/N3MTXVcK0a8si20RhJTnFEtx4/n3G86rrWjhvtnJyHhdh3H1/XTvoiP2qDwzXPmekF2JAhmHZd3GccbyucbyLvxu9qmaTbRfiy2Fo5bBw2UP9eTaRf+Xa6bD1W89flM+khxc6fN6OLXXE3hme39rw3BlDI2Is7eVK70wf3Vj9obFKuTqNHymB6eT/Q/K/sXF4NUFAlU+MZNwbe77T82roed31QDH5j7uYxIU1bofUunGwDgdUrTu4XfudkbwtDIRDtB79YKmz22qre88tjosQw6MOenpsvpP/Lcr/BgnNRQ+tN0N7orvT6Xrq9C7qLRyi/ayLsVt8/hJM3qLH3p4sYkvy4GsutOAGJ4S7aDxcnyxGI8TwsJ06mMt5MNw4chhwGHAYcBi4DQxE//XQyUmkv433u3c4j72FGLnB7waGw4DDgMOAw4DDgMOAw4DDwPph4BY99usnHAdopzOHAYcBhwGHAYcBhwGHAYeBdcGAI/YunMPtWjgMOAw4DDgMOAw4DDgMOAzcAQw4Yn8HlLguq0jXTufxcBhwGHAYcBhwGHAYcBj4eRhwxN4Re7dCdxhwGHAYcBhwGHAYcBhwGLgDGHDE/g4o0a18f97K18nWydZhwGHAYcBhwGHAYWBdMOCIvSP2boXuMOAw4DDgMOAw4DDgMOAwcAcw4Ij9HVDiwlXk1RSDwyZ6X+/Gijv80kf70Sb8g2EhI7Ts/QvledcwcxVifNpB/cEG1vbsiGiK4VEDlXu7CL7dLs6nJzVseBuonUwL4XGd8RWed9H+d4zoro0B1587j911Hneu7bdr09dd3o7Y33WDfjlAa7+D0V04AS4aIzhoorbtQRxitojYL3v/XceCrX+XQ3RfJzL9lcR+erwr9eop/caf88l6+KGN5j8V+OL++ff+DIN9W8R+etZGbWdT9tPfRPlJG4PpggnvaxeVWI6JXCtHk/lELpygf9RA7c8SNuj3ewGmCj/Rly5qf7tTJX8GltwzF+DZZsPctflj2cnnt5OPI/Z3GfTfh2jtNDCwkvoJukfFPN6rNtlEHxrFiL3S7bL3r1p/57cnwuCoF5Ou+ffmT5qTt2Uh019J7EXbr0IMDkqK4G+h+SEsaJQn6P5JxPX2if11ZW7/nW1cRhgqmWxsl1Fmsi0Iewmt8yhHRhEGz/3sYslvYhDlYSHC+LiBsu/B36mhczLCJMw+Pzpvofw4wOQu20/Xtxxc5WHHXbePaScXJ5fbxYAj9nfWeE8QPPZRO8khRuTJW+TxXlXZnLeWIvazZe9f1X7b2vV9gMbjxJt6XQPK3vJfTuypj6wvr4Whrc/Wa1MEe3eA2NvG5ec2yo+7GF1qk0M4RvexIu15RJ2e9aSH0Cov7Vnx9yEGz2lR5aPyerTgdxGGL7ZQOhi6sJxYfjaZumvXtUnudw47DgPXw4Aj9nfUKAuiljfhz6boESlwxH7NPVIRRi9LqTCJ6xpCR+yvZ0CvK2/77+zjcnTUxtC260aLOp8WMz5an8z2Rxg8K6P92bye93/eFfBRfbcgTIdt5tcuyl4JrU9Zj769f3nvdtedvBwGHAYcBm4KA47Y8yR1lz6jAZo04T8bWLxpEcZvqzJO1xH7tSb24YcmSkb883UNgyP2v3pSud64HL4gYu+hdW60n2Pr75Wwu99B/0vOzp2ye+H7urAJ/n5/gadef48Kf1pqV0D/vfv7uuPV/c5hx2HAYSAPA2tB7KMvPbSeqCQuz8PG9i7qR+ZWcYTpeYDWo01Uj6k6RYjhqyo2ieD6m6g8CzDWvV5UReO4her9qqyicTmUlVY8D/79ChrHRuWHaIrRiawcIibRiz4aOz68exW0dY9VOEbvoIbSPTnh0rPqhwNMrxIQMokSCaCc2KaT7DgUgZ5hxAxPB2g/Kct+eT42H7XQ+5L2mNEkTc+u/mtW6Zii/09ZJRnK9sk2GO8o0AcGVPSpjbLvo/yy+JZ8+LGD+kOVBEh92KmhdZrjJUy1xcfmwwaCN7J/1h2HgveHXwYIDqrYFGEsEUaHu9igtvydjlc3ExarB700jogYEXYYnyKpsYH2fsOozkJ4ZFzIPjde1dEQWE2wwXKd/xlh9Ibaq+tQ/p0ieKIaUh2V+ypk414JNWp/mH0fY1IPxeFrCU6zOAme7cZY33hQR+djmkBSRaLuM5bzDNGXAA2l+40HDfQvsm0pEoozPdMwRP16FaD9l2W80O7Ukw1492ro2d6lLeiHB7o8tb5+C7CryVqX0SzKqygk7VF7v4INNbbDj23UtjeEh33zkZ7QXnBcam1lfMg2a20V95C3Phtbv7HXxlAP5+HnRUO0/jAJ6C4AACAASURBVKC+V9BdsnKWXFiUl/4dt999WvDPenGfa+14cdh22P5VGFh9Yv+5LbySu2/G0pN0NUX/2ZYgrnFlh+9j9N910XwoJ7Pd4xH6T0uoPmuj/aImEsEEOdluYzSbIfqvj+CoiYrYxt5F8LmP+nYVjVdtNP9OiG/p9Ugalm8DBMdd1FU1ltbpUBC3hnrflrov+tpF1S+hfjxCSET+KsTouC7a7++0Utvp4We6VxKJ+mmamAswXHSxu93CUCNhlLBW2q6j91XeH33tyTb5ZXTiLXea1OVzUyRPnySYqOiLCfX9Mn2gdsbkz28J2S4CsvQMbqHxXi06wjE6IjbaR/PMkMNFD7V7HkpPe5iIZL8I01PlpSaiZba/0P0RRic9BC9VFZW9AMN/G6g/q0nvt1dHX8hchibo756csC47Wl9HaG/L8AVRApB0LnZE0mRr9LoEn5INVdIi6z9FEnUdFfp7iBbJQatYEsv/coDmto/KywGmLLuzlsS8heSyHtPtmSJ45IEI4eDC1E2AKi1qzxWRp8WNGA8bqJ/Ka+NTQ87vSc5d9M4G6LH8H3SzCZjxwtYWYx9h+LIM39ffPUrizc2F8EzJyLrQtUw8YV+Ft6T1R46CwQtpd2IZXQ7ROwnQVHYhvk5OhZMA3acqCfigj9FhHfVXAfpn/fi6/9zYUZszLmO9pnCh8gryPObfQ0x5AatsjW2Bw44A70EHw8+6E2UDlf0uRpoNMtvBuCm/zVmYp9prkbf73pFXhwGHAYeBG8XAyhN7q0fqcxtbRGhepKu6cPWTrb1W2hN4EcQkOl4MzJgAb2H3oJ8iF5NjFapieLC4csjWfk/dH2JyPpLe+GiE1rYH3xL+MnlbEQsRc5ubrydtSia+8KSWTny97KPub2ViZrnPXkyQRmjxgiWvnncegbhGH2bfx+gddjK7BiYBkP/nBMc0YWNisZuK7Z3IZMi4X4lsRq8kwUoT+yXvjwZoEIb+qKD9UZHW6QjDr5KUigXIH3IhmPSFMeMh1tmnFnxaDOi7QQJbaidIGCypE3MBR7qTu0tJ35J3FbmWR+xVrLZFdvROURZSLXL5fUzQdHI6el1F7cjYuVL9aW97aXzSdRFzTTtkWtWVsI86yfleDd3UztKcKjZziH30sYktz0fjg7HQuOyhRu/JEPsZwo9dtI+GBUNMGKMmsU8WsYmMpI4m72SZTvP6jO3UThMD3VPO2DOTg/PGZd6kJ/pcytgE1mnqMxyphZe5EEww7T9oIDifyvC9eIHqwSMHQwrfGjY/NoVt85YK4dF+n9c3d/1GJ/oUFpxsnWwdBu40Blae2NOk6d9rKC+qmhB4AjQ9lYoQZCbY2QyTI0mude+mddEgAD9B94H0euvPYvLT/JidmIiI065AhnDQ82LSYWx18/UMgZyg+5dGjtgzbvOKsyy8KnpU03raQzWH4MTGnX9jeLyv1YelDARV0tiAv9PBWP8dEzmtPdFZUxBQXf5x+5lM/MD9M/bk/mUr2SfJnf9S7dhobWUMeI9VyI4ib/GOEt97HqAXL6xGaFOow17HCIMZIsiES2WxFfebnx1/5hB71Sa7F1W1xUvvkHC/hLy/j9H9u4r2p3RYTdyOc1rMKLzFbaF2s3dcT+bMaeNshnj8mSEyjAeT+M7UuPTTC0PZrgkCayjOMvKke5cn9inZ6fLIGWfJO5rpqj+599v6QDtKW4h3FfX35v1N5W/F7oLuIOAFls12EemXu6CZ3QV+B+sqY8NsbXbX4jHE8nOfd5pgOX27Mf8rMLDyxD4llDguXsWPLkHsY2+iRhZiYhETsASE7J3XvcI8gWdDXBKvV/Y7eiaTBTPunetMpz2QFHJTNba2ZVvlYiOJeU7/X7ybyYHFcxnLku/RiPEs3sGwJOKJySevD4nM4ucXnawux+gf1lFR+QiJrBfIk8lE3P5l76c25xPO+DuxQErLOJE9k0sVw025GVT3+3Ri9QzLQ4zIm11G7bCPyZzwhuJytPeBsWtdFMWE2oO+cGFs775oi/Cu3TkHGPG9iSyyMkrebW8j9ZExnRkzrF9trAqZ8I6AOe5T+Mx62ovLUx+r2edwv5O+SeznXZ9Zx9mcd+TeL9+j9+O6deR5xybJv1H6sSXgklzFIo5wmxNql6erojbA3eeIrcOAw4DDwI1iYD2IfThG8KyCzftVtI6HmH5VyWzmBK8mGXPiFRMihwRoZGEesefwkIRsJlvxGSKiEffsd3JSZhKTaRtXr4jDJkL0ntTQ07fu+fl/WuKRzQHB5GBpYp8Q96X7YLZh0f8pAfjRJjYp2fJ0jPDMrEu/oC1MJmJiv+z9pJN8wsmEzO7xzpIsWhRNTtvY5QXKvV20z8zE5Rmiiz7ae5Q8SUR4A7uv0knVOnEr9re9D7lYU3phImrD9u6bQHl18w8+ks9vzDnkSJeRvY3UP25nBm+sX22sCnnwdXPci34xBrKEvJgsuc35z2G5mWM47zrjSJezbEvOO3jsxrjmNhmfFwFqe+3rnSat7GDSB97ByVnQW+xmSp6sE1NXi2yA+/5GJ/KUTpxsnWwdBn5rDKw8sReeKd9H9a1KniXA8gRoTvBqkkkmLW1C5AlKI8eSWNiJABN7ndzxBJ4hIqIuvPRapuPEk/czicmG8RCRp99uyRMkv3axaybVEQkSZe1Mwp88Pzbs3M9rEPve4+v2wdKOHMMy+beGDa+E5qlGfJkcxISGiY+HrLy0A4yufT+1N59w0ndNIt95SYk5faMEy4Tg+6ge2xMKw68JwRcJtbnPWyRXex9GL9WOlpGDwhhhHOtYja9RlR7OSfGrCMwwGQprEzHlejjHvHba20ht4TGRGU+MB5Ms8vU54VO2GHvud7FPxl7WLqRkpOks73psp2Kcspxy3sF2LXM//26GGYXT7M2JedfaZe8v6UPXXYj+vhz31jBCHiemLvg9rJM8jz7f5z5/a6Jhx6KGa4cPhw+HgRvDwIoT+6FMBNXIuDAQPAHmEHudjMcGRW3jb71K4qYlsbCXapPhDPoEOM9jr8XwW8mgmjz1pEINxLR4EcnATwL0DirWZDjOEcg76TH62EVPlKpjD9yulZSl5GcQCH6HndDO70MsZ61fmWusNzPBmMmB1p7hgSSnur7i593A/fOJPedY5HmtIwzfqgTq82621B9XVonjjofoGqFVtAjoi/jlNMbiPs6TY/ydnTRzfoIXvz89gY5eU/JxOt/DJKeESVEjf9tI/KSqUir/IXdRchGge8bvtLeR+rk0sWf8eLYFbg5ZjmXF7Vn0mf8cU0asq7zrN07sKffhn3SlLG5D4c8vHZTj3UEpC86t8bXxFz9POQoWxthzzsnS8l6kD/d9rAsn2xsjPk6mblzdZQysNrHnidwkKP91UCaPqiL20XdVIYMJn0kcZzNQuUHTm8fEIuupohKGyfMZADyBZ+8nTxqfAmk5iVEdGJWf6MZEco6XWFTFIc+aj/I/AUaXqs9XESZUxvAvDtNZEG9OkwPLNZZTiOm36Hp9WKYqDuvHWPzw7giHLAh9qjKnQmem19iSPEsVSAQRpZ2KIvezJ9JcNKrJU1TFIYz5ZTSofKkqUzn7PsHgZQVxDDrFIMdyZGMZof+UKu5wVR1aoDYwMCqLRKdUjz8h9nQmAOUbbOzpNc75mbZPRZrjPkSYfqOEV8aTbznLQH5nVmhibOu7XXF1qExVFDU+6EyJVCnMCOHnAHWqAsPy4t0PcxF+HWJPi6F9teB7YZ6bkJ88u1xVHB4/iV7E+L+aoKfKV+o7HfSdTXbiNxcqZDBDmHMWD3njkjApSH12kcW2afKujT6H711NMTpT1bpSZHCC4HHZclKs0qdfT56hfidj8vMr70z/rYrQMqszJfVuG37dNdaf+3RYcBhwGLgpDKw2sZ+N0VE1oktPOuid9dB9VkfjZUMS+z8aCE7aaJ2osA4mjp5WS37Gtc+zoRFM7L3tOoLPqgJINEX/eQmeGYZwNUVPkQp/v5c6cIqVEXs5qbQfP4/yA56qGuZzJjrpNUtXKuHn8ufkvayjnklaNNrKHlWTgPBzZhyu41fQOukjOGjFFVyW7YP0/s5JrtP7TO8VpTh9VJ4H6J8GaO/X0T6QFYW8vTZ6Ry10xIFfql65INcVtE7HmIYhJmdt1B+q+uB+BY3XbfTFTsVy94dEounZHh0wZqv+MhFnIWRkTUmyVI+e+yUw56P8oo+JIu7hf3RGgY43ScD9nSb6XA8+HIva6/qzYjx6HvhshFhn/L7UJ+/OlFA/6qN32FCym2nhNGUR9iRr7E/FosQ3ifrVFMHfMhxj68VAS/6doPtQXvcftjCgqkvq/dHntjoHQn6fyCm9yxHvRnn1dN7I1RgdrjylJ+pehRgcKP16JbTODN2oswrofaWnXQwvQoTTEYLnNVTEIUseSk+a6LxTB9gx1ovWsZ/NEC/qtmvonAzQP26htt/DUJW19LZraL7uqsOeeOfFQ1p2RPgVrv/sYBQvdGag8dcQ42ALTb1/3FZzXFL4zY4P/34Z5T+z/8RheNpimck2tZNyWMS4OQ/Q3NvNwXqCF/9hcoiVPGtBx3Gif8aBDPsyFkEpjGZ/w791n042DgMOAw4DN4+BFSf2NOH00XigTmukU0dFLWw+TbKCxnstjlkR+903fZlsq0ikOK30P4MgxB7DXXROk9Mw41Nq9aol7EkTRDAhMpnYYJrQpgN09ivqZFg6JbeG1omWH5A76Y3QfsAe3nxFh/9pB8jQibr7HctpkorwZTzJyXMn7xvi4C7/vllffLk+LHvybPS5g6o4CXUDpSeKREQjtAVxqaLzOV2fXJz8Kk7rlLIUSankJb9fRZsSb7UTfclAFLlfJ9AxIbV4lClcZnzSUqeFyhOJ64dGPfTzFjZ3yijv8Em6WjtjXQ/RUqRMnIRMOBKnpaaTZ8PTOjYoqfZRBX7B0AaSp0javVdB64OB8dQpvNz+9DuTU14TXPPOFnuiYxlRu3XvcwrrpM/0KchWOdPv4wW49s69AP93LOvBp94nxpwR787J9DS++VTpkM4x2EDlWRdD2n2KZc+2YvHJs8lv6CRidWo16elQLhJIHuJ0Xcad1S5QtST2yGv98zzQbsgimWbGpTpbIiuT9LNTu4jfZbEBPplYnNRdpBLT5VDYLvm7DZT2GggsdjORkyqVaYT2JN8n9sZdc7JwGHAYcBi4HQysPrGPJ+gCAmFiTwmABX4niYdBGgr8rsizf/U95LXzc2L6f3Xb3PsXYJlCOHISX53sFsjujozftdCzWNiopH8n90Jzzlro1enS6dJhYK0x4Ij9vOoxaw1uiqf1hZfQTSbrRQbDkzqaZ7rXeb3a7/D2e+iL8pbykvkdBn4PDDg9Oz07DKweBu4WsVdJlbmx5QZRlyUkLcmWxn1rC1wRm2svWbi2fborusnrx0WAxkszMXT1DIfDz2+uEyqJ+riLiZ47kIdpd32tvX9urP/mY92N37Ubv3eI2IcYvirLw3/2upgYsdcZ4xQO0f5TxqnGFU7uIoDDIVqPfrBE3l2Uywr2aXLSQudjsTCyDJ5XsD+ujXeUEJDtfNbF2Kjy5PR9R/XtbMvaETs3Fn/vsXiLxN6eUDYvKUwvvTcXqNYktpyTFLXydOl3U9LbXQVDiOFhG32tqslced5ZOdxV/bp+OTzfDgai/3roFCoGcDvtcXp3cnYYcBhwGEhj4BaJffrFThFOHg4DDgMOAw4DDgMOAw4DDgMOAzeHAUfsnXfabTM6DDgMOAw4DDgMOAw4DDgM3AEMOGJ/B5ToVro3t9J1snSydBhwGHAYcBhwGHAYWFcMOGLviL1boTsMOAw4DDgMOAw4DDgMOAzcAQw4Yn8HlLiuq0rXbucRcRhwGHAYcBhwGHAYcBi4OQw4Yu+IvVuhOww4DDgMOAw4DDgMOAw4DNwBDDhifweU6Fa6N7fSdbJ0snQYcBhwGHAYcBhwGFhXDDhif0vEPvwvQOPhJnzPg3evgvrhEOHPevfVFIPDJnpfLQOTvntVQ+keHc7lY/NRC70vkVulsy6uQoxP26je99E6t8iP7+PPZe/n37nPn4658Esf7Ueb8A+Ghd617P3ravSv3W6B9Q7qDzZQ+IyRVcN5NMXwqIHKvV0E3wqM75ts/7ceavc8bDzpYXqTz13BZ4XnXbT/HSNawbZdG/+uL4XsqJPvLdsVCy4dsbcI5aaBOTmuYuNxIE/DpZNgt+WJt6XXo5sfKJcDtPY7GNlOhfxO7y6h9TEU7528q8qFhl9H//LXg/Gm5b7s86L/ArSe11CixZeXf8AZP3fZ+/l37vMnYy0aIzhooqbGmbeI2C97/y3YjJXDyOUQ3deJTH8psT9vyRPG1TjVDxqctxgPP7TR/KcibZ53d4n99KyN2o5yIvmbKD9pY7DocMKvXVQs8qwcTRbMUSEmp100npSVsyiRa/Sli9rf7oTilRvLv6P9+s36vCbEPsLgaE29HJd91H0PjQ+aV/yCPDc+yoc3TOyJuO80MLCR+tkMo9cleH92MYlBHmH4sgz/niP2ifGNMHhWjNjL3yx7/08mtbFub+o9E3SPinm8Exne1Lt/7DnRh4YkgIuIvZLZsvevWn/nt+dmbOjkbVnI9JcSe6GvCLFjwvOwezQp6B2eoPsnje+EgM6X249h8Oc92zYuIwwPSkI/G9tllP8sYSMm6yW0zrU5KGUnIgye+9nFkt/EIMrvf/QlQGPHh+eXUTvsYXQRZnQQnbdQJqdW6n35z/x58nLvdLL9fTCwHsT++wCNx8Fabl+G7+vCYM7zJN3MgJsgeOyjdiK98dlnjtD+w4O3t55yzPbn5w3S4cEyxH6GZe+/zb788LvIk1eQGP/wu2568mfPbtH2L3v/Tbf3Zz7vhmzo9Hh3RYj9DLNvAXYFcV2GpE8R7N0BYm8bl5/bKD/uYqTvvoZjdB8r0p5H1OlZT3pLhYaGH5piZ9N/2MYonGeLIwxfbKF0MMyQ/pWzFz9z/LlnL9j5mYch992yY2UNiH2E0cvS2hLS0UtpVH82sRcTbp7hJqMy7aFKk6Aj9gsNzLJEfdn7lx2kv+7+KXpECooS41WbvJYl6svev2r9zW3PzdlQR+xXgWTYx+XoqI2hbbeWFnU+LWZ8tD6Z7acdxzLan83r+f8nLzyFK/ocXpqLO/WMr12UvRJan/J2DPLf9etsn2uTk/36YmDliT17BtaVkN4K6YsGaJLhfjbI94qwd8sRe0fsF03E4vsI47cqB8MR+4WYWeVJ8CZtqCP2v3qyv964HL7I2YXk2Pp7Jezud9D/krfjq/qtQku9pfKyVPjTkrsCqzymXNt+9Thw75+HwRUm9hFGb3a1GEFpmJKkxgjTzz109ivYEMRjgv4/ZfjeBiqvR4rghhge1lG5z1uRlEjUQv/CAMXlGP2jBqr3q7JSwvcxgmcVbBJZvldB472ZQBRhfNyIn7uxvYv6iyaqr5NYZCb0emKX/LuFoU6spgO0n5Tlu6xVahb3k8N9qv9OswSECX0ca5nIUcTJRlOMTmSlC7GrcNGXcZP3KmjrHhZRaUeT5b0Sagc9jM1t2IiqyuiVM0IpK1GFZwOVZ/043lKvFOTfr6Lz2fToRBi9KsP3y3PiQw1dzgrqXOkg/K+H1hMVi+pvovIsQOdpziQ4m6HY/Yt1JgellM3u9oaMb82pliRiWeOKSjQBN9F83E7j6HKIttaP8pMG2vuNa1b+mKqxlGBFYtcIeQjH6B1whSUP/n2q9jTA9MrUyQzRpzbKvo/yy+Jb8uHHDurcbxobOzW0Ts2xqN6VaouPzYcNBG9kGJx1x6Ho/ZdjDI5bsW2IPnewe4/6WkNPq6piJixWaWxkvKchhnpFqp0aGq/qaBzr43axbZln0NPfLbKhiZ6mZ7qsN1B60kLvvyzJsxF7vpbYuixOgme7KrnSw8aDOjoqgZ/bSxWJus+q2FQhlzrmNx40sjabxm9s24z3afY11S+yWa8CtP8iXJu/maL3ZAPevRp65vygPY/am7bt2nPi9shxk85DiEB9FPNVyrkSYXoeoB3PYzOEH9uoCZtAVcv0QggFx6XR3qTNWlvFPeStz8bWb+y1MdTDeeLnUQz/lrBVlbc54zC+N8GWeL9YWJTRtVVqy/kNY8N9pmXp5OHksQgDK0zsWXlDtDIhJFMM3gXoPpWJQt5BH0OaILniwR9tjGYh+vs+vD8a6KuKAOF/HRmTqYesfOmjd9xCRWxV7iL42Edjv4HuyQCDE75eSRkkItL+dgsDZfyib300qQKHxbPJk4AtFEdsaW7X0fsqCW30tYc6PccvoyO2Rov0s2DyJk86+qTybYDguCvfSVVgToeCDDYeSmO/xVV7LgdobvuovBxgKpKpIkzPlGz0ifByiN5JIGVBCW3vhug/q6N13MeAKidQopXngaoBTT80Uf27jeC0j+BALeB0vQhjz/GwHvyXRRKNC+pcTSSTf2vY8Eqon6jEu2iK/nOFKUtVnGL3F9EZYZtyImgROkRIRPgqxPC1rNix8bSfxLsKD1kJrTNFsuI26gvEEdrbPqrvVD+uQoyEt92cyHlMFfxkzFhwHX3touqXUD8exe0fHdflFv1OKxMSEJM/v4VRgYlcjDFvC433ivSGY3REbLSP5pmxABTJ6B5KT3uYMD5PZQywIJtm+wveH33uGbahJ2wDV9upvyedyIRF/d2TE5ZDJ9VXSl4X4QsqITH8TDL0UqUjl7Eti4x78r3NhjIGQgyel+A/bGHwTdmhbwO0hA3YQO3fNIFjPaZJ6xTBIw9ECAcXpm4CVMlJcK7wSwtQ9ez6qbw2Pu0heKmq1ewFGL5voP6si97ZAD2+/kBP+ldtZ3xmSDp9rwoD+Pq7R0m8eeY3SkaeB6uDxMRs2FfhLeYYCzF4IclvIqMQw5MeArYtsQ2m6+l5bHRYR/1VgP5ZP57f/OfGTiz328S12cb4/8qO5nnMv4eYfhkgOKgqBxM5tCwLnLCPunAQVdA5H6UW9bRY635SOo7fyxibgXFTXnJBkGA4eZa75mThMDAfA2tK7FWnROyeB++PeuxlCb8OMSIibzV+RPyUtyblleHrG6gdpWvvZqtAUHyjh9Kbcdo7bktm0rw7GWIvCNtWJrYxrsyhT2Tz+jkbocWLEs2DmAE+yyOeVBJgcB+39nvKmx5icj5SnlcVz6m3Rxluaquoy79NCyntee9kgl3peT/tveU20GRrTALDA0n6mx+T51Afoi89dA5t3s/0faK//PzUhMe63UWg6/xCJt5lPU8qydgk9sveP1dnqkJRZqLlih0JeZ3+W4X3vw7GmnxpUdB9oBH7Ty34Xh39lIeYFnxqByr1W4vc8r63ynOGWTQSJVt9S+jX5G1FLN78fW1xQs//PkbvsFPwzARe0Gl9pN0SlYi++04nmxOZDGnB5+iVJFjpBfey9/PCeQuVV2q34WqK0flELL4EEReOBF2u/BsPSblAOU7rp2niS2OoGnvsl7MtmTGep8dZPrEnfPle2nEhnhvHZZdSNooJmk5aR6+rGbsp20YLTi+b0M9jQ1/IM2m8V0M3da4GjwmTQGs2PkPSZ4g+NrHl+elqZCSfyx5qgpxmnxd+7KJ9VPR8EcZo9jlZGSlsKBuSCSv93MYWtWmnGTuLhPyiARqirelxYJ/bdPwZf4s+p/WYi51wpBZe2XyseG7yK2i8Gyonzwy8QPUojj6v8s7HptyVNO1CLmaNPrj70nzDycPJYw4G1pvYM/F4kYTAxAYrGqJJJSUNAp7nQZfXs0Z6phLqEjKhiKK2EyDfOUVwnG1H3vuE8bd5L7lPXhU9rj3M12z95KRYy+QWy4IAwM+wEHueiExSLX6vJh27p4VJcEJE6Tf8vGTyZyPNXjFjopr7G/5tgc/COufybhZ902IsE4+67P2avG06I6Ll2z2DjBfeoZBkVvNcq8E8PQ6SUBylo90348TTT/edB6lwkRQe5hiF+D7GTGqhNEN4UhOTdKqEKz8vJk4Wssj3LPykShob8HeMBY0luTU6a4rFZRZrM8yYTGjtX/Z+kkVsG/SFoeiDJHesq1huGp69x1yml6tSdYzwtSGCOIRuOduiv2/+33nEXrUpVQI3GWe8MNI9xqmx/X2M7t/VzCI9bss5LTg1Oxbrne2AnsyZ18Y58md8ZmwfLXxp5zNrZ8ROmTUUJ+l33P64vbbvrkHsub2mDebrGk5lG/gdzWSsU5ty77e1U4bPLHVmijjvhBxgaccTO4BsuVyxk0dfrOny47GbWQTb2uyuFcOgk5OTkx0Dd4PYZwxitrNxfKPwgGQPH4onb9PrzQZJe4eMFybDt4HdgwBDJuC6IVN/M1EzPfZ8PYlLlXGZ+v/j38wz5PxdZnIzZMD3mZOKRkLi92n9YGNuJU4x6UmHyqQmf+1ZM/YcetkJN/83Rj9Sz5v/Xa7O8zxheTpb9n56Dstbw01shPg7hUVd5/HfrKdohLYKYdrYayE41+Oxuf8qPpgqVezU0DmV3uT4fUvILPUbbmeqD4k32oaX2YzJiH3hknp+0XZRDgzlyog8DT3kbUFbMmN32fulfHNtQ4zn7NiN9ahhfXpCoV8y1K522MfEzE+hHSqRi1DMthSXZQ5pZs85Y83UB8tPc0DE4/RFW4TwUf34vHbwvYkssnJK7EpOGzUbk8Eb49O0fXP7xfi0L+rz+pK9nv8c7nfSNzVOub2mvPl6apzRb3LekXs/24Pk87p15Jmo62FJ8ZyVaSe9Tzor7JV3yMnAh4plbX9Wtkn73XdOFg4Dy2PgzhN7Smqr3t9ERWX8D3JqlOdO3myQTGN2OUJXJOvSZOWj/E9geOKkMtgYpiclZbBzPGUZIM8z5PydObmZkzTfZ04qC4g9tz8zSann8ySmhzvwtexv2FOXNe75v1ke1At1zrLQSJcuc+5zrLNl7yfZ8G9M3NB3ClNWHlw3twAAIABJREFUj7epN/H/EKOjBsoi5IrIewNBJrExwuS0LRI7BZG6t4v2mW0RsIQ8rX1gspFdHLMMWX5Z/S/xbuo3JZY/2sQmJVuejhGeKXIQy3RBWzJjd9n79TFsIYJKPvbdLHtfo4s+2nsqWZocA68sycYFbQvLe/FnDmlm+Vhsgngm618bJ/E4fROoE7Tzwy8kDhpzDzlK2p7TxusQ+7n9YgxY9Gkde3Y95pJuzZ5m8M/yNOXN12Nc8ztz2pp7P/9OfV4EqO217aeQL+qrCo3S+zB6bQtt43dyyGOOXWCdaFhKdM/PcJ9OJg4DN4GBO0zsJ7LKwXYzTp4lgTHpiEmbMnDyusXYs0HKGF0FwOkwIfjb2aTB3PeJcI8aetbqAwa45xlyjk39ScSe6/B71pASLexGi3uOJ/84dpj787OJfUGdszw9Y4s7hQVtglr2fnoO/8aGGxVru/WqSEIwy44SbKcYxgQ/j1DREe9M8H1Uj/M9qgsNiLUPMg6cFg9JeJrWRm2MWUO7FhEK9T0nKjdPtcVJZiwy8fFgfdcP3y/7lWsbZkM0yQOfyZVIy8Mm5/BrQvBFQq1NLgtsi+259ms5pFnkZpBjwj4OYgz/lZwcmhrbF4FI/vX8ajp/hXUocm3S4Rz29pG8ctqo4cm02XH7TNvHetfanbyXMWOx9TYd5F7Lf05KRvrveTzdBrGncJq97HyUyGERRkkfad1xjostFIeemzfXiXeyTrTdn+JtWdRW972TpcOAjoE7S+zZuJpe0Tzjkzt5s0GKCdoUwVujSsFshvEbmTQoK2UkIMt73+RI3p93Il/0sYselwbjCSFuQ/L82Yzj3I3kUH1Cob/5GeakonmYMhMnhQaoGGYvJzZSenHS8dQse93bI0H3c4k9v3exznnbOD1x8cDI6mzZ+zV523TG5w7kECIRB3w0ECEO0+Nu1uP5pYMKEUpORDvvpqo2iX5w1Y4cvXFf534yZow+MHbthFZ57vJibU1c2v7P7zWTczNjkciEquBkWyTdwP0kn1zbIJKYiRjnLbIiDN9yQvoQ3UxFkBB9UW6QcbicbZmru5Rcc0gz49AgcPFzVe5GkgCsLeTVop0PK/K2jcRPzXbkLlwuAnTP2JbltDGWv7bQ5r4xTkxiH1+3OU7yCXncb37+3M/857Adytg/bpdpg/m6Mc5ydwVy71eypNyHf1oYWkK9CvfxSwdlMyGd82esuQsLxj2PxTjnhPXuPgvrZC4enRydHBMMrA+xj8NWIky/qbJabOBMAqBNBrUTvQRXiH6qRnmESJWekwmTFi8OG6TY6JJBTxNZAagvHVHqryixn/FBHyqMZ3SpqmVcRZhQKcm/tPJuc/pJZd0Gz2Tsqo2Yx2DnZ5iTikbsTUIsf6sS0TzfUgZOfmdWQMmd2NgrZ9mOzfvNMlVxmJAX0TmVHhQhK3uJN5JllU2eVVVsiEwXvD9eSFmwSe+J3y9CZiaIVO336HKE4Gk5LulIcslW7hmj8z+d2LeQrVATSaxrxJ5ivDeplvw/yVkC3GfrJ2Mm7kOIKZVE1CqmZE6TVGQxk6y3TFUcHnOGJzz2GKqxGH2PMPvcFuNO1CU3k1stybNL3x/bEnsNblEVR8XNN6j0p7Ins+8TDF5WkMSg0+KwgUGqctEM0SnV2teIfRHbQnkXD6jm+q7l7IfEuCc6VaTZYkPjKkYWwiUWcMZBRLZxOjlWB5lldixlVRwaZ+lSmBHCzwHqVAWG5cW7Hxb7xOM6Y98Ynyax51LHnoetF+a5CRMEOcmzy1XFYbvLulNyv5qgp8owZ3a0uL1mH7laTjzHsA5zFg/8HHNcEvETpD67yGIsTN610eddYqrudMbVz/id9EmleMvWk2Kl3fJhznNsEzLjXpFRUd3L87BM2Bq32X3qunF/OzwsxsAaEHv2SJdQP+qjd9hARx2cNP23Lsst+vWkgowyJOEpf1dB87iP/nEb9f02Wn9LErz7uofuQQcjmliiIVp/yOv11EIg8cR7e11MBPlSxpbKsn0O5UFYV6r+uTmxUf139dytF4N0xZLZDJP3st61IJhEDvif4cmd108COXvVMxNJvMKPMDmSJSiJAHV1AnQ1RY/q/VPi5X4vXZ6Sfx9vuZdBoRERXacDq6jGtNlnmlTVoSeZPl905TkCmTYktZ/Tv2Hdp5Nz8wb2UjqnrWqVlEo1vPtfpgjDCQav66jQWQIkj4cNtF8pErzk/Yt0NvuulZVjvatPfRdHEikqw5qQxqmo0a55iQUR9lF+0cdEEcfwP6qRrofiMElQOBc12BcYCA7z8itondB5A624yk7sqVXjQOgkHCN4qmq1M3bUZxyfW2Qrnt4r8gl8VJ4H6J/SAT51tA9kNR5vr43eUUvZAVWvnGRH7TwdYxqGmJy1UX+oFm9Unu91G32xA7bk/VT+jyqseJ44+C40+kUkqM/naRh6THuqJbn2d5roc633cCzqqif3FbQtvPCh92kLt7xxkezqZW2oJHE0/iV+5DkVM3VOhYYxNeYDZT/T43SC7kMeMy0MtGIC0ee2OiNEfh/bOGOXg/AkSj569XR44tUYHSX/ZJFEuI0weacWFOR04DMcWD/qrAJ6X+lpF8OLEOF0hOB5DRVlk0tPmui8G0m7zFgvWsdelV+V5X5r6JwM0D9uobbfw1CV+/W2a2i+7saHPYWnqjzwH00MNG/69Fjh+k81H3EfeNfN20KTz7Gg77it5rhUNsq/X0b5z+y/EiWfa4tlJtvUTsphEePmPEBzbze/0pEg/b4Ya8nZBPJ8gATHWbsiQzqNRRD3033mJqDnj+msjN29TiaMgTUg9jPwaY90CmzrA3ng0yQlnixSHo8Io0N14IY4cVDWJ+YTMOMT/fRJMp6YKblTebniazQxkUd/iuBJSRhOYSjpe3ViqX4KK3uZ4rbxc1JttJxkut+JJ4Ji/SQwKwIce3A0gLN3h98ff+4i+H+ylrvZxoxnTEwmBU4Ztb5L7oJY5UGysP6Gk2uXPXm2oM55IqHFSXwSKJ222RakhMI7Nh+1s8erF7q/CDaVfozTfDe2a2idpM9RoEm/RJM0n05LJ7DSqap68ux5C5s7ZZR3NuVClzyk27VM8uzoUJ7iW90rFTzwixafMmmXTlpN1xeXya10kqY4oVm9k9qfJb9c7aX4ybM05qvixGipF3ESpqoQZDulWJz8qmQU953KLd6vok2Jt8ZpuIXut9oGy67eLMT4pKVOC+UTeM166EO0FOFieXnCLunJs8Vsi9jtu0de8Coqvq2cpDb+FdazNlS/J91+Yc/2OymCzgnfaVshZcFe/NR3up2bDsSJq7Lf6lRbrVZ9rm2wyZ+83bbryq6lbBctNPkE8dhG0zkGdAJ2F0N1IJecDIufPMuTJy0uUnPMoVwkkDzE6box7uw2oXVuv04hPItkmhmX6myJlA5iW58sqlK7suqEdVGpSYzfXdRzqjUlfSbcqNO9VZUqOnm9cWwf9/J36iwCM7SH7bD7dMTeYeBGMbAWxD5tVPQJyf3NshEHzfxIXLMbWDc6sFgvK/n5sZmb+LqS7XXYzMEmhZXkJL46meXIzM0Ztz7GhfNmK//wKodVh1WHgRvFgCP2dwZQFBfpp46nv3UDfmdkebcn/9GrajbZ1unuRg3rrYy9yx7qz7OJ/LfyboeX9cPLL9IZxeXr4YUOn3d7fnH6/fX6dcT+Fxm7nwJ+EWNpLz33U953l2T3m/Ql/NhC40dKYP4mclr58XI1QUCVT4xk3JVvt8PP77UgoPysx11M4iTpX0963BhxOrjrGHDE/q5NNOEQrUc/WOrsrsnE9UfGxR510NNj851c1pNkXfTQejO0J7o7na6nTu+i3sIh2s+6GLvFp8PkXcT3CvfpFom9PVFoXrJPpg7wCgtytVaAlNzUTh3MtVrtcx4Dpw+HAYcBh4G7ioHovx46OYn0d7XPrl9uPK8KBm6R2Dulr4rSXTscFh0GHAYcBhwGHAYcBhwG7h4GHLF3uwBum9BhwGHAYcBhwGHAYcBhwGHgDmDAEfs7oES34r57K26nU6dThwGHAYcBhwGHAYeBZTHgiL0j9m6F7jDgMOAw4DDgMOAw4DDgMHAHMOCI/R1Q4rKrOXe/8wA4DDgMOAw4DDgMOAw4DNw9DDhi74i9W6E7DDgMOAw4DDgMOAw4DDgM3AEM/F7EPhqhvePD32ljdFsHZlxNMThsovf1bqwKwy99tB9twj8YFjIAy97/23kPrkKMTzuoP9hY31ODoymGRw1U7u0i+Ha7OJ+e1LDhbaB2Mi2Ex3XGV3jeRfvfMaI7MPGssx5c2293jDt5O3k7DCyHAUfsf+YkeTlAa7+D0V04oCMaIzhoorbtQZw9sIjYL3v/z9TDqj77coju60Smv/LchunxrtSrp/Qbf84n6+GHNpr/VOCL++ff+zOM820R++lZG7WdTdlPfxPlJ20MpguM7dcuKrEcE7lWjibzFyHhBP2jBmp/lrBBv98LMFUYjr50UfvbHfrzM7DknrkAz6tqR1275tsTJ5/fTj6/F7G/UYBHGBz14gk3Myl8H6K108DASuon6B4V83hnnnujfVjekEcfGsWIvWrnsvevWn/nt2cBBgrqavK2LGT6K4m96OdViMFBSRH8LTQ/hAUN4gTdP4m43j6xn6+fJfH9tYvuufmbCEMlk43tMspMtgVhL6F1HuXIKMLguZ9dLPlNDHJ3CyOMjxso+x78nRo6JyNMwuzzo/MWyo8DTAri60Zl5N6Zo28TN+7/DncOAw4DvwYDjthfd6L6PkDjceJJSwN4guCxj9pJDjEiT94ij/d12/Wzf3feWorYz5a9/2e3/yafPxcDxQc0e8t/ObEn2bC+vBaGhWXFp0qvN7GfvK2gZRL7z22UH3cxutT0GY7RfaxIex5RpzH+pIewsAxDDJ7TospH5fVowe8iDF9soXQwdGE5heWr6c/9xi1OHAYcBu4wBhyxv5ZyI4xellJb5DqxF0Qtb8KfTdEjUuCI/ZoblvkY0PGw6G9H7FeAdH3roep7GWI/OmpjaNt1o0WdT7sUPlqfzPZHGDwro/3ZvJ73f94V8FF9tyBMh+3V1y7KXgmtT1mP/iK8ue/z9OCuO2w4DDgMrD8GHLHniXKJz/BDEyUj9jUeDNEATZrwnw0s3rQI47dVGafriP1aE/u5GFgCS4QbR+x/sSH9nnjgMx77ObocvpBx85nfcGz9vRJ29zvof8nZuVPPDt/XhU3w9/sLPPW6nFT401K7Avrv3d+xzZ6jY3ePw4nDgMPAumFg5Yl9dDFEcFDFpq9CA6YDWZXF8+Dfr6LzWXmsqPrMqxpK92iy3UDlWT8Tg5p5Fhv0y7FIVqver8qqHt/HCJ5VsEkE/V4FjffsRYswerMrE9qMpDie3GmSpuTS6r9mlY4p+v+UVZKhJAQiCdWMSw7H6B1wP6iPFdQPB5heZQdX9KmNsu+j/LL4lnz4sYP6Q5UE6PnY3Kmhdcr9M96RaouPzYcNBG9k/6w7DgXvD78MpE5FKFOE0SHJ1Mfm3+mcBTNhsXrQw9j0nl4O0X6ikgxFUmMD7f2GUZ0lxDDGhuxz41UdjWNTR0b/GR+pz8UYEEZAVEOqo3JfhWzcK6FG7Q+z77ARe74mMUJ4McJcaBw8KUuMkuwetdD7kvbeUkWi7rMqNlXIWPQlQEPpfuNBA/2LbFuKhOJMzzQMUb9eBWj/ZWkj7U492YB3r4ae7V2aXIcHOWPiW4BdbaylwpWivIpCEabnAdr7FWyoBXT4sY3a9obwsG8+0hLav/XR2LHEwmsJq3lGXbbZ0MuMvPXZ523stTHUw3m479EQrT+o7xV0l6ycJRcW5aV/l9cfd90yHlhP7nOtHTEO2w7bvxMGVprYj0976B0qD7fXQv9zB/X9DnpnA/ReKYLt19G/GKP7dxWNox4GJx3U1EStV58wnxXHD3/po3fcQkVsq+8i+NhHY7+B7skAgxO+bk66Q7SsHnua1CVBYaKfARMTFYvHPvraRdUvoX48QkhE/irE6Lgudgf8nVYmJCAmf34LowITj/QMbqHxXhHacIzOHrXXR/MsTQpnFz3U7nkoPe1hIpL9IkxP1U4F9d1sf6H7I4xOegheqioqewGG/zZQf1aTOyBeHX1BfGVogv7uyQnLoaP1dYT2tgxfECUASV5iRyRNtkavS/Ap2VAlLYafSc7eD5aXzMPADLPLAZrbPiovB5iy7M4Uliwkl/WYIq2zKYJHHogQDi7SuqHkydJ2Hb2v8nr0tYc6VSvyy+io8A/Ce0rO70nOXTl2WP4PupnF73xiH2H4sgzfr6B9rrzQl6Mk3txcfMyUjKwLXctEE/ZVeEtaf7NZiMGLLbFgjmV0OUTvJEBTVWmKr89CDE8CdJ+qJOCDPkaHddRfBeif9ePr/vP0jhrrIHfcZsaXyivI85h/DzHlBaywLeQkyC5w2BHgPehg+LmHFi9SyTmx38XIshBkm8JtLr/NWZhn2myRubvHEVaHAYcBh4E7hYGVJvZyAhuiKTx2VXSNLe3hgfSMCQKoe7SZPP9lVo7gZ5mJgSH6+0RwN1A7SteJtlcsySN1I7R4gZBXz5vbZhLjaITWtgffEsJDSX3kuc1s1X8fo3fYyXhqeeJPf3KCY7rvTCx2U7G9EwRE+C3Eb/RKEqw0sV/y/miABun0jwraHxVpnY4w/CrJoliA/NHWCDwRkmTRFC/YPrXg02Ig5cWn+9TOizBWUif1U4Mcf2igei2PPZOjPAyoHAqL7KhCkCgLuZ3uGxM0nZyOXlczWBT6vOyj7m9l4rfj6kP6e8M+6iTnezV0U978OVVs5iTPRh+b2PJ8ND6kZTm77KEmxqhJyGcIP3bRPhoWDDFhjGafk5WR1MPknSzTmchO6edzG1vUpp0mBrqnnLFnJAfz8wsTe9HnUkYP6TGn2hKO0H6ovPipnYAE0/6DBoLzqQzfixeoHrzt7II+fsfHpkxkXyqEh/HrPmM5OlJzp0iN06sb2787BtaC2AvvuDERk+J4Ms5M6rGnME1iZ7nXZ7BvqydVQtLEN4fUTXuo5hCcGGg5xD48qYlJOkOaaNKJiZO5c7DMAKZKGhvwdzoY6xMZEzltoRGdNQUBzcp1hhmTiR+4P9ZDZuFF/ZHkzn85ykw2rG/vsQrZUeRt9804TRzPA/TihdUIbQp12OsYYTBDBJlwqWXkmYMB1Sa7F1W1xdgh4X4JeVO8999VtD/Z47LFvbYdGsaVV0Uvrq+e08aZhnczRIbxkBlvE3Qf0K6AOaZIZhME1lCcZeSZ6D4TdjRnrKdkp+Oa5aHhVI5BXjw0U1V/+DnFiD3tKG2h9DqL0Xic622hv6n8rdhd0BdlvMDysoslLaTH3F2I38G6yiyCl5W7uz+Wqak39/+MHXaycuPFYWC1MeCIvTLci4h92kOdQ5iYTGRCEjQQ8D0pwpF47uzEgsmILXZfe/YykxDlFRzWURE5CXpozYK2MJmI27/s/dTeHPmJ9qvvxAJJhjUlceb8fyaXKoabdjOo7vfpJE3wlTzkIUYyVKV22MdkTnhDcYNl74N9hyfREceS6wsXJpW7L9oipGZ3zgFG/PusTFg2emUXexupj/ycDN5YvyaxF1VY0oclJbJifGY97ck9iQzyr+U/J5aRscuSd31mHWfUBvs7+DkZeVjG1HXryPOOTZJ/k2Dd+t5z2pGSiylrqF2erixtzpd5Eb24e5z8HAYcBhwG1gUDjtirSfDXEnsmGzopSw8iJmJWL/oyE7lKPt58UEfndIzwzKxLv6AtTCZiYr/s/dSvfMLJhMzu8U7LRA6yCJPTNnZ5gXJvF+2zbFJsdNFHe4+SJ2XI1e4re0Jy8YFr78MiPTGB1BeKfG33TaC8unkHHylZ/2mJjbdiwN5G6iO3M0MoWb8msefrqVAS1gdj4Dcg9hcBanvt650mrUKjkjHMOzg5455DqUxdsK5ZJ3nf833u03mdHQYcBhwGfhsMOGKvwH4jxD6eiOcQHKsnkeKypcc1HfLDxCkhYs2PybXiJFT+ZvJvDRteCc1TjfgyObAQdeu7fvh+aks+4aTvRE5FXlJirnEKNYLvo3psTygMvyYEXyTU5j5vkZztfRi9VLHUL+wnC8ckXstpiK+RN/oiEIm9nl9FYIbJECEXJRZr6Olx47l9sLfxh4j9nPApWwjNchjNXyCkZKT1N+86LxD1BZRsi/0d/JzMQkd7lwin2ZsT867fa/2b9KGH4nBujy0URxsnecSdx6ItNMv6/kWYdt8vh1cnLycvhwGHgdXDgCP2agK8EWI/Yw/crpWUiQFgJfYzTI5kgqxnJbSKAOQeelUAWPxeMzmXyUFM7GkRIcnp1itLDPEN3D+f2KtYbjp859xI0hS6ijB825PVXM672VJ/XFkljjseopupGhKiL0oS6iSrgAxTZMlOmjk/wYvfn37u6DUlH6dzJZhUsidXVL2hnYVtI/FzluAk79TR6GMXvbhsor2NhMOlPfaMH8+2qLCT5eUNfv5zTBnxs/Ou3zixp9yHf1oY/kgY15cOynpy82wGzq3xtfHHfZspR8HCGHvOOUnhM427+Jnunt/Ga+d07saAw8DviQFH7NVEJz2hFk+7hcjGxDQOiYgw/UbJjgvizeldTJBigh1i+i3CLD7J0nKapDr0KpOst0xVHO6HsXDgqjjs2Yy+R5h9bqvyk5YFiiV5dun72WMfyy89+ERVHBFbXEaDSn+qMpWz7xMMXlYQx6BTDHIsR35GhP5TqrjDlWeGaPkNDFKVc2aITqkef0Ls6UwAyjfY2NNqnM8lQYo0x31gDPDCxLecZSC/M6sb2cjp5FiVeTWrooiqOLS746P8T4DRpVr8XEWYUEnNv/QwHbX7YQmfWZrYz2hxqRZ8L8xzE/KTZ5erisPjJ9GLmJiuJuip8pXmjpZNduI3F6r+fYYw2xcP/Jw4ef1yqkqVUuIrkfrsIosnzcm7Nvq8g3I1xehsZDl3YoLgcdlyUiyVbKU4+nryDIU7GZOfX3ln+m9VhJYVD1vjMeI+WXfu02HBYcBh4K5hYPWJ/ZcOKiIuehfdVGhCUtt668UglTRJ9eDloTbGb/KeFR8S46F+kq5GMn6jPOl7XUzikprsmS+hftRH77CBjjranT22JgGJgcPhOn4FrZM+goNWXMEl9tRSecLPqh3hGMFTVYfdIJrS+zsnuU6/n94rSnH6qDwP0D+lA3zqaB/IajzeXhu9o5bqh6pXLsh1Ba3TMaZhiMlZG/WHqj64X0HjdRt94R1e7v6QSLTQaSWn+ssEfa5DLu5LEkNT4TNiseKj/KKPiSLu4X9Uo14PxZEE3N9pos/14EN50qj+LCa6FIO/VajaST4GknCasgh7kjX2p2JR4ptE/WqK4G/ZvzSOJ+g+lNf9hy0M4ko3M0zey5r+mQRaI3yH8CRKPnr1dOjO1RgdqnDjeckiibByFWJwoPRLOyZn6bHAZxvQ70pPuxhehAinIwTPa6iIQ5Y8lJ400Xk3kuORsV60jj15sNUprN52DZ2TAfrHLdT2exiqspZ0vfm6qw574p0XD2nZUcUshes/OxjxwpD6yDs63haaWv94gUuy7p0GaB2oyktUzWbHh3+/jPKf2X/iQDxtscxkW7Sfx815gObebg7WZ3H4lf8wOcRKnrWg4zg7+cqwL2MRpI9597fzzjsMOAw4DPx2GFhpYq+TrZjEkAeOvd4p0ie97bbfUIhD3vXkQJ6EPHoiplV5ZC3vIJIefe7IhM17FbQ+6ARIEb6MJzmZmCfvGyj7dKqsWV98htl0gM6+OvXW87CxXUPrxCjnqAbqsifPUpur4iTUDZSeKBIRjdAWxEU7xVc9X5z8Kk7rlO0QSankJb9fRZsSb+OFjuxbkfttevAsHmU6lGh80lKnhfIJvEY99PMWNnfKKO/wSbpaO2NjNkRLkTJxkjDpU5yWmk6eDU/r2PA2sPuoAr9gaEM+BohAFjhBmHdRLBhjD3KMe7pH8z6H/2mHGfmbqOx3UiebWuVMv7e9cy/A/x3LevCp94l2GbtYtNDkU5npvc8CjEM6x4BOe+5iSLtPseyLnzyb/IZOIqaTppWeDuUigeSxwQnfhDurDaBqSeyR18ezPIxsvkwn6mRoOgG5K084VmdLZGWSfnbs5ad+q1OrN5RON7Z3US9SielyKMa9/N0GSnsNBP/pdiWxH1JWqlSmEdqTyNG83/3fycZhwGHAYeB3wMBKE/t1VQB57fwfiYePiZEbhLeOAQrhyEl8vfW2OBxoiwQ3FlL4EwubrZw8FCerlKzcOHLjyGHAYeA3woAj9j9F2RRP64OTId0ksz5EIzypo3mme53Xp+0OZ7+PrkavS8hLoHY4+H1w4HTtdO0w4DBgYsAR+59C7NVJkzv2koWmEtz/V2RgXgRovDQTQ1ekbT8Lp+656+fJopKoj7uY6LkDTo/rp0enM6czhwGHgZ+AAUfsf4JQY6IeDtF69IMl8n5m+9yzY6MyOWmh81Gr7+9kE8smxrOTya+XSThE+5nKAXD6+PX6cDpwOnAYcBhYMQzcIrG3J7XNS0y7G6EsIYaHbfS1qiaOKDkvuMOAw8CyGIj+66GTk0i/7LPc/Q5/DgMOAw4DdxMDt0js76YA3cBwenUYcBhwGHAYcBhwGHAYcBhYBQw4Yr9iWyirAArXBmecHAYcBhwGHAYcBhwGHAbWDwOO2Dti7+LjHAYcBhwGHAYcBhwGHAYcBu4ABhyxvwNKdCvq9VtRO505nTkMOAw4DDgMOAw4DNw0Bhyxd8TerdAdBhwGHAYcBhwGHAYcBhwG7gAGHLG/A0q86dWee57zIDgMOAw4DDgMOAw4DDgMrB8GHLF3xN6t0B0GHAYcBhwGHAYcBhwGHAbuAAZ+b2IfjdDe8eHvtDFagVMcw/96aL8ZIrxhYIVf+ujsV7CxF2ASpOuYAAAgAElEQVR6w8++ldX8VYjxaRvV+z5a57e8ev7WQ+2eh40nvfWU3TL6Dofovu5h/P0mZRxheh6g9WgT1ePVOABs7cfDMjp19zqi4jDgMOAw8FthwBH7lSD2EcZHDTTeT24YfCGGR200n5QgDgL7lcT+vCXb4HmZz3lkPfovQOt5DSX1u3n3/pRFxi0R+/C/AI29EjZEPzdQ2msg+C+cj4evXVQs8qwcLcJRiMlpF40nZZTukT52EXxTZP77GN2/a+h+iea/u8hE8X2M3mETtW2p819/4NwKjYci8nP3/DgGnQydDB0GHAZ+Mwz83sT+JpT9tYvuD3qRJ8dV7L61k7HorIsek67rtvdrF2UigL+S2Iu2R5i8q8JXZHT3aIKoUJ8iDJ5JcnjrxL5Q+4p6uCfoHg0zRpb0TzLx75dR/rOMTZ8XPz6qx3ZczGYRBs/9zCLJ85sYzNl9ir4EaOz48Pwyaoc9jC7CrA6+D9HaqSK4KNqv+fdNj3dFO389sVftvAiwuxLjYb7cfspC9Ubx7NrvdOQw4DDgMLBqGHDE/gcnusnbyg+Fh0TnLZT+aGNkbQcR2mriTbXeU2BQfVshIsNt0b3EBfo1PLgDxJ487AcGsb/so77TRP+b5iG/mqL/XO2yeBV0v1p0TM960lsqbCv80BQ7H/7DNkah5ZmaHqKPTWxttzC8ibCcj83VIvaMwV++0J2vg1WbLFx7nL4cBhwGHAZWHwOO2GtkZmnAfuuh6nvXJ/bREK0/POSFTkSfWigtSYCtfVglIsNtWbJf60/sp+g99uEZxD58387xjE/QfSAXM9V/zdh0WvCV0f5c3MCIBSTtCjwOMLkq8rsJun96KL0cZT36y44ZFYa1Mh57xqAj9pndI6v9WFbf7n4nV4cBhwGHgV+GAUfsrws+ikUmouZdn9hPjirwvLLdI3s5QFPEJmvxz9dt6yoRGW7Lb0XsI4zfqhAkg9jPI1KTdzkhLBxbf6+E3f0O+l8WxOLTrgCF9/h19C+LkHp5z+RtGZ5XQ2+J31j744j9LzPwVn1c14643zk9Ogw4DDgMrDwG1obYT8/aqO1syvhsfxPVA716xxTBHscl86cixDGRzIZyRBdDBAdVbPotDA2wiljkh+p9gkA10Xzclvd968s4ZTNxMfYARhgfN1C5L4n/xvYu6i+aqL7WwzBGaP9BZKuVCcOJPnewK5IauS/q0yCF07MO6txGbwOlJy30bAmXLIO4fTPM+JrWh5RHNRwjeLarkis9bDyoo/PRIJCXY/SPGqjeV+FC3+k3FRkjfq9iTwaO35u/YKHqQK0nKpHU30TlWYDO06z+KM589KoM3y+jda6Fshi6JHLDcd4iiTi1GBuipckg7VGPkFdBha53n1Wx+VhWGtLxsvGggX4cnz5F/59ynFfA708lrFram7TZrARE3vpsbP3GXhtDKwGPMDzYEgvQSk4eRy75UyE05dTviss8fq5O7HWM0Dh+NcDUtoNwNcXgsB6PIe9eCTUa83khRMvczxjUx0OODuI+uO9XfjJzuiq+aHeycrJyGLi7GFgDYk/EpITS0x4mIikwwuSkLmOFdzoaKY4wPZUxxESeGh8Sohf+W4O3XUfva3JtfNpD75ATOQ1iLzycJbTOFJGNOOY5fR+TRTOhM3xfh7/dwkARrehbX3rfdWJeIKFVhp/YCHCIwfMS/IctDFRsdvRtgNZDInwbqP1rJFzmEJnpcRXevV20zyaIdHJ1EaB6r4L2uer/5RBt9ez6qbr2pY/ecQsVkei5i+BjH439BronAwxO+LolPpzbkuOxn/xbw4ZXQv1EJdbGsrcR+2RB578cLSYeV2N0VHiLqbPJkfSOJ8Q+xPCkh4Bj3TUSSNgJXlYkWd8LMHzfQP1ZF72zAXp8/UEXE50Mcr91DOjfW/4eHvjw8vIvvoeYfhmohala+N2roRcvKJTRCvuoi4VLBZ3zEXoHtdRirfvJWKzp7eA2/6n3ZUmZ0/OY2L8J0HpYQf1FG21aFKkkYREepL9X7Fb5qLwcYKrG/PRMYcrWx2Xv535pOnWT3N2d5JxunW4dBhwGficMrDyxFyQ5Q26SKilmfDpXGPG2W7I2/dwKH0M0BekxCPu/VXj/62Csk40ZxTwb96lqH2mSSLHUHkpvxmmiaSROTukd9O45RC+P2NNvfVtS5fcBGoIsldLx1xYiE35qo/p311KzfIT2tofaiUH4eCGSqroSor9PpHIDtaNxKhZbhnF4SO0CkDy5LTZir6qVZD3Lancj5WmXhir60kPnUN+9mW/AcmP1FfnM6COvggoT5ntmaUgZm57xyHO/5+g7bXiozz7q7w09pDCp+hqO1MIrW/ko+tCQOPMraLwbKqI8Q/i5K/JDPK80Z7eDx0cdfc1TvqzMmdj7jw28xeFmOk5ULoK5MJrNQH0RFZW29WTzZe/XMOiIfdpG2bDlrjkZOQw4DDgMrBUGVpzYS++gzRvL3nLvsXlwUBKqUDoI0H08L0yDwzDShJ0WE563hcb7dNLi9DhIhexwG9LEXpHdPxroT3WSOUVwnITijF6qcIo5RM9O7BXJTXlRk/eMXsmwC//5ICHaTCoFkaGa+TVUX4/sFVXOW/C9KnqpttPzWVY+Wp+S99nbqHlp3+XsHmSIPZdvtO1QzDB8YfPYJ+1Ik+L860sT+5Ts9OcqeVjIYSwT3XvOz5mjb70PhC1/v2/Xkc3I0gJW5GRspRZ1vMDynml4UL+PiXJqsWbpo5d+pt7OQn+zx95yQFV0SmNNW5B8bmPL85AO/+E28QLPR/NM7b4tez/1nXVh0V2h/tjk766t1cTn9Mxjyn06LDgM3DUMrDixZzKpQg2Ed938O03KhYJikuOhdGh4zlMTMD/feIY6kZYIx8ZeC8F5muAzCOzEfoboUxtl4TnfwO5BgGGGJM/ABDPjIdbaFxNEvY49e87zSAl7nvXYfSYyfzXRflqC95ceWpEe1NwnQbas8ta9q9wPCxnndphElttiEvtogIZ4n6ELJQ+WV3oRlW4762XeZ+5zFrU3I+9FxN5IquZ+m/LQ9B23m0KhdpYvNclEXa+iw/2142yIlsBperEWtyNezBl9sbV53rU5xH427aGq6Z0XIpmdHgMHvNhf9n7RN9ZFRqfL4ymRlfutk4XDgMOAw4DDwK/HwGoTezUB271384Unve6LKoHkEHtBIkKMjhqKoHvwd7IngTIJtpLNyxG6cdKkj/I/QSrxbz7hkn2T9xikmQloHilh0uJpBJmv7XUQHMj66KWDYeLR10iZfGdj7iFH+sC1tpGex+00iSy3xST28XWt3Zl2/SDBnPFCxPKcRe3NyPsnEXtalO7VteTb+TjXdTFT4UE6KR69ljs4dmLPoVQWeQjZ8/jI+75g2+YR+3jxIPXO40Lvg95HHnPcn2XvF89irGV0WrA/Gi71trm/nfwcBhwGHAYcBn41Blab2M9UjO+SB/HMLgLUngQYqFNOM8l58cTMxMVOJoVyrqYYxgQ/HY/MJMNK7Pkd02FC8LUDf+YTLjkwrKT5E4XK0K5FMxUWFAOJSctfQZK8ydcEkZkgEGU67aeayhKLxUMvrG2kvi8iyrnE3t4vJnBzZc0yn/OZ+5xF7c2QwJ9B7CcIntRy6toXMZbUprTu4gWuJRSHMJMrDyFDHh95Hv0ibUqwYCXrvFOj8BqHqL1IwtZibGvVjXZViNey94tnpcZDwT7MwZTePve3k6fDgMOAw4DDwK/EwIoTez6kJ02oE4FFGL7tJQSWJl/h8eQwBvJIylj20mtb1RQmLmliPz3uZj3WXzqoEKHW4p7txH6K4G02nnn8hmrWe3EyZEy4cggM9dFKmqMBmiJ8Ik3gYpmomONUUrFJZOJQpRKaH9LJmdFZUywcchdDFwG6Z8mgtbaR9LCIKJvEnjy3c/o1n4Am7YnlkEPEcp+zqL0/ndiHGLxo/ACpn2H2pYOymXR62UONcGsp6TqbKY/9whh7W85FcZkzFqzEXoWWMV4Zf3nVgOSCOKm2tOz9Ah/meMjByiIsue+XwICTsctBcBhwGHAYuBUMrDixn4EIsPBQ+2U0jkcIRfk7IvATDF5WsHukJ2daPJ4aic3WOs8j9rvIVmYZo/M/O7GPS2teTjGNKOE3IR7x5P+lI0p0xlVOFsXKx8Q+OcAq+jYVyZSTt3KR4GcSh2cQh16ZBxHZiAzFcQsibS6aZFUcmV/QxuCCS4RGCD8HqO80U4semdRqhAvR4F1ElDPEfobRaxkm5O1puw3KEOQlzy5boYVjstNVf0KMXkuZeuZCyyY70Sa1m5Qh/LwgM8JX+Dmx5zzEVJUqJYJNpL77hWWdJkzhxza6fMrs1RSjs5Gl9jvtxJTR+pR9hpSrpcKOqqJkX/TOEMe/G4nay8qcsZAl9hGGL7ZAFayG37nPvJj3oecKyHEkv0snFS97v0uejW2Sm2RvZZJ18uax7T4dFhwGbgMDK0/sZ7MJ+pTwKcJP0omzKa/ylao1v9/LVBIZH6rf+1V09QOc2Avv7aKrVTCRnngq4ZgsJGSN/DQJZq871ZPvnQZoHVCFHlXnm8ogfg5lHDu3zUpg7KEnpHwO1yk97aJ/0kHjzUjFxSfhNOUX/biEoaz1nW4jPWd6XJPy+6OJgVa2UJ58S97cClpnSYJw9Lmt6tOn5Z0pjRgN0aJDtmgnwiiPyTsU3l4Xk7hGfoSJCo/yPB/Vd6pWPRMMWoTtyB0Wkmn/yxRhOMHgdR0VUfHFg/+wgfarvtql4SopHjiZcuGg+dwWCyzqc/O4j8FJB/UnbQxPW1JGVBbyVQf9r9IAhaeqxKIhu+i8Jaq3eF49fTKrVis/tejk8pgk65M+goMWeiIpeoLekw3QAUzlP8vZf3TImVbuNS6Tul1D53SMaRhich6gubeLdm5NeoUXXz+bYCROTk6NIdYDf6qwr63Ubtc1ZP6pjQ2xa0A4U2cmXIUY0Wm8trr0vOj0y2ieTuMxRAt5Oh8iWQSoSWLJ+/N0uhA7LBf36Qixw4DDgMOAw8CKYmANiD1N3iHGJy3UtjcE+fLvV1A/HGoEPjk0RywAtIRNDpfRFwbkOeSQDPM6E+ESkSz1PiKhmw+zybNi0SESZH1sxjXhpwieSJJW4tNj1emp5qmZ4QkR7sQjnyEW/5+993dtY/nihve/2FLg4jGkiOHhjeDbRNwighRfQSCCFEHcIujCcxEpLiKFESmMSBFxi4vwCwEZLsjwBuQXLjI8BOQiyMUFpQgokEIPpNgisIUL/QOfhzMzZzW7Oyvv2o4tO6cIUuT9MXPOZ8585sw5Z75P0XtCfS6huju2+puWiUfveNHDOFaBh3ck4gRdeU7ZgxxbMFkhSYsxei/MKbJ8qq3tUWaPfOp+1ztrGPx/hjjHrtftisXN0wmie3yIEp2m21V9osOatp92Mfpkhw5d4BTU5RLz9y1USTdKL0O98KAyn/fq6BxwrfcEpky7qa0u7KhkTpdMLI8+vZeqJfn3uPa9qcHukImNy1jyuDm5VRFlqtpEpxq/HWFuLdhSOFLGJ8CETnI1mKT7WgezBKYMUTbGSu9uJHefLibz5YJOeW6gYk5j1mM449RZen8wix2mdVXXu3SX3kmIy8EtT7lG5CIYEAwIBgQDm4eBW0LsN09wVwLmcKpqj3N88ZU8c0NXkNK324ZhvbDZyaieJPq8bfqU9gpmBQOCAcHAz4ABIfY3TIQppKN8v4MJ5w7ccHt+BtBLH3MYdwpZcoW9CD5l+1kwIBgQDAgGBAMbiwEh9hsAzvlBHRXxjG7sIPn5FgIUk19H/3M6Effnk0WORdAG2BDRi+hJMCAYEAwIBggDQuw3ZFKeHzTQMLW5ZXDK4Lw5DASY7GVX6Lm5dgkmRPaCAcGAYEAwIBg4DwPXSOzdyYh2kmDy+8+W1EZlBLvvuPKNgPc88Mrfrxgj4QzDP4exE5JFxlcs4w1xJIheRa+CAcGAYOBuYuAaif3dFKAMDNGrYEAwIBgQDAgGBAOCAcHAJmBAiL140CS2XTAgGBAMCAYEA4IBwYBg4A5gQIj9HVDiJqwQpQ3iqRAMCAYEA4IBwYBgQDBwsxgQYi/EXlboggHBgGBAMCAYEAwIBgQDdwADQuzvgBJldXyzq2ORv8hfMCAYEAwIBgQDgoFNwIAQeyH2skIXDAgGBAOCAcGAYEAwIBi4AxjYLGIfLjA56KB+r47B13wrv+DTCL0XVZSeDLBIKGRx2EDJK6FxuBCwJmSzCatKaUM+jIucRE6CAcGAYEAwIBgQDOTBQD5if9JBssa8/f/SgwpqL3oYfQ4uTKDDf4fovWqg7HnwvFoOYh9gst9F+3lZt02I/YVlnwcoco0YFMGAYEAwIBgQDAgGBAObjYF8xN54e4N/2thRxNtD+x9z3PxZiPlxB1WfCLmP+l8zhBf2DvMhVnmIvRHslwFq1CYHsRfwbTb4RD+iH8GAYEAwIBgQDAgGBANXh4FCxH65nKBjiH3nJN6I8J8WfPW3HXRODOm/AMGfvMrrsTfv/yrEXgZEHIsiD5GHYEAwIBgQDAgGBAM/IwaujNgr0q+89h68l+MLe+0nu0Lsf0YgSp/FAAsGBAOCAcGAYEAwIBi4HAaukNhzGM3lwmKE2F9OoTIgRH6CAcGAYEAwIBgQDAgGfk4MXCGxn6J7n7zt2mP/5aAWS7hdhe6swnnUtbuTWNKnTezDTwO0Hm+rEB//Xh3dY0d1m6xQnDDA7KiH5qMSageO+4IZhrsNlLd0m/17FTT2xlicxYEQfuyi4vuovJ5ceBdCBldcpiIPkYdgQDAgGBAMCAYEA4KBq8fAlRH78KRjEmt9NN+b6jhnM/QeaeK8Iva6E/N9Q/wziH3voIPq4ybae120nmpyr5JzD+axhcDSRey/TTA8HKD9QL87Rey/DNHYokTfKQJF5ENwe/xnw1jZzAUvUPwOphfIGRDQXj1oRaYiU8GAYEAwIBgQDAgGBANpDFyY2LePVgmywWkfdRNfX3o+xNwiwNoD7yFJ7JdcQtNJ7NPVdagij7MUpovYm/fP3+nFQ5zYT9F94MFP5gF8JbLvwX/Yw8xq//L7DMO3PQw/rforQEoDSWQiMhEMCAYEA4IBwYBgQDBwsxi4MLGn2vWVByUTbuNj+2EDncMZApsUL5e4GLF3lbsMMfrN4YFfQ+zZ224T+/C4rUJ72h9uVvACfJG/YEAwIBgQDAgGBAOCAcHAVWLgwsQ+5YFPEHpu5NUR+yUWf9f1QsL28hck9tM3OzkPwBKgsQ7lU7AgGBAMCAYEA4IBwYBgYPMxcKuIvTN8pyCx1wsNH52Pm68cGUCiI8GAYEAwIBgQDAgGBAOCgbwYuFXEng7Boko6tXdWAm1BYj997etnuCrlZOw65BWmXCcDTzAgGBAMCAYEA4IBwYBg4KYwcKuI/fyvCjyviv5nCzAFiT0vDrwHXXeVm9M++qfW84Xsx6sQiTxEHoIBwYBgQDAgGBAMCAY2EgM/nNhrMu6hcWhKYCogBJi+qep4+VfZdexjq53vE7TveyjvJurJFyT2y3CCjqm3X/5tiLlVtz78PETzeT9W1Ueq4sgiJ4ZDMWQbachERzJOBQOCAcGAYEAwsEQhYk8lJ3foACrPQ/XNNFUBxynQ064uU+lX0T4YYXzYQ/N5F5Ojjib2fhWtvR5Gxgs/3dOVdvzHHYy/mBKT36boP/ORLKVJ7wuOWqrKjXe/jXFggzrA6KUOu9l5NY61lWru69KZHjx/G5VfTIUfv47BF/sZS+hkW7pO6tg79StEV4iuYEAwIBgQDAgGBAOCgY3AQD5izzXnDalXJ8aa73YpySziN3/fQpVOePW3UX1pvOQnHdBpsp2DCRZhnEwvTgboPK9gW9XG97H9uIme49RZrriTag978WPt7WBig+7LCJ3nZZToGtWuPqbf4u2g/sjJs2mZZOlZfhdZCQYEA4IBwYBgQDAgGLg5DOQj9jYhlu8bsSKTQXNzg0ZkL7IXDAgGBAOCAcGAYGATMSDEXhYqslARDAgGBAOCAcGAYEAwIBi4AxgQYn8HlLiJK0Zpk3gyBAOCAcGAYEAwIBgQDFwvBoTYC7GXFbpgQDAgGBAMCAYEA4IBwcAdwIAQ+zugRFkNX+9qWOQt8hYMCAYEA4IBwYBgYBMxIMReiL2s0AUDggHBgGBAMCAYEAwIBu4ABoTY3wElbuKKUdokngzBgGBAMCAYEAwIBgQD14sBIfZC7GWFLhgQDAgGBAOCAcGAYEAwcAcwIMT+DihRVsPXuxoWeYu8BQOCAcGAYEAwIBjYRAwIsRdiLyt0wYBgQDAgGBAMCAYEA4KBO4ABIfZ3QImbuGKUNoknQzAgGBAMCAYEA4IBwcD1YkCIvRB7WaELBgQDggHBgGBAMCAYEAzcAQwIsd8wJQafRui9qKK0O8k3wMIFJgcd1O/56Jxc76rw6lbhIRYnA3SebqN+sMjX7w3T29XJ4rbq8KrbHWD2dxe9D8GdwkP4dYL+yypKTwZY/CQYJpvWfboNP69Nuw1y+TpEY8tD6fnw6vUYTNB/M8Ts+1WPKXme2GnBwM+AASH2GzOJLDB+20XrsQ/P8+DlmQQ/j9Dba6Hqe+qeW0nsv88wfNtG44HuQ+3Gif0Cgye6LUoPpAv+9xORsRs1ft9n6L9sYfTlLk1CAcZv2qvxfaNYuiaMhzMMdldjO5dN2xh7fA72fiSxJxnQGPi1gf6n8E4tbG/UrtwWbEk7BfOXxIAQ+0sK8MoN1UknP7E3bZ+8usXE3vRhcVBT/b55Ym8m9G9jdMxiw7vfxvjbORP9puHo1rZnjsGzGvqf76i8P/dRoYXitRL7EON9h2f5mjAe/tMqbNOu3K5u9HiYo7/v2KH9PkHnYR2DO7XAvaPjeqPxJTL/uezJEptL7L/NMNqro/uxACgpLGW/hdbhLQ7n+DJALa/H3hiTye7Fif3isIXW/gSLsICcl1N0n3Yx+nSFYRIf2ptF7JdLsFzvlKdxoyegEJPdMnb2pnfXY/PVjO/rJPbfx2g9c4f+XAvGL+Cs+Kkm4s99VDN2aMMPbew86GAiYTl31yZstE0uwgvk2k2xWxtH7MOvYxVjvn2vju7RDMFZDrB8m2K4W8f2veoFSGqO51/nwOOJP8PQu4DDk/OFQnGCuVpAbW9to743wiynZ3px0kfrUQmlRy30TxYILysjM/lvjMdeiP21T6ThSQc7XvXueutpjPD4vjZiH2L6upy5Q8C244cuXoXYrxlLCwyf+WtCL+fo/+Kh/Hp6eRt7WRst96/R44bxCNHVT62rjSH2KnnySQmlJx0MTvJ53AOKMf+1gtLDBnpHcwR3Acw88V8XsWeZnekk3NpWCdUXPYy/5ovtjHRwr47O4TTfQozfaX8Ksf+pDdFyOUf/kQfvlz7mNi7u2nce39dE7IN/2iivCf0RYn+ThCzE7K86/HN2aOd/VeB5DQxzOl1czh/57Sb1LO8W/F0vBm6W2J8FmB11Ub+3XYBMUgUV8hZvY/tpB8PT7HCQeIWZELODFqpbFLZSQvl5FxOHoQw/DdF5XkaJjK3nofSghub+dLVoYO+T+Xsq0ZUnbvP3lRc9wORtE9V7JjnW30bleSedIMj3K2IfYLLXQNm0ufpygFmQBghPzqt3WdcEMwxe1swzPJQeNc+pNBJgftRD46FfaJG1XEww2K2h5FfQeDvC3NHOtYPbJvbfqc1VbFNSsE87CWMseOeG5cPytxZALAed7NrBhEjhhfW1JhRHVSLqovmoZCoRWXqi9r5Ne9fCTwO0Hm/rSXyrjNqLNtrPuqqNnF/ASborPU7Q4X7Sp9XXZbjA9LC3asOXEVoPfXhbVXQ/8qIsH+ZonPRf1rFtwjXsttKOjDuJNcDssIPGg5KOn1Z47mK8sLDHpDwPBk+72PE8+K+vIgwnWWWJ9FOP8KTGUSy0IcTidGhVo5pj9HsFvldC9Y2lyzNKcLfG8FYZjd2hc0wqrCeuLz1ooPuuq0PtDLG/kO5Zrguzu2mS58lWtQ5mxlaFmP5Zi+wYY4s+V/i6WoyrPgczDHfZZvnYftzC4M9mdoz9Yozu84rWjedrmx4ljLqSfGsYfLV2PlJ2lvC3wPB5Cd5WA8Nz4tPjNsM8m+SbsDPxncQQ0dwSW6Bp3HWtqmbBh64ZI9S3HqYR7hYGY3qeWenHagPr2YQpVv6a/+SLf4dtYRnJp2BDMBBh4GaIfcgTZIHwj7MA00Mq67iN6ss+Jms9yguMD/roPS9HE8r0TRXVF21091qoKaJMpLGJkU3uT7vKu1X700yOZwuMXu6oZ1T3V0Y1OO5oL5jnofnesbD4PkLTK6MTleoLMHrhw7vfwsgQn+Dfnp7g/TbGdnw7TyivBhj+WkH9ZRfdV02zIPHgOeIteXKyJ2w1yX4ZoE5E78S08dsEXVV1p4TmkaPdiYERnA7ReVKCr8Kicu6IKN02UPFLWk8uopd4j2orE/s/B+g8rqL5qosukU1DWvxng5gnd/ZnNdKtup+f+aWv5eoZYr9cori+9ATCco0R6m8TDA/6aJrE2s7RFL0XTXQPRhgf8e8+2sdMrpdYfhuh6ZfROTYyDxcY/UHYXLVxeTZDjzzWCeJFfZvv68TiqB1fxxjE2jBB90Urqriy84bIcT7MzY6GGLyu6gXHkwEm71tovuxjeDzGkH9/lPSizxVx8p/1MTXjJ/xs5O7XMSTiFekjHwa1V9JDnEBZz+Hnnff5fYbRuz7aprpU7WCK0W9lM44Il4ZIPehiqp61wPjdAP3f2FaMMNlrovW7kcl9c923MdoPfFRfj00+SojFcUdXpHIRSJX46MN/vHIgBKd91Pn9NiEsonvTfwpbqvhltI9MGNxZgPErbaviYRtmcWi/z5LhlWGcnvlFl4As/zbEXNm0EIsjs2OQXJgul6A+lB80Mfysx0r4eajHlV9B75R1H5cx060AACAASURBVH9G65/VuAr+bsCz7o8wt1wtiOt/59j9DUZoKb0kSfVKpitcBpgcDjFQ49dOgqbf4ziavm2iuTfA6HgU4cv/YxwPqWF7by/aLf2oPvE1d303K9lv+f/KjoosRBYFMHC9xD6cY0Re3a0aOgeTlRd2bYPJ69hAZesCnmCuQPGwgf7pakJY0qRriJltaPUklzDuxpPovYpXLZj/pYmlTfijiYXueT5cefnZMMeMNxEvIhm1eNUDvvZBohILlT+jWEzPw87uJDY58OQcJ/ZTdB94aBwmCDzLJLmgWKMDznsobVEOg7V7seaeZbQQK2H7aff80B5D7Iksxuo3K0KlydhqcrU88TGZEhngSd0izUSOi+jL9IvlGhFqq7/TN5pEVV6NV3omsuKoALL4uw7vPz3MrPt16Em8jfy+uB6z+8pkeOfF0Cx6AsxPpnpcMY5i8snAXEALUU95OOPl9XR8r8KoRdanb8rw/BbGkfeR5G68pETK/mVSlheDFGfsXtREYyomO35+9ifrYedJYleMFruGXMfGLo+L+83Iyxt8nmCqFqYmDjq1wNH6VqEU0UKB2hRiQiQ7JaMlgsOGXpAmiHYh3auFoodqwoMbfuyqhUvp95GFyQsQeyPrIhgnPKsysQ4ZTff0WImNI9WHHXQjAq91yXrzEs+ZH5iQlQcdTGnRcE7FmOBDH939iSWHbKwQdnWJ24TtXy7BOyox20Py4SIHCT0ueb54mLDf4RgttbsQH/PRzkBsnCbbOkFb3dvEqOhOaMFxc9HxJvcldSb/F0zcHAaumdgvMKYt8UKJmgGm+xRCYzzAaz31CUE6yY2+Jjxuay+lvzK083c1+FutuPHkZyQNeDhGmwhCiiCHGP9RintswwnaWz4qf85iq07nZM7vcxn6Tz1dKs9qMw0e53NOOvC9OoYpjzkTXx+dvBWHKME2WlzlnSyX+tApkzcxMl65zMHOHntHHfvwyGzl2zrgEJuUnLh/K72qdxbRl5kMWa4xQmL+xhN+ioSz/qyFYPCe2r+D1vu493BxMNDhQon3pZ6Z0VduQ/tDAvf0vCKY48WQLd9Ym6zFJ8vR6t86nebD4BQdQ7ZTfTftyHxH1t/X4Gm+b3Z77P469Ba905A1dyjEFN37tCixdmmoygmFFaWwmU0IGWup/jt0r9tv6SRLBur3ixN7xleqTQ5ZsT1NEWBqgwklsceRerbfMbsmFn752SnbFWL8Ujs2yrsD9J9V0DmxnDVrZWA933ndBYg9t9PGED2bf0/pnt/Rjo357OvtNrNNSy+EIow6+2U/Q76LrAQDPwsGrpfYs/ExZSkLkfUoHl97gHOVWsw0skR82IOS9tIo5Vsnuqr4x6QBVyESxmtve86+DdHg7Xvub+Izis9UXph4zOt6Q88EKN5mFyngSXkVu6k9ovb/nZOw1VY+JZMqFOVOjI30VCRvYuWVdrZpMUQ96e1yEB49aHkSTBD7C+iL5WoTEjYMLN9M0mPjJZyiS/HvlLOxJjmc35d6ZkZfM9tg6ZDbuxZz5xJ7C6OG5Dr1lHgvt8/GXPK7fg7rzHpP4lncj9yfa4j9kr3zdijUGlvBOyNZfWa9cX7A2uv5PTY+shbnJIOU7nnXJY1vt2x+ILGP+kCke82OS6oPK2dEEg/2/1PjwNppLb+NO0ncfc9LZJh0x+0qPZMxnNJ9hh6z7XfGO/g5qYWA3fYfMD4uO77k/piT7nL4s3Ut30WWl8fAzRD7yChwoiaR9fWJsLayowo6lAh6vKbU4lqjyZ62hDFXiX5VKDJL4UKf19SdZu+lteVOYQqxLf6or0ssjleJwrQwGbvqz69ts3tyYGJhT4T6t1Y8ft9qiy3P5HcVW/90G9tFSlleJG/Cbs86IsbE0yZiDrKg+8GToIP4FNQXy/XSxF71U+88cYy3/7CFwb/xMCl+n61H1aeMvjLpSF1vyTUX5li+EVFbGZZUm0xbmMQmsWP/Pz8GWWfXROw59MjG05pxxzJIkTsjZ9YD42Tt9fyehKz5npQuU7pnG+DajVvpbaWH6yD23KYM/WX14QIx43r3y5EfZWF+1XeXPFy/cfsTc4EQeyGvl8KVC2vyW/HxKTIrKrMbJvYrhUWJmlS6ch1Ztwaaiv3+tQKfYvZdpRZ5EnV6Q5jYr8ivTkjzUf+LK0tYW6uJiZgFzdv6ZUpYVMTRVZZMJxt6D9pR8izd75zM17aZY57j27mu51BYEYV/JGNYud3pz9Uiq/JrD6PPcdKZvt7ojqvhFMqbWOk9eq6Z/J3kiXdX/msl0KbIAj+TSaKD2Fte+/X60s9iuTJhi9pqTfgpIsb6y8DLksqK7rdMEmc5Fk7A70s9M6OvTChT16sxUgBzRYj9RwrxspMGWe7pz/wY5LGYQQytMW/rYO33dXhiYm8TS9abw1ZMX5tKVhnhR6yH2judYM965P/H2snvSeCD70npMqV7zkfwY9VtYu+Iyet6ib0zLCzVhyX0adkuW5nGUdS3LwM0ng8wfqfj7ZMJ9dF1sf6veV503W0h9gXCJ6O+5em/XHNx7IjsRHabh4GNIfYMjlWiZoEEWz6gKplgy5Poy0QlAjJ6TBajJNeJjvO1J3u6jp+RmIi5vZrMaw9S/20DdjIuX8MTv13Rgf7mnMz5fQ6CwW1OvsP1HI55zZz8vgzQPyY5aKJZvbeN+u4wqnLCbc/6pNCOrvLqn7NrkneCWUfETOhEbCfEQRZ0W9cT+zz64j6zXC9L7BcH/fTOyaeeisP2XqwSHfl955M7bUgYV6nrrYVHLswVIfY8brxyxqJxiv6+LlmZG4Oqgo8O5XASw7wYsq8z+HDGxRs8xU64XTPuuB9eRoidTjJdHazFevEi22IZfn5Pwp4U0T2H+vgWdhiz9Bm871t5QtdB7MmWmcR+16nBjrEaOUQShQC4H+GHPoafLblRGM4TPoHVVHzyPKgFuq33C32/LcQ+7y6NJbcLyUPuZxzKp2DhNmJg44h9JMRvM3UiajdvgicZMENSW4cmSZEn0SRZV5NfE763s/KY8rXJyftfk7BqJuLwezphiyepLA85T9rxCjUBRr/ZcakhQqr2wO1wEHvlAfXr8So6WQuEpa5IQjGrpSddjL9wu0MEpwM0qWpDuMTisHWB03qn6D7tIleeQ96JJZPYmwojyTKfHCedIE/BaVcTZi++qxHhyvLaZ+mLr2W9uYi99kY7PMysP4u4EdFLVjBZLmfo/ceDTeyZsCVxQqVaVexxwmPMBDJJ3qn93Pbks5yYW5qqG1abkzJYLR5CTHZNlRMqNWjXCQ/nGP7WsE6OzYdBehf33bljkxdD9nVMJh2LelXVh6pRWZV+onHnuD46PMvzkS6fqA/WipFsU7WG8NX+wOPOTJAZ1VS4/0l9OXXPGPN8VWffPpgvOOmi9sp2ZBhiH9nAEIuvq904xsllMU7VYNRBWMkqX6QTR/KsLgFL9s9H5fcBpt+MnM5CzKmM6H/tEqtzDJ434nYvireP73oxbotVxeEcgcQO5xnhWZdBTe2+sA6SY4b1m7LfGYsHfk6EuwCLZIEIzjGKdChki/Usn4IFwUAaA5tL7O1J+qLf2WjSBBjVn16C60mXY96iGXqmBGb5eQ/D4yH6L5tovW7pSjT3WxgcdtHhRYPdJo7dTpRoY8AFR7SIIK9+Fe2DEUYHXTRfdNH5VRP72psh+rs9XcZtMURDVQgpo3kwRWDXg/YdlSCsGtg1q9Y+vTskkmuqjdhJaR7V2L+yihJpUHG/C31+7OrDdPwqOsdzhHQgFZXMpJMZXXXCo4WLj+ofVCuaDhhqoHsyMoc6+aj+3kXv/er8gag95+hLXfdtHJVEpbMDxvZ5B2cLDJ5r3VUSh1EFRy2t6/ttjE1pOk3AS2hQqVClz6Wp753QA5Mjg5MxHUBFB6kddTSx96to7VGYFMlmgSGdjUDVV14MU6Vji2COQtDocCjPa8ZPt8zCVkSqNDHbflhB5Rc61M1H/SAu79wYNJVkkmVlI53Z4y3Pdyb2nhlH6oAzromebufibx6jTUclKV3NRpXJ9CtW7fgFxlTrP7nopIXK3w1zOFQZzf0J5kGAxekA7edVI+syGq96GHw0JLuI7un5XP6R9LZVRuWXCip0+F2qLRzmRO0YYfi2hR4fYHaFGFclPl/ToV7aznWOZlgEAebHXTQfmzMCCL9vuhq/1If3zeg8kJh9sp0XdJYI1Yx/YZUPNvqfveXn1tG381U41MrzHAsxt72i2H1dtrSB3uEYo4MOGi+GmKiQRjo/pIH2m350qKFrnBNWFwemnOkvxp4zVqNa+Tto83kW9DduK9m9wxEGu534ORB0jQl/0+dTuNt/4XHC7ZNPyScQDNwZDPwcxP7V0DrBlU6TbaB7HC89qAwjnd75iE7SNCcmqhMQ+RTDKloukmgGA8WMxr1ttgEOMX1rDlui0yr3dMlIXXc6eSIhGXsqL9lEjU/1zDrhMlq4aJKpJ8dEbHnsdEo6cbeDYXSyo93GDfiu4vUbmqAQYb1XRfOtdeps0vAk9KW9xxRSRWFFg7WHmGXriz1rtkzNd/LOOWVO3l/3feTppsm+TMSL9cn4ssmI6dv8vTkd2aeD2IaYEyGl0qVUmYiSue1dHUXGV+1cedVJl/kwF3ls7WeRtzEixqvne7Z38ozOpIifMNpnkprUUy4MBhjSYumqvJK8A/TnaHWKsVPubr25PNjL2Kmq5+Mz+Hd12jBhWZ0KSx5ddR6E0aUlq1y6t64PPvbRtE4zbuyNMI+dLaDHdHja04fybVXR+YcWEhl9JgxcEONMLClZm08jjuyswW/3aIaAT5A2/Qj+tU76Jsy/6EXkOdVOywvOu1X2gmC128M2+/yTZ7ndqfHyVp/XQe9Rp3VHbXfLrnPi/p3a5GqrjS/SOyXV+/caiJ8jofWnd3NWoV6rNm+AzbbwKO0SfQgGNgMDPwextyaEHwI88gBvJU6QFYO3uatf0ddG6ib8SCc6XxGBYWLvOBfhh9gAGe8bianbr2u9YEgeSnj7+7UZBEjkKHq4ixgQYn8FEzKdJhlLxLuCZ95FsG1Kn0Rfm2rMKX6/nDpZ+UK4EWIvRPsu2GEK0UqFV23q+JV2XchW3QWcSh82yt7ebWLPiUyJpMNLD75gjsnxVG97fxuhdT+RiCcg3yiQU2iT6Ou2TLpzDK7iVFGTsJlKepSxuVljU/SxRh80Furon3dqt8hwjQxvi92Tdl6al8k4iMbBnSb2USKTlch4efBwHWmOPU4n4l3+HTLIr06Goq+rk+U14fJsjsGviSoohYx2gMleRSccP+nrPIVC919TP6VN0UR06zD6w3VHGG45Y+5FVjI+BQOCgXUYuKPEnmuZM/nWn6vkqsuBYnHEyU51dD+sSsetE7T87XIyv4z8RF83J/uL6y3E7O8uBv///4uandh77vf/if/puCaeWHwb5SFtvjiWbpnswhmGfw4xM1W1fpp+//DF0i3DgchDFv4XxMAdJfYygGUyEAwIBgQDggHBgGBAMCAY+LkwIMT+gisiGSg/10ARfYu+BQOCAcGAYEAwIBjYdAwIsRdiL9tdggHBgGBAMCAYEAwIBgQDdwADQuzvgBI3ffUo7RMPh2BAMCAYEAwIBgQDgoEfjwEh9kLsZYUuGBAMCAYEA4IBwYBgQDBwBzAgxP4OKFFWwD9+BSwyFhkLBgQDggHBgGBAMLDpGBBiL8ReVuiCAcGAYEAwIBgQDAgGBAN3AANC7O+AEjd99Xir2ne2wHivgfIWnX3gY/tpB8NP4Q8ydoGq1d5znoUQYHbQQvWerw5aKj1qwn3dz+s9Cb9O0H9ZRenJAIsc4zj4NEL36Tb83ckP0ufPq4tLjfFwgcl+C9WtfCd4F9X7pdqWA1eb+HyS0WC3jm2/g8kt7cONjddwiu5DH/7DLqbhXR/Tcwx3e5h8u+v9/Ln6J8T+lhq9659Mkie4xg//8hyHAnleBf3Pt2hAfZ+g86CMjiHa83d1+NQvv4nRVRu+7zP0X7Yw+uKSDx0lX0L93VwR0OBDB2Ul3zK6p67rf7bfAozftNF6rBc93nnEPpxhsNtG44HBrBD7jVnYBP900f69qseZdx6xL6j3n9S2z9/30I1kepPE3n1QpJor1o3Bmx6v10XsgxkGL2vGieSh9KCG1sEMwTrchmO0/fTc6/8xRrjuvuUSi5MBui9qqBhn0erQvgDjV3W0/5HDNq+fV/2YuVuI/TmD4WYUHWK8P8zlhby+9i0weOKj/tcUwdkKjIuDmvIoJ8lVcDpA84GHlfFY3XN9bS72zumbMrxf+phHmAgxeV2Bv3XVxJ6Iey1z0RO8b8L3Whhb3qL53w2U/Ap6QuxXpPRzHxVa8JxH7I0+w39aGqvrSEWk+2LYuXlMb6LNyCvDOfq/EFk5j9ib5xXU+83rJq8cVv3rnxS8J4nbcIyWcgbcJLHXfQg/D1BnMvqkj7ll19bp5m6M14xx+cXIxN9G5ZdKRLZp0eM/G1hzUBwH8/2qtmFKt0zwq5lziZLvtwm6T0rwvBJquwOMPy0QWnO41gHNSRV0Tn7U7nS8H+v0Ln+7vKw2l9h/m2G0V0f3Y4FOmi3d1uFiNfknDd5t+P/3MVrP7PCCKbpPuxh9KraiXhy20NqfYJHTkK4fUAsM9oYpb0IWsadnkWG+PcR+iu79/CRxvazWYTbEZLeMnb1pBkYDjF6Qwb75CfnifVzX/yv829cBagWI/fKkc3eJfcpmXKGcf7jNJKdBAWJfVO8/vP1XK+v5X9UrsJvsLd8EO8L69VA7KDA334Xx6hyXZOMraB8tYl72xVHb7Mx6qO7r3dqYDaZnPehiWgDP4ae+XlQ9aGLo3B22sPtlgJpfx+C86wq8P9Z+uS9jzrd0cEUy2jhiH34do/eiiu17dXSPZjHvcCZIvk0xpHjCe9UrJLJXL+zM9seUGWL6upzyQi5O+mg9KqH0qIX+SdwgZD43mKvF0fbWNup7I8wuFU4yx/AwbWzWEfvlYojhZT1PMdn8QJ0shqgXIYkXbFd40sGOt87DMkVHebc2YUL+gfK+oPxiWC9K8O4CUXDKzW0zYrJy3rcp+mXil9NjX1TvG933hA6+DhURu7xDRIj9zeM/Y1wGI3RNmGWyjbSoU6FKz9I79vO/ami+L+Dc412BBx1MggTOnGMixPgl7Rik351sp/w/jzxv7pqNIfYU/9V5UkLpSQeDk3yr+uDzCL1fKyg9bKB3NE95k28j+IJ/zKo9I7wg6vO9OjqH8bCYzP6eLTA56KC2VUL1RQ/jr1e33baW2DuNx82BPVM+1M5rIQtz9B95iXCfpDw2aUJOtm3D/l9UZ3eU2J9nM9bifiPGqBB7pSPKu3mm80aE2C9x23fYLjQuyWvucjCRt54cPhS681xzpPUx9VN0VU5RsbwsHf60I7lcG2EXLz7f3iyxPwswO+qifm+7AOEMob3X27piyen5K9jFcReNh9smEXIb9d0hZt+N0Hiyt2PWbFLN5MH8PWZwk8kvjsollNnff1nHtgmtCT8N0Hqs20Le91XyZIjpnzWU7Ha43smAW1DVg5qKu268HWGea0UeYH7UQ+OhX2gBtY4Y5CH2waexrtCgZBBi+pb66WP715VnIPw0ROd5Oeo/JRI196fxxRqFWh100XxUMlvVASZcwcbfRv3tNLa1qdpN8YX8XGUUW+i+aGHw1eg/oV87CTi2bZxD18tvM4wPOqjfq6vnh6c91LY8+PcaGNL7TrvYoRjK164wHCb0HDdpfZqY8DxypD4vjntoGoxRXGX5eQfDf5PjJARhk3bHuKpM8O9A7QqRDGLYVH2vYttMLC45hx+7qPg+Kq8naR0wZhOfwQe7nT62HzbQOUrvCik9UrWit81VlaAHDXTfdd2TIL0nmGG4a1U3etzC4M9mOhTnPJ2ZNq+1IVG/LDwSvh820NprohULPwjj1Y4I56/aqL+5SKWe/DYjHyZogTtEY8tD6fkwM843ZQ++27L24G2VUXvRxzTDJsXaslVGY2+A7n8zQnHy6j1cYHrYW9mGLyO0HvrwtqrofrQcGXnG8TKfjmxbrvvcRvtZ92JVaL6a9ibtvz0XLZcI/rXtpI/tx030jl2OMLYn9s4f/5a2LVqnuhJX7QHFY5Meq2i+nVzeBi954bYmFCfveF2GmO5V4Ps54sGTtt3KrZnsWjJIhD2GXzIqClF48H4rsu/L75T8auziVhWt92y78o/L1FgybU5W7oo8+RY+/IctDDIqtvG87L88P6k21gZeWBS9L7KBFyejsXbI8y4VtnMzxD7kSbpAiMhZgOkhkaZtVF/2McnlddbxzOXfhiZhJ8T8sKni2PyHvShWLfw6QttUzKj8OUsL9Iwy0ROxZ7TNRZPGiSFMRCBVlY4Smkf6t9nREIPXpuLDkwEm71tovuxjeDzGkH9/ZCdr0qAwxjdh0DNBr2TZQMUvabks8g2s4HSodkh8FfJ08d0ONiDuBMYQ08OEDP4mGTRMLGETI5r8T7vq/7U/TUWAswVGL3fU5BLFGn6bYHjQVwm5NOl0jqbovWiiezDC+Ih/99E+tibxJXktfFVdRnk3CEN/UaUbx5Y/TwIuuefQdXg6xPCgg6oKo6lh8GGI1otWVImFtlDnf1VUn2ILhpQB48nXnpBzynEZYPxHGf7jTrQrQ6FtHYPLxt888QSYkF7+KOsJnLG5O8DoeIT+7xW9CKZ4zsUY7acNJeeR2vWhCTEp5yUiHPidaFxlYpYIikoQ3kHrvSElwQw9FWedfvaSqhVR+bnH3agsW3BqYkdpokvq7Ismp/a4t+NXPTPB59HZcpnPhlBfKflaJb6ZnBZuo61v1e8HHYxNWFxkeyzSsU5u7r+tsxl5MWHsRuToqGOYy5YYz+CTHmaGyC/et9QC1kvZNpOM7tt2cxp5qVPJs3n1/nWMQcw2TNTinasm7bwxC+kc45jkm0tH30Zo+mV0jo39DxcYqfFkj9t8ttjWKY+jmANJ2YgQ8/06/AdNDNiZ9W2KwW80hl0Lapcd0V7wbb+C1sEUQSz3Slfiqr6Z6PDXswCTN3ruKv020uT+QjaYZHAOsc85XrWcVs9yO0jSMp/9acJbkmPsS187BixiT3P28K2phmb9vvw0Stj3kbLv/cMxxods95MhluvGZbqdqn8nHfhehsc8DBB8mWJIDg5Vjpk8+K4FjskX83y03s9iDhGa7zOdJwpnjJt48QYbo/I9Q3epufzmrrteYh/OMSIv81YNnYMJFqnMbJcgAkzeNlDZqiC/Z1o/Rxno+8lkEx1HRuQwIo0m0ZNKGzrLRp12UY0lO+rJrHGY8IJytQa/vapoEozQVN6PBvqx1XVWJYgLGAMCVLTwKWH7aTciducNQs5pKJHHIekhzwFUnohS5Mq+lys03K+i+8EQ78UUk89aftp7kiDbxrvtvYp7MqdvNOGvvBrHPEnOCgofyUg2MeLdGdUm0r/2qMdkk0nsC+h6ydjaQXXPeK7PFpie0MJpVS40PWnbuGfD6iAI58hx8TdNSMnJZYklb+N6iW1Z9s48aGMUI3E8efqovknsmqiJx0NSL+S9Gr7t5az5z8+P95HGK43LWiz+NMTk1Q48v4VxTI9LBIeNaGGyqmM/14mYKVK5xHRPY4eJvdb/Op0ZkpfLhujciOaRvbDUCeT1yGOvMVBOOg8+91FNkg57/Jz7PdtmFMbEMsBkv4u+82wFG6fmu1kI2IuXJS2oKRHda8e81+GHNnaIbPwTl9Hy2xAN5Ym0bUBRvS+jhfPOC95tCDA/mZp5Ju84zqcjkqv3nx5mMd1QqF0c0zEbE7vWIUvabTNVxpI2IvxIJW8dslua8D7PT8RfO+zIlyFaT9vRotJum6oI9jxZHIHnqPhiu5ANVn3m8e7y2Bcdr0vQ7m7vrbXrfp5cebGaGmMOGalnTdBWeEzqkgsblNDYn8V2Jt1Om+xxacve/k42yn9hFlLr+nU2x1At6jx49zuY2Is05iHeNupvVrl1kRPB81E/YCdPEodzDNTuWcbiYl2b5G9pp/ANyeSaiT0d/lNHsWTOAFN1eInxSOfy1BNYtTFxrerZeHqxJBGejBoYxpJMQ4z/SJQmVOTG5dFiQ+GjE1XzyR7cEaGNZaFnX28bANd3O09h9DkxeWYBjBJso4VTYts16x7r90iWSa+pdU20C/Ffdxmv+bsa/K2W9t7zfRlEm9+XnPiiGHl7IWAWB9FOAD/7ZKBDY/j/9JnxPorz9L28ul7CrVPCIyfFnlcClDGUnFToGeZvTjka/MbKda6MNpPa2MI1q89L7oejrWvucWHS/RuRthJo1yxGjFwTMJFeWnCnJuUllrwwsbAXHrfVbkOcaBo5fGjrhUDiWdk6K2JDjPwtz7Xu+wSDvzlUwhCD+630QuogvoB1y22lz/jfs2zGBTBhj4k83z9TJY0SWmaXUreLiZxN1A0BdR6YxGTCur6g3um9bBvaHxxyyj2O8+lIL0KtHScjq8XBILaYievJ0a6EjLkPcfsWYPicFkpuL2q0wI0tZuN2hOK9678PMXc60yYqYb8e4XTVTj024uGD7jZaNtS2wap/jIc0sb/IeC0q0+xY/biMVs/N+p3tooVT1h8vcGNOiaxxuZLv6p1GfoXOTKFdFp2TYSfVRk4u11xgxpXncgAldGU/M9ZO7rN8bgyRT+rneok9AyE6abAAWY/i8bVH+vzSjzw47Vi65Pc4eeIasdW/rNXs1wHqiXgzNmwqDlGt7JPPtQ1Y9uBmoxk34tnXJ5Wn/h/JpUiewhJ8eiNVH8qdhMv6sz4jWVjkKt3OAn1ScfQUcuU+fIjfF5eZNanE2rHA8LmOF/XPS7DOIKz8vny6XmP4mZRTGNHaSkGM2zg2tUzXyJG9NLH+WxMIk2Y7VCajz/QuNzaz5Gy9x8JGGgcZ11Hsqr29bBFvtyfMPCfV6BMizAAAIABJREFUfva+Z8iYZWA9f9VXx2Rt6Sxb/ys9LQ4bOkfEz95d1LkIZC90TelJbKckQz7nyjQDFxfBxLnvWtdGyn8aoEOn+yY98GvbwsRvpYNietdt4rHqGl/8t2w9rmx2Lh2ZQ4zoeUUKPpw3JridsT7wTp0dGmLricdBzAHBdqSJLoXU/I92ascrakt0f3oei+Rl2RVnG6k9/BzrWv0O1u9Kxvr3i43XqN22DNZ9zxj3kaMkJVeW3Wps8zsjJwDnaPF7ne/IGJd8T+zzgnXkeQFs5W2xfty76CtduBZy7BAlvTudI7E2r7MF8jfGzE183gyxj8DByZxE1jsYcuxg9Hc3OCLPNCWrHmeUfjRGpmKT9HOeu+RT3axQmuleNZUhrge323uSVmL24HaTp+zrY8++SJ4CxY9SbP3TbWwXKZu5Rm7rjQjrL0efOEGTFhoUpkWeQCIHiUmC3xeb+Kh9mZNKiPlRVyWxqklqq4auK9ks4/5iumZCvCIoK50ZGfwoYs8TS0Je0fu5f/Ykxr857nFjc52cWdcFPhdjdBUWm+hRadvjdJ15bodzkkm1fzVppfBBGGEZ5SX25vlFbEj4ZWQOgzHkfW+cDjn8Nl3lMVB89O+DKD490teaMZe+JmN8cX8d+lXPYPnZmCj0Xta1Trqs3qPCBANMvprwCjuXZW1bWG+rcVNM77odmbYhWqjmtdlLLHPpSO8mV1RejQeVzJhKUmcZ5ft09uFcPbFtWclvRVrbGBzomPHMg4+MblIhUhlYcLaRruV2pvDG+k2SxdXvRcZrGv/nyJaxlxj3KxklCTzLM/n7GvvufEfGuEzJlfJ4qJSl5VBMXZPVR7MrZ/WNQxqTcyfLjUOpnDb1vHyI3O3Kaq/8znr4kZ83TOxXSo6SOcmzmkXWE6BS8eG/0smgNYfX2cTJpeIGV+90CZZDFhToiej/N5ncugSFjnhZCS6JNkbGI2Xs2EgkvYvnGAOuhlMwT0FXwymh8msPIxPb7up/0d/YyGcZEf289X2i2u5UUaX+l3WcdsYkwe9LTQQZ16/6Q4tIJviOGMOM+4vpmnVqT7CMN2OAfxSxV/kERCbjcc1R/7l/dhgP/5Ybm+smb+5nvk91kq5XVoe0RG10TI4RwYttcZt3pNq/IgpZ4RhqcWdNgvRu/Q6Xzi5mQ+iZVJZWn/a45iTJxWRF8KnWdCKHIJJLyqYkZZwxvi6CiXPflXg3J7g+61uLE9aDJVPWrY2/6F3p64vpXbcp0zYsi9psq495dETlhPdb0AS/fKnTO5194DM2aKEUC9vkdhr9x8Y+/0bkVCeAE/bLu46qVSakLfvQPH7POXJOjUe+j/WbTeyLjNf848K8n7GXGPfR3Jxa2Nqy4z7oz0xb4XxHxriMcK+fOT9ooJEZ8x5/f7rvWraxsBnOT3OF4lgha+cRe7dH/7z2yN/TOrp+mWwMsWdhrJI5CyTY8gFVsQRbTirKMrQhJn9xkpUleDZO97sYvqshlSBLibYmjjfTA/JlgP4xPzN7cPPkFSep7uupNGHk3cy58FlyyJPypA0xjeUOcPsu98kT0cWJvY7v9JJGiPWQIJ38vrjMMgjnST991HYw0vWAkwmRGe8rput1JJETrzw4J7HI2GdPKtFElJCJGju825S14DTG3k4Yz/awcT+Si84MOUdtz4kllnUixM3lUWd9e64FOj/HksdkV4dwOUmKc/LlvlokNOpPERsyQT+1Oxhg9JLaw4loCwz+Spef46odsck5akMembptRrQDGb0/8SwXJgq9l2RH/askxhkTOUumrCsvmcNEbUpfX1TvNAb4npRtKGSz8+locdBfFUhgmX3qqXwQL0/yI9+T+HT3gXHoOeejpSnQEMuficLI2OvM8djagRKrgc62I1n5LWrbHIP9cRRP7G7jOtvA+k0Se8aP5z6JO2O8MlfI/Zn5nCxbm/X7GlvhfEfGuIzkugTlPrRcTgvrmrX9/E7VmZKFBdiJZI0/63naY+8osqCuYV3ZeYIJu2E9a23b5LpozFy3nDaO2EcCoLjbvTq6URJqDnAZIts61MlqqioOhXMky3t9n2P8uoqa69hmqmzyh4nvTpK/CKi6wgJ5QEpPuhh/4UTVEMHpAM2HVlWcpfH6WeSD+7iW2EdEN8Ti6/9G92kX5+cVxGW0OGz98JN42cjnIvZRn6x28oSflPW/PVSsUJzwu5ax9qDnJJyUMJckj8sQo9+okkCiWhK3I6WnIrpmw58kOrq/a+OGI2xlTyoRsXfJkbyS5tRC18mBKn8kmZiV2WfuR045U9uLVMXhSTBB1qMtZONZUzpXZQVpJ2IHba6oxLJyJM9y6VRVOjHp3VybPOvWWX4bQgvU5AS7RHhElX4sYv/EMaF+6qlyrxGxp/jtRyV4WzX0Ttm2WGOG+x99GsxEuCCboStOFcZEoao4TAK4f6aNZzP0fiGdGWLxPUS4pIWtWXS9SnqNHcmzRfVuEXt3SEnecUx9Ol9HZPdiuVhKFzP0/uNhRewXGP66rWqur2qcr9PjanES9eHbAotQV1dSeQsPOpjaFVCiRUui4lWK2NMYnaCjyjqndyxVVRyytypUcY7QJNmGqqRmJVZGuJANVnJhnKSJ/UXGa+GqOJzfkbQ3VO2O+hzb6SD9ZNvgySsL19H4ywrzyx6XxAEUqf8rXl2HucEymKC7z+edUHWnieOsGtqJqcDlWWe7VeZSr1Fb9SIxu/IOF3koELYWPXs9tqO+yfU/nPBvLrG/EuXPMeKSUGoA06DU/zK97fTeHJ6skIyCia3kZ+rP+A4BhZnQoUSe14xX26HJj04hpSSV2AKDV9tlNPdHGL5toWcfsHIlcrmiAXjGXiDqRw39JJEybQ0+sgGlw2ISJUKXM/TMGQLl5z0Mj4fov2yi9bqlif39FgaHXXRosXa2wEBVh/BQSRxGFRy1dMLe/TbGfDCOIpA+Kq9GmJswh+Bfqn+enNioRjSFV7n7kVfXy4AImdZpqkwkyYIrEqSqRqz0QcZe42UHba6RnUuO9AzWh+4zEQIypotjqrMcx6WaWFwyo3edzdFXNeWT2NSTkWqfLWdVw92UkrSTc027UwadPIxq7Pio/jHA6GiALp1JsMvlK7sY7nci3OuwHZIrjQma4AIsTgdoP68aWZXReNXDQGHL1EonXfpVdI5mWAQB5sddNB+buv1+Fa03XYw+00FW5+hsmdeG6Encf9jGiBf6gT5JdGVrDMHZaqB/GuhyeXRmA9U/t0NxeOFDfUguQJ0yXWczCmLClBz1YomYK3wmdTl7a2T6oIHe4RjDfTqnooOWIvY7aL0bortrDqIz9cppnJV/62PyJUCwmGLwRwNVVR7TQ/l5G713usRqIb2fLTA0Cwf/xTCd10AEOJfNzqcj7dCgsoerevD6rARrnPHC2dh/dWaHU38r+fLils6iGB4N0GHZWeE0pef9aPeVDpVr0lkdiVCO4KSr7WfSLh+bylA0lg6s0MfvU3MOi7Zf2hbq77HwnaI2mOT+eYA65yE8G5gzZbjPBcdrVEo1Xqknicv4/3lRZ+zN8RC9Fw10T0boKN34qP7eRY9j3HnnJSm7cIKOwWkzUeqad928J32r8lD2uNTYLqH8SwWV5D91mKa1WOaQOr+K9oGxf3S44PMamodZcfkcflVW16gdGj5rwbY1STxy2Ncldp3ismc9y+d1yuWOE3sCU4DZYQcNc5qef89xml4S3EsqL+baMk6AczFWJ3eqEzn5hE+rVj175G0jqWpo2xO3MizxJFE+sZRO/uv8kyTCiTak2n49f3f2TfWFt351O5zXJb3idEokeSjptE46IVTJ0FS04RP9YpMkTz7kEVx5g2w5q+34kw62H1ZQ4VOHaYeFTiy1k2edz6XnJ7Yxz9F1FEbC+lSfiWcoXHlIhR0pHbKXiPu2+qS+5JKjek4c73QEefVFD+NY9RW3zFTMpQubKgbVfQ+HPRQ9eZYwrisf0cm45uApU2mEDlFJeqrVqbjmNF0awy0iJeSxV+cvTJRX0zac6qRYM+YjndMOjjqQbaYP4XH2NakzwnFcpm4bMkHnnp6ktT3QJ7A2YsmztDAtq4m8HB0wQwfuJZJnyVtNp78+qaPqu0qtpsf4epsRb78bE+aZhU+enWP0sqqqAbFeiEToCkFU9WwUP8GWk+SJ6BE2Vd8p2dZdIS2X3jPGMGPTxsXyvHFMYUE5dLQ4aGhSxqe0su2KJc9O0aOD1R7WUXuQN7RhjpE6II5O5u6vTkg3dj52ai/PObF3usepPrvBZWMsvDtO+e0cWh5lp5zpfvc7Oyeu9xm7loh3zzVelQwKnDxrZKb0n5hjhsoJRbtsnPCtd8Zcdna9XXT1cSVT17jUZ0us7Ls9b0Xfo903bX8mVCacF0f3KmhQknrMpqdtAh2uR9yHK8z5dF/MHqXv0aUy4+cWxMaPLVP5/sM97xeV/U9A7NPgvaiw5D6R5WUxoA+acWz1i5HcWCN5WZ1f/H4KUclIhha83Cq8TF5lJb6KTb34+BDZXbXsVM5M0vEmtuZW2RrChBB7Ae2tA+1VG7PrfZ7eIt1xVacQLAoWbQx8G6L5RzrZ9nrxKuTp8vKeovssXV3t8s8V3YgMrxADaqewnlF56QrfY9s4+f5D5jwh9gKsHwIsMbjrDCHFPVcuVRZP5LtOvnfgb5S/8vtlSmDeARncCdscYPK6JWTpTujyLo8pOg28msrrknnmdupciL0YHCH2N4EBIm6/NmTCvwnZb/o7vwzR+XPiTACVifYWTbTBBP23Q6u+/y1q+6aPEWnflc7b84PWxubzic0rbjeE2IuBuFIDIYOwyCAMMfu7i0GukoZFnivXCg4FA4IBwYBg4DwMLDD+s58jEfe858jfNwlrQuyF2AuxFwwIBgQDggHBgGBAMCAYuAMYEGJ/B5S4SStFaYt4LgQDggHBgGBAMCAYEAzcDAaE2AuxlxW6YEAwIBgQDAgGBAOCAcHAHcCAEPs7oERZFd/MqljkLnIXDAgGBAOCAcGAYGCTMCDEXoi9rNAFA4IBwYBgQDAgGBAMCAbuAAaE2N8BJW7SSlHaIp4LwYBgQDAgGBAMCAYEAzeDASH2QuxlhX5DGAi/TjDYrWPb72ByThuCf4fo/jlBcM51YkivyJCGC0z2W6hu1TD4ev4zSZf9l1WU5Dh2sSdZY/QswOyoi/o9H52T8zH1Q8dy0bYUvT5LBnf5d7IZB53N0O8F5XyTdmxx2EDJK6FxuLjzNmR+2EHvQ/DD+inE/oID4Ica3VvYpsVBHe3j8IcB9a7Je/6+h+7vVfieB89bR+xDzPZbaL2fi2yvaVwE/3TRjnRzHrEPMH7TRuuxD490KcRecOrAafjvAJ0/Giir8e7dKLEv2pai1981W52rP59H6O21UPXJnt+sfhcHNW2LDNaUXVLf19mym7dj10LszxYY7zVQuafttX+vgsbe+NzDAOf7VYdMq+h/PmeBvphgsNdE7eG2nut3J5F9DP5po/5q/EOcdULsHUY410D+ofeFGO8Psfih7zgHkIXePUX3vgfv+fCHgPTm9XGVsrKfNUFbGdxsYj8/qKP2l5D668fAHP1faJJeNxlauvzcR4V0KcQ+mriuX2eWPgrZr+u6L8T45c0TP62Xom0pev11yfSq3jNHf39Fui6G3Q2S0VmA8W7ZkNEdtP/J6R2+K3bscx/95K7Y9wk6D2j8lVD+pYLKg9KKrD/oYPI9A0vhGG2zYFstkjz4f4wRZtqZAJO9Gkqeh9KTDgbHMywcz6f5vbI7WfOcjDZlvldfv7nE/tsMo706uh8LdMxsn7du+1bO9zFazwYWsZ+i+7SL0aecg9MofXHYQmt/gkVYQIbnAMZl8MJ/WsbznGMFe4Hnu955N36boLOG2IcnHZTvdzEVmd0AWVxg8KQAsf86QE2I/Q3o6cfatqu2M5PdTSH2SxRtS9Hrr1p2P/R5n/uoWt7Ui75ro2R00jHENdtxlOrnHbFj87+qqV2x6ZsK6n9NEZytbEbwbx91Q9qziDo9q3FYgHt9n6H/jHYEymgenueUm2PwxEf94LzrVm1O6czBDzaO2Idfx+i9qGL7Xh3do1lMCZkd+jbFkGKV71WvhchmtsMh4OLXhpi+Lqc8f4uTPlqPSig9aqF/ssi3wgvmanG0vbWN+t4Is2/FwJGv7XP0H+1ghzz23nmr2B/x/tv8zDXEPpygc99Ddf9qB3w+nd5mmV5V24XYC1auCkur52wS8SvalqLX3x78LDAkIibEHsu7QOy/DhVZj+exTNHfc3vGI8ek30k70cjJ+rCIc22OgSH1nZwx9PR+z69jmCOXK++Y2hhivzgZoPOkpLctTvIlTwQU1/ZrBaWHDfSO5nciDITirlQcZsaWftTne3V0DuOrz0yln+mkntpWCdUXPYy/XmEs/GkXO4/6mNOn8j43MPwhC4jV5JjZzytZWF3ne7KJvY7pq5wfw3fr+nyd8r3Mu4TY351xdhkcXO29m0SOi7al6PW3Az8hZn/VU/HPF237RsnoZ/TYR97yInkO2SGx5K0nh2XpQQ3Nt+c7R6dvdPhT+c00/+5lOEbL87CzV+Cec+b9myX2Uab9dgHCGUJ7r7ex/bSD4en5WySL4y4anLzgb6O+O8SM450i8GuPs4qhskk1r2AVaU2AJZhh8LKG8pa+t/Somcp0Dj6N0H9Zx7YJrQk/DdB6rBMpyPs++sITR4jpnzomy47jou/xlae5npIydmso+RU03o4wD/g56z4DzI96aDz0Cy2gso1cgNEL32xTkedey2GtlzmqHFDX1Ua+TdB9quXh047LwSy+G1H0+m8zjFVlAv388LSH2pYH/14jviIOZhjuNiLd0bubb+NJNM4kJNurE8POKhY7/DRE53lZxddFRmF/6lh4ZhF7k7Pg8iDYA/rcPjA5tbCt2u/43caZq18UGrffQv2e0dt3wn4V27SNuVXNTO5dO/ZUX0IsTodql66k2jbH6PcKfK+E6pupxsLXIRpbHkrPh5jb/V/3/Xtcv95WGbUXfUwzxsniuIemGZd0bWNvgO5/SW4rvUbjgBKw3jZRNQlYpQcNdN9106E44QLTwx6aj0p6DH8ZofXQV/LqfrQW1znsyHIZYnbQst5ZQ/NVG/U38bhg277oPrfRftY9t+pS1DenTANMrP56/jYqzzuW7dI2h2wd7bZqPZr2KttYQvl5F5PEgr/Y9TlwYtoe0yXF0z7vYPivNU/E8G3GxhXafJYlVbKK7IC/jerLAXq/6ffFbXqI6V4Fvl9B58TChVMXbN/z6aR4W4wuc7Y9+DTWlb3U/BZi+pbmMB/bv9o5YoHCbo1jmrfI1qYrfOXCLs0XbFsVDlvovmjlqlzFslh9LoytseyjmucTYz4x3pV9IA7hsCUuYs+/reb1RGjMYozu84q2pSQ74jWfbBwQ5xmgG42tJYIPXTSUPOn6HqbMZ2zMRDhPvI+vSfQr047R9bltMM9p6XEVn08TMg6pYpS2lbUDy7Gr5v/uyoYuKXbdzNvE5d6aOUK10dhXw9Uiedtjm/se+zRtTl5H3vpUbH0Jtb00dhWmmCv6LYxd+oi9k8cxfc4xUHNNC+MrCpu+GWIf8sRYIETkLMD0kEpJkYHsY5LL6xxisltG+bch5kpgIeaHTeUR9x/2om2X8OsIbZVU4aHy5yy90jqj5Ik6BhEJX2L5ZYD6VhXdEzNhkMFRlTFKaB7p32ZHQwxem8onTwaYvG+h+bKP4fEYQ/6dvN0xhWeALHaNBQolywYqfknLZWH9Leue5RLB6VDtkPgq5OmCux0Ul+i3IzAGhw0d03e/g4kDoOG/Iwz226ZyQA2D0xGaD+po7XXR/pXInDYGvNotfP3pEMODzur5H4ZovWihYXTbfK/1En6muLoymgdmx4OwdcC4iCfRBKerGLzmkW1sjZy/9FGjxBs28qddha/anzNN5M8WGL3cUXJJL3jYCCYMb44Eptx9CFfv934bWYumEPN3xlP1Sw/TpL4+9VBhzH8aJeQ6UnLtH44xPmR5J/Mr8oy9BcbvBuj/ZpK8dkeY7DXR4oo0nF8QTVB1DHPhe4ou6fxJL5p8F+9bekcpNd5CTF4TqbLH8tTESBIeExMQJWA99OE/XhFVGyNR8uzXMQYHfTQN9jpHE0VAuHrODnt0ctgRmjSC9034DzoYG3Ic2Sx7oflthKZfRufY2CTS/R8k2wS+1tiFFelhO6IX7979FkZG9sG/Pb2Iicb+AuODPnrPWY8TTN9UUX3RRnevpRbWapL1mxip9l/g+jw4WQYY/1GG/7gT7UpSaGfH2OXG36uwtkh+3tXafJbf/G8q3adjbFWCXaQLbePixH610PZf5/Ha5dEJ62+JYm3Je32I6WFifvub5jeu/NPESNlECk2gRfpEh9WeBZi80XNi6bfRytmRC7s0rn3U3821HSO7rbztiTFaCN9EWk1+jD2W+Bnfxmg/8FF9PTa5aiEWx8bmbTUwtDnBMiNv4WyCzv/wUfl9gOm3+Byi8qgeNDH8rH8PPw+1zfAr6J2SDgNMDuM2cvq2iebeAKPjUWQ7nfHhkd10jP+8dozlED0rnw0OjkzeXZIsB2O0VdiupbNvEwwPBxEHi4g9/R6zoVP0XjTRPRhhfMS21U9V4+MFRHyMrcYDj9Ho0+g/K44+DBaYHQ/QMQ5I5axzOJmmb/Q8778cYWY7ipQzeYS5FdsfvdvIlxd/rX/i+Ehel/f/10vswzlG5GXeqqFzMDm3xJDuBHkmGqhsFfFMayWqyZDJAQN0ucpct4kWx1k5B8hpF9XYNokmDikgMCGLJrwllsEITSKsWw30Y6vwrKobBYk99yta+JSw/bQbTWznAYFzGkrkdXV6lbMHxHRvJ759ZGWPp2TD7Yzkv4Pa7ii2qKEMcU3ubZLI+ip+fZVj6s4WmJ6YxUs4VZnx/st0Rjtvu/kvrAlnuQT/buOF5UqLGbuveoBaRov6zWFKr+Le1eXSTewXf9f1Ask10dDzivbh2xANwmCK1PLOwGpxxv2i8RDvL5EJIiUlNPbjuyrzvyqqvZFBZiKac+wtedzcb0YTZfB5gmlE4gNM9rvo54xZXJpJyG7Pcmn66rVj3uvwQxs7no+UQWWZxYh9iMmrHXgOj0y0qE1MZCybnRe82xBgfjI1ti+vHaEYYA/lpNMhkfCncPOfHmbRWKOxSztpjok9dk32GHeTHsZCLe7sYD0+bKB/ak1QUTWKRA7ORa/PwAn13/ds22H6FXneyugqsqR//2E2/4smitVUNSvGYHoXlnb5em+tneR1+nES0QydFG1L0etNGIF3v4ruB6PzxRSTz3pxqUITUtXSeO5bkbJc2P3Yge81MYp5Q2l+MLuI62S27m9OeRJGTOx9ym4uwdjxHsTjr5mgRaTybI7h73V3VRq1mNmJYZLsLz1bLYTt9/Ic8rAdLe6VrWb5uxbvERlPjv/idkwtMIrYYJZpwh6STLOKEszf6TKdcbu9BBPmSqI0ZCSnxDxZlNgr253QI8+Dyc/gYzcqaRpvJ2PaU/wrKnRiLej9Z4MY37GfzX2PHD7r8Jrjb9dM7KmGaB3FkjkDTNVBMcYjnctTrwclAcjlAWHFe8/s7UI2uskY8RDjP2rxWOcTMjCulSsTNR+dqJpPNlGPSGBs1Z99vQ0E13c7T2FkPACu62K/UYJttHDK2GJyAUkRnwSBXS5BZD9llBL3R/1OJYuswnnsQXPh62Ny1ZM5E7AUkaM2RmQuQQ749xRRnaP/3zgppgHqb7WMt0q/MyJHKSPHeIkb3ulrUxM9YbBYb8X7QBimZ6YnkembbaUve3FCRnz4PDkO2BuV1nlEpN+xR1Qb79xjjyeB1MLHyC+BH5ZD5ufnAWp+CS2zc6avc00oBm/OA8J4e9TqLxFpShB36cUQoshjb9rMtqb9wdGX3HbEkDbLax716WC1WCRHBum49d7ayl4usTgYxBYzmXJzyTmcoL3lp3YyUwSG7mU9OuQTHrf1ot2W9UWvd+LE2O9fkjugWu5sl+KOmx9h83msWbix5Dp55fLYO7Bh3ZPSV26dFG1L0eup3caG/ddFWibo+B7qf8fxSP1h/LCNyIVdQ26j3VCW0ckgHmbJv+f9zMKheV8ltUCjfjN2VosTu1+K2JO3/2krclYk9ahsgyvckttjcwz+LTW22K7FHRbqXVnE/gJ2LNn2c//P7U3Nedze9PhgW2nP/fQe/j1aLLFe+R0Je5B5Pd9nf6oiFfEF/3l9U7ss5Ciz+UC0wHLlxa14TdxZthr33GYv4VQ8ry1Zf79eYs8CNWUpq5TMmTesJorH1x7paEXEz0x9MmnShlSRTRPqsfoeJ1R8CEHM0/J1gHrCuxspIfW81btW4Mwm6mzc4oDNvt6pxEguRfIUluAT5qj6UO4kXEvGJKv4JGlAaoyGi0Ry+7OJOnnHtffXrlBwddez9z/tMdNtY6OTnIx4wot7dmmA151G38giyg8wRD1l5BijcRwyLmwZsOwo1np9LWx3H5hYxRJ0aIfltyaaFEdoe4c+91Fz1OjN1ANPINGkw/1ajYfVmOPfrD6zgY7uXxm8Vb8v+puOT11to1oTCnuMU3qhd7EcV9czNldj22oT9yHxLLYV8TGu7+O/pWXDMvLA7wo/dlFR8Z4l1HYHmES7GVYbwim6FMPPtZNzFiEoIuMoLt7Yvli/WAYuPUYT30qe6xYCy6LXr9XlErz49BJE6sptftRuC9+W3eSxHZOb9fciuuBrM3VStC1Fr1ftXjNfMR7WzJPRQjgXdhcYPte1x/2rLJjB7Uzgdu14dyxOSB+s3+YeeXa3U2EirDP72nXjP8JJRhtddip6B9vlhDd/bb/4PQk7Fj0zL1Yzn5O2q/xstods85K/R7LgNmS8g5+Tup7viz4pXLRygVKTNAeTnbWcu9yW2A7vyjY49wbFAAAgAElEQVRzm+LOZMffLyt307ebIfaRYDmZk8h6vkRYUnbkmaZk1eOM0o9G0O7V9kqgDB71yaEkVijNdK+a2irTgzdvokO24WMjEAdg9vXxtl4gT4Fj659uY7tI2cxIX0ZuLKd1Bpv+ltqC1ffrflsTvPV87bnxYqXHru56NipZxH5lmJPGhcJFyFu7IsBur7bSkUqG1CVbVcgZeZDp3tSgZQIcJwGMCzexv2gfjIfJwvZ8v6Gwrb2ZK2++C/PUr0w98ATCE2PRscdGke+38BDDfKHfdcJe9R4lyw8w+Ur1gokwW7jjdqf0QjhlOa+uZ72ksEHt4j4knsUGPT7G7XGQ147QjtIUfZVYTP3QMbvpBD69w6kXAR78hy0M7MTRQjI0451s7nFX5ze96KnzNMaueuwsA6ce2cO5kmcks6u4fq0uLf0kSA4tINq0YLLGhQv/Wvc5dMUySL7HyJ0x5MJDUayfq5OibSl6verTmvnK6MS5O+rEYR7shpgfdVd5G1s1dI/TOwKFZMn9TuCQdeUc75Yn2bbTfE/73UDXR+c8pVR/jX3J2GFKtT+jjS47Fd3LYyKBRW6js1/8noQdi56Z6sfKRsSuyXxO2q7yfWwrk+3i31NjJuMdmdcn2j4/aKDGBRoSf+M2ZX1qnmLZMg65tucX+5kcSpUhV25zmiNkyNd+tuP7DRP7VaOjZE5aiWeR9UQHVHw4JV1SzH6q9KMpYZRBLrMUxlu2Clxk9P+b3trV8VArIpT1LP17tuHjARYHbPb16nlcDadgnoKuhlNC5dceRib+cX27V7pJXqdCQWwPb0IvBPp0rPzqebrf1qCw7mdiby/Iru56HatMHpJaFDayahf1k3WSDp0gIk+EakdXrsjwapMXv+L7qP9lkmepbxkGKNrGThhejim0J4yVDi7eB/ZOqrAbwvYLc1Iwb82Slz4D8yvZOPTGE0g0MRYceyyf6P64TlZ9z/k7J4Y960fJs84JkNvtDCNIT0CMDSd2uA8Jw80GOz7GdT+K2RGr74vJiuBnnZhIJW73W8bLXy5QbcV6jxqXc+0lfdCOkmdXWEgskFkGTj0ysbfI8VVer+KvaXw6QhLsMejQ9ZXafO5TRjsYQy485Md5Tp0UbUvR6xU+1sxXJjwttkuo7kliLPH/XNglpyAT/Ese8MP9TuA2ColMhHqwnnhs2/bA1m8UspExRnVYVjrkkZ8f+8xoo9OusYzZviXmF26j3e7oXfyehB2L/s7PPu8z8zlpu8rPjuRpV8WxFlCpMZPxDn5O6nqrzaSb2mVOfCXZ2qE4UWiWKxRnHQfQ2Oc2Z3n0WUZ5PzeG2HODV8mcBRJs+YCqWIItxzVlTWohJn9xQptlWBgs97sYvqvFEiOjNpp40cxkiC8D9I/5mdmGjwdYHIDu62m7lcpCbq/bpbCAq9rKIU/KaznENFFujvtT7JPkGo8rTN+vkwKJQLuMuu63ewDobcL4ouli1zsIKCXC7uu6tO7dBBPLbHnv7L6RMVC1+p8PMNxN7+Qook7ev6QXhjGVMpZG1wnDy4sbL2NCuXAfOFfgUR+j/bpF9tjYVtHZjScD2/3XenDIlSeQaGIsOPZYPtH9PHYu9jnZpW3SJL64j1b7+b2ea3JNXx8ZX5ezgJ+V0DHfEx/jul8cHnW+HVlg8Fc62Xv2p8YyV3taHPSjClWR3j719E7TBWM3uf1Jr6vTdrEMEqGLqi0c5mHL7qLXu3DCnndHHol6v/GYOWNcuR1XYvN1XHlWKKJTbkm7fc7/8+ukaFuKXk84ds9XrHO9G5KoKBf1b47B/lhVocuF3ZN+PNeNnhOMdEnCGMkqaDdY/wlc8fiME7jVs7UDJp6PldQvF4TwyckQS/pdzUXlDIIZfuhj+Nm8L6ONFyH2jB/nHMjvSdixyJ5EulvJwfm3zOek7Srfz+360R778FMfrdcF8gkdfZ79WUEsZNvKL0y2X/Vvnf2xFi+cc8IyuejnxhH7qCNUN3uvjm6UhHoOkEj4hsi2DvXWXOQ59itoUWlDLun3fY7x6ypqzlM9OZ46kRwRU+6KuJaedDH+whUgQgSnAzQpc53ftTTeS8dASRoB3XdjKCNyGGLx9X+j+7SrtsAj+cTa45bN4rB15SfxqmoAa7z13D5O8IyFPpg2c7+TZEElJKkyhQMsrP5d7PoksTMysipkdOxa4vQ+Qw643Cb3ZfXJhDUjzIiNWXKS+beHihWKE35nvLiJfVQlxoEZ1ZYL98HCdkKHkb4yFjX0Xu1hsogx6yhF7E15RupznrHHcnMRQvWOIlVxeOKILw6XZzP0fiGPrmn/9xDhkhZyOiZ951XyVEJH8qyqYqF3bdpcAYRlcE7ybBrrhMe8doT6FCcQCgefeqq06orY11KTzXI5Q+8/HlZJWQsMf91WNdNb7znZ2W0/lM5NyE0yuXoUq8ceIiR7x3qMbNfqudoWm90ultlFr8/ACVev8mNFEXQb1GI4Kre5apeSI+WtqOTyq7H5fEgNbavHSxnzGErsdFAllAJVcdge5tFJ0bYUvT4i9g6dk2yj56mQmTlCU/Iv/DbF4LdKFINOpC5JlFLYpWTzlO5DKCxaNpfyUap07sWTjPrujD/+ZBxGzw6wUEU62N77jgRg/bdkBTXWzWohr8v+kpMrtYCP7EmiFOZZiDmV1LSjBdi+JBYfFyH2y+i9O8hrxwpXxeGFvKUXNda+mHKeZIcTxS2yiD1XjFnJ1Ixf1ltinuTnRDb328KUKqVx1kcrUV1H24AllmdzDN5YFfEWU4xPHWFeVKL4YSddIprl6qiwo2xTpv1ZgneHojYzNi/4ubnE/oIdipSk7p9jxDWyiWRY/1KDzH7fOasrekdIJTBVMlv8uZ4X3yGIvLxeM34iKxENc6BTfIHBW9ZlNPdHGL5toZckoHZbr/E7HSBSpz4/SXsf4nJfIjikCh1aNuStsHcL2Ph5D5oY8AFjXBbKEZNY6Ppgii4flPXGdSjUEtEWKZUg5fdTXPxv5bTxTchXE+CsHYsZeqZuefl5D8PjIfovm2i9bmlif7+FwWEXHbPwXLI31auhHzNyPKFkhBUQ/k46+oTion1Q2PbBZDDSm1nUuHZY1DWqeoDWZ/PQ1Ek3smHPMeFiVas3/9hb/G1Ct/yms059tINhJysl9BL1Y7nE7K2pp/6ggd7hGMN9qq/dQUsR+x203g3R3TUVsb7ow68Iq+Xf+ph8CRAsphj80UBV1Vv2UH7eRu+dxpKuCU5yoPE5wTwIsDgdoP28ak5eLqPxqofBxwDLswWGZuHgvxg6y/vmsyNmsWJ0reqi0/kIVKPe2ubXExqVI105MRZHdJK1ZZN4MlRjk2uNJ4nu6v/BEeumivbBCKODLpovuuj8qrFQezNEf9ecgxA92677TWdm6LMgUp7JgtefhxN10Is6zt1H5dUomsx13XFLBi7sXKHNX5pQMEXmHncw+rRAEMwxftNE1dgH/3EL3T0u98s2313FzcY2fS+kk6JtKXi9Kv+nsFRFlzCflO33qTnfReOF5wQ13ixPdS7sKgeC1u3ceL+Dfwlb8VCcaL6gHWM+LyLZLvv/HB/tV9E5HGGw21lV2SESp3IwKmgfmXw+OtiJzqGxxp7qdzBBV9kYL+40pHNwzFxY/m1ghQcuMX+vz0+x5aK+J+bBxYE5IyZ55gjvWHg7aPP5FdS3swDjXWMHafzbf6Oda3XOQk47ZsoX6zZaCaO2DFPfV04TPReSXBto/j0xuU7arnb32XMeYKQSUj3s2MT7bIGBCoH1ULEPo1LjwNTKv9/GmM+RsdpK51kMjwboGFtPcyaFyW4/rKDyS/KfPlBytVhehbxS+3kMTw7aqD3pZh50yPOyfXZSyganZMXvOt8ep8ZX6lnadt9xYk+dDDA77JhT2ugEUvepd3GBrUmMtAW5GKuTFtXpm3zCoVWr3jYw0cClFTd7OM1gV3+zVp18Wiqd6Nn5x2Es7TZc03deBUf9oDj1RCycliF7TNOGnFfcWi419I5Wp/DSaZZ0MmM6GZDj3nNc75Ire2iTcorpjo6MbqBzaMXFJ6+P/k8Lh3jt4hh26HTRR1S5wcf24xYGCg+mmoN1QqtLnnZMvV5AZOw6cFsu1Ic5+s/c7Z/u1dNb3fQup1wp4Zd3HGxd2x7988ZeBlaSXqncpx4yIZ1j9LKqTv61TzNeHNKhQVSJiwmVuZ6TndUEzjikZFt31a7g3xVu+fkBedTUWRATTSgj0mrLJu2pVdiJ6dGclGrZEeWVe15WkxGfcu0aLzT5l2nC4hM+GYOx5NkpenTA1sM6ag/ssrwsu+QnnSZaNycM04m8eiLWVXoSp15yn18NV6dDquPYG+4Ex9zX58SJGhdxzCk5vehh7KoixOPI3Ocq8Rob23Tduboy8iPyxydkqrmhq9pAYWJ0zki8qlvRk2cL6ITaXKgt+a93zm/WPBbJznHCKdlatUA1OsiF3ZOOJmV8inwGtmjhQ+O89rQK1+5N1C7zbvr//L3OR6ETyuPnzVC4T/wU69ynlJsQS5ec7LkzdULxi551SrMb+3R/1hzi/F1xDds2L5HLjrGMCtvgJZbfp+iZQ51ofu2phR/1p4SqScJXumA7YPMhkp3zd+qDWybML2iBr08vpxOQtRMy/GgcYbF3xG2z51n5P2oXbWDmcrquhPKTJnpH5x/mqU6e58Os1OnIeuy7cKd+M7sbziqDLP+Cnz8BsU9OVPL/TIAVBM9Fn8PEfpCqY+/WTdHrL9qujbrPHELljAm+Jj1tlDykz2lv6CVlMnmV3g6/lM55Ik4uzLLaWfT6rOfI71eOjUvhYFP0QYvtjDylO9G/TZGztONy40+dZxJfdF0Wn0LsBZSXA+UF5FeUqBe9/rKDYlPuV9t69zuYRPka7oXPprRX2nGb9DNF91m64teldFiUqBe9/gK25lL9kfdd+9xwlfqicND2Mecz3aaxKW29Shxs9rMoZKl0gVr66zEixF6M97Ub7ygJMxZXng3Uotdv9kDO7qer3VRVoWLForqukd+KyVTkFWDyupVKXru0XDjBL6+XtOj1Yquv3VZfGhM3pbMvA1X5xA73ubV9uSkZynt/+HgLP7RR/WOM4IplLcT+igUqxuMckpWVYJSlh6LXZz3nFv9OB2k0MuruC97Owdst1vsP0W0wQf/t0JnLctn3RQl+iWS2rOcWvT7rOfK7jAEbA/PDDnofHNVMxBb8cKJq60G+nzMuafG5e/WknuQuxF4G+7UNdndST/zUVdsYFL3evveufaeEnO67aSzh7K71UfpzzkSwsbbKlUSdlVxPfSx6/W2Vi7RbxrRgQDCQxsDinx76P3DxKcR+YyfLNBhkgIhMBAOCAcGAYEAwIBgQDAgGsjAgxF6I/bV57LNAKL+LgRIMCAYEA4IBwYBgQDBweQwIsRdiL8ReMCAYEAwIBgQDggHBgGDgDmBAiP0dUKKscC+/whUZigwFA4IBwYBgQDAgGLjtGBBiL8ReVuiCAcGAYEAwIBgQDAgGBAN3AANC7O+AEm/76lLaLx4SwYBgQDAgGBAMCAYEA5fHgBB7IfayQhcMCAYEA4IBwYBgQDAgGLgDGBBif81KDL9O0H9ZRenJAAv73V+HaGx5KD0fxn+3r1kGmB20UL3nw/M8lB410fvwfzDdq8D3K+h+lOOzr3S1Hy4wOeigfs9H5+SSq+hc+r3kO2JYkWfFsHC2wPhtG8PPd0sumfbkTmAh/KG2LTjpo/v3TM6GuBNYuVvjOma7RD+y2CiIASH2BQV28QEXYPymjdZjTcq9wsR+jsGzEurmBNLgQwdlz4Pn/T/4/X/9bMQ+wPyoj9bzCspbJAMPnr+NypMmekfzqzme+fMIvb0Wqr5+/m0m9ouTAbovaqiYBaHnlVD+pYHOwQSLs59gQvw2RudFD9Pvd6mvWfbEffiTGiO7EyxPOnq8KNthxk7iu3+vosZSe3+I6debdBb8WGJPtjz81Efj1z5mdwobdwnn0peLcw6R3c8qOyH210bszSD73EeFJtIksT+nHcH7JnyvhXG4Gqzzvxso+RX0Tle/3Xkgfxmi9dCH96CJ/skcIRPTMMDsqIvalgf/YQvDL1cjk8mrKyL25+j3h+gtmKL3pATPr6JzNEPA2DkLMT/pazlu1dD7GNxdj8j3CToPWxjfVeKWYU/CzwPUzaLUe9LHnHVvcBj808aOIfTtozh5DxczjPbq2Fb3+6j8PsScx9lN4PiK3hke9zH8mrYL4UkHlWcDzK/oPT9kLEvb7q6NEt2Kbq8YA5tL7L/pyaX7MW2IMw0nhU7st9A6XGwuUL4OUCtM7AOMXhDB7GByxQDIlKV5z+Kwhdb+BIsEMVh/3xTdp12MPl0tYQxPu9qD/qCDSRZRCyboPCAPfh2DKyD3k91bSuy/jNA8Tw5ntAtEO0hldE7i5G69fguMyWvGa7zdun+Nw6vFYfwdNyyLTHuywOCJxm7twGUPV579zN2oL0ONIc+Df+uJb4jxyzoGDmK/XIaYvNpBeXciYTk3Ol5veCxJ3zeXN4luCulm44h9+HWM3osqtu/V0SUvYx5P0bcphrt1bN+rXoCEXrMxyZyI17Vjio7ynl0/sV8Gc+2929pGfW+E2bd17Vz9bUEe4UcllB610D9ZXH7C/D5GS8mgjO45OxThPy34tHh60MG00IJk1X4mb7eT2M/Rf0Skzkfz/Tmk9nMfVZKVX3d6M1kOt/FzcVCD57dju1y3sR9r25xpT66A2NNk+sU4IjwP5TfTQpPL2nZf80QdfqTQxVoGsV9iqXY+yuhIntKt1fEm4U3akp5LRSbXJ5ONIfYUB9x5UkLpSQeDE5eHKS2UgOKgf62g9LBxdbHVP3rCyZyI0/1bDQT2rt0AsWd5nOlE0tpWCdUXPYxzxt5GOrpXR+dwmm+hxu+0Pqd7Ozo2+FE/x5b5FN372ltZ3Z9faqK6jcQ+OGyYvIM8pDbA8LmWlf/H+PILMEtnK/yuw/YP+ls4RpsWgi/vUJ9css20J1dE7JdLRGPPa2CYc2F/o7pPyunbGG3avVpH7Jdz9H/x4D0fXk2OTrIN8v9L2eGNwpPoUnS54Ri4WWJ/puOi6/e2C5DFENobvI3tpx0MT7M9kuGXCQbkyfcNIV6M0X26rby5/r06eqcm/IAqZuw1TCJmCdWXIzd5VJU1mlFVGm+rjMbuELMgg5wkri89aKD7rusIxQkRfBqpnYp4tRwm9Jp4qQQ4ExfrUSIcgev7fH3llmCGwctalGSqK+nEZRZ8Gms5PaNKPSGmb2soeT62f3VV6KHE1R4aD/1Ci7DlgnRRUzkBjbcjzLNk5hwwE7Nj4aHyVz6izrHx3i+rhQDJuP+yjm3VT0qcG6D1WOOBdhZGjtCdFLF3JR+yLqjtTLSMnnSYQ5Z+l0rvxdoUYBJh1cf2wwZae020onCLFaHLS2rn72omoVLncChPN+NMferxk/7dQ4TDZRyrKvxDVRXqovmoZKoKWW33t1F/O3UvJGicPq9EMd5qnH+Khwqdh1nKSaHxUv87n5NgPXEgmzNA5+k26krO1A8Tg+5vo/pyEE++DBeYHvZW/f4yMvkM1XjlqoR9uDp7QvZohYMLh+LwWOQ4fs+L7wBZlZ7Wx6fHsWHnF8UxlfCoZ9m2ArgKT3sq7yZmOwnT9pg1/dQ2o4L+HauctB7bGXMX614+hcQKBm4dBm6G2IdUeo4IcoHwjrMA00MqPUgTaR+TczzGs6Mhhm/rOiTD62B02kPzRQ/D4zGGe0RcKfygidGXGfq/1tHaH2J8qAkrTQIpT6/y+viovh6bePMQi+OOjvneaqSTNVXSng//cRcT4+UKTvtWQhuXuwwwORxi8EdZkytnUi1PjAmP/acRhoe96JmpWNkvA9S3quieGCL/bYKuqspTQvOIfgsxpXe/rmo5PRlg8ncLzZcNU3GnidEaAh6cDtUuCy2Sunmr0SjdN1DxaQHVx2SRY2KxwgHODS0xRmhFVusYLpYgPMT6+Z762dd44P47dgNSxH65RHDMFYkSRIcN4PcRmhS3/oFknK3fi7Rp+qas451NiBFjakXeJmgbUr6TN3TiQ9sQex8dldMSYvG+ZZIrmxhZ+QyrpExK2o6T7eVyht4vvq7c9G2C4f9l7+1Z3Fi+d9H+Fh0KJjhzceBJ7gj+cI6FAwsc/MQ1WOBgEDsYZLgb4WAjHAzCgREOLHZgxAQGDRg0wT5HExhNYtAEG01gkLkY5IMDHZigA0MHE+gLPJd6Wd3V1dV6s0Yzlldgetzq7qpa66mqp1atteqkHfloN86GaB1W0TzpoX9G933Uz5PfEIGM+f0qul/V/fCr9vOOgsQXwazwp1aL4VSfIB0tev0xQu99G3Wdzap0MkTveR7lF000Xwoc60X3fhND8c3vfXQS7R6geViLsmFFOrmx8YT60xqJ/TTGVIIQR4tc1cfmEcjgTLvI2WNc0Edd7rAZxD5rbFsRV6ofG9936J8WGYsaD+a1l38nLPKVscAY2CQGNkvswzF6wmq7U1oi1V6AwdsKCjsFrGLpVSSnjLYVyDk4Umkn88+tjA9kcf2PmSVhgq4IMnQQv9ifW0/scsJQwVien87GEblJ2JMbkVf7vvxeBrHXkxNZp5MkZojmvodU4CBZ30zf47CPmiCD94toftJEazLE4GvSsp8FTIqLyO2IGIfhYlvZ0UIth92nzdmuPRGB8BbOJ0+TdGL7PRCE24O3U0E7YQHW2/COrXoXsRdyGL8rSjKcWgAKnVw2sWdv6Wfpd6k6qViLqp3F5GNNW5KTOwYx2Z8zqDrlSy46xZQFU7lmpEn5VODI6iPDN8qFqvCyn8CF6DfSimpaTq96qPp7qRiK6Fnz2zMxSzEps4lcFp5d96kOe08ayZ0dsXjW5N7EwvhdQbZv77Crd/8CjC+GOr3oBsaTdVrszd2YhGtTgMFxE225gJ2DMdEvaGxNjXG0CEnryz22TbEUrqZTLELsp7TAPewlsOrCA99bQN96fmJZsawYA5vFwIaJvXB5KWN3qUDMAMPjGorCt3sBS30SQNmEmIhfmvw43hFEzctyAyF/boPo6IBE3yQtNMhlEbzMSU8AwlEn+l40aVmk96IB33NZ0uhbZJ01vp9YzCwBRBFgGy2+BgtPimZcRU9baJP603VwEs/Z9SP9Jog9yTFFLIyJ33LHySL2gsTWBaEzF0hSJyH6f+VSluhsUqP1sVCdNNaetCz3rwE65HJCOPI8pLGdIbMM+YbndbmTE1mZCXOXTeyKBZK1eBGLVnshSXpILjoNkvdSu5RNp5DP+g1l+aayxDVqk4lnLTcXZiddlOWuRZooOvFllpX1t5aRS6bjY7XIc7mY1D85ZL6J8eSmiL2hr6VlSXpMYX0Gsc/ISrUMrkQ9FyL21A/um0Yah/6yMML3fzmXhaUxzDpmHf8CGNgssSeB6LSUS5H1yB9fWXgXS6VIJNZyYSES4SQ/6XfI+uaa1ONJw4P/SmWNmPl81uSWdV/KLF0nc0BykU+a+FK+pZLwKPeBuD36+6kJd/akRqdeigxGCwfGRnpcIq6CFkNL+EzH7TfdibLb6ZKhqdsUMRVWe03oiqbf/1UXFRcxyNTvcnWanFa0G1nWDlbsNkF4NLHi/JsIjWdZy2nxkmhPiP7LKqqHYsfLtOaP0f5POliX9JCSn0MepINZmI2/ky23eCGwGWKvMqqIPhWPM5ntlrs9ypof979kPyM5kP5WGk/WTOzJvYvq5MQRje9ZV4fO1XdugNhbY5mS6Rw8RP0g1uNK7cxqP99nUsgYYAxsAAO3Q+yjhlEgpiDrswNhzQE2svQ+qqJ1PiuVop78jQmXvkMTb3pyTb9DE236WTUh07fI/3Tm81mTW9Z9Kat0nagd4krlxaSH7iUPtDLfSf49gyRFuorJh/Stf7qL3WVSWa4SVxGVHQfPpqzH0TNx/UTbhq/0Cb+m+8Zci72165Eh20h2RHwNlyvhA2+6ZETPZuo3W/YuvYrvhd96aIqDp+QiLYfS675xgiyRJA/egi4Fkw9l9a3U7gNlREnuRlWE7762Ou+91ikQxRkD9LehE+obJjalTFLy0PU2gp0j2Rnfi+9ly23jxJ7cqYxxJrPdBqZudDxZJ7En9z3PQ+1jMiYi1key/znvp3RO7xBm08Q7qw9kyjejDPWd9PcT9WRiz6TLOdYQTvma6C8sqzvbX26Z2McdJQrEFKkrZ5L1+B3p2/1HAb7w2XemUswmxDQxpCfX9DsRSczYho6+9V5lbKHJqKT/n+gMGRNPREYsS5N6N10n85tUnkmeVPCoZYHN7IgzSFL0TrwIK/zRQm9B//soG85ScRWxjqmdUcq9hYgf+czb7ijZ7XTJUJSddZ/qRVZ7meNbEv2MlIBZel9hsUFli1SiRPDNA4SiOA7rpGJ6L3mNA033XAf0UJ576XYj3IyqOuWhzpUvFwPifinliy/Kob5hYlOW75CH8qfOkF+EQ8JGti6nEdGeQ+RS36RvO66a9KXHiymi8gxsZrbbXHTe5HiyRmIf9T3Hwi+JJYfcTBk7dK7ev2PE3uUOZraD/76zhGYpPLIeWY9bioE7Q+ypQ8aBmEsE2NIBVakA22xCTBNveqJOv0O+xl7CJSGexFQgV+yWQN+2fZBlG7Mmt6z7EnjpOpG8xNVFPqnOJuEz3xEHz7TPqQ0zSBK5TYkMRkddDBfMYy1SS4rUortzd1WoDnOuMrBSuDvszT0lVWRWETERHmUqiTpvdjtdMsySbUKOkdW+ivbbCjJzwWfqd5k6DdA23X5kuwL0XojdCXMRpwKnhUU/jW9LzlQvkSHKqVsjiPasjbJB/gnnxaMGKpa/PcmInlmE2EeLJKMM+o64hp/a6EapCLPlNp1S3EtpLacPyzpoYu/MmKIt2tHuxawFjWiHjl240fFkXcQ+coPzfz51KGEtZSrJHssAACAASURBVLy4Y8T+mSvNr9VvojGF75t9lP9mPDAGbh8Dd47YR6C4GskTT5sy/d6CgtIktHZKuav15G9skdP3iXCkiY/rnfgkz3RebPWbb7o9GCS0TllmaCKgidKe3DInPdF2V51imbhJaUzuck+a6H+jLfQQwWUH1QemP7T+vmFxjOR0WlvhNN8hmk+bWCwOIm4HlZl1lakQJWFvYGCkYEw8HwzQEIfRuFKQUto+W/YZiyPxXbdsk3UmQpok18lnsndktE/8QnUSLknpTEvhmcjZbhJ7dWKozNbil7PJ7fUYHZHtyS/MXCxFRDThUz/FVMQTSHcgw1WHcK6vlHZ0EWI/jfqNj8KfHQyvNGavQ4xFatn/xGcSRH3CgVmRxnVt6S6pPeSmkcgKo3Qs3K+SQdrxToXbdWUD48k6iP03nWpUnDrrXGwtmRUnymRkBadG5aQXYln9bylcRf04zlEffp+kgvzJJc25eCMc8JWtvIwBxsAdx8DdJfbrENyXFoqSeJTQTmQ7CdB/qdLw7dlp+L621QFSnvUOpbXzC6ifab9+ccCMyIG+nyaa4w86yNHLo3o8wDgIMLnsoH5Q1PnB86i8bKHzr0opGeV4vl9H38odH3ys63f2UD+3UlBej9B6pINhrVNWQ+H3THm2pRzUc57IsX5BRH+K4N+mlpM4QMf6/jr0sMZvhF/aqOwIa3wV7YsxwmtNoEN12Flpx4MvFi0O63NkyffInUS/myXDrPt2e8hqn/DnTxL7LP0uVye1ABPt69FCLRih/cxXue3teolc6Q8EcS+icTZCoHPfTwVRvmjrQ5Ps1J/JeqtFk7KAJxavsizhguMjy/I8vZ6go0+1LViHUWXJY/xPVZ+hQFjVV2uBMg+ztBhxusPZclrk/0TsRX8+oROUQ0zO6sh7PsonxsFp1xN0ZXCxB/+wa8Q/GLK94fEkPm/AS5x7QIvgeEzxUD8LEgeFhRNlVNmVY0cOpbfuFLZ0CJjnzL5ltDWSb4Celkv+QJwp0kPnqILqhwE6T5Se8wd1NI91Zq2s/rcCrig9Zv55G73TFmp/pw9HUy6X1gI5qrurPXyP8MRXxgJj4O5gYGuJPVl6Ehk2RPpJsowniK7yxXW9k7DoByN0j+iEWg/+vSKqb83AxaRig8/xyabi2drJCIGw2Mt87wN90BVtQyeJjLJwkqU++Ztok/w9IhvG77bld9KXJ9rSJJ0/aKBr5HB3tdlM23cnO6vMgd9E9QmdTios9HkUDhroXLiDqZ3tFHjIkqETJ9nZMoR/uJ3qUckuW79L10ns3NwroPAw2e5KIng2iUFhvZ6ct1E7KESnD3v+LgpPqmgJsk8LozkEZnxcTuWXl+27bKJsLSjlfaf8RD/LlgdhLfjcReMgr7P/qOxJdMibeMYpNxv35I7jsLBTOUtdNU5Kf/fQeVGMT8V9XEPns7EYdrY7HZQty76R8SR7zJDB/S68J8ZC3ZeeiMPEaIyyMaX/v/DJs8b7P4Zo6dO/xUncLWlIEJjIydPHo10+Vz2Fjp3yXQBXolwZcJ5D8Sh5poLCgY7LmbE4Xwovc/oTf8vABMuKLeCMgbViYGuJPQ+cPHBuDAPCYr9jujax7Dcm+xkTgnCt8H824JO+T8T+hNz8WMd3Qcdrq4NcMMyP31lbeYQrvq6V0LB+eFxiDEzBxJ4HVh5YfxIDIguNGTjJA8tdmVxUDEFi121VXTOx3+pxQsRJuOMI7gqWuR48rjIGGAOLYYCJ/aoTPb+31RP9zAEkGGNwPsRYBPBe9VC7v8a0ioyr9eLqxwCNBzMCiBeV96e6zPW/Np/9Rcvl59aLB5c8RbzDszbGFIPieobv3bweWMYsY8bAWjDAxJ6BtBYgzSTCWyXjCbrPjJgGO3Byq9q6mHXgzuteZEp62sDACkpfvN4BBq/VabHekzbGC8YlLP79LZHzr4j9YIDmizZGWVm2fsU2cZ15TmMM/NYYYGLPHeC37gCrkK/JWQ0FXwRPl9H8ZAROMpbuMJYCDN420ftfDX1ir7k4m/X3E/x3O7iUgtdZ33dY3/MXS+HnLlqno1Tay1XGBH5nvrxZRiwjxsBmMMDEnifnX3py5oFiMwMFy5nlzBhgDDAGGAOMgbuPASb2TOyZ2DMGGAOMAcYAY4AxwBhgDGwBBpjYb4ESeQV991fQrCPWEWOAMcAYYAwwBhgDN40BJvZM7HmFzhhgDDAGGAOMAcYAY4AxsAUYYGK/BUq86dUff58tDIwBxgBjgDHAGGAMMAbuPgaY2DOx5xU6Y4AxwBhgDDAGGAOMAcbAFmCAif0WKJFX0Hd/Bc06Yh0xBhgDjAHGAGOAMXDTGGBiv2FiH34foP2iiNyTDiZm2d+7qOx4yB10k/fNZ6YBRic1FO/5Mhd37lEVrU//B8PXBfh+Ac1/Q15tJ+Q1xTQcovnAh/+gieEvfrKkwE7nqIzdZxZ27Dbf4P+jOvgNDFYqJ8DoQxOtTwHGpw15velBjr/PEyljgDHAGGAM/C4YYGK/EjlZpYME6L+po/ZYkXJvaWI/RudZDuX3Y0neg08N5OXBOf83/vx/t5zY/9uA7zgkyJt170UfodDtXSb2wRi94xoqD/PI6bb49wooHbbQ+yIOvhqjcyRIfIjRhxaafxaVHGzsbAjD43+MOngrEPsfI7Rf1ND7Fvef4GMd5Zd9PiRoQzr8XSY2bmfcx1gWLAvGwO+FASb2m55Qv7ZRECRuSXIW/FOF79XQN6zO4w8V5PwCWpdbDtqLBrz9OnrfzR2JARqaDDcujPaHE/RfFeEvKd/NDnyh3HkRp9fmnjTQuRgjvNZtuA4x+dJD80lOnZD6nw7GhNGgh+oK2Flr28I+alLuyxJ7sTAtof3V0JVu1/ikjMLRQC3EqK185d03xgBjgDHAGGAMLI2Bu0vsr0bovS6j+W+aCGQSlXCCwXENtdPJ0oLI/Oa6QfW9g9LS5CxA71Ace78smVpCdhntnJzWUDseYGIsKObLaojm06a2Ov98HaYXTTRTi5cMYi/bMUb7r9tzV5ktnxCDVwVpec8fDWZYqkMMjvKWznWbb3XRQnJfBouqLXuvhxn9cozOEx/lE7UbNVt+a8BTBta5XJYtY4AxwBhgDPzqGLhzxD783kfrsIjde2U0z0YIyJI5azK+GqIrfI/vFVcgoRsG8UrEfoiGfzvEfircRV6Xsbuzi/LrHkZXi8lrctFG7VEOuUc1tC8mP2WNDT92EzsVqtMRwfSQsNhrnAw/zIpVWKwNN9G5w4815U6z38RwFqblb2O0H5kE+tck9uFFA3te0WmtJxkLuXh+Gd3vt6cbqgtfWQeMAcYAY4Ax8Kti4M4Q+8lFB40nOe2asJjFPfjaQ+uPAnIPKmidjWdYP+8QQFci9kRiTZK34TZdTzA4aaC0k0PxsIV+wi0muy6Rju6V0TgdLrZQm0t4RXkkEzexv5sdcojmfbFA81A5FT702XKj38LzDroTeu5XJPZiceLBe9iOXYpc7dYuPtlWfZIBXwkbfGUsMAYYA4wBxoCNgdsl9tcBRmdNlO/tLkEWQyhr8C52nzbQvcwmSOE3nUWEMnhM+mg+3ZUWU/9eGa1L7bN9PUH/dQX5HUG6cii+6LlJiHjubTXKSuPt5FE56mIUZADLej63X0HzfdPhihMi+NKTOxXJbDkxeU0Fih4NFDH8MZaEu3zPd1qup8EInRcl3TYPKpNOUmbBl76RbSXE8G0JOc/H7h8uq3eA8VkLlQf+Uouw6UTooiRjAipvexhnycxF+pz3Ytm4LPYE9BQG9LdS938WGwvIOTyvK2u9V0LHCCClus6/Jol9+KUjd0UENsTOiBmUan5rct5E5YHCvefvoiww+8OB2WCE7hH1Aw8ikLfyuo9JYteM5G4uMumeWrRIrBI+L5vY8zz4r7LccKgeY3T+I95PxpGY7eC/SVZ8ZSwwBhgDjAHGgBsDt0PsRYCjJMhLuHdcBxieNtQi4EUbgzkW49FZF923ZU2kGuhdtlA9bKF73kf3tSCuHjy/it63Edp/lFE77qJ/qgirICbFY8vf96qP+r6P4qu+9jcPMTlvoChcZHYq6NpE7ccADZFm8XETA+2+Ely2UZYuNWbwbIDBaRedv4Q/tXnfVBgRJ5NMTTH90kP3tBV9M0Vwv3VQ3imieaGJ/NUATZmVJ4fqmbgXYijKFsGmuuzBhxqqLyo6404VvRkEPLjsyl0WsUhqLrpjInVfQcEXC6g2BpE12mzvIn+TTLIt9jYGKD2jff+nsTFXzqo9w1c6I9LKsRK6zU86GH5soHrUQe+8h85fWn+PbKu48m3PP+9iLGMkQoxPq1K3/oNW0hXom0i36qP8jnZVQoyPSxKT/jNzgUdyt7B40cCuX0DtZIjAiMcYvyvIb5RO5u/CDY7UwqD20QySXgQL/AxPcIwBxgBjgDHAGBAY2CyxD8foCavtTgmNk4FlCcxSSIDB2woKOwUsb+kdoC4Iq1dGW6YPjMsYHCmSJUmPaZEkVxkzG8l0gu4zH16KOE3h9pkOMXi5B8+voW9ZRoPTipvAf5sVVJtBprT1efBSEaIksR+iue9w+aCsPH499lunTCf3i2h+0qRqMsTga9KynzVoUFxEbkfEOAwXc4mKFmo57D5tLuzaE9eBZJJN7NWzhAGLiE7p/s9iY1E5UwC0By+BrRiTcduy7uk275Ti3SaJgTHaDxXOY7edKWQmpfu2L3+I/guFl3jxqtrgU4pQ2iHRZyuIRcCI7kUuUIY8v3VRe1pHPxV/IfqNC5vu9o3fq4XE3pt51n33+/Plx++xjBgDjAHGAGNguzGwYWIvXF6WDcQMMDyuoSh8uxew1CcBS+TPICGaoExOFIlIWxId72h3gsI7y4ovv0V+0z7q55oUf22jKNwPyB0hIkVTTLMIPC0onBlPHHUyvkmWzgSxvxC538uGfzYBmb7loxFlHNL3ViWcIsA2WnzNyvRCdVBXM66i93VZKy21Yz6xV2kxbQzQ+/b9KZbCxsJynqDzRJHcZVOdxpjWdXZgRGGghE4UfKrKc7nAUPs8bYknF6H6p6R+4nLN+0m5yTz0f3YxNhfHETYp6HuejjQedJ/0DnuLLQ6jcsz68d9uvbFcWC6MAcYAY+B3wMBmiT1NxDot5VJkPfLHVxZedYDPPJAmSYipUCI3ixD7ee4ERKyJRM18PovAZ92XMstuh2gTlW8Se2qfdO+RuxaaVBp/x23PJoymzOy/6RRdkcFo4cDYSI/LxFW49EwymUca6TmbwGfdX47YLyNn2lnx/EbSDYb6xdxrtp4UBgpG5hlqX1rvMSaUTIZv9uAJv/9oUeCSN92j71bRfFOE/9/qqV2pGCf07DwdqW9HsnQsXOJvUj34yjJhDDAGGAOMAcaAjYHbIfYRgaFATEHWZwfCmhWPLL2Pqmidz0qlSMTCJnXLkTcizjERTgIpIiTaQj/z+SwCn3V/RWKv6rBoIKKW04KESvrWP93F7jKpLFeJq4hwkpS3wgLpdh5ppOdsDGTdXwUbi8k5wok3O3bBxHry72w9EeaixZ3Gk3uXKSlP9a65g5P83VkHr47OiYph8Z8Zh2gldEYynqcjVV4knwVxmKzXrDrzbywrxgBjgDHAGPg9MHDLxD4WchSIKVJXziTr8TvSt/uPAnzhs+9MpUjEwiZ1y5G3KOjxpc5EkyAvxrfeK1cdIlkl/f9EZ8oi8Fn3VyT2yl95z3GwUyy/uF7ZhDF+Jl6EFf5oobeg/32UDWepuApXHe17pNt5pJGeszGQdd/QZyrgM/3OUnK+6qKid0xWCxDV5TuIL2EuIvYUQ3DQnevWQvjOWrjGGBA6MGVAh2h5EIdthVa/mE7JTW2ejpRuI2KfCNa19c7/T+qD5cHyYAwwBhgDjIEYA3eG2JNS4kDMJQJs6YCqVICtSULiRouyiESkyUz6HfJB9lKBiOqbypUhPoCHvu25SFUWgc+6vyKxpzpnWlO/ddA+J5lkE8YpuU3dU2kSh6kASfpG8irSd4rUortzd1WS7xEO5l9JT/NIIz13M8R+OTmHGL7S2Y8cgdiuNocXLbTtWIiFiL3OH+/l0bhwxS+EGLzryrSu8nAoseDIOjTrso12dPKvLc8xOiKw3BMZdUYWuY8Dhhfx36d+Qy5tLnnwvVX7C7/H2GEMMAYYA78DBu4csY+EfjWSJ542I1KzACA1Ca2dUmo9m4TE3yASsQixn06JJPkof6Bv07fUb74Z8HfVQ1WmtdxDnbLMkDVzU8Gzwlq6r/yrc0+a6H8jchciuOyg+sDIikNWWMchQpPT2gqn+Q7RfNrEYnEQJMdlr6Tb2yX20iq9sJxFG4kIe8j/1Z9pTQ+/tNH4e2iQZZ3Jx6GntMVeZ8URhN1OQ/ljjP6rIkqU0jUcoKEPzrKzRIVfu6gemGk0Se7GQkmkdpUy8FE+SQaYz4w3oT6hr7RzsNpuxrL44eejsdbSA99nbDAGGAOMgV8XA3eX2K9jsvnSktlpRGBgO5FnPkBfpKP0POy9TJKr8GtbHSBlvyNylQuy7hdQP9N+/eIAKpEDfr+BgZXWcvyhonLle3lUjwcYBwEmlx3UD4rywB7Py6PysoXOvyqlZHBWU7nk79fRt3LHi8wj4pAfz9tD/dxKQXk9Qkuc7Ol5MVHTsgsvmyrPvnb/iIMmk1bc4N+mllMRTV2fu96pg08NnWs/rcNE3bMwkHV/ujw2FpVzVK8fI7QPclJnvjw1eYSJgZ9wIha1FVSPkxbw4JxwYOE5EwNj9J7rHQILA/ZOTngRy1McYlV4WEBhPwfPLycO0woumijIb1l1OK+rNK4C7yejeMGiM0R5GW5skUxkSlmB41XjD37dQTiWAbeBZcEYYAwwBhgDP4eBrSX2ZMGMyawHTwS3kstLguiojCCudxIW/dTJnEVU39onc8YKCT53UHtMJ90WUROER1jsZb73gT7oykiDaNRJ+UqTdVQRd7Mt8veLhiZTxu+2m8akL0+03ZU7CDnkDxrofiHrfZxRx/z26ukY47bfWMd06k8vbCyf+Cx9uu7/NDbmyNklD3XacAmFe3RwlYfcfgnV153UwV1Zdaadp2z9BRidNlARJF2kYL0nMJuRkvRbD42DvD68bVeml41dr9w4lXKjHR8Dv3GWnQDdAw+eY5chIRN9loL/V9/YodgAntZhQOBvqFOwWQ4sB8YAY4AxcOsY2FpinyANDLRbBxrr4/clqeG/YjcgjkFxYkGeB7Boys3fV5ZO2fH4xuMbY4AxwBhgDGgMMLHnzsCdgTFwwxhQ2XP2nJlzBEkXQba5lH8+k1hewDAGGAOMAcYAY2A5DDCxZ1J3w6RuOUByB95WeYmg4YIzQ0/4qY7inEBixsW24oLbxdhmDDAGGAPrxAATeyb2TOwZA5vBwPUYnT8qiWDc6bcOakfJAPZ1DnD8LZ4wGQOMAcYAY+B3wgATeyZ1myF1LGeWs8RAiNGHJjqXISYfW2h/stPH8gT0O01A3FbGO2OAMcAYWC8GmNgz4WTCyRhgDDAGGAOMAcYAY4AxsAUYYGK/BUrk1e56V7ssT5YnY4AxwBhgDDAGGAO/IgaY2DOx5xU6Y4AxwBhgDDAGGAOMAcbAFmCAif0WKPFXXFFyndkSwhhgDDAGGAOMAcYAY2C9GGBiz8SeV+iMAcYAY4AxwBhgDDAGGANbgAEm9lugRF7trne1y/JkeTIGGAOMAcYAY4Ax8CtigIn9r0bsryfov64gv+PB83zsPm2g+yVMrrLFM2/r6H5dc6cMJxicNFC+56NxseZvb0gP4fcB2i+KyD3pYLKhMtXAEGL4ugDfL6D5r6WvjdZjM3obnzbQ+hQkcXkX2ikwfFxDcaeEzvf5srg9vMyv26844XCdWa+MAcYAY+BmMcDEfqNkI8D4rI3aQUETcw+ev4vCkypaZ2ME8+ryY4DGfh4NTZjG78vwPfGNKnpXGihXfTQOWxj+WDNwvvbQel1D0RcLCu8Wif0EnSeqDqIeiX8zyXqA/ps6ao999c7MZ9csO6nXDRF7vfAr3FPt9O8VUHndx+R6VptC9P/ScjFl6tfRD2e9N8V0MkDndRWlB7sKi0eDiMwHH+sov7w7h08FH5uo/1lU9fTmEfvbxsscuc8bK/j3CIdMIhhLjAHGwO+EASb2m5oAv3VRe+DD26+ifTFGSEQrDDA6a6K048F/UEP3W3YHHL7Jw3vYxjiqc4jBqwL8HU3sBfF/UEPfSerHaB/HpGs1kIfov7htYq/lIxYw+5rY36+jTwubSDYZcvzaRkGQ140T+4z6zKtvxu/heRtd2+IsF35CJjnkHxZQ2M/FC5/9BgZOXEwx/dpG0ST0+u/i8XgGOQoweF1CzvOQe9JA53yEieP745MyCkcDhBntWA2HPyPLMdoPhYzmEXtdxpbgZfNy/hkd8busL8YAY4AxsCoGmNhvgHCEl01l6Z5FrgJhjRfW9zI6TnI/RPP+LEI6RueZj8pphvuDIG+GNXVVwAyO7gixn05BdfGWadf3Dkq/PLEXC6xyypVk+KaA8rshAlo0TqcIPrdR1rss/l99B8EW38qjebnEIPpjhPYzYeHPo3o6i/yLb47ReeKjfDLvuSXK/6k+Szs+CxL7rcDLpmTL5aw6rvJ7jB3GAGNgXRhgYv9TJGEBIP7ooyaJ1XzyFH6sKTeB/QaGtgvEpIvyDEI6OSnBy3SdmKAriNgyBDhDLkSm74KPPdVlqXZtAVEL/20gn7I4D9F+7baMR7jyGxjaev3aRumwN98NLHpPLSAFqSeXsHmDkShfLFhTOwzRNxfoR2t7lon9PH3x75vEI5fFeGMMMAbWiwEm9msjDG7FDF/vKXeIR6YLjfvZ6VRb5T0PKTeIWYQ07KMuFg8v3BbZ0Tvti8/EHtNZcrxhLKxl8Lrqoy5dkBa0OMs2DVCX7jUNDBJtFNZ6YXn3sfuggsbJABN7QZl4fgrpDuZ5yL8ZznDTsfAd9lHzPOy9XuIdq9y1yE5+k4n9+mRp6fnGdMblsM4YA4wBxsCiGLg9Yh+M0D2i7C4e/HtFVN+aQX40ASvXDxkkKYmp474ZzHnRiP2Kyap5NULvuIbyPe2+8GOEzosidgUZ3imi9k+Gm8Ckj+ZBQT3nzEATYnLZReuwiJys2xi9PwvwvRyKb4YIpwM0tBtE4V1GGdZkOHip20u+9EREtd+zGSxaOplIchX8U5VtLn9Q/4+VP9H1MWQov2ORwrm6iDsUWclNiz3di+uWJJCT8yYqFFzp76J81MUo4Y8dYnLRQTOS4xTBpyYq0kdcZP5xBwNH5WYtWGR2oCqKOpA0t19B833T6YoT/ttEwfdReOW2escyHaBh6sLw1Ze7JtFvlox/jN0ZhWSmoSaqj3I6IFn4rut+IWT1VuBIyT+8bMlYjFjOWq9Z7Y+wpets1FW2x+Vb7xdQOxlFZcbtnsaLIj8rjiPGSeI94Y7zH1HXWjIY93sXlR0PuYOuETeS9Q0tgy9dNA7y0rdfyCG3X0L1eJi54zA5b6H6WAf27uRRed1BU9bF0o+Q1aJ4CScYnrZinX3rqfiZnWIy41EgxplSFCife1R1ZAoKMTqpGRgtofqyjvKbZDxM+KWDmtGO0mEd9WdNa6E2W3ZJnfCzLA/GAGOAMbCNGLgVYh9+FX6/eVRPtD/wdYDhSRV5TwSQGkF+4QS9F9ri/bxnkI0QUUaYh62028qXFgrkq/6lh+5JQ2dzKaHzqYfaYQ3t0z76p3S/iLaVGjK8aCC/X0X3q0pNGH7toip94AtoSX/kCfrvO2g/z6uFxFEPg9dV1Cjrxv0mht+0P7fnofpPhu97RL5UBxu/L+mFSRndidHpiODb5Gy6QEArvesggAvrQteTyLRJ7KfXAzT+m4/Cnx0Mr8xUjiEGR3nkn3cxlpbgEONT0nNLu4UEGJwm5Th8W0X1dQe9814kX5d/ONXF6YojA4l9+I+bGOjA2uAy9je3g2cjUu5yV7F0JAaC4Ey7Tdn6CPqoi1gIWlSKdwUGT1uRr3sku6sBuidthSuxOD0bonVYRfOkh/4Z3fdRPzdlSrEFDmLqqKcctLT+3fEXIYJgHBFVtWhwL3CGb1Rf9F/0MDIJs1ys9TA2fPvtwZJ0VftotCVahFtYz2rHZVOOEaW/R4rIX8fjQ2qHa6oDy/0imhe6710NdWyApR9R3qJ4+d5HJ6GzAZqHtSjb0h7tZHzroCyIflT2AE2ZkSmH6lk8FohFub/fiIK/w+89tSNj9tWrHqp+Ho1z/Z4YF/8S405yAW3LnP9vjJ9ZmOL7i++8saxYVoyBXwIDmyf24VAGifoOt5Hxu6Iktb7p83vVRUVYQVOuLNptxeFXLnx6kxN9gN6hmMxzqBwnrZHjdwVZJlm/5WQoJ9K9VECh9BW260JZM+5Xo4w2wdcBhoKUR8Rl8fSQEcE0iaHoTETObSI5HepdgRlEj941yYL45rK6MAJWI3J6PUb3zzLqH2OyQoRCkhaxwEkMBvFCJKGjyyb2hGwfWBlutBuHi8QQWUwT+xCDl3vwHJbl4LSiFk62HH+M0H3bSp8JkKi7QRRIpvZ3prSjlNYH7cZEstPfJsJcsFJDRniz9Kbanf4+yd2+yjbv23ow2mK0kRZenreHxoVBwqeUTcbD7tMmel9skunBf9bJtLzTgjUivrLMAIPjJtoL5rt3tptw89KycH+qY8/zkVhIiDJpPEn0r+XxQuPG3iHtNgQYXwx1WtEhmvteOpCdxopozBKxLx7yf4+Sk4UV6D75UIb3Xy2MDD2JoOT2Iyb2Ntb5/+5+zXJhuTAGfh8MbJzYE7FKTbiJSde0oFOO7TTRHr7ZlSQtaYkM0D2ooGulP3SSAlGmJt+l97GrjApEdQQaEpnzDAsj3bOIhexEmyD2FFSbICoWgKmOFkFcXhdkLdYLFeHv/TQrRaciuP6rtF91tHh51o0P6yC1xgAAIABJREFUicqo4zQiyvWU20EmsdcuJr7VXqkT2kVJEXJLZgkS5fiN6pv6zgxin5FRiORhE/5oMWdhKxPLrjqHAzTuzw/cNgd9kaJSno9gLrCjBVYhtbulSKZYODtiQ3SdqI2e+U1XfWfcE4sDf6eGXmDow6kHQXpFhikX8SW3IGNhtAJeqD31T0ZdqO4XDfjmGEH3hWuedNXy0fhXvKcNDvdr6Jm7cwLzJ/FCRbna7aH2T9LVbnLSSfUJU4/8t0M3kS74N8YHY4AxsJ0Y2DCxj621KRIjB1wiRR5Mf/HwvC6JRiL4TgSMPq+iKnzYTWu+yPLhSOuXSYaIfBskMCKMchJWhMX2a47qT8TCeD/qLEQivWR7ot8dkwwRBs+rLkBgDEv+0sR+NV2QbKqvRQrP3ZSbSNw2IjFu+Sl5GsQrU46ECYOIablRXWyLPVlTE7swJGsqJ0XIl+zgmd+ZX98IO7pOpHP7fkTsrbpmYpnaGF2FK1RhhVSTMTGOdluovRk4ozZ45mItqscU0e9WW2K8LCl/4xRkiSXzu2QZN+9FdUnrZxW8UHtSOpsabZ0xfhA2VWyH2k0sHXUwSBB8LZNwiKY4A4PODLhIEvyVZRjJZEnZ83vJHRaWB8uDMcAYuEMY2DCxp0k12zWFyBpNfGrSSrvdjI8r0lVGZZ2JrfnD18WUC434RiYZShF7XUcKXp2nLCI8LmJvBM8mXRCyJ9LhK30CqLlYEXWgcmyyQvczCJeUHz2TqONquiD91N93lM84xTLYctJlLho0HLUvUUchJ6rn4sSe6pjEkJY5ycKWo13/ef/P/M78+tpkMJMkZpSRiWWrzuOTCkoyiDsbb1mkULkHGQuvoIeqJKppPchvkEtMhlypjXZsQ1b5mfdlQGoRu/fKKovPV8e5BNSnnXVJ62cVvFB7bF2KeqvvWYHClm4S7RO+/zLoXhB8FasyMncl5LsBhsc1FHQwvjjMrvM57f6W+O6sMvk3JiKMAcYAY2ArMbBxYi98SoXlyXR9MScjmmTtLe7xsfK/l243wlp/2FUBdLSNLqz04v5/3GklM8kQkQCDUCpf6LQ7j1nP6G8iX8b70W/TKaJ0lwstFGI/5hQppXJssjKPcImOS+8m6qj8e5fVBelHEBoZYCzInvPgLZ1i8UDrad4A4qzjTxJ7w70q0gmVY8txXv3s3zO/kyaOVLYpO7onrpkkMaOMTCwbdRS6Kf3Eia+yTgm3GUrF6nLFMTCWIVdqY5ZF35RH1t+iTSJzUfmdDp4V7XXJiPr0f1w+/2n9kF6cY5Lr+7N0Np1CxRPExoas9qTuTwYxwXf2KZW5ZxAR/LwVB7H8Ai5VBwND/BvLkzHAGGAM/HoY2DCxn4IIuuckfNrnNAouMwRKQW+P2ugdl40JjSbqIhpHlXTAmp6oMskQkQCD9FId8xnEKPzURpey6NDEb7yf6AgyEFcsZuxgRKNtuo6CuMgAUlegI5WTIk5EuEoZJ9Ya5MeqI7VzGV0QCSJLJflj+8/aVgpL7c4hDjJKBGFSu0MM3lHgYXYdV7HYRyTShbFMOVK9FrxmfofwmLZs27IjnFB9SaZ030laI4tw+vv0XviljdqrQWYKSHou+xqi9zwdeEqL1NSiU+BXW+wTAdEGSaQ2umIusuth6kKnjrUXyC490D3PtThP64fq5uwH9C2r39E7KZ1NpyDXwcxg4m8dtM9F2ybovEufPTH6WxkxKJPW5KSdTBMq5PqlhaJYVCcWX6a8+O/FcMVyYjkxBhgD24WBjRP7qXESa+NfM+uGyNKiDlpyH35DQbSWT71IPUiZTlwLAk0ulBXeQYYcxH4akXErheN1iPF5A0VzV4AmfkeWH+ossy3bGlDBQGYL8nYqUXYdel9eqRyLYEyXSXcZ1THA5HuIVXSRJqcqpaWw/NtERmbFEeRD5kYfIqDDj36M0X9VROk4DlieUjyCtfhYhdjH+ttD/ZOFMSrHluOyWXEomNTO+vNNp0UVrlHfkoNFWnbqd8oYkyKJGTpX34kt5+H3SUTiJam3sutEOLoeo/MmPmVWZG8afE27c0jLuMtXnvqFY+EpM1r5VfSsoHUqm1zMkkHzS2TFIVnY8v7cQkFgTOsz/CH0LQwEyqVt76V9LoEjeJba5S2OFyL2yfaQvlVWHOUT30T/G2EwRHDZQVVkfpJ9QSwyzEQB+v0vLZnWMyb2JRRT52CM0PovJvaEL74S9vjKWGAM/O4Y2DyxFxYtkSNeTMY7FbQvNbEQvrPP8ylymFCQtAr66ZzwekGQCK41rIVTmRlEuQBVT5NEhqxj3pN2Ig/3+B+Vb11Mzol/lk/55ENVZRDxq8m882b5os1f2vIwHm+/ivbFGCHl/A4DjM6a8uAh3071GH0jxPiY8tuX0LYII1kIna4E4hvkruMX0TjtoXPUQPe76vxL6SIYoPlQu1KZpPy6r0829ZB/3kHsHzxGj/L8W3K0FwGTE52G0j6XIOihJv2K91CnPN6iTVd9tRAS3zXygBNexh8q+hCjPKrHA4yDAJPLDuoHRbUr4uVRedlC51+FB0o5KTKpRAGjkfxdA2VMHvMHLXTPhVwrqH4YoPNEySh/UEfzWFvOr0doiUwtwg0tIbsJOgfqfsE4jEq0I8qVf7+OvuFzTXXNP2+jd9pC7W91iJUk5L44RbaAwkP7nzrUKc4gRWlSfRT/6mDwLUAwGaH3toKSOHeA8GnJgPBink0wOasjn7kzI2RHbl/JgHCV7UW03cgyZZVH+pxOR2jJE3c9KHl30X5RRe1VTRH7+zV0TptonOrA0m/q8CshbyEn1b4hOn9VUJTnDIjv1NF6rw63Wgov1xN09cLBP+zqFJdJjISXIrhc6TUxfiTkpHcP9DgoDyITuflFjnrDFUctIkSq3nhxPF/myfrEcuT7LAvGAGOAMbDNGLgVYi8FOunLE1vl6a/yBMkKGqeG76xzgh+j/cydj3v4uuxIwxens0xOriIo0JW1JWnRDz4bp1z6uygetqLDjmJLsjV5pyzORgcSB3GdNlF9QqfZisVNHoWDBjoXE+MALuMdslRaxDhxANJUu+NEFnnjfS3H8T8q8M6/V0H7C1kQ9XML6IIslGk5UrBgUg6xu0aA0WlDnyJLJwybbiLkGpF+31nm0f+MiHOyLrHVljps8Dk+rVOcbCxOVA2ExV6cNnw8wIR2EMTCa+GTZw3Z/hii9VSdaipOtW3JRYJoT05iJcr1TrtCpg6FhdmpW4FBt0wii74o90lOnstQPOpLa334r14sm2Wk/k4GdIrTfcv6VF7P341wSPLLuobi9FfdbvVeE31XNhfqw3p3I3XI2LInz4oTXh+JdvvYfVxDR+J4gu5Bzn2CNAXaCoIt+u8LsegcK/28aGMgdq2ojmIhtQhenDrLSAaQ6Fc55A8a1jkJYlGXl4uw/I7Gf1TPGGdi0ZsXCzV5ErN4Trefg2cT+jN1yX/H+GFZsCwYA78XBm6P2BsTKoPu50EnDrHxZ7gisYx/XsYswxVlKPO6JxfNLMsVZcnjJpN5xgBjgDHAGJiBASb2M4Tza5GPMTrPfMSWciYOv5b+tlVfwmUpt0Iu/W2VB7eL+yVjgDHAGGAM3BwGmNhvDbGfYvpjgMaDcipokzvQzXUglu1s2Yaf6ij+pdyFWFazZcXyYfkwBhgDjAHGwM9igIn9NhF70RaRXedpAwMj2PJnQcLv80CzEga+dVDTMQArvb9tfZPbw9vnjAHGAGOAMXDDGGBif8MCvh1CE2DwtonerIDGrWw3E/DbwVta7pOPLbQ/6Qw1jDWeyBgDjAHGAGOAMbARDDCxZ6BtBGh3hXByPdIknGXCMmEMMAYYA4wBxsB2YICJPRN7JvaMAcYAY4AxwBhgDDAGGANbgAEm9lugRF5lb8cqm/XIemQMMAYYA4wBxgBj4GcwwMSeiT2v0BkDjAHGAGOAMcAYYAwwBrYAA0zst0CJP7Oy43fZMsAYYAwwBhgDjAHGAGNgOzDAxJ6JPa/QGQOMAcYAY4AxwBhgDDAGtgADTOy3QIm8yt6OVTbrkfXIGGAMMAYYA4wBxsDPYODXJPbhBIPjGoo7JXS+LwCAZZ+/A2Q//D5A+0URuScdTO5AfRIgm/TRetnF+K7V62fqcx1gdNZE+Z6PxsUCmPqZsm7q3dtsw/cuKjsecgfdu4fXm5L3Jr57mzrdRPu4jPkWUu5b82UkcLRtcrrR9ozRPWphcPWLznU8bszsE78csQ8+NlH/swjf8+B584m98/nvHZTk++Ib6X/+vQIKBw10Lm7jgJ0A/Td11B77qm53jNgHHxuovh0i3KKOFX7uoPFXBXmNhVsl9hcNJyYFTmfV69bbcKOT0O85+dy6TqmPpzCZR+MizJxYJiclB4YbGND3+Jopu4QBheTEfWsxeW2bnG68PQH6L8uofwwWky/hka93Xl6/HLFXA98Y7YeLEftZz4df2xHBL70ba2WFCC47qO4rwp//q4/gNoD8tY2CIJobJfYh+sfZFtfwooHCi/5Wkfp4Ig3Rf6F0PotAx8+viWx+baOd2iEIMX5f1otXD6Xj8YIyv6U2rL1/jNE+Htz5wXPtWHDK8XZ0Gp630TV3Q69DjM8bKPraEOKX0fk2qw8EGL4pwvOr6PIJ2ArLzr4+S4b822b62O8g56wxdYzOs8LMhTrr4NfDxy9K7CfoPFmG2Gc9T/c9lE4s6/zXNoragpv6zTkBr1n5tKuwSWL/o4/aswzXn28dlP0Kulu8dTc42jyxH78rui3xpP8FdqXMgfc22mCWv5a/Rd87YmJPsty8TsVioux2c/zcUgYHMTbuNzD4MWPcE5b+TY5fmxiXf6KMzL7+E98kjPB1Bg5ZvpjOGlO/dVCau1Bn+f5KfYyJvVwgOIj9NCb93sP25v3JidhtbGIMMXyVz5iIlSz8v7bVWq8GrY0TqO9dlP0MFxvS/29H7CfoPvPhMbGPdiw2jcvw3wbyWbgTuHxYRlnvaPrPOtljIxP7SIfC/zuzrzPxjOXEsrgBWcwbU9WuoP8se7f+VyK1XNcpmNhnEvspaEL1vFvwDyVityFiH3ysKx9zR3nheV26hdQ+ZvvVbkNnIn1vxBXnxwhtQWCzfOdJ/1kEK2MC3GgbMuqwOhZCjN5pFyQm9tEEv1GdXvVRl6Q9I35J4PJJB2O5g6d2uPJHA7erGBN7pcN5fX3t/Yitq6uPQdsmu8XG1PBjDZ63h+bltrX/92zP7RD7HyN0jyrI72h/zZ08SodtDAO3EibnLVQf7yqf4508Kq87aP4n2xVn8edjq3za3SZA71DXL7LYh5hcdtE6LCIniccYvT8L8L0cim+SAaWJOng55A8a6H7OCFK5nqD/toriPUX0cvsVNN83lf+/Jtp2QFpMPgdoaJchGQjsIkRBUt4iOLjyuo/JtZB3iOHfJeTMb+i/VRkkh/J6fGVFhqKTBsr39Fb/1QDNp0q3/r0iaiejJEm4GqFvPB9etlDa8eDfqyR9gFNtLKL6ltqYxlXwuYvGQV61299F8UUHredK36rdllyNBU9SF24ClNL/kxo6pP/vPdQe6OBoU+5GGdMFiP38NlC7QwxfF+D7830pk20zdxMseSRwFiL40lP9wmzDdCrvt1+UsatdvMIvHdR0X849qqEX+WlPdF/SfS6Si1u+a5+4r0boiT64oxbxsp6PcnLhJfvjJ6vvLojLhI48H7uPq2idW25/BrFLPL92XAYYnTZQ2Vft8vxdFA6a6GsfeOpbqYQCpq41sReZukTMjQo491E+oRglwtwU0yxiv9D4n8ZU8LmDGunExE4wQudFEbvC/9/fRTkruH/SR/OgoJ4TunjaQPeLbayYoHuQg7dTQTfCptEmQ1eEQRPTnpzL6qg/a6pg4Xl9fS6O0nJQ5YaYXHTQjOaiKYJPTa1b0bYWhk43KQsDUT+L+108t8xuN7V/peva+1uWnKgNVrst7CfasBBOtmxMFe44AgtbG0NHOPg9rrdA7IdoCovQkxZGmshP/qlhT4Dqke3yEmLwShCSIpoXemK9GkaWznRWnGWfn0HsI2LlIf9miOl0gv77DtrP8yrjw1EPg9dV1ChDz/0mhnLQD9D/Kw//cQP972rSCL/30ZBZbnKofLAmwB8DNB748B83o9RTwWVbbtvKCdYkStcjtB6Z5DMG6fhYZ6IwJ2FRn28iDaGP8rshAk3k6dnk1psmbmZ54v2wj5oc/H9+1yL83EPnuK4D8EroXPZQ3S+j9rqJ+h9igaTapuQ9RXjZRfeEAvZK6HzqonZYQ0W7AVT/UZgQQdBlP4/qiW7jdYDhSVWSDv9B2g94/KGCnJdH9VQHpYYT9P7SerUs6MFZTdXLlkvQR/2+qK9NPDUG9+voaf1PhRVUPptH49+YSBCJdk6kEf7s7yudL9MGgV0Vk+LBfyWwHOPG+fdSOAswOO2iQ/Iz5DQ666LzSmewetLB4J8aqi/a6J730aX7dp+ndts4nlfnn/h9ct5B+y1lRWpgcNlE8VEV9ddN1J5oEuz5iPC2EC5DjI/L8Per6FzGY1dHjh8+Cq/SVu5ldLo8LseSsPrP2hjqOJkoeYBfTiyS1Q6BG3dywWnoeHxCQd6OTDlOYr/I+J/GlMTOUQe98x7a0pgifPybGE76qD+toHnSQ++kIRf9nuejfh73M4FxuQjZr6L7VY/JX7sqQYJfQCthpYwXsOUP2QuwqN9c9VD182icax1HY0lyvHT19fnj2//O6FtCPsm5aPi2iuprLR89R6VdJ0MMjvLw/DLa2sgQfI7nmrRxa844sWKfW39/y5IT1X9x7C+Ok20bUwn3NfRDkhtfo36+ItZv6/3NE3sx2Hu2T/sQTUl86omUaOGnOvY8HykXkKsuKpIEJiefZZ83CU/pXWwpDr/39Ha0hxQxpGw196uRRSf4OsBQW70mH8REV0T7q9UpRGCqzCiRN7a7Qgxe7sHza+hb1pXgtKIWEMYkKkCSuS2v5Zr0TVaTqG+vwnUaLf9BC6MIsBnE/t+Gm9hG71ntnHufsnzsoXTUS/jnxiTBlF/8fPG1JkPXEwwvxipbUThEY99Dqo3TKUSwmsCaf9iLMxtpy0QxyoJE9ScMmlZqkRtZWzIsPcTYSWIw+Kfq0L+27ng51M40AZhO4Zrso4GAyk0tHMRiTdVp4TYIYvOli9bbLkYWzqLyLL0th7O4TqlgyaCHquirOxW0E9bRjMxW1O4NEnslA6pPAZVjc/dNkyHRBr9uTHqzcan81B1j13SMtlycxwsFWf6yOiU5LYjL4RtB6OxxRlunBbn9TP2AxpgkriOciHITZRryuV9PBtO6iP0S4z/h3BOL5ERmHSJVvtwpTWQtu9Dj1Usj+FqS77SbgXI/SBuUgk9tNI8H8Zhh9Y1IFqIPfyjD+y9zHBVyFDqeT+zVd2bjyMRGqm9dNpVB7EEdfTOpQZYxRj+/Jw1Vsb7Hx2qc9DbqY73e/jZLTgtjf0mcbNeYOkZHekGk+4mJd/477jd3WRabJ/ZfRQR2kuC4SZKeAP3kAKmESSA0J59lnxcKoglCuHYUUHig3X08D7n9ktuVgyZUc+KIBn5NDiPXnSQIhq/3FNGkIFSdecd3kRjaGktMojTpWuRTlO8g9uQbX/+UrIcbkG5iLycuQWqseri/sUg51AZTd/QekZ7kwi+yIDq2xmkBlFr8CZlEC0BaKITo/yVcYFxlTzF46dgNIX2n2k/YMb+l6/+fGQGFEVZWJfYrtMEoc1G9LU3sM+XkxpWoh1Ov9B1Xn1ihHYu2Nx4LHONN2EddLsqTh5c56y/rGKB7ILDktn4RZuMdyhV0SnJaBJdUf+eYRX0vvkbtMtNdkuxFuakyRco85VqWCKZ1EfuFx/9Zi2rCjmMcdMhFLqD9ht5RjdsZLdq91d0MxUJe+CbX/kla9ycnnYSRatYiPpK3Y3yT+HW0KXE/1VdobEoaysbv1a5uyjJPxqqUXg1Zkf7XdqU6rqO/6Xq65LQE9m8SJ/F458CsY+5O6Dell5sYU0kfXrQzKeuwNn3fJJb427auNk/sE0BRfoIN7WOdIFwzBxsCoUGqln1e1oO+kySStpAS/6fBIzWYTmVKqZm556kD60lm/K7g2L2YMUhFZGixwWH4RiwkDBklZG93BvdgQRPSZoi9sLIrmZg7D9HElyIaZO1yyMPSr9xWz7Jkabmocqxvkb5Tgythx5AvWadd2HDInmS7lCvOKm1wlJ3AtON3pyzEc4Rhu42ZcnLjSpTvLIO+Y3/fUcd5bVjud9Kng2hMY5yZpCgTl3N0lCKUc56fKadFcKkttWbdZ8kms11CB0I/qTKnmAqXQu0iFwXTuoh9Qo8zxn8qK8Oo4JRJxjv0bCp2QHxb/3P2wURd7fFS/z8coqnjZXJPsg81nNXXZ8o7o01Sf5l9hbBsjE1iB5OI/XvLHZS+s1GLPdVxDf2N9ETtMPG5BPZvFCdZ452o+50YU0kfS3Ahkjtf57u3blhGt0TsA4xOaije20X5qIPB93E6Lz2B3eykkXAIhMbAtezz8lv0nSXATIOHi3jMrINhgdJZdmggcU64VI7VfnonNRFR2Ua91LM+Gv9mTEqRPMXvbgJGE9KmiL2ygHmJdIeqHYauo3rH+kvJQz9D8pIyJplmZDmiZxPfoncsPcQWXqNe9OyCEyTJNlEetY2+ZS/MovuuCTGDLNM3l7g6ZSHed+AsQTJScnLjSrzjLIPaZ+B4Fgld32+EJbdc1SI5OU6o+hv6J/lSGzJwFvU10u2c52fKKSVvaodRL62zheIrIr0Y71O7xFXUNVWmHl+iTDk6mFaU63x2gfGfyvppYq/lkbGLuh78BBge11DQh3f5D4xAeS27WX09E0ckd8KHLUu6n+orDgyIb9HZLAfdpJuRJr/FY4vwU/k3cqU6rqG/Uf1IHqacFsb+zePE2Y9F3e/EmEr6SI5x6+kfi/APfmadst48sadg0WftKHjWSZII7E63BgKhMfks+7wcDOg7S4CZBo/UYDrFlPzRveQWaKQwele3iTp6ybagiLrRs+YgFU26llU5Y3AYvlLb486Fg2y/2ZncBCwi2lY9ojalvmN+0/33rImMyisYPvDZz4v8vMrq5pShIS/pjkQyzdAP6SNBtOmdVPsJOwYGJ12UBRFxuo+lZTFrso/0T+SP5Ez1WaYN9O4SV6csxPvUz2z8U71ScnLjSuDHWQZ9x/7+EnVfDZukz9lEw3T5ysQl4UDozuleoWVCOqQ20/+tts6UU0re1A4DlzQupZ5NYzLWi/G+WR9R1xnfiTPl5NE4qqaJ/aLjvyiT5OIozymTjHeUi90GDte7nmAQEfxkMPGsvp6JI5J7lhzofqqvODCgv6UCtH2U3+vEAYFKuyvirVTyBzcmVutTs75FdVxDf5slpyWwf9M4ycTsnRhTSR8eFgoaJ5nz9c5Z60Vf3TixHxwJslmwgksJVMZkQoOW5xqQ1/C8BCR9Z03Envz5svLBWpYRGuw924Ii6kbttya1ZQaHKDhMZI9wdcDLNtpRRogMAqbr7DkXWLMG7uzfVBtsDKjnlStOMoBn1sQXBX65ZDjVqTqjoMcBGtKqlvw+TVpO2WbowbkYFUFzD8VCwwqMjGQfoHccB/KS/hMLCXqWyrWJvdhZWbYN9M0lrk5ZiPfvxCSUjS3S5fJXGgtcfvHkipMci7JxGceKVE7jYOmoTtplK85asoJOCR/W+ODEZeTqYwbumzIcon0cZ0vKbtcci73GVxwEn47NWXj8F9/KbGPGojDjHRojIhchXU/SR/ipja6d7MB6hp61r5OTthFQrWX6paVOLTeC9mf19ZnyzmiTrAfJZwliP/0xQut5BVVyfxXpo48WD6q327/6/9fZ37TcSR5mn1gC+zeJEyGnuz2mkj4W3eE3xw/+e/V+cDOy2zCxJ/BYxEqk15OESBP7HyFCScqUxXnvpZ0azhU8K0jcMs8LgVJ9ViD2dqYZPRFEmVgc7hhy4PCr6FEGAxmFL4jgHuqfkunZoowQ5iAlM70oH/QkYQgwfKMzG5gBcuEADZltyEP+eRdjme5SASkU6d4OzPSimthHW9YhJt+Dtaa7JPDTAGdaP9VvlAqvA5EnO/m8eyEwNbINmakk5bt6oUXpM8U9mSFBb++PjTLEb87gWZoYonSmul7fdLo8yypLE7gnUrT+a5C66wCDN6VEGj56NpLD1QQTSjVGk1SK2K/QhhWy4lCsw0I4m0U+pgPUl3GnoHZH/SvARKYNnaD7x67MxV/75yZcBmgscOBM99M96yAmhWPH80LeH3Wa1P0GhqRTjTcV1J4k2TeLS5G5RgXueyLlo7mLEI7RfV5JGFrsdoXfJ7Hrhgjqn7vINzLlJMYvkvEi4//6iP00Gmd9FP7sYHilx9rrEOPzBor/McdBkQ9+iaw4JyWks1ON0PovD56D2Lv6ui1vGveiK/WJhCyNTFQLE3sR5FxE60s8tkZlWGOhmBt/pf4m2+GU0xLYXxIny2bFuXtjqomDoTYYuQwb5nP8d3afuTuy2TCxn2L0VucL36+gddpH91jktm6gJon9Hmrvu2ge6aONZQ525WqRf97G4FuAYDJE568KikRYD+povR+qiWfJ56M8zjIlYlcf2DRbOZMPIp2hcLeoZhzYRBkifBRe9iKiNhETiMh3fJEk8GprVLQxj+rxAOMgwOSyg/pBUaUy8/KovGyhQyTxsqkOhfGLqJ/00D9toXrQxOBMpREVhLL2uoWetkDFW+Pq8JbCwwIK4oAav2y5CVC6R1GPHrpva2jJnOtGxg6TEKQmgtlyMzsDEXtBMqIc35T/2a5XMERT5+4Xh4AlUtsRUaKDckRKRcoZLg6teZ5HIkuHeF67Asg0mI8b6H2ZIAjG6L+poqiD//zHNTRfUyrOeMGYP2ihe95D56iC6odBlBs+f1A30uOR/hVuc/sFCJnaQw26AAAgAElEQVSLw3NsiyG5HYkzD7pnHTQI99MQ4/eUH9zYNieZL90G0u2CeexFOUviLMqrfr+OvnHQnMCfPKPCq6JLC1rxfSNXfsn07aUAZL+IxqmQdUPlWKdJW/Q9r4qeUYaJrdX/JtLpJc6gmNK5GfvWeQhzcRmT29xBnDteHLJU3Xcc6LS0TpfEpfi+xrfYUdp9IHApDmhL14XiCcSY2zttofY3pf8UuflFZpUS2joffKa8dRpa28d+mfE/C1PT6zHadGK4iR1xINpHkSLZg2fhcPyPOteCgmWja2q80elZvcVcEtTiPCdTpAZ6ATc5E6d4J8f6zL4+F0dTZMlhcqJTIj9sJRePQU+nVt5DnfLriz4n3VJ8FP5oonPWR//c+Hc5RmCmwv3l+lu2nMzA7nnYXxgn0y0YU2k+EVdyHzQWo5l923yP/44MkHdJXhsn9iLHb+9FUZ74aZ40OjkVhwblUHxBhEoTRetUQXFC6CgQwbbi2TYGdAgQAWyR5xODliJg0UCfsn4QYY0n/uhZMYE4n0+fclc8bEUnPNoAkCcq6tM4SSaBsIztFFE7HkSLA3pv/E8NRXFqrzyZUlviRf7me2U0TtLPT7/1rFNWY6JB3xTX6OTJnSIaHw1rs3bHiaxNJOsVr4rYl9A6i08hVW0RuiV5G24fksyRngx3LbP8SV+efCpPn5TpSitonI6cC4GpOOn3NZ18LE4FVqdvCjeB3adN9L4YbRdl/BiipbeuxSmkLbnIEnjIQeg19fxUBNNZJwmfaZ9Ws86iL8jDdnzs/tFWOebJ1SXRZtX2hMvOUm1Y/JREEw+L4czdL0RdowWc2RbRX1xtNKyRolwRiChOF45z3w/REge5PSijtH8T28XUjjq60QmeIv++OOnaOsHYVX/HzoqQZeoE4nknUN8kLq/H6EUnfotTcGtok8HAxKXAuzyYK4fiUV/2IdpdSox9GW2OMCSCafWJw9G9hcZ/0gX1eXWVsUJO2Qs/bfc7Zp9Jnep72IoOBYzrt9zJs4Jc58lYInGu5BqdMh3JddG+bo5vWW1y3xfyceqJ5qjv4kDApEyT+syhFJ3a+yv1N7c8TN2LxeBC2BeLQ/tUcidOtmFMjeda5babPtgt7hfxs3zv7sviFoj93RcKA9fWkQhS9RH7BNu/L/d/IvadVPrK5b7Devo95TV4mRWU+jPyIHLgDuZjrP2MbPndu4GfAIO3wsAUYHxpWOuF5f60jebLCgq+ubBQeuP+tv34lbEvhnHlbuB1++V+U3JmYh9ZVBhEM0EmU9mlB/2Z72TIlok9Y20V3Kh3hmg+S/pEr/4tUw9M7NcjR1Om/PfdkalwDSskYnxcdRsc2Ytm7m8uOW3VPRFbsGO75nLf/ZV1zMQ+g3z+ykq9qboLf+nCs8VOVZ1VBxWkak8gPJDMkhn/JvARYPCqZsWGrAs3FJCfkaqWx4k76UvK/WIx/KuAbR+1M8vN0MT1VQ/1F3HWLu5vi8n218ZgiMHLYjIWw8QE//1LjntM7Bm4SwE3+NRA+dXA7bu+iCyDAZoyUNpDImhykXf5maV09WtPONakGgzQfttNxmCsEw+TDirSR9oKOFxnGfyt3xe/t6174/Cw3cdV1N920KPgWeGG86KMAsX5iLpyf/stsDo+qSXj6W4bp1z+WnDHxJ6BtDyQrgZovenhfx7NCsRy/Pb//PfoCPc4aIt9mreKgN96fyKXGgf+zCBe4+//oTOsxJhM519nHVkLrVvXM9dnaUwGY/SOa6g82FWZ3UQf2MmjdNhE52Ky/DygMeAMkjf6V6JfifsFR99k/+6V5b80DqTeJuj/3cZgwv1oNfndbbkxsecJasMDyt3uENvYyblNjDnGAGOAMcAYYAz8HhhgYs/Enok9Y4AxwBhgDDAGGAOMAcbAFmCAif0WKJFX4b/HKpz1zHpmDDAGGAOMAcYAY2AWBpjYM7HnFTpjgDHAGGAMMAYYA4wBxsAWYICJ/RYocdbKjX/jlT1jgDHAGGAMMAYYA4yB3wMDTOyZ2PMKnTHAGGAMMAYYA4wBxgBjYAswcKeIffClh+bTXfhHAwZXFriuJ+i/riC/I1KG+dh92kD3SxjJK/jcQe2xTme2U0T17U/knM+qA90XdXlbR/frdq2CfzscXgcYnTVRvuejcbE9upycVpDzcqicrp7KL8vCFVy00fwwQkh9ga/RGJQlM76/PX2Ldcm6ZAzcXQzcDWIfjtA5qqOyr/PbrkLsLxpWjvQ8Ghcx4bVBODkpWc+Lsm86p3qA8VkbtYOCJuYePH8XhSdVtM7G8w99+jFAYz+Pxid1euD4fVnlI/ar6F1NMT4pIydOhr1WB4w0tDzzb4brn3Sv+mgctjD8cXfBbet87v/XgcO1EbwBGlm5oFfpHxn1Cj930Pirgrwui4n94ngOv7RRMQ/1yZDxXNzxe+sfn1imLFPGAGPgN8XA3SD2Wvjhx5oi26sSl+sQ4/MGir5eIPjlOcfPBxi+KcLzq+j+9EENIfrHXUyygPSti9oDH95+Fe2LMUJBvsWzobKWlnY8+A9q6H7LJhbDN3l4D9sYR2WEGLwqwN+povf/9VD1PdQ+GouZb11UdnwU3q6Z2IsFxoMa+ttE6iOZTvHTODS+tTipG6N9nN6pCr92UCY8P2ljHGbjY/Gy7G+E6L9QfWabiP3q8rDlM8X0axttx25GeNFAQSymV9K5oxz+DpMRxgBjgDHAGPgJDNwpYj8lq/uqxJ4E8bmFAlk79xsYzCKgosx1nHr3o4/as46T2IeXTbXYmFWXQFjjhQU/azEyRPN+9omYwT9VuSi6eWI2RueZj8qp2jVYK3ki/d32dV04XKYdX9soOnEfn6RaOlm/Swnpj06PvHn8/JpkdvyumOGmFGLwcg/5owG75SyDd36WiQtjgDHAGLgRDGwnsf/eQelhGWXtiuLPsqithdiHGL7KuxcIgvBLi2sezcvZpEZYin2xINlvYGhbZiddlMVvGYuQ4St/I8ReujD5dfTt+m1TB904sZ+g+8yHx8T+RgY5WrysfP3elbsmmYuer20UvDwa/xq7ZdvUH7gtdxOXrBfWC2OAMeDAwPYS+ycdjL/FbgyZFrU1EPvgY135KDtI9/D1nnIvemS60GQRfG2V9zwUj8dJwIrFygxivxGLa9hHXSxSXvS32zq5UWIfYvROx0owsU9i3jFgrUzOV/3WjxHaYtHleRkWe9GXx2g/9OAddOfHyaxaD37v7mGDdcI6YQwwBu4gBm6P2AcjdI+M7C6Pa+j8rdxJXJbL4HMXjYM8ctLFxsfu4ypa5xmuCYIEa5ItfGBVYKCP8olFloVCZhH7RB09+PdElpk+JuQfPw0x/Luk66T9+mX9iAQM0ND+0YV3jrIdgBi81N8hX3oi9Pq7gmDQP+GaQYSe7sVXKxB40kfzoIBdWZ90Np3pNMTksovWYRE5STDH6P1ZgO/lUHwzlESe3H3KHzLk7mhPJhELJxicNFC+V0bn+xTTq4HKiOQpOddOrIwj4QTD0xaqj3KKYH3rqZiFnSKapqVUZuqponhPkTFvJ4/KURejIGMxldCxwFUah0kZl1R9RVst3bhcZSbnLVQpS5GXQ/5JDZ3P5MY00TKOdar0Z5QxneGKczVC77gWy/DHCJ0XRaXjnSJq/7gxl+hL/i6KLzpoPVd1cFmlJ+dNVB7oTEv+LspCnuTeZslA1l/3vWSAuoXH7yL+w0PuoDvHP90KIjYWz8nvmzKj2BWFl4ReJO6aMY6mAQaUZUq07a3CusTtd40xo8+Z7TOxrfptAe0tyxBltpH/zhhDlhn3+FkmgowBxsANY+B2iL0M6vSQf97VwYAhJmfa6i0m0YTlMsT4uAx/v4rOpSZEV0N0nudlusfCK4dvq0HsxWQkssVIFxexXW5nyskg9uHXNsp+HtWTIQJB5K8DDE+qcpHgP7D99jX5MEiHnAS/aSu756H6D5G52ZPD+D1l6yknA3qJQNllaIAQ+XQRM7m42a+i+1W5CoRfu6hKf/4CWtI9aIL++w7aUqZC/j0MXldR+7Oo5Ha/ieF0fQGW4eceOsd1HeRcQueyh+p+GbXXTdT/EIsJRTKjbD7f++ictFWdheX0bIDmYQ21x4q871HWn6s+6vs+iq/6mEhXoRATCqbeqaQDk5fBYdDTLlUWgZwG6L9UuzIJAjnVgc37dfS+axcNUT8RJ2G7bZBuE7gnnGQQ+y89dE8oULyEzqceaoc1tE/76J/S/WKKaI4/iBSQeVRPx2rXJZyg95foSy5iH2JwlE/00/Ep9YEWhjQ4Jb5RM9y0AnQPzH5ObdILalmmhXP6pnUNzrSbmo3/gGRq6OVqgO5pB3XtihfpRdxP4GiI1mEVzZMe+meELx/186RLDS0gXH2LyC49s+gCnt7jq4EJS+csG5YNY4AxwBhYHgO3QOzH6Dzx4DlcUyK3FYPghP8Ki7ufzPYiJ4Ax2o8EGfHTpNki9sIaLQiKJC/368lgWhexD4cykNV3uJyIIDrxHf+wZ2y7ZxB7cumYuY2fVBoRBM8ziIpoL5E/m9joyTCT2F+JbDl7Kf/+KPOLqQfpK+zBu1+NSHDwdYChzBg01LsPVr1WnoxpobCH0lEvYbWNF2JJYjp+V5Cy3zskK2+A8cVQ76BoP3WzPbpuceyCWKCQvJfD4TSynKfbTzqLCOR0CrG74XvJ+gscDl+rXZDambHQI90auI8HswxiL9sRoHco+kAOlePkDgfJyqzTVC80i6ndo9gFzCSvsg1yUUcyE1fSm+0upoKqRd/Iv1JW79kZYwIMjpto69StcXvNsoy/SUYp/JN80nqhRXJCBtMphm/UQqzwsm/04exsSKRfUzap+n6qq/ElMS4Y9Y9wx/dSsmPZsAWTMcAYYAysDQMbJ/bheV1aZO3JVg72NDlGBEdZ/DzPtALGE2NwWlGTqU3mUsRevBMTj0QwrYPY03cTqSMJdFddVKSl0SRtd5fYS1LiNwxCq+VHRMkzLKZ072U67eKUgnftBQfJZYWrWoykCZn0WZaLNg8mTohg1T/FGIhIwmUTe54Ht8WUiGtsjV0Oh6K8bAJJ9Yrrqhed/1kwDSLJPcK92T4qNykLanemDPWisvSe3HFC9P8SOxwueU9BLmAxeVXl+q/SqVKpvd4zK72rESjeOGmjnNrZMtu15N8koyWIPdUz1osqk+7HbdV1oTIs/Gc+b2KeFvGphdCS7TS/yX+vbaKj/sJXxiNjgDGw7RjYMLGPrX2pSVVMYjQ5EsEJ+6hJEm3559KERxOxSU7Fb+J+igBMMZUHPCmXgyiYNkXs59QxIngeYl/zDGJvuOLEz87uVEQiPK+KnukXTm11tWs6jXztbbmSJZ9cLVzX6B0qg+RPciaZSl24ieEqHSWTlAr3KW2dN92ySDZRfY360fM2iaN6kRwUUZ2jYxuHshwi2On2U72isoMeqkJWLjkadaa6Rbsxzuep3NWIfVSHOX2J5BPLVmNa6lz1mTR20v0yjmnJo/V5Ntaj9rtkYt8jbKbwT/JZQC/6m6SvuK26nhllZD5v1pEwc+OH3K1Rpmb9+W9eRDAGGAOMga3AwIaJPU3CFFxqTVI0ORLBoYk2c7Ik8mFN6uK9FAHQZUWZcnQwbYrYz6mjQaIjIjfNIPbivg6ejfzA53QcSluZclUiWWS0K03MRHt1WygQd07ZMwkmlZ9h8V2KpOl6zCL2FKgbEdPpFLMIFrU/1kkSW/Su+t4cHds4lPWldyysGfWKyiZZ2RbtLPnT84T7xHNU7k8Seyojoy+R/CKyq59374AkZZvUPbkH2e5qs95Z4Deqfwr/JJ8F9KLlSliI2kryzigj83l6T1wJMxnyTcpogfaa3+a/t2KyZQww7hkDjIFNYODWiL3TnYImRyI4pvuH80RWIvZ1DMzJT0zQKQIQA8q0KjaOqlZueOGrrSyUsRtD/K5QCpGguA1ZxH6KKG5gIXKt0+Z5DhKXQToIJFQnm6woF4sKulfJNtB7iSuVQfI3ZUpW6A0Te5NYziJY0YLIcqOg9tG7SqdEBj3EOjTkY+NQyoHeWYBAEm79tEWb6pO4zpI7Lc5cmIiwmK5TRDRJl1SGZ/UVreM0fgaoC2v9kikcxycVVN735SFmIv7FmYnKxNWif1P9U/16Cb3osggLdl+JFrZWGZnPm3UnzLjc3szn+G8m6YwBxgBjgDFwgxjYMLEXpFhnMnmd9t1NkRGRH1r7WjtPOtVk0//LyqsuSIA1OSeIVCJTTvrQp/GxCpB1kxptkUwc0pRN7KcyeFUsFPbSGXksxYoFh/AT9/bNIE9NODOJjfo9TczUfWpL5Hpkl/mpjS6l6KMyiAwmniU/9RI6zkWWQYwT72XfV3V2pwhUrjXJoN9ZBIt85r0MH2cVMBnHRSyHQ9GGZQgkLdAcgd1SNgF6x0bw9Uy5U7mOxd4yxD7aPUrKlPpFGj/U9xyZpGQbQgzeURCz0rHAb4lOYI1wP/9gNqrDzCvJKNWvST7pxQ3hJdpJ0bik+zdC7BfdpVmwj8yUCX+DyQFjgDHAGGAMWBjYOLGfXjZ1XnkHQUwFz6pMFVmnsSoy5yAOwrd9buCikSnHJgtmEKCZI10ITx/SFKVilALVxD6yyoeYfI+znkQ7BPt2mkyD9AYDmYnHc6VlFGVkEhv1jTQx09+OCJaPwp8dDK90Kr/rEGORCvI/xsFZVIYjG5CZDSVFiCxQLUpGqM7pIOUhmiJVoaUXImTp50VbiYj6RuwDyVf9lshktCQO4/ZbxPh6jK5OE2ru8FBdPV/k2Y+xINKmDt6UkikVU3IPMKEUmdGCIoPYy3MP0qQ2vUgW2WB0ZihxeJuls3TwLGX28eD5BdRE2lc6bfjHGP1XRZTMQ9S+dVA5SH53Nu6XzIpDMQL2wu2bTt0qdpKsBSfpwCb2lC0nhWPSwzzcXU10OlXC1xSTD2UZyG/uMC3aD/i5WI4sC5YFY4AxwBj4OQxsnthTfm9hmfaLaJyNMAkCjM+bqD7WxMMvovamiZ60JMcEPHfQxlC7lASfO6juu7b6Rd57kQu+hLbO254JEp3W0iaQ4vmIlOxU0Kb8+cFI5s9PZNWRBIms2XlUj3vovq2hZS0Iwi9teSCPt19F+2KMkA65CgOMzpoo7XjwH9TRd7rMUJuE5b+EtkVgplF+dA97Vgo/0ZbxPyr3eCr40S8nyNDkg0jRKPRSTebQ1ySQrOImgc2UrUUcXc8RsRcyic4ooJzoVt2m1xN0D9Vuj3/YNQ4JMzoAxU/4BdTPJipPuziw6lURfmpRpfPML4xDg+juV9A67aN30kDlsIsBnT2wX0H9TRsDqcM4C5OQe26/gMJDdUBYaveE3JxEfzjtoXPUQFcc2iVw+DU+PVnijsi1kG84QEPmxfdQPTUWD9MpRn/rXacnbYwJayJ4/IGW4eMGel8mCIIx+m+qKOqc7/7jGpqvKf3oGD0620DIyfiX6AOTnswZb9dhOh2h9V/qPf9ZO3FIWBRDYQe+Z+JG7JSpuucPWuieCzlVUP0wUOlzRZrNgzqaxwOdwjJA74XeHTT7xPUEnQNVp4J5GJVIUUq58u/X0TcC16mu/uMGumcdNI6sbEAiheYrUZa16Mtsi4FZfoatbYwBxgBjgDGwRgzcArFXk5o8zXI/J8lCbr+CpjhF9qIB/14ZzbOROhTKaGjqBM+DBrrRCZ76myd0uJNJQhzWTOO7Ird3+VkHE/Me/T3py5NY1WmtgpxV0DgdJXJfE2ENL1uSnHs7RTQ+JkkWPSMPuTptovqEToD1IE5GLRw00LnQRJTKpitZEQ1SpQiWaldEju3fLXea1Gmjhy1NQIXsyJ3BlJsrq4tewDgt+suTFVX3ElpnHdTodFZ9EmripNgMGaQsrkJmiZNkXacFJ+u5HA5DDN+W9cmueVTeDiUWhGU496iKVgq3AYbH8Sm4Eudn+mAo0q++jv+poeCL+lbQ/iJ2VSh+xNKJ0LPQLfl0J/QufPpd7xl9QCx06KRVcRLuQRP9iXKR233aRO+Ljd0Ao9MGKrqvqtOXiTwbO0m6HrFOXJgy6rHwybOGvn4M0XqqTsAVsmzJnRBRTg7Fw1ZcdydeGhg474s6uepqBvjTKcw+dv9ox6fuRjrUrld22t3od6MNfI8ncMYAY4AxwBi4QQzcGrGPyO4NNo7LWD+hEC4HfiK+YPUyiNh3tHWa9bW6LFl2tyg7uWCYH0PDOrpFHfE8w0SKMcAY+E0wwMT+N1H0+kiFcjGx/ZZX+T4TeyY6q+Dmrr0jYhdS7lU8rjCJYAwwBhgDjIFbwAAT+1sQ+l0jJkvXR/pqJ/3zl/6GyOhCgZ92zADrhAfDXwUD0pWvjbEZ+/Cr1J3ryf2MMcAYYAxsHQaY2DOoVwO1yOLztIGBEWS4FLkPBmg+VP7jiewqrI/V9MFy27zcBIZfuHzueSdmqbGAsbt57LLMWeaMga3FABN7BvdPgDvA4G0Tvf/VSGRMMbOnuP/+vxzPL3iYE+vrJ/TFhHNdhDP83EUrI5B+XWXwdxivjAHGAGOAMbAsBpjYM1FkosgYYAwwBhgDjAHGAGOAMbAFGGBivwVKXHY1x8+zBYAxwBhgDDAGGAOMAcbA9mGAiT0Te16hMwYYA4wBxgBjgDHAGGAMbAEGmNhvgRJ5xb19K27WKeuUMcAYYAwwBhgDjIFlMcDEnok9r9AZA4wBxgBjgDHAGGAMMAa2AANM7LdAicuu5vh5tgAwBhgDjAHGAGOAMcAY2D4MMLFnYs8rdMYAY4AxwBhgDDAGGAOMgS3AwK0T++BzB7XHu/A9D95OEdW3AwR3WrABRic1FO/5Mhd77lEVrU9B3BkmfTQP8siJ9vi7KB91MfpxUyvCAKMPzWT5d1p2i8kh/D5A+0URuScdTLagPYtYRIIvPTSf7sI/GsRY+tXb/r2Lyo6H3EF3/XoMBmi/ucm+tRhWF9EtP8OyZAwwBhgDjIFNYeBWif34pIzcsw7G11NMxUmm++ok0vyb4Y2Rm8lFB83DEgqamHteDvmHFTROBpiIeswkU2N0nuVQfj+WzwWfGsgLAu/l0bycIrxoIL+vT2O9Fs8q8u8f9ta/WPkxQvtFDb1v8+r8K/0eoP+mjtpjJTfvVon9BJ0nCo+pQ7bWWa9whM5RHRWNfY+J/Zw+aOBZ9IE/Kmh/CRd/Z2b/Nr7Nz7FMGQOMAcYAY+AXxMDtEfurHqq+h9pHY1L+Jix8Pgpvb4DYB0O0nuTg+UU0zkYIQj2JX4cYX7RRe+DD2ymh9a9hfbcUGvxThe/V0Kd3p1OMP1SQ8wtoXQ7R3PdQeKdIv1wg/Big8cBH7vm6ib1YNJTQ/rqlRORrGwWxYFongbZ0mV7AhegfOyzLV/1owendr6N/dTMyDz/W1Gm820Ts58p8GVmO0T527GbIPlZGZ6sWuMvIhZ9N92WWCcuEMcAY+H0xcGvEXpBkYQltXGxA+N96qAqLqD+DAEQW9jwaF8ZiIyInAXqHwoLbwCC6Z9T9sok9z0PpZHLDK9wQg6M89l7fwOLH1a7buPe9g9Kmif2PPmrP3K4/gyNtub9J0n3RYGI/C2tf2yhmyD/8VMee2Cm7MZc3o5/PqiP/dsNjH+uByRpjgDHAGJiHgVsj9sNXyt3i5on9GO1Hgpj5qP6TbY2XghLkQfrGl9H9boNniIafTewnH8qSmN00sRfuPntecXut9YIcbZzYhxi+ymfuEDCxt/vCpv8/QVe4tWUQ++l0jPZDD/lXQ4RMrplcMwYYA4wBxsBvjIFbI/ZElm6a2AenFWUJ9esJFxr3iidA90BZZ/2/+hZJGKAh/endFvvJSWkDxF4vUh62Md5m0G6Y2Acf6ypWIsP1h7CaTSzXQHTZYp8xEYUYvSur4PpMYj/F+F0BnldB94ZcpdzjxRr0vs39mNuWgWnGDfcnxgBj4OYwsHFiH5EkSZK1i4ODMAefu2hQdhnPx+7jKlrnaTeX4EsfnaMydqUbRYjh2xJy4vk/hL+0EQD5wibqbqGO3yuC7kW+9ETozbrqv48GIEKfCrD0SuiYVv9ghM6LEvI76t1UNp3pFLPbMsVUu/v4r9bhhhNCBBI3nu6iLN2HAgxel7ErdiX8XRRfdKxsPiEml120DovISYI1Ru/PAnwvh+KbpKV0ct5ClTIdieDkgwa6nzN2S64n6L+txlmG9itovm8mXHFsGceLQUs3LuI36cs6y3Z5HnL7JdRORjqYOcTwb4GXtG7jMqaIMGt/P5xgcNJE9VFOu5QJGVaUjkVGpLdJuUQDWTBC90g/J7FdQ+dv5ZrmXDzITEsFpRvx/NMGulHAqIHxqB0ae7RA0vfNNk2nE3QPcvB2KujO8U+P2i+/Y+Da+n5ytyqEyPQj8ZJYMCncNSMcTRF8aqKyn5O7artPWxhGLjUTjTFbP0YdiDx+qsuFdSLGhX7jKxNMxgBjgDHAGPhNMLBxYk/khshCkmwIsh1ifFyGv19F51KTwashOs/zcuIvvBpoS3qI4WkXnVdFZc170sHgQw3VFxWdqaaKXjBAXZOavf+/vet3baPp1vtfbGlwcQMpYvjAggv3RrxFBClecQ2fIIURX2GUIogUQbgwIoVZUli8xYvwhXDXEJCLgHwhyHAxyIWRi4BSBGRIoSLFFoEtXOgfeC6zM2d3Zn/IK1uWZeUUL8orr2bnnPPMzDNnzjmTt9KOIggidKd5oZN/IpG38Nhfuaisl+Cckzx9OEHllzXUTsR3eWQhr+Qc4vh/DdH92EZDVZ8pHw3QfV1A5a0DZ7eKYhByZMHadDAIBsIYvY8u2oENLFh7XfT3a6i/Ubp/Rs956L0rwH7ZRO+HzFPwf/TQVLJWP2mJxaJdlVxsv3TQV55W77KNCr1fJ4TXQ7SCkKpkXsboUG3GYsRbhC0V7QIaJ2OJmWsPvd2NgACaYRvKtvr7tAmAsGqQ7p99dFU2AKQAACAASURBVI7aMndD5IqcDNDaqcE56qJ3Qt/baJzG8jWCBHELhdcdjIIkbB/jE3ViILCaIkNhs4bOd6XP7x2VLyIStgmfZht6Qrr3qQpL+z2Nv8mE8Gyh8im5YY6eU+/wuqgHdomT6kinEbH30Bdj850Ys3oStPjexNHgoIbavovuaTfEV+K0jDYQMd0YfaRnVv00S8OlIT9/z6SFMcAYYAwwBiYTLB2x9y9ECUnbrJYTgDUjVt7voS7Iw7MSnDNFosYD9L97Uaz2LEmtFBKRSOwlIjQrsZfVcqrHMY81VX7RQ4SmySI8rK+k5zK5GSKCN9snVWLZ2GqaZTPFRkSR69KhRsapz89qoZfX+97HYCzfK/IM7LT4f5GYGrQny4JKQuKjL0i2XUcv9NDKdsLwqRjRJoKdkJ9sphM/VXWppFcpmkzgXzjBxmXtjV6p6BbEXk2ggw9yo1Dc7RklTUm3JlEfyRKaL5KhVIN92Y7xfCDDRlBKVSdxYduxdkT52OA+iM0mBmLTcEPFGO+sDecw770RdDIQJ/aT8NQqIvYKh1cZSdDq5Ml6HqsyRPiPJ6gTadftm1jAaBMvNvSzjQNdt/xv1h1jgDHAGGAMPGYMLBmxpxh3s6QkKTgkfAahUaTsTzcZd06E4CGJ/XkTtlVBR5FfkiXymOonA1NkmVDybtJjHbU542BUhDhByEQZz8NSzNuqJbXuppQdnAzgPLNgZXhMibiG3liVqJx6IVMGIZyF2Mv+l3OWQbw9sacwocRmg7Cn6co/bQTEO03fEzop0shr0LbdVKcmmm2p7QSufPTeyqT0wp6L9qtiRoUnra0EQc762y2IPfUztkELk6M1WSWG6R0Ns/IUtZN4Xu+rsqGV3Ajdenzk1o3eD/4365sxwBhgDDAGHg4Dy0Xsszx2tMDSAm8QmmmkjLx4FnLHpZP3N0EQiDjM5rEn4peMwY/ihiOiN10Wmby7GGI/Ie+87j0l/acRLHo+TuLIdqRXRVRlsmNGWBG9J9ZWfmJ/Q2lS6lP4OU3vU2LsJ5G3OpPYhzII0j3lxIX0o+mW5J2GncR7hZeeLno7GM7xWJJI9wwe+ww73kzsY++gdjTdJBcNGp9zHB8hPh5ugk7KyX1hnTAGGAOMAcZANgaWi9jTAq6TSWNxpcVbX/inkTIiIxasnLe/UtlKSw+RCfpA756N2Etyln4CkQTmNFno/XMkLlM89hOvi1qQn6DJS/ZJI1hETEMiGwMd/VbZlkhrtKnRnqdnY23RbxJklt4d9ovsnnZSor0nxNY0vc+L2FOfMuyXJUPGCUgSO5FcdEeEZdfQnVuVGOq/PvbkO2nzmrBlhh2Z2Ee2mmZH/hvriTHAGGAMMAZmxcByEftxB5WATGaFUBC51Y/qp5OyMHwnrHIzDSSRV3Vjj5J06Xl6t0Z0Q2IYeW7j5EZW2ckbHjBNFhXqkoj9p/7d4jMPsdeJJRG1kEBr77wQIUfCI63bRvs7/VaFTBFJL3/UYvhJn/TsHYi9zEewc16ANk3v8yf2jTNNLyRzgthP0N8V+pyxhOOVi+q2i95HGW9vv0oJUaN3zvT5WIi9HtqWoueZZObfz7qg8POMGcYAY4Ax8LAYWC5iLy6aUZVPEsmmYkFWXuQwTjtYpKeTsomI/VahCXHSnQAfEcpUT+ftiD3FVWcSrCsX7VMCwTRZKLzEQioxvA1hUWQytUSgCq0xbrgl/aQRe7+HRpAgm7GJUQmTlIxLXl5ru2MknQY2offcmthHFYTsjJMa73NbS7Kcpvd5EXvRjox/N3RKdksh9pTnUEhsMiVe/LM2Ot8JOypZdotuYBV4UfH2eStCUV9SPx8Lsc97SqPpLVVe/ntifmQ9zTG0jfHF+GIMMAbuBwNLRuwnEBU/jMoe2mIiSbJeWUUoRZEy3bOs/SYADlV5sSvZyZTXI7jidks7K+HwdsRe31isbTnoXVH5Qx/epYuaqAwSlD28WZapcelxmfP8P5HJlBr/gw+iVGEs7IIId8rzQs+jv2XCrf1K3CFgAjYgqfqGSVWtsawNNKiaEf0mI3mW5Dc3fR4GH1Sir5aoGoZ7WHZQZ9+jtsV9AecOyrv6vQZxDPkY/4iqGNHpglGxRrVH9x4kwoNIV/rm5NJRpVhTTqRSkmcnoY5sFN+4GPxU2Ln2MTptovSnXl1nBHe7auI7jLcvpCbRzlYVh06zYhu36xE6qgxq4vQlTQdCb2TfxAYxY/NA7YS48zBW5VTDhYFO+6bNAxoGwt/xd0xWGQOMAcYAY2CFMPAwxP5nDw1RQcWysBErEyhquvf3ZP3rte02BlTf/KuL2qaNypEZuuFdOCgFISAlOBcRGUss3OKdzwVxL6F5MoRHZFqQpPM26uJv61W0w4t/TGIqbifdCN6zgcZp7D3+CO0tKY+11cbo2vytf+mgpMpHmomQJuG6URZVScbSCexdwEjE3iqgdjSAF/SbaqIndT3+VJObLruWUuVHyKw2R5aN4m4XY6XjsSChtilrsBH4VFWXQxVQO+xj5HkYX7pobJeUrguo7rbgkl2JGNslNES9+OMWatsO+idNWcHHLqG+30JXebHD8o/CbusFFP8oovjUhrVJXm2yE4U5iX500Tmoo3WhSPTPXpiMKn7X02PWr8dw1U3FxdhlVN6J2qA+a6AXll/00X8vLvUSl4BJHI49D6NTB7WXqua7kOGDE8nwuaY2AwpfAQbF77VN6vUYXVEzfid5+jE8oHYraOuXhIU5FDnr2IsN0Wdl/80qWsc9dI+aqO500KdL3TaraHxoR3cSpOpAhK2p26D/aMmynIThsFZ+bIxRX4XOjrtw95ro6Je/id+rULDc91XQO/mTF3TGAGOAMcAYWCEMLJzYh95PIij0GfPe5bm9NLUt3UOaMJSP8Wkb9e1ieAOsuGW1uFVDS5D9GCGXmwPy1MeIlYp1D0NKSA76jPfDuAFV3caqbSLyyaLKgc7LK6mIffmvLty3pehm05d1uDoJ1G/wJfnEZ8xmUl8ehsdNdZOousV2p4VeotynJNXeVxd1dUut/bQkb4UVHt31EuqH/XBzQBu10ec6SuL23uB23I7cRImSok8raB4ln/cu2ghvwV0voLrfxShWN1+07V+2UBbtrpfQ/CI2buQ9TtrdErYlL7Kuj+CEI/13ukd/fEo3rYqbcKtwxI3KSgYnBYfGLcxC7p1WSJ4T/dRskobNKBwt/82zpPvgIrUDdTux0OXBIAijEu8JblIO+56lg/TvRZ/S+qrjS9hdXJxmP03ffMvTnBLaemhSYvzTRo4/I5uyLlgXjAHGAGNglTCwcGK/Ssp7CFnkBV5zIjBE7I9y3DzKJIk9GkuLAblhSCa882L1EHMUv5NxxxhgDDAGHg4DTOyXlqxkgUKGKs2FxDCxZ7L+6PCfMi5EiFYivCrluVWQlWXgMcsYYAwwBhgDUzDAxH6KcpZ3xyli2bOSfGcgNCphM5H0+Ch1MoPcLN8KTYpiLFTQ/k5J6YyD5Z232DZsG8YAY4AxcN8YYGL/WEmeqOLzr1gVlJlk8dDfL8qk05SE3/sGHrfPk9vdMSAwXM9MeL97+2wj1iFjgDHAGGAMPC4MMLGfiQwvm3F9DD85cP/3v1E2kjhTEj6Nv/8D/zD+Xz6vJ3jyQF42W3N/DEz6Q3T+6mAYVhxi/Rj6edTzGtuSbckYYAwwBm6LASb2vACuUFgGTwS3nQj4d4wdxgBjgDHAGGAMPH4MMLFnYs/EnjHAGGAMMAYYA4wBxgBjYAUwwMR+BYzIO+zHv8NmG7INGQOMAcYAY4AxwBi4KwaY2DOx5x06Y4AxwBhgDDAGGAOMAcbACmCAif0KGPGuuzv+PXsIGAOMAcYAY4AxwBhgDDx+DDCxZ2LPO3TGAGOAMcAYYAwwBhgDjIEVwAAT+xUwIu+wH/8Om23INmQMMAYYA4wBxgBj4K4YWGpi733rorVTwtpen3eRM21AfAz2i7DtIpyLB7iRc9xDa7eD0Ux9XvLBfO1heOKg8tTGb1Pv3x+jf1hHab0M98eS2ycv1vwBnOc27OcOBv6KyJRX9qznfnRQXbewtt3BOOuZx/T9Pdt4dNxE68zjNekxYYL7ynj9jTCwpMR+jN6Bg8Z2Qd6MuorE/oc79VIp+2kRxe0m3PPxLQbkwxF770sTtYMB/BUaRP5XF813VRTUpV4PSuzPm3JM3PMFY94XB403JdjBe5jY39WDstS/Z2I/8xzrfWmgstuDt0Lz3FJjlPU8M0bZnr+v42ZJib0yyKWDDUEsVpHYq4nK/94OCX7575EavD68Sxe1TXkjbOHd41hA/PMmim97K0Xqo8nRR+/t4m/o9U/b6CS85T5GHyuKdFsoH47uSecjtP8QMq8QsZ8rQfDRO1wRL/dc9bJKC2q2jUdHFRT3+vc09lZJhyxLtI6wLlgX94+B5Sb25NVeYWI/mYzhbknCWD6Keee/t1FSntnE35ZtIb5yUbGr6Py8f9A+1MTQ31s0sRebiUp6GAyNjXsl3YRNJvapmPvVQ/2VuxrhK8s2nyxLf6baeAR3y0bliBwyqzv3peJ/WWzE/WBvPmPAwAAT+wcHBJEnC0nyHv3N+qO9xDHrsp/2u1X11ssFe9HE3r9oopBF3JnYGxPZ4omHj8H7AqwtJvaL1/2iCPTNNva/1GHZlZRTtUX1kd+zuvhj27Jtb4cBJvZLTewnIDJpWU30H7yv6SDzTxtBWEj9ywMk6i5QJ2SLhcTY/+yhEYRiZXjLmdg/KLEXMdZBzgUT+we1w30u/Lls7PdQtyxs7A9WVg/3qWNuO31NZb2wXu6CgYcj9qJyyk4JT2wZ3rC2WUb9aGgmIxF5UaE43pmsSmJZNp78s4XBr6TxvbMWai+fqPhjG0+eV9E8iR2V/hyie1hH5akKc/g1hPtW9WW9hPrn2POKPI5P9bZlvy0tiTHucR+fOqg+V32xn6Cy18Ew0efIKx///WTiobuj3hN67H2MLztataARum+KsK01lD6opNVfI/SPmtkVXPLoPpT5JhmojxV0xkl7zAxOYZuDGkrrciPjf3NRf7EWJIyubVbhxKtR/ByiF8gqbelftlBet2A/rRpeNO9rB83tAtYCe9l48rKG1mks9EnbJBjP209Qeuui9VoPxemjqdle99yOj8pagmsaMfcwPG6iuinlsuwnKG476Cn9kQw6toJ/6yFpNDZSPPqimlT7bQVPVJhIoEM1JtZe1NG9SreTge/1Aqr7Lpw/hcwZMhzVUSYZ1kuoHfSj8ZuW5Kv6TxukQKYYMfYvHBRtG8X3N8Quh/Kr8aHpxmg/tiH2r/pw9yp4Ysc2yrnnBB+Dv8oKR+rdCgcL2fCJSkUa3ic/+3D+KecY+2kpmEONxHV/jMFxC7UXa7Ka01UX9ec2rPWSqpjlI6w+FrMFjV0DF9YaClt1uF9TqsJ4Yh4to7Au9bL2opZSPSZK7G+e3+AIeBQ2HsENxkgdPa6yxJsbbQ2h8cOf6esN6+X+9PIgxD5IsrQLaJyMZeLRtYfe7kZAhgrvtYoqNLHvdTE8rKN20EHvtIOWqpYTD/3wPtdgWxuof1aEzRuiFcSv22icqkXkWxedoyZKwYaiDPesi/pOHe3jHnrH9H0J7e+m0kWilG3JPgeAHHeVR9XCRiKBykd/r4DC6w5GwWTvY3RcCzx89vMWBsbgn0LsSX7LQuGD8AiN0fvoov2aqgV10d+voU7VS545GAj5jluoqA1TnGzk1v0kpwzKYzWPE4XxqYv2AVWfaaJ/6aD0oobGvoP6liLBlo3aZ0kq/MtOzJadwJZVlXQsn/MxOqzA3qzBvVRk5OcAbqDDdAI5+lTFmlVA7VglpfpjdN8pnVuWUe7SO6nLTWScFHk9NJ6lkeIROttrsF+1MVD5CGECdexIXxLUNFI9wSTEhvn34UkH7ntVzWbLRf9zHbW3bXROe+jQ9y/iYV0++u9FedQSnPNIR+1XttqgmO+YTEZwX4mNZB/e9QSTaw/9D/Kda6+7Ebn/OUDYxkv9nQM4/2ZHv9fGQ7gpspuxcWKOR1oUhn+VZB81Yh/87YqS0iMCL3TTOaCk4+j7ya3mBLWxi9tdk4X6OK9P/2sX7mEjmrsuu6htVlDfd9D4l9jcS0It5wqBkR7co3aYhN886cPZqaP+Utp148P/oX/cgUvYTsiicLHZQPeHmj/FSVKA6wKaeildkWMjNgshfvpwgvesoXaibwKi+c5+n8/Lvew2po3kqp9YzgvH3E76XMZ6Yb3MCwOLJ/Y/u6jZFkphBRhpTOmps7D2RiMGRF6ex7yMRCaNxZ8WDG3BnkwgyL7wDJY/6l548jKvoXo4NKoajP4uyuf1RNafHVTFormj9W0yAYWgWEY/5DttQbKNRT6qqlI61PtC/bZQ/jvqi/8j2jjYz5vo657+720URX+e1dBR3lfvex8DzWPe35WLvEHsZ9B9sEnKI8NFM53YGrLPMmCpEksR1UNtk6c2GoGX125o3jHS6wZK+8rLez3G4HwUEEwZp24jueiO0H4hdBRtFIJBdSXLkMbxOZkM4ASExiT2IcFOkCKyq0mKBx8KsOw6ero9J+OA7Ft2Ea2vka5uQ+wDGbwuagIf61W0v+leUdKt2Sf/rIENK0VHhPuYxz6QYbsTEfjA1tS2tokW3//qoxlstGxUPskN99RqIr+G6By00DH6HekkMfHRyUCc2E/oRMWcDyaTPhoBAY5/P+OcQO0n7D6lr7ceE3qbEd7Le10j70Y6HwSmTccEzWkbO3S3hIfR+QBjsSkTfVKY10+dxPfSUWK2NZkoj7u1hnpI2AdwNi1Uj3UCP8GE5iljvE7gf+ugdZB2eqnLqf17yW08+ihP6DYC54vW77nYm9tLjHnWK5+MMAamYmDhxH50KDxsZbgZ4QDGICZin1i0iTTpi7OP/u4ahEd8qBs9Y1HIJE3qeWMjcNZI9wrSBsM47pd9S/NGhd7IV3qJPJJFhI8UUaTQHcuCCE+qHfSiBZjkIr3sZl/cRV4kndjn131+GcafKlI3cyM4pA/dtmpx83toBCcR5iVRoS0TmPLQ2RZEJ/2Y3Duuyr6HHmwfvXfCm2kSX8Jk6maJbJGQn+TQ2qL+T7EbvUt8hnIlyl1me+zl77O9yWGboa7UBicemhJgjcIMNBkEobWtkKQn+2shgX2q7mRX0D5qovjKNQip3sbM/84Y34LAy1CpOI6yvp+i77Q5gdpP2P3+iVhowwQuaLNqJuLTvNM4y+hbKoZVW3/msNW52NynheKRrm00LzLeTXPatM8ltzHpN+74mRnL03TAf5tKZFjXdxhfjK2Vw9aCiT15xeKLbQYoacHJJPbphC0Y5GGstiB2yVr4mYtj2iJCxD5ByNTCZXjsaTFT7w28g/F/6/ITATQX46kTVaZeIj1K+XTv8iy6zy9DuKjNjeCQPnQdkVzkrTR1lWnL1I0XtaWTY0VKbng+qVOtjYT8JIdGitW9DMlcCq1P2iSbKZd4hjCQuglR9kv0icirhgvyqqY8G5Vi1WQI3xvHtPb/KW1F3uQaul66vFMxr+nFeC5tvAbPEobjOMr6nnSjyUrvTH1Hto6N/lEbc/ychgvyzut3f9AY1Tf5Rh/Jprrd6NQnMfcmbUftB/Ns6nxnjlfj3Xn0kqp/0Y8sW2Z9fz82DuXX9ZdHLn5m5QjVzNhmDDAG7gEDCyb2RHbSvDvJBSMkL4nFhdpJWYTHvSCZ7IlI3DoZwjtVN3XG2shcHNMWEfK0xkNTVKiCEeuvFsliLNQoe8CTLDMsfrQQx2TS35EkofSeHLqfQYb5L2rUzzghk/gYfJC5GDo5zrQl6ck4UdFxRgRA4eiG55M61Qh2YlEnOTSMKmwlPNoZAztTLvF82Fet/bCdbNKZkIHwnui/0FO2DMnQJl2vaf8eovXvkvyHMeBhf9Oez/kd9T8xFsi2cRxlfX8/pE8fk/P69zRcUOjhnYk94cs4XUy3iezPFCfLXe285Dae/xyYrud54YfbYf0yBlYbAwsn9p1XYnE3QykyQUaLS2LRTiEckwko6VEk5YZtZiwKmYtjxvMy6dRCYa+nEgZVQuV6DV3jUiYVw5uIQc4CEsly/8Q+v+7zyxASiVRimCXztO9JH3FCJn9DxF4nlpm2HHdQCTyIWaFfRPIaspQo4c1S/x8jJPI9mrdb/J1+k5Cf5NCI94z5CJly6e+9q8ee8J4acpEig4rHnq28n0jELqN50lXx9gXcWBElpvtwPMe/p/4n5giybRxHWd+vFrHXHQtEPGfy2NPYSQ3RMsevjDHfgHNpfp9ps7gNb/r/Jbcx6dfKsQmam05u0hn/PeIArAvWxW+GgQUT+wnoqNiOJaLShOd9bkdH9USaEot2CuGgZ9/GLknKWBQySVPG80HpyXdVVHdKstSdKIG400LfIPViYaM41yzy4qP/NyWxiedJlvsm9rPofgYZVHiJlUoMb7PQkz7SPIAUimPecJtpy9AWKYl9YqCrcIPoxEXGj1tWOkm5M7EPQ30KGSRogPZhVCkkWy5tQ3FXYk/jxjJ1Kscj2ULbnNDplV3JyJMZwT3sGQvJ6KiKKt3OeenI+u92fEN8G6xMMMkcr1kEPuv7x0bsi4nKXcJmcn418UvEcyZiL8bOH9IJQ1WoaI6Wnx66h7KYABURsLNyJ65ctE9vaV8xTpfcxqTfvCdxph7voJffjKyw3hgrjIF8GFg4sQ89nJYodzcwKmt45w7Kuxoxp2oNcbIekmGNcNDkH/OUhx5ltTnwf8kqITIRUvs9TZLUjrGZkKUfayd6hZFsBctqEhZElZP60QAe1Tf+NULvfQnlrKo4eiUe6k/aJ5GxhF6iPk0loTl0n1uGkKzGPaNRX2YbjEQmU4iLquoTLy8qZU15XlQu+qLKUW42MSA7KJ1KQmKS7KDii/DybyWTBlOTZ0n+eJjWVUeVGdRPCwSOZCiRtRlVNAr044/QeV01yFpcLv/HOBovhIEMYh9UfkmcIhB51U8dRO6FKn+4G68dn5Y8O0Goo/UynNMRfFVdxQ/KiBaj0rJC/+dNlGPlYCnePpUIzloVh3IE4uNelEoNTmvipy9TiH1QSSrvnKDa0e+X+CGrwoyPq3giavG/MavWzDYOsscPjW391Eq2LavTxKvbEPFMPq/eQViK4YV+Z4kyqBdaxZugvGlZs7N6r0j433LQu6J50od36aL2XK9idYuqOEtoY92Wg/dy/GTqN20O5++Mzb+uT/539thn3bBu8mBg8cReeJWCmvAq2W69gOIfRRSf2rA2zbKOo0N10c+zBnp6wp3XRT2ojrKBxqlacIT3VVVMKb1z0T1x4ezU4OypyidbDjqHTbRE7WW/j6YqXViLlWgLayZvtTGicnDqWHptS9W7P+2hR/+dDzH2aCEj0I3QpVrzsWSyOJkJa5hbFuydTrICTsoCMP4k6vWLjUMt/VKo6yFaQSlHK7aJyK97cfKQTwatkkxYaYX0cJtPIvYW7JdN9ML62aomegwjE28AR8ka3yjKASA3ZSKxb207qh3vfXVR27RRIU8y6VmUZxQX+Ah7vGyi+20Mzxuh96GGkqqPb7+sw9kn0hYR48J2C53TLty9Kmqf+nCDOxQsFLYbcA7V5U1h+UfpDX3yvIjiH+LirGRfKOyo8LqN7nEL9b+o/KeP0Ueqx26j8lHV21cyCDK9EeCuho5+opSFi6sOqupSIfGu/pUHbzyA+66KkhonQobWR7UR/zVQNcrVGNYwXtBIvPe1jYptbpwCm1Biprif4V3XwDzJHC8hmz2ZEam0EYx7cc/FThXOeVdVxbFReuOgRZfOfWspwl9GW8frrHNCWP60gNphF52DupxbQqeD1E26t/s24yL6DRF7sTkM72aguxbiJynXY3TUxi1rfgnvYojPs8F9BXIsBONnU2C1GFwqqNtZ2MYXGyl1d4aZRBs/uYzKxub3cC+bjSNbiBNXGeI456Rwmo/4kzcAjAHGwIwYeBBiLxYC76KN8IbY4JbLLkZhbe+I3OmLhEiYDBc1jUxQopi4sbMiNgjidsRtR4bJ+AM4z23YTytoXfrRsa7++yC5kjx5OllR3jt/gJa61EXvT/TvNO+cebuouBXSuJmTvGRGP9S7jdMCcxEhshi9O1bxh04c9HZjnrjputffd4MMBDYVjjMfjxXZvoHOmRPdzhpgJFb6M03WVA/2BInbM7eb6KTdnilkuh6jt19VN2hKLIlbYft74sZjB91vmvdSPP9rgJa6/VPcjtsKvJtCjrUgXCvx/PUI3T1qX9yCW0db94iSXkW7wcVcayiJ3A7xfarMEjci1CJzfKT9TsdFcGuoun1Z3bQ79EZShrdt9GmDRX0TOhI3BAfjTZRmraJ5HN3DYPZT94KnjbPotCf3zbPUD/EpblMNbieWupR3O4iwKnHbsxv2PU03QRJ2mm5umhMCMitvORa3uDa/RJgYHIjLvoqobBWSpT/1ft/y31KOMlonLup0y3ZoM238ZswxUUgOjTV9ztNPc0RbHgaHpp2dE3MjGW66jButxbhpptxHMMPNs7p+lszGoczqxC4K59P0r/ef/83kjDHAGFgQBh6M2IcT44IEvev7RkcO3G8ext/6kbdeeO1PXLT26yiv50wIfiTyzqYv4bWyMZ/FjchGRPZm6wsvrKyvJcHAWSN2Md58+kXE3k3UsZ9P+4yfGfQY1PDXN64z/HYl1wKWn8cPY+ChMcDEPsfkKkKHzLj4JHBFPGrmBTA53vHQQLjz+8WV8vY8Fjgm9ne2xe+At0cg42C/YuRMzMuuTOyT8++8dDtbOyIMby0ZzvcIsDmbnMuib+4H240xkAcDTOxvmoTVrZmlv4bZx0i/hmi9djC4qa0V/3tQEjSrMkZu2SlhM570yAM6z4DmZ5YDJ95ZE/V4/kbuMTBdhjDxX88RmFPbjJ/putf14581UHqnQuRYzywFrgAAAV1JREFU/9nrI+uGdcMYWCgGmNjfBDgt2VHEEdf32+hQ4qwIw9mtofSygZ6epHhTmyv8d0FoKu9Vouht5By7qAb5AVpi9G3a4d8sdCLRCc/v/W8P/cNWdv7GXXHp9eEEZSiTifG/t97zE/K56OnKRZ3yXu5qU/49z1WMAcbAHDHAxD6PMq/H6B85qG2J6iUq0cx+guJ2He2TUVSCME9bv8MzP/toffgf/KWqwhiJvqS/lM//THteT/D8HXTHMv42E3xaMu/UsfJf/xFUazKf4VyUuRD1Gcbd+EsL7TPtEsQZfrvovvL7FrzhYyz8NvP3Mo8tJvY8EHkgMgYYA4wBxgBjgDHAGGAMrAAGmNivgBGXeefIfWOPEWOAMcAYYAwwBhgDjIHFYICJPRN73qEzBhgDjAHGAGOAMcAYYAysAAaY2K+AEXkXvJhdMOuZ9cwYYAwwBhgDjAHGwDJj4P8BtzXY3w2p2pMAAAAASUVORK5CYII=;imageBorder=#FF0000;strokeWidth=3;" vertex="1" parent="WIyWlLk6GJQsqaUBKTNV-1">
          <mxGeometry x="202" y="550" width="288" height="318.02" as="geometry" />
        </mxCell>
        <mxCell id="pwtZONOBa_71WgFx0hv7-2" value="Client" style="shape=umlActor;verticalLabelPosition=bottom;verticalAlign=top;html=1;outlineConnect=0;fillColor=#d5e8d4;strokeColor=#82b366;" vertex="1" parent="WIyWlLk6GJQsqaUBKTNV-1">
          <mxGeometry x="60" y="650" width="30" height="60" as="geometry" />
        </mxCell>
        <mxCell id="pwtZONOBa_71WgFx0hv7-3" value="" style="endArrow=classic;html=1;exitX=1;exitY=0.3333333333333333;exitDx=0;exitDy=0;exitPerimeter=0;entryX=0.001;entryY=0.37;entryDx=0;entryDy=0;entryPerimeter=0;" edge="1" parent="WIyWlLk6GJQsqaUBKTNV-1" source="pwtZONOBa_71WgFx0hv7-2" target="pwtZONOBa_71WgFx0hv7-1">
          <mxGeometry width="50" height="50" relative="1" as="geometry">
            <mxPoint x="130" y="710" as="sourcePoint" />
            <mxPoint x="180" y="660" as="targetPoint" />
          </mxGeometry>
        </mxCell>
        <mxCell id="pwtZONOBa_71WgFx0hv7-6" style="edgeStyle=orthogonalEdgeStyle;rounded=0;orthogonalLoop=1;jettySize=auto;html=1;exitX=0;exitY=0;exitDx=60;exitDy=80;exitPerimeter=0;entryX=0.5;entryY=0;entryDx=0;entryDy=0;entryPerimeter=0;endArrow=oval;endFill=1;" edge="1" parent="WIyWlLk6GJQsqaUBKTNV-1" source="pwtZONOBa_71WgFx0hv7-4" target="pwtZONOBa_71WgFx0hv7-2">
          <mxGeometry relative="1" as="geometry" />
        </mxCell>
        <mxCell id="pwtZONOBa_71WgFx0hv7-8" value="" style="group" vertex="1" connectable="0" parent="WIyWlLk6GJQsqaUBKTNV-1">
          <mxGeometry x="12.33" y="543" width="130.33" height="83.5" as="geometry" />
        </mxCell>
        <mxCell id="pwtZONOBa_71WgFx0hv7-4" value="" style="shape=callout;whiteSpace=wrap;html=1;perimeter=calloutPerimeter;" vertex="1" parent="pwtZONOBa_71WgFx0hv7-8">
          <mxGeometry x="2.67" y="3.5" width="120" height="80" as="geometry" />
        </mxCell>
        <mxCell id="pwtZONOBa_71WgFx0hv7-7" value="" style="shape=image;verticalLabelPosition=bottom;labelBackgroundColor=#ffffff;verticalAlign=top;aspect=fixed;imageAspect=0;image=data:image/png,iVBORw0KGgoAAAANSUhEUgAAAIoAAAA/CAYAAAA/gFCiAAALeklEQVR4Ae1cv2vbTB+//0KjIUsgQzPFY8wzVJDhMRQeQ4dg3iG4w4vIUEwGIzoE0aGmQzEeCjYU5KGgDEVdCsrw4AwFZwg4kEFDBg0BDRn0D3xeTnen37Ll1En8tjcE2cr5dHffz32+P/T9HgmCAPJPrsEyDJBlDeT/JYgoBiRQJKNW0igSKBIoEihSba5PbUpGkYwiGUUyimSUSrtAAkUCRQLliVWmtFGeeMH/X1muAlB8TE8bUJQGjH/9zdzJvgtnrKO1o0A/z9DtjYn2FkHt0IRbBRT3HmZnRnFfVX4v2kRjamF0kxmTaPOU13BefXRe1tAcuyvL8RGB4kAnBKTgr3igBe1fjZYL98pC/1SDqrBn/QpQ/J8j6G/bqPMx5/qqKFj/p4n+iein+fxAuXUweN9Fe4+tUfH6LwZzBaAs7mAhld77mJ91o4UnL7qwbxewku/B7tVBiAL1nQ3Xr/5s56QEKBWFG8/Dh328jr5cjF7RfjYAKHwN5p+b4cbdPKCEA/Th9HYZs/w1wHyJ4PxvGkgVJsn04/TWIVwGzHX1xcC7OUBxxxsNlADB1QBqSOcqBleLWMKH9UZB9/sC1skARDDBuoRL+1tXX6wfCZQVDCIP1pESsory1oZfIuwQUHsGpmX/X3B/XcKVQCneyMttlLt5uUdx68A4rKNG2ULZRuNQg3GkFRtvFwZ2Q1Zpw7wtHsz0dBftiRcD8G4Gs9dGfYupFbJVR/NogKmX/30xUHx4lxb6RypqJerM+2lCT8xBPR6h/6ZIjbkwD2sgW22Y1/nnC2ZLXpOM4l+OoB1sQyEEyk4LxvcSz8NLz1nZUdH5YMO9L3nmCu0fT/VcWjAnfbQKPYopjD0Frc9zxhD3HqafWlBKjTdh3BHsnk5jMAiW8G10t7qwIwOW9k9AXvUx48Bwv2oMbC/ztk4eKB6ciYnRW2oc037yHtT8Sxs1Ukdnwufgu7BEe0IyrnbslbW+lAhZzIVfBVD6Yx3qQQfdUwPaPwws1GBvjeepdfCvBmgpdXTGU3gUGHRNx53QGVD2dTh3abCs2v7xgCImXORR/KtDIR1YqcFTj6E8buB/74Y7iiga7NTvAniTdhpA53qBhT6F8YLu9i6cQqFkhRsguB6hWQQUfl/9lBZWEIhn5PvyfgxgDB14mWcnWST5mQFFQevTLKVuvW/CE0zYL/4U+h6BcpxXzfNPKlPbR1b87FXbBwEeHyhFHgVXJc2Ps3jwdAHPRzBLA0ycJQiBOkwKiN7PGLpXIzSVGrSzhCoKBCslFliAuWiM9H83RUDxYb+lNlO+HyrodbnaglHyATdqtDP1JlxVulEo82nfCgz5WxPtUG3Ha7Rqezqv5wFKwHU21bn7bfTP5mnAlOw6MUHyQofD1UzINIfmgt/7cM9H0CPazgs4r3o4TRcBxbehhQuv55gpBEoZ6ErmlGSR5OdyoARwv7SYSuw5CIJlsRuxQQiY2lu1PVuLZwIKfTgNqBloRsZms9xIE4vsO9BD9UG44erBPNyFcZHWv2zBPczGGtSdbbR6Izg389Ig1kpAEeAhzweUgKtWEgIlBkJZNFjMjzHQqu2fHShCuF4CMHkjLbnL6Of5kOlcQl1hGmMpME6DOwf6vgLl9SAyZoN1qZ4IKHlbh45PCKVMaNn5lH1fxChhYJEQND9TFezCfM1VUfhdrGt8FWPq/qD3Vm3P+nkeRjkf5INnngWNekgvlsRCbi10Qk9KQX0v4xJz5nF61IZoZJ4hdtIvqp7AgR4+v5jJhFAeEyjzTw0QEtsc0eYpVME0DkVDELFXuGp7CuZnAopeYKFzI20ZUIIANGYSuq2Jycc7UwAiI8j7Gfp/0Z3HgXLnR95EqXAFe2Tc4+n72G3OvlYoM2Yf5vXkQU3ZsvuCoN5zovEHdzbbZKQOPfuWnoYOFIL6+0RYYdX2jw4UKpyXnBaTnkqoYxU0TizMuavr/aRxgOWqJwQEF2BhTCUIMPvABbnXRn9iwxxq6Bzr0EKg7EL7bMLo8dSBsjEGAbwzjbnk9IVkMlDHVRsFq3Kgw7p04Xlz2O87UPlbVuVAg3FqsfdTnoVOaAALgzJWCzHA0/empzXm1h7osK+5N3M7xeC1EqY9ZAHqn+vsBepWG4ML7u15M4ze1KG8HuXek63W3oN1zKLjuyf2AschPQcxt8WRWWFw8QVKBa7OdWzvN9DYFwEkgtpee7kxK4xaaum/bWZUS3KQc1jHahj1pdFJbcxiEe6EBslqUI+5AAVjJMcYGqmClRjIw7Fng2j3LuxTEfmtoX5owHapjaJg+x8D1mXaNV81MksXOfTWDhvY5qp2+6CDfllUlq6Na4eRZNaerak+yYQgojWs2j4OFop1iFg52deCz4uBsuCHAmnymgT37/tZAkVuhtRrhLKNL4EigSKBUrY75P3VVaRkFMkoklEkc6zOHGVrJhlFMopklLLdIe+vzjSSUSSjSEaRzLE6c5StmWQUyShPwCj+FAbNGdk3MI2SoteH4jJ0P9v9P22+iU30a4zypy3cnzbf1YEyx2BIczt/Y7Z48rn5sIcVT1h48rHl5VyNUWi6Ypjbme9AgueBa0ITj17na402dT0rAIXmZypgScAPXJQN2BGbJQAf03f1wqK0zRpnLO8lQPExC6v/iATKGsEeFYBl0jM3FSR0XAuA4sL6b4OlEaayx+IcUP/awajXwraSLnvI3XdtGLwmh9bd9i94WmAmwyzKWssKhaYDHjejGuTayw76P5LZZxT58clQ+nlBEVWiT5FkLLK94iTqTCZYRt3m5iX6vJ3BGmpo7fAqyTs6XpVltW2p0L6KYjcf049NVqudWtN8VeKmgWYBUDjtiFTDzKLNzkyYH2itMU01jIGSvW9d9NE56sP8bsM85YukdGBdzzD4Twva0IQ96aO9z/I50xWErCS0taXCOOfAoIXxB7RtDZ3CKkIC5V0iCVkIM3tN5NnGQGFzng/ZOSJJdZudV1TSSuuzaW1xmOrYxOiHBe1Iw2Biw56I+3G2PQMAB+TvwSiLgSIm3M0AJX2/hUEq75Tlo9KdXH9jYp6s0BeA/DuZRMxKUFMnHFCBXw3QoM/NZPD7lyb6H0zMMnXNZbuzNHNf5ApnNkcQOCieLy+nIDW0h+k6Y1aWQTLnpv2BQGHntMWMIoBSfH9RbYmg/URf57QQvgXT5aCNWEG0VaD/m/1f9e8PAUrZvFhfsVqOwMlBxwq9xNgkUHisRQgyIXQuZGEfiOLsaEFpUVaGnURbYUsUXfP9CGEsvz4lUJJqjDJTONc/SfVkhbtORmGC1BJnpiwXfgy85W0lUJavkVjPBxuziwGRZwfxQMESeSbI/4adYpipFozUT/VJimdnrxIo1ddwo4EiDt4pqpILhX49wuB79clKoDx8raoDJToJyIN7I+IUeRZgwii7v6IxS08/4uWdtVdGXJYZ+PAuRujsx0Xb9Lmrej3CI0l7VR6m7/lpCyfZ91vl8yo9KrTQg+L9RMep+nBvsnGhhws1uyHW8X05UETNraJCn1gY9fT4RKXLPj8WtIlB8gC8svuBB/uEFadn61/peWThEVok3Zd/YUSnUqeN2TrSgbX4SK1KcRSqwi4MVuurqOiOrTCe0zk04JyxY8GIokI77cMSR56WzStx5ksneVghraH+yEH3apAIB4ix1tEZWjA/aOhnC9PXqGKfBij0PJOvGhoKPc2wjcElYxOh35PCo3ZH0f3Q4hdxktCzEfXAzJ0s+k3KhknV49IaYR0mH0e8CNUjs/Fv2NxUehCQsg31mMd2qFu+04I+dqLTs0vHKBgjNS/q7Qn2EXOl19h99i/67ACiLRX6t81mE7peyxllw5CdFLL8/HTqSQJFboRKeUYSKBIoEihSNa1PNUlGkYwiGUUyimSUSrtAAkUCRQLliVXm/wBP1YquQJZXiAAAAABJRU5ErkJggg==;" vertex="1" parent="pwtZONOBa_71WgFx0hv7-8">
          <mxGeometry x="10" y="4.57" width="99.52" height="45.43" as="geometry" />
        </mxCell>
      </root>
    </mxGraphModel>
  </diagram>
</mxfile>
